<?xml version="1.0" encoding="UTF-8"?>
<!DOCTYPE svg PUBLIC "-//W3C//DTD SVG 1.0//EN" "http://www.w3.org/TR/2001/REC-SVG-20010904/DTD/svg10.dtd">
<!-- Creator: CorelDRAW X6 -->
<svg xmlns="http://www.w3.org/2000/svg" xml:space="preserve" width="290px" height="260px" version="1.0" shape-rendering="geometricPrecision" text-rendering="geometricPrecision" image-rendering="optimizeQuality" fill-rule="evenodd" clip-rule="evenodd"
viewBox="0 0 290000 260000"
 xmlns:xlink="http://www.w3.org/1999/xlink">
 <g id="Layer_x0020_1">
  <metadata id="CorelCorpID_0Corel-Layer"/>
  <g>
   <polygon fill="#5A5A6E" fill-opacity="0.211765" points="145000,140000 241619,156184 145101,201293 48483,185109 "/>
   <polygon id="1" fill="none" stroke="#5A5A6E" stroke-width="1500.09" stroke-linecap="round" stroke-linejoin="round" points="145000,140000 241619,156184 145101,201293 48483,185109 "/>
  </g>
  <polygon fill="#0196DC" fill-opacity="0.168627" points="48483,158953 48483,143974 145207,98900 241619,115049 241619,130028 145101,113861 "/>
  <polygon fill="#0196DC" fill-opacity="0.168627" points="48483,158953 48483,143974 145101,160159 241619,115049 241619,130028 145101,175137 "/>
  <g>
   <polygon fill="#0096DC" fill-opacity="0.168627" points="145000,113844 241619,130028 145101,175137 48483,158953 "/>
   <polygon id="1" fill="none" stroke="#0096DC" stroke-width="1000.06" stroke-linejoin="bevel" points="145000,113844 241619,130028 145101,175137 48483,158953 "/>
  </g>
  <polygon fill="none" stroke="#0096DC" stroke-width="1000.06" stroke-linejoin="bevel" points="145000,98865 241619,115049 145101,160159 48483,143974 "/>
  <path fill="#2B2A29" fill-rule="nonzero" d="M-312 -10645l821 -132c46,329 175,581 386,757 211,174 506,262 884,262 382,0 665,-77 851,-232 184,-155 276,-337 276,-546 0,-187 -83,-335 -248,-442 -116,-74 -400,-167 -849,-282 -607,-152 -1027,-284 -1263,-396 -235,-113 -412,-267 -534,-466 -121,-196 -182,-415 -182,-654 0,-219 50,-420 149,-605 101,-186 236,-340 408,-463 129,-94 305,-174 527,-240 223,-67 461,-99 715,-99 384,0 721,55 1010,166 291,110 505,261 643,450 137,190 233,443 285,761l-811 114c-37,-255 -144,-455 -320,-598 -176,-143 -425,-214 -747,-214 -379,0 -651,63 -813,189 -162,125 -244,273 -244,442 0,107 33,204 101,291 68,88 173,162 318,220 83,31 325,102 731,212 585,156 994,285 1227,384 232,99 415,245 547,434 134,190 200,426 200,709 0,276 -81,535 -242,779 -163,244 -395,432 -699,566 -305,134 -649,200 -1033,200 -636,0 -1122,-132 -1455,-395 -334,-264 -546,-654 -639,-1172zm8248 1463l0 -728c-380,555 -896,832 -1549,832 -288,0 -557,-55 -807,-165 -250,-112 -435,-251 -556,-417 -121,-168 -207,-373 -255,-615 -33,-164 -50,-422 -50,-774l0 -3031 830 0 0 2710c0,433 17,725 50,875 52,218 162,388 332,513 168,124 376,187 624,187 249,0 482,-63 699,-191 217,-127 371,-302 462,-520 90,-219 135,-538 135,-955l0 -2619 831 0 0 4898 -746 0zm2040 0l0 -4898 746 0 0 751c190,-348 366,-578 528,-688 162,-111 340,-166 533,-166 280,0 565,87 854,262l-295 766c-202,-113 -403,-170 -604,-170 -181,0 -343,55 -486,164 -143,108 -246,259 -307,453 -93,294 -138,616 -138,967l0 2559 -831 0zm3350 0l0 -4256 -736 0 0 -642 736 0 0 -519c0,-329 29,-572 87,-731 80,-214 219,-389 420,-522 200,-134 481,-200 843,-200 234,0 492,28 775,83l-124 727c-173,-30 -335,-46 -489,-46 -252,0 -430,54 -535,161 -104,107 -156,307 -156,599l0 448 953 0 0 642 -943 0 0 4256 -831 0zm5623 -613c-308,262 -605,446 -890,555 -285,108 -590,162 -917,162 -538,0 -952,-131 -1241,-393 -289,-261 -434,-597 -434,-1004 0,-239 55,-457 164,-656 109,-198 253,-355 429,-475 177,-119 376,-210 598,-272 163,-42 410,-83 738,-124 671,-79 1166,-174 1482,-285 3,-113 5,-185 5,-215 0,-337 -79,-574 -236,-713 -212,-187 -529,-280 -947,-280 -391,0 -681,70 -866,206 -188,137 -324,379 -414,729l-812 -114c74,-347 195,-629 365,-843 170,-213 415,-377 736,-494 320,-114 692,-172 1114,-172 418,0 760,48 1022,147 261,99 455,222 577,372 123,149 210,338 260,566 27,141 41,396 41,762l0 1101c0,769 17,1256 52,1462 33,206 102,402 203,591l-869 0c-83,-175 -136,-379 -160,-613zm-66 -1841c-302,123 -755,227 -1359,312 -343,49 -585,104 -726,165 -142,61 -251,151 -328,267 -77,118 -116,249 -116,394 0,218 83,402 252,548 168,147 413,221 736,221 319,0 604,-70 854,-210 248,-138 432,-328 549,-569 89,-187 133,-462 133,-825l5 -303zm5314 661l812 113c-90,559 -316,994 -683,1310 -366,316 -817,474 -1351,474 -668,0 -1206,-219 -1612,-656 -407,-437 -610,-1063 -610,-1878 0,-528 88,-989 262,-1386 175,-394 441,-692 800,-888 356,-198 745,-297 1167,-297 530,0 965,133 1302,402 338,269 555,651 650,1145l-803 123c-77,-329 -212,-576 -409,-743 -195,-165 -431,-248 -708,-248 -418,0 -758,149 -1020,448 -261,301 -392,772 -392,1420 0,658 126,1134 378,1432 253,297 582,446 986,446 327,0 599,-99 816,-298 219,-199 357,-505 415,-919zm4860 208l859 113c-134,498 -384,887 -748,1162 -365,275 -831,414 -1399,414 -714,0 -1280,-220 -1698,-661 -419,-439 -628,-1057 -628,-1851 0,-821 211,-1460 634,-1913 423,-454 972,-680 1647,-680 652,0 1186,221 1599,666 414,446 622,1071 622,1878 0,49 -2,123 -5,220l-3648 0c32,537 183,949 457,1234 272,284 613,427 1020,427 304,0 563,-80 777,-240 216,-161 386,-417 511,-769zm-2717 -1331l2727 0c-36,-412 -142,-720 -313,-926 -263,-320 -606,-480 -1026,-480 -380,0 -699,127 -959,382 -258,255 -401,596 -429,1024zm4295 887l0 -830 2567 0 0 830 -2567 0zm3454 2029l0 -6757 830 0 0 6757 -830 0zm1804 -2449c0,-904 251,-1574 756,-2010 420,-362 934,-542 1540,-542 672,0 1222,220 1650,660 426,439 640,1047 640,1823 0,629 -94,1123 -283,1483 -189,360 -464,640 -826,840 -360,200 -755,299 -1181,299 -686,0 -1239,-219 -1662,-658 -424,-438 -634,-1071 -634,-1895zm849 2c0,626 137,1094 411,1404 275,312 619,467 1036,467 412,0 755,-155 1030,-468 274,-313 411,-790 411,-1430 0,-604 -139,-1062 -414,-1371 -275,-312 -618,-468 -1027,-468 -417,0 -761,155 -1036,464 -274,310 -411,777 -411,1402zm7910 1834c-309,262 -606,446 -891,555 -284,108 -589,162 -916,162 -538,0 -952,-131 -1241,-393 -290,-261 -435,-597 -435,-1004 0,-239 56,-457 164,-656 110,-198 253,-355 429,-475 178,-119 376,-210 598,-272 164,-42 411,-83 739,-124 670,-79 1166,-174 1482,-285 3,-113 5,-185 5,-215 0,-337 -79,-574 -236,-713 -213,-187 -529,-280 -947,-280 -392,0 -681,70 -867,206 -187,137 -324,379 -413,729l-812 -114c74,-347 195,-629 365,-843 170,-213 415,-377 736,-494 319,-114 692,-172 1113,-172 419,0 760,48 1023,147 261,99 454,222 577,372 123,149 209,338 259,566 27,141 41,396 41,762l0 1101c0,769 18,1256 52,1462 33,206 102,402 203,591l-868 0c-83,-175 -137,-379 -160,-613zm-66 -1841c-302,123 -755,227 -1359,312 -343,49 -585,104 -727,165 -142,61 -250,151 -327,267 -77,118 -117,249 -117,394 0,218 84,402 252,548 168,147 414,221 736,221 320,0 604,-70 854,-210 249,-138 433,-328 549,-569 90,-187 134,-462 134,-825l5 -303zm5276 2454l0 -621c-310,483 -766,725 -1368,725 -390,0 -749,-107 -1074,-323 -327,-214 -581,-514 -762,-898 -179,-385 -268,-827 -268,-1327 0,-488 81,-930 243,-1327 164,-397 408,-702 733,-913 324,-212 689,-317 1090,-317 296,0 558,63 788,187 230,124 417,287 562,487l0 -2430 830 0 0 6757 -774 0zm-2623 -2443c0,626 132,1093 398,1403 264,310 577,464 937,464 363,0 672,-147 927,-443 253,-296 380,-747 380,-1354 0,-667 -129,-1158 -388,-1471 -258,-313 -578,-469 -957,-469 -369,0 -678,150 -926,450 -247,301 -371,774 -371,1420zm3946 4321l0 -594 5492 0 0 594 -5492 0zm6012 -1878l0 -4898 746 0 0 692c152,-239 357,-432 612,-577 255,-146 544,-218 870,-218 361,0 659,75 890,224 231,151 395,361 489,631 390,-571 895,-855 1518,-855 487,0 863,133 1124,402 263,269 395,683 395,1241l0 3358 -831 0 0 -3083c0,-330 -28,-569 -81,-715 -54,-147 -151,-263 -294,-352 -142,-90 -309,-134 -499,-134 -346,0 -632,115 -860,342 -228,230 -342,597 -342,1100l0 2842 -830 0 0 -3179c0,-368 -68,-644 -203,-829 -135,-184 -357,-276 -663,-276 -233,0 -449,61 -647,184 -198,122 -341,302 -431,539 -88,236 -132,577 -132,1023l0 2538 -831 0zm11060 -613c-308,262 -605,446 -890,555 -285,108 -590,162 -917,162 -538,0 -951,-131 -1241,-393 -289,-261 -434,-597 -434,-1004 0,-239 55,-457 164,-656 110,-198 253,-355 429,-475 178,-119 376,-210 598,-272 163,-42 410,-83 739,-124 670,-79 1165,-174 1482,-285 3,-113 4,-185 4,-215 0,-337 -78,-574 -236,-713 -212,-187 -528,-280 -947,-280 -391,0 -680,70 -866,206 -187,137 -324,379 -414,729l-811 -114c74,-347 195,-629 365,-843 169,-213 415,-377 736,-494 319,-114 692,-172 1113,-172 419,0 760,48 1023,147 261,99 454,222 577,372 123,149 209,338 259,566 27,141 41,396 41,762l0 1101c0,769 18,1256 52,1462 33,206 102,402 203,591l-868 0c-84,-175 -137,-379 -161,-613zm-66 -1841c-302,123 -755,227 -1359,312 -343,49 -585,104 -726,165 -142,61 -250,151 -328,267 -76,118 -116,249 -116,394 0,218 84,402 252,548 168,147 414,221 736,221 319,0 604,-70 854,-210 249,-138 433,-328 549,-569 90,-187 134,-462 134,-825l4 -303zm2116 -3359l0 -944 830 0 0 944 -830 0zm0 5813l0 -4898 830 0 0 4898 -830 0zm2096 0l0 -4898 746 0 0 695c358,-533 877,-798 1555,-798 296,0 566,53 813,158 247,106 433,246 556,417 122,172 209,376 257,612 30,154 46,423 46,807l0 3007 -830 0 0 -2976c0,-338 -32,-591 -96,-758 -65,-166 -180,-300 -343,-401 -164,-99 -357,-149 -577,-149 -353,0 -656,111 -913,336 -256,224 -383,650 -383,1276l0 2672 -831 0zm4484 1878l0 -594 5492 0 0 594 -5492 0zm6013 -7691l0 -944 830 0 0 944 -830 0zm0 5813l0 -4898 830 0 0 4898 -830 0zm4984 0l-830 0 0 -5288c-200,192 -463,382 -787,573 -324,190 -617,333 -874,428l0 -803c464,-217 869,-481 1217,-792 348,-310 594,-610 739,-903l535 0 0 6785zm1596 1878l0 -594 5492 0 0 594 -5492 0zm6211 -1878l0 -4256 -736 0 0 -642 736 0 0 -519c0,-329 28,-572 87,-731 80,-214 218,-389 420,-522 199,-134 481,-200 843,-200 234,0 492,28 775,83l-124 727c-173,-30 -335,-46 -489,-46 -252,0 -430,54 -535,161 -104,107 -156,307 -156,599l0 448 953 0 0 642 -943 0 0 4256 -831 0zm2112 -2449c0,-904 252,-1574 757,-2010 420,-362 934,-542 1540,-542 671,0 1222,220 1650,660 426,439 640,1047 640,1823 0,629 -95,1123 -284,1483 -188,360 -464,640 -825,840 -360,200 -755,299 -1181,299 -686,0 -1240,-219 -1663,-658 -423,-438 -634,-1071 -634,-1895zm850 2c0,626 137,1094 410,1404 275,312 620,467 1037,467 412,0 755,-155 1030,-468 273,-313 410,-790 410,-1430 0,-604 -138,-1062 -413,-1371 -275,-312 -618,-468 -1027,-468 -417,0 -762,155 -1037,464 -273,310 -410,777 -410,1402zm4701 2447l0 -4898 745 0 0 751c190,-348 367,-578 529,-688 162,-111 339,-166 533,-166 280,0 564,87 854,262l-296 766c-201,-113 -403,-170 -604,-170 -181,0 -343,55 -486,164 -143,108 -245,259 -306,453 -93,294 -139,616 -139,967l0 2559 -830 0zm6351 -1793l811 113c-89,559 -316,994 -682,1310 -367,316 -818,474 -1351,474 -669,0 -1207,-219 -1613,-656 -407,-437 -610,-1063 -610,-1878 0,-528 88,-989 263,-1386 174,-394 440,-692 799,-888 357,-198 745,-297 1167,-297 530,0 966,133 1302,402 338,269 555,651 650,1145l-802 123c-77,-329 -213,-576 -409,-743 -195,-165 -431,-248 -708,-248 -419,0 -758,149 -1021,448 -261,301 -391,772 -391,1420 0,658 125,1134 377,1432 253,297 582,446 986,446 327,0 599,-99 816,-298 219,-199 358,-505 416,-919zm4860 208l859 113c-134,498 -384,887 -749,1162 -365,275 -831,414 -1398,414 -714,0 -1280,-220 -1699,-661 -418,-439 -627,-1057 -627,-1851 0,-821 210,-1460 633,-1913 423,-454 972,-680 1647,-680 653,0 1186,221 1600,666 413,446 621,1071 621,1878 0,49 -2,123 -5,220l-3647 0c31,537 182,949 456,1234 272,284 613,427 1021,427 303,0 563,-80 777,-240 215,-161 385,-417 511,-769zm-2718 -1331l2727 0c-36,-412 -141,-720 -313,-926 -262,-320 -605,-480 -1025,-480 -381,0 -700,127 -960,382 -258,255 -401,596 -429,1024zm3861 4794l0 -594 5492 0 0 594 -5492 0zm9212 -1878l0 -728c-381,555 -897,832 -1549,832 -288,0 -557,-55 -807,-165 -250,-112 -436,-251 -557,-417 -121,-168 -206,-373 -255,-615 -33,-164 -50,-422 -50,-774l0 -3031 830 0 0 2710c0,433 18,725 51,875 52,218 162,388 332,513 168,124 376,187 624,187 249,0 481,-63 698,-191 217,-127 371,-302 463,-520 89,-219 135,-538 135,-955l0 -2619 830 0 0 4898 -745 0zm2049 0l0 -4898 746 0 0 695c358,-533 877,-798 1555,-798 296,0 566,53 813,158 247,106 433,246 556,417 122,172 209,376 258,612 29,154 45,423 45,807l0 3007 -830 0 0 -2976c0,-338 -32,-591 -96,-758 -65,-166 -180,-300 -343,-401 -164,-99 -357,-149 -577,-149 -353,0 -656,111 -913,336 -256,224 -383,650 -383,1276l0 2672 -831 0zm5248 -5813l0 -944 831 0 0 944 -831 0zm0 5813l0 -4898 831 0 0 4898 -831 0zm2295 0l0 -4256 -736 0 0 -642 736 0 0 -519c0,-329 28,-572 87,-731 80,-214 218,-389 420,-522 199,-134 481,-200 843,-200 234,0 492,28 775,83l-124 727c-173,-30 -335,-46 -489,-46 -252,0 -430,54 -535,161 -104,107 -156,307 -156,599l0 448 953 0 0 642 -943 0 0 4256 -831 0zm2112 -2449c0,-904 252,-1574 757,-2010 420,-362 934,-542 1540,-542 671,0 1222,220 1650,660 426,439 640,1047 640,1823 0,629 -95,1123 -284,1483 -188,360 -464,640 -825,840 -360,200 -755,299 -1181,299 -686,0 -1240,-219 -1663,-658 -423,-438 -634,-1071 -634,-1895zm850 2c0,626 137,1094 410,1404 275,312 620,467 1037,467 412,0 755,-155 1030,-468 273,-313 410,-790 410,-1430 0,-604 -138,-1062 -413,-1371 -275,-312 -618,-468 -1027,-468 -417,0 -762,155 -1037,464 -273,310 -410,777 -410,1402zm4701 2447l0 -4898 745 0 0 751c190,-348 367,-578 529,-688 162,-111 339,-166 533,-166 280,0 564,87 854,262l-296 766c-201,-113 -403,-170 -604,-170 -181,0 -343,55 -486,164 -143,108 -245,259 -306,453 -93,294 -139,616 -139,967l0 2559 -830 0zm3152 0l0 -4898 745 0 0 692c153,-239 357,-432 612,-577 255,-146 544,-218 870,-218 361,0 659,75 890,224 231,151 395,361 489,631 390,-571 895,-855 1518,-855 487,0 863,133 1124,402 263,269 395,683 395,1241l0 3358 -830 0 0 -3083c0,-330 -29,-569 -82,-715 -54,-147 -151,-263 -294,-352 -142,-90 -308,-134 -499,-134 -346,0 -632,115 -860,342 -228,230 -342,597 -342,1100l0 2842 -830 0 0 -3179c0,-368 -68,-644 -203,-829 -135,-184 -357,-276 -663,-276 -233,0 -449,61 -647,184 -198,122 -341,302 -431,539 -88,236 -132,577 -132,1023l0 2538 -830 0zm8096 0l0 -944 944 0 0 944 -944 0zm2056 -1463l821 -132c45,329 174,581 385,757 211,174 507,262 884,262 382,0 665,-77 851,-232 184,-155 277,-337 277,-546 0,-187 -84,-335 -249,-442 -116,-74 -399,-167 -849,-282 -607,-152 -1027,-284 -1263,-396 -234,-113 -412,-267 -533,-466 -121,-196 -183,-415 -183,-654 0,-219 51,-420 150,-605 101,-186 236,-340 407,-463 129,-94 305,-174 527,-240 223,-67 461,-99 716,-99 384,0 720,55 1009,166 291,110 505,261 644,450 137,190 233,443 284,761l-811 114c-36,-255 -143,-455 -320,-598 -176,-143 -424,-214 -746,-214 -379,0 -652,63 -814,189 -162,125 -244,273 -244,442 0,107 34,204 101,291 68,88 173,162 318,220 83,31 326,102 731,212 585,156 994,285 1227,384 233,99 415,245 547,434 134,190 200,426 200,709 0,276 -80,535 -242,779 -162,244 -395,432 -699,566 -305,134 -649,200 -1033,200 -635,0 -1121,-132 -1455,-395 -333,-264 -545,-654 -638,-1172zm6387 1463l-1848 -4898 889 0 1047 2934c113,316 219,644 315,986 74,-258 176,-568 309,-931l1089 -2989 852 0 -1854 4898 -799 0zm3228 406l802 113c33,249 127,429 281,544 206,153 488,230 845,230 384,0 681,-77 890,-230 209,-152 351,-368 425,-643 42,-168 63,-522 60,-1062 -364,428 -815,642 -1356,642 -673,0 -1196,-242 -1564,-728 -369,-485 -553,-1067 -553,-1744 0,-468 85,-898 253,-1293 168,-395 414,-699 734,-914 321,-216 699,-322 1133,-322 577,0 1054,235 1428,707l0 -604 764 0 0 4230c0,762 -77,1302 -232,1620 -154,317 -401,569 -736,753 -337,184 -751,277 -1241,277 -584,0 -1054,-131 -1413,-393 -360,-262 -533,-656 -520,-1183zm679 -2938c0,640 127,1107 382,1401 257,294 576,442 960,442 382,0 701,-146 961,-439 258,-292 387,-751 387,-1378 0,-597 -134,-1049 -400,-1352 -266,-304 -587,-455 -961,-455 -369,0 -683,150 -942,449 -258,299 -387,742 -387,1332z"/>
  <path fill="#0096DC" fill-rule="nonzero" d="M190588 93623l1536 0 0 914c200,-312 468,-564 808,-758 340,-192 718,-288 1132,-288 722,0 1336,284 1840,852 504,566 756,1358 756,2370 0,1042 -254,1850 -762,2428 -508,578 -1124,866 -1848,866 -344,0 -656,-68 -936,-206 -278,-136 -574,-370 -882,-702l0 3116 -1644 0 0 -8592zm1620 3018c0,702 138,1220 416,1556 276,334 614,502 1010,502 382,0 700,-154 954,-462 254,-308 380,-812 380,-1514 0,-656 -130,-1142 -392,-1460 -260,-318 -584,-476 -970,-476 -402,0 -736,156 -1000,468 -266,312 -398,774 -398,1386z"/>
  <g>
   <path fill="#0096DC" fill-rule="nonzero" d="M145602 160159l-1001 0 1 -26 2 -25 3 -26 5 -24 5 -24 7 -24 8 -23 9 -23 10 -22 11 -22 12 -21 13 -20 14 -20 15 -19 15 -18 17 -17 17 -17 18 -15 19 -15 20 -14 20 -13 21 -12 22 -11 22 -10 23 -9 23 -8 23 -7 25 -5 24 -5 25 -3 26 -2 25 0 26 0 26 2 25 3 24 5 24 5 24 7 23 8 23 9 22 10 22 11 21 12 20 13 20 14 19 15 18 15 17 17 17 17 15 18 15 19 14 20 13 20 12 21 11 22 10 22 9 23 8 23 7 24 5 24 5 24 3 26 2 25 1 26zm-1001 9130l0 -9130 1001 0 0 9130 -1001 0zm500 5848l-3086 -6171 6171 0 -3085 6171zm-500 -5848l1001 0 -1 25 -2 26 -3 25 -5 24 -5 25 -7 23 -8 23 -9 23 -10 23 -11 21 -12 21 -13 20 -14 20 -15 19 -15 18 -17 17 -17 17 -18 15 -19 15 -20 14 -20 13 -21 12 -22 11 -22 10 -23 9 -23 8 -24 7 -24 5 -24 5 -25 3 -26 2 -26 1 -25 -1 -26 -2 -25 -3 -24 -5 -25 -5 -23 -7 -23 -8 -23 -9 -22 -10 -22 -11 -21 -12 -20 -13 -20 -14 -19 -15 -18 -15 -17 -17 -17 -17 -15 -18 -15 -19 -14 -20 -13 -20 -12 -21 -11 -21 -10 -23 -9 -23 -8 -23 -7 -23 -5 -25 -5 -24 -3 -25 -2 -26 -1 -25z"/>
  </g>
  <g>
   <path fill="#0096DC" fill-rule="nonzero" d="M97292 152066l-1000 0 1 -25 2 -26 3 -25 4 -24 6 -25 6 -23 8 -23 9 -23 10 -22 11 -22 12 -21 13 -20 15 -20 14 -19 16 -18 17 -17 17 -17 18 -15 19 -15 20 -14 20 -13 21 -12 21 -11 22 -10 23 -9 24 -8 23 -7 24 -5 25 -5 25 -3 25 -2 26 -1 26 1 25 2 25 3 25 5 24 5 24 7 23 8 23 9 22 10 21 11 21 12 21 13 19 14 19 15 18 15 18 17 16 17 16 18 15 19 14 20 13 20 12 21 11 22 10 22 9 23 8 23 6 23 6 25 4 24 4 25 2 26 0 25zm-1000 9131l0 -9131 1000 0 0 9131 -1000 0zm500 5848l-3086 -6171 6170 0 -3084 6171zm-500 -5848l1000 0 0 25 -2 26 -4 25 -4 24 -6 25 -6 23 -8 23 -9 23 -10 22 -11 22 -12 21 -13 20 -14 20 -15 19 -16 18 -16 17 -18 17 -18 15 -19 15 -19 14 -21 13 -21 12 -21 11 -22 10 -23 9 -23 8 -24 7 -24 5 -25 5 -25 3 -25 2 -26 1 -26 -1 -25 -2 -25 -3 -25 -5 -24 -5 -23 -7 -24 -8 -23 -9 -22 -10 -21 -11 -21 -12 -20 -13 -20 -14 -19 -15 -18 -15 -17 -17 -17 -17 -16 -18 -14 -19 -15 -20 -13 -20 -12 -21 -11 -22 -10 -22 -9 -23 -8 -23 -6 -23 -6 -25 -4 -24 -3 -25 -2 -26 -1 -25z"/>
  </g>
  <g>
   <path fill="#0096DC" fill-rule="nonzero" d="M48983 143974l-1000 0 0 -25 2 -26 3 -25 5 -24 5 -25 7 -23 8 -23 9 -23 10 -22 11 -22 12 -21 13 -20 14 -20 15 -19 15 -18 17 -17 17 -17 19 -15 19 -15 19 -14 20 -13 21 -12 22 -11 22 -10 23 -9 23 -8 24 -7 24 -5 24 -5 26 -3 25 -2 26 -1 25 1 26 2 25 3 24 5 25 5 23 7 23 8 23 9 22 10 22 11 21 12 20 13 20 14 19 15 18 15 17 17 17 17 15 18 15 19 14 20 13 20 12 21 11 22 10 22 9 23 8 23 7 23 5 25 5 24 3 25 2 26 1 25zm-1000 9131l0 -9131 1000 0 0 9131 -1000 0zm500 5848l-3087 -6171 6171 0 -3084 6171zm-500 -5848l1000 0 -1 25 -2 26 -3 25 -5 24 -5 25 -7 23 -8 23 -9 23 -10 22 -11 22 -12 21 -13 20 -14 20 -15 19 -15 18 -17 17 -17 17 -18 15 -19 15 -20 14 -20 13 -21 12 -22 11 -22 10 -23 9 -23 8 -23 7 -25 5 -24 5 -25 3 -26 2 -25 1 -26 -1 -25 -2 -26 -3 -24 -5 -24 -5 -24 -7 -23 -8 -23 -9 -22 -10 -22 -11 -21 -12 -20 -13 -19 -14 -19 -15 -19 -15 -17 -17 -17 -17 -15 -18 -15 -19 -14 -20 -13 -20 -12 -21 -11 -22 -10 -22 -9 -23 -8 -23 -7 -23 -5 -25 -5 -24 -3 -25 -2 -26 0 -25z"/>
  </g>
  <g>
   <path fill="#0096DC" fill-rule="nonzero" d="M242119 115049l-1000 0 0 -25 2 -26 3 -25 5 -24 6 -25 6 -23 8 -23 9 -23 10 -22 11 -22 12 -21 13 -20 14 -20 15 -19 16 -18 16 -17 18 -17 18 -15 19 -15 19 -14 20 -13 21 -12 22 -11 22 -10 23 -9 23 -8 24 -7 24 -5 25 -5 25 -3 25 -2 26 -1 26 1 25 2 25 3 24 5 25 5 23 7 24 8 23 9 22 10 21 11 21 12 20 13 20 14 19 15 18 15 17 17 17 17 16 18 14 19 15 20 13 20 12 21 11 22 9 22 10 23 7 23 7 23 6 25 4 24 3 25 2 26 1 25zm-1000 9131l0 -9131 1000 0 0 9131 -1000 0zm500 5848l-3087 -6171 6171 0 -3084 6171zm-500 -5848l1000 0 -1 25 -2 26 -3 25 -4 24 -6 25 -7 23 -7 23 -10 23 -9 22 -11 22 -12 21 -13 20 -15 20 -14 19 -16 18 -17 17 -17 17 -18 15 -19 15 -20 14 -20 13 -21 12 -21 11 -22 10 -23 9 -24 8 -23 7 -25 5 -24 5 -25 3 -25 2 -26 1 -26 -1 -25 -2 -25 -3 -25 -5 -24 -5 -24 -7 -23 -8 -23 -9 -22 -10 -22 -11 -21 -12 -20 -13 -19 -14 -19 -15 -18 -15 -18 -17 -16 -17 -16 -18 -15 -19 -14 -20 -13 -20 -12 -21 -11 -22 -10 -22 -9 -23 -8 -23 -6 -23 -6 -25 -5 -24 -3 -25 -2 -26 0 -25z"/>
  </g>
  <g>
   <path fill="#0096DC" fill-rule="nonzero" d="M145707 98769l-1000 0 0 -26 2 -25 3 -26 5 -24 5 -24 7 -24 8 -23 9 -23 10 -22 11 -22 12 -21 13 -20 14 -19 15 -19 15 -19 17 -17 17 -17 19 -15 19 -15 19 -14 20 -13 21 -12 22 -11 22 -10 23 -9 23 -8 24 -7 24 -5 24 -5 26 -3 25 -2 26 0 25 0 26 2 25 3 24 5 25 5 23 7 23 8 23 9 22 10 22 11 21 12 20 13 20 14 19 15 18 15 17 17 17 17 15 19 15 19 14 19 13 20 12 21 11 22 10 22 9 23 8 23 7 24 5 24 5 24 3 26 2 25 1 26zm-1000 9130l0 -9130 1000 0 0 9130 -1000 0zm500 5848l-3087 -6171 6171 0 -3084 6171zm-500 -5848l1000 0 -1 26 -2 25 -3 25 -5 24 -5 25 -7 23 -8 24 -9 22 -10 23 -11 21 -12 21 -13 20 -14 20 -15 19 -15 18 -17 17 -17 17 -18 16 -19 14 -20 14 -20 14 -21 11 -22 11 -22 10 -23 9 -23 8 -23 7 -25 6 -24 4 -25 3 -26 2 -25 1 -26 -1 -25 -2 -26 -3 -24 -4 -24 -6 -24 -7 -23 -8 -23 -9 -22 -10 -22 -11 -21 -11 -20 -14 -19 -14 -19 -14 -19 -16 -17 -17 -17 -17 -15 -18 -15 -19 -14 -20 -13 -20 -12 -21 -11 -21 -10 -23 -9 -22 -8 -24 -7 -23 -5 -25 -5 -24 -3 -25 -2 -25 0 -26z"/>
  </g>
  <g>
   <path fill="#0096DC" fill-rule="nonzero" d="M193860 137604l-1000 0 1 -26 2 -25 3 -25 4 -25 6 -24 7 -24 7 -23 10 -23 9 -22 12 -22 11 -21 13 -20 15 -19 14 -19 16 -18 17 -18 17 -16 18 -16 19 -15 20 -14 20 -13 21 -12 21 -11 22 -10 23 -9 24 -8 23 -6 25 -6 24 -5 25 -3 25 -2 26 0 26 0 25 2 25 3 25 5 24 6 24 6 23 8 23 9 22 10 22 11 21 12 20 13 19 14 19 15 18 16 18 16 16 18 16 18 15 19 14 19 13 20 12 21 11 22 10 22 9 23 8 23 6 24 6 24 5 25 3 25 2 25 0 26zm-1000 9130l0 -9130 1000 0 0 9130 -1000 0zm500 5848l-3086 -6171 6171 0 -3085 6171zm-500 -5848l1000 0 0 26 -2 25 -3 25 -5 25 -6 24 -6 23 -8 24 -9 23 -10 22 -11 21 -12 21 -13 20 -14 20 -15 19 -16 18 -16 17 -18 17 -18 16 -19 14 -19 15 -20 13 -21 12 -22 11 -22 10 -23 9 -23 8 -24 6 -24 6 -25 4 -25 3 -25 2 -26 1 -26 -1 -25 -2 -25 -3 -24 -4 -25 -6 -23 -6 -24 -8 -23 -9 -22 -10 -21 -11 -21 -12 -20 -13 -20 -15 -19 -14 -18 -16 -17 -17 -17 -17 -16 -18 -14 -19 -15 -20 -13 -20 -11 -21 -12 -21 -9 -22 -10 -23 -7 -24 -7 -23 -6 -24 -4 -25 -3 -25 -2 -25 -1 -26z"/>
  </g>
  <g>
   <path fill="#0096DC" fill-rule="nonzero" d="M97292 121396l-1000 0 1 -26 2 -25 3 -25 4 -24 6 -25 6 -23 8 -24 9 -23 10 -22 11 -21 12 -21 13 -20 15 -20 14 -19 16 -18 17 -17 17 -17 18 -16 19 -14 20 -15 20 -13 21 -11 21 -12 22 -9 23 -10 24 -7 23 -7 24 -6 25 -4 25 -3 25 -2 26 -1 26 1 25 2 25 3 25 4 24 6 24 7 23 7 23 10 22 9 21 12 21 11 21 13 19 15 19 14 18 16 18 17 16 17 16 18 15 19 14 20 13 20 12 21 11 21 10 22 9 23 8 24 6 23 6 25 4 24 4 25 2 25 0 26zm-1000 9130l0 -9130 1000 0 0 9130 -1000 0zm500 5848l-3086 -6171 6170 0 -3084 6171zm-500 -5848l1000 0 0 26 -2 25 -4 26 -4 24 -6 24 -6 24 -8 23 -9 23 -10 22 -11 22 -12 21 -13 20 -14 19 -15 19 -16 18 -16 18 -18 17 -18 15 -19 15 -19 14 -21 13 -21 12 -21 11 -22 10 -23 9 -23 8 -24 6 -24 6 -25 5 -25 3 -25 2 -26 0 -26 0 -25 -2 -25 -3 -25 -5 -24 -6 -23 -6 -24 -8 -23 -9 -22 -10 -21 -11 -21 -12 -20 -13 -20 -14 -19 -15 -18 -15 -17 -17 -17 -18 -16 -18 -14 -19 -15 -19 -13 -20 -12 -21 -11 -22 -10 -22 -9 -23 -8 -23 -6 -24 -6 -24 -4 -24 -3 -26 -2 -25 -1 -26z"/>
  </g>
  <g>
   <path fill="#0096DC" fill-rule="nonzero" d="M65084 146671l-1000 0 0 -25 2 -26 3 -25 5 -24 6 -25 6 -23 8 -23 9 -23 10 -23 11 -21 12 -21 13 -20 14 -20 15 -19 15 -18 17 -17 17 -17 19 -15 19 -15 19 -14 20 -13 21 -12 22 -11 22 -10 23 -9 23 -8 24 -7 24 -6 24 -4 26 -3 25 -2 26 -1 25 1 26 2 25 3 24 4 25 6 23 7 23 8 23 9 23 10 21 11 21 12 20 13 20 14 19 15 18 15 17 17 17 17 15 18 15 19 14 20 13 20 12 21 11 21 10 23 9 23 8 23 7 23 6 25 4 24 3 25 2 26 1 25zm-1000 9130l0 -9130 1000 0 0 9130 -1000 0zm500 5849l-3087 -6171 6171 0 -3084 6171zm-500 -5849l1000 0 -1 26 -2 25 -3 26 -4 24 -6 24 -7 24 -8 23 -9 23 -10 22 -11 22 -12 21 -13 20 -14 19 -15 19 -15 19 -17 17 -17 17 -18 15 -19 15 -20 14 -20 13 -21 12 -21 11 -23 10 -23 9 -23 8 -23 7 -25 5 -24 5 -25 3 -26 2 -25 0 -26 0 -25 -2 -26 -3 -24 -5 -24 -5 -24 -7 -23 -8 -23 -9 -22 -10 -22 -11 -21 -12 -20 -13 -19 -14 -19 -15 -19 -15 -17 -17 -17 -17 -15 -19 -15 -19 -14 -19 -13 -20 -12 -21 -11 -22 -10 -22 -9 -23 -8 -23 -6 -24 -6 -24 -5 -24 -3 -26 -2 -25 0 -26z"/>
  </g>
  <g>
   <path fill="#0096DC" fill-rule="nonzero" d="M81185 149368l-1000 0 0 -26 2 -25 3 -25 5 -24 6 -25 6 -23 8 -24 9 -23 10 -22 11 -21 12 -21 13 -20 14 -20 15 -19 16 -18 16 -17 18 -17 18 -16 19 -14 19 -15 20 -13 21 -11 22 -12 22 -9 23 -10 23 -7 24 -7 24 -6 25 -4 25 -3 25 -2 26 -1 26 1 25 2 25 3 24 4 25 6 23 7 24 7 22 10 23 9 21 12 21 11 20 13 20 15 19 14 18 16 17 17 17 17 16 18 14 19 14 20 14 20 11 21 11 21 10 22 9 23 8 24 7 23 6 25 4 24 3 25 2 25 1 26zm-1000 9130l0 -9130 1000 0 0 9130 -1000 0zm500 5848l-3087 -6171 6171 0 -3084 6171zm-500 -5848l1000 0 -1 26 -2 25 -3 26 -4 24 -6 24 -7 24 -8 23 -9 23 -10 22 -11 22 -11 21 -14 20 -14 19 -14 19 -16 18 -17 18 -17 16 -18 16 -19 15 -20 14 -20 13 -21 12 -21 11 -23 10 -22 9 -24 8 -23 6 -25 6 -24 5 -25 3 -25 2 -26 0 -26 0 -25 -2 -25 -3 -25 -5 -24 -6 -24 -6 -23 -8 -23 -9 -22 -10 -22 -11 -21 -12 -20 -13 -19 -14 -19 -15 -18 -16 -18 -16 -16 -18 -16 -18 -15 -19 -14 -19 -13 -20 -12 -21 -11 -22 -10 -22 -9 -23 -8 -23 -6 -24 -6 -24 -5 -24 -3 -26 -2 -25 0 -26z"/>
  </g>
  <g>
   <path fill="#0096DC" fill-rule="nonzero" d="M113393 154763l-1000 0 1 -25 2 -26 3 -25 4 -24 6 -25 6 -23 8 -23 9 -23 10 -22 11 -22 12 -21 13 -20 15 -20 14 -19 16 -18 17 -17 17 -17 18 -15 19 -15 20 -14 20 -13 21 -12 21 -11 22 -10 23 -9 24 -8 23 -7 24 -5 25 -5 25 -3 25 -2 26 -1 26 1 25 2 25 3 25 5 24 5 24 7 23 8 23 9 22 10 22 11 20 12 21 13 19 14 19 15 18 15 18 17 16 17 16 18 15 19 14 20 13 20 12 21 11 22 10 22 9 23 8 23 6 23 6 25 4 24 4 25 2 26 0 25zm-1000 9130l0 -9130 1000 0 0 9130 -1000 0zm500 5849l-3086 -6171 6170 0 -3084 6171zm-500 -5849l1000 0 0 26 -2 25 -4 26 -4 24 -6 24 -6 24 -8 23 -9 23 -10 22 -11 22 -12 21 -13 20 -14 20 -15 19 -16 18 -16 17 -18 17 -18 15 -19 15 -19 14 -21 13 -20 12 -22 11 -22 10 -23 9 -23 8 -24 7 -24 5 -25 5 -25 3 -25 2 -26 1 -26 -1 -25 -2 -25 -3 -25 -5 -24 -5 -23 -7 -24 -8 -23 -9 -22 -10 -21 -11 -21 -12 -20 -13 -20 -14 -19 -15 -18 -15 -17 -17 -17 -17 -16 -18 -14 -19 -15 -20 -13 -20 -12 -21 -11 -22 -10 -22 -9 -23 -8 -23 -6 -24 -6 -24 -4 -24 -3 -26 -2 -25 -1 -26z"/>
  </g>
  <g>
   <path fill="#0096DC" fill-rule="nonzero" d="M129494 157460l-1000 0 1 -26 2 -25 3 -25 4 -24 6 -25 7 -23 7 -24 10 -22 9 -23 12 -21 11 -21 13 -20 15 -20 14 -19 16 -18 17 -17 17 -17 18 -16 19 -14 20 -14 20 -14 21 -11 21 -11 22 -10 23 -9 24 -8 23 -7 25 -6 24 -4 25 -3 25 -2 26 -1 26 1 25 2 25 3 25 4 24 6 24 7 23 8 23 9 22 10 22 11 21 11 20 14 19 14 19 14 18 16 18 17 16 17 16 18 15 19 14 20 13 20 12 21 11 21 10 23 9 22 8 24 6 23 6 25 5 24 3 25 2 25 0 26zm-1000 9130l0 -9130 1000 0 0 9130 -1000 0zm500 5849l-3086 -6172 6171 0 -3085 6172zm-500 -5849l1000 0 0 26 -2 25 -3 26 -5 24 -6 24 -6 24 -8 23 -9 23 -10 22 -11 22 -12 21 -13 20 -14 19 -15 19 -16 19 -16 17 -18 17 -18 15 -19 15 -19 14 -20 13 -21 12 -22 11 -22 10 -23 9 -23 8 -24 7 -24 5 -25 5 -25 3 -25 2 -26 0 -26 0 -25 -2 -25 -3 -24 -5 -25 -5 -23 -7 -24 -8 -23 -9 -22 -10 -21 -11 -21 -12 -20 -13 -20 -14 -19 -15 -18 -15 -17 -17 -17 -17 -16 -19 -14 -19 -15 -19 -13 -20 -11 -21 -12 -22 -9 -22 -10 -23 -7 -23 -7 -24 -6 -24 -4 -24 -3 -26 -2 -25 -1 -26z"/>
  </g>
  <g>
   <path fill="#0096DC" fill-rule="nonzero" d="M193809 106957l-1000 0 1 -25 2 -26 3 -25 5 -24 5 -25 7 -23 8 -23 9 -23 10 -22 11 -22 12 -21 13 -20 14 -20 15 -19 15 -18 17 -17 17 -17 18 -15 19 -15 20 -14 20 -13 21 -12 22 -11 22 -10 23 -9 23 -8 23 -7 25 -5 24 -5 25 -3 26 -2 25 -1 26 1 25 2 26 3 24 5 24 5 24 7 23 8 23 9 22 10 22 11 21 12 20 13 19 14 19 15 19 15 17 17 17 17 15 18 15 19 14 20 13 20 12 21 11 22 10 22 9 23 8 23 7 23 5 25 5 24 3 25 2 26 0 25zm-1000 9130l0 -9130 1000 0 0 9130 -1000 0zm500 5849l-3086 -6171 6171 0 -3085 6171zm-500 -5849l1000 0 0 26 -2 26 -3 25 -5 24 -5 24 -7 24 -8 23 -9 23 -10 22 -11 22 -12 21 -13 20 -14 20 -15 19 -15 18 -17 17 -17 17 -19 15 -19 15 -19 14 -20 13 -21 12 -22 11 -22 10 -23 9 -23 8 -24 7 -24 5 -24 5 -26 3 -25 2 -26 1 -25 -1 -26 -2 -25 -3 -24 -5 -25 -5 -23 -7 -23 -8 -23 -9 -22 -10 -22 -11 -21 -12 -20 -13 -20 -14 -19 -15 -18 -15 -17 -17 -17 -17 -15 -18 -15 -19 -14 -20 -13 -20 -12 -21 -11 -22 -10 -22 -9 -23 -8 -23 -7 -24 -5 -24 -5 -24 -3 -25 -2 -26 -1 -26z"/>
  </g>
  <g>
   <path fill="#0096DC" fill-rule="nonzero" d="M161601 101562l-1000 0 1 -26 2 -25 3 -25 4 -24 6 -25 6 -23 8 -24 9 -23 10 -22 11 -21 12 -21 13 -20 15 -20 14 -19 16 -18 17 -17 17 -17 18 -16 19 -14 20 -15 20 -13 21 -11 21 -12 22 -9 23 -10 24 -7 23 -7 24 -6 25 -4 25 -3 25 -2 26 -1 26 1 25 2 25 3 25 4 24 6 24 7 23 7 23 10 22 9 21 12 21 11 21 13 19 15 19 14 18 16 18 17 16 17 16 18 15 19 14 20 13 20 12 21 11 21 10 22 9 23 8 24 6 23 6 25 4 24 4 25 2 25 0 26zm-1000 9130l0 -9130 1000 0 0 9130 -1000 0zm500 5848l-3086 -6171 6170 0 -3084 6171zm-500 -5848l1000 0 0 26 -2 25 -4 26 -4 24 -6 24 -6 24 -8 23 -9 23 -10 22 -11 22 -12 21 -13 20 -14 19 -15 19 -16 18 -16 18 -18 17 -18 15 -19 15 -19 14 -21 13 -21 12 -21 11 -22 10 -23 9 -23 8 -24 6 -24 6 -25 5 -25 3 -25 2 -26 0 -26 0 -25 -2 -25 -3 -25 -5 -24 -6 -23 -6 -24 -8 -23 -9 -22 -10 -21 -11 -21 -12 -20 -13 -20 -14 -19 -15 -18 -15 -17 -17 -17 -18 -16 -18 -14 -19 -15 -19 -13 -20 -12 -21 -11 -22 -10 -22 -9 -23 -8 -23 -6 -24 -6 -24 -4 -24 -3 -26 -2 -25 -1 -26z"/>
  </g>
  <g>
   <path fill="#0096DC" fill-rule="nonzero" d="M177702 104259l-1000 0 1 -26 2 -25 3 -25 4 -25 6 -24 6 -23 8 -24 9 -23 10 -22 11 -21 12 -21 13 -20 15 -20 14 -19 16 -18 17 -17 17 -17 18 -16 19 -14 20 -15 20 -13 21 -12 21 -11 22 -10 23 -9 24 -8 23 -6 24 -6 25 -4 25 -3 25 -2 26 -1 26 1 25 2 25 3 25 4 24 6 24 6 23 8 23 9 22 10 22 11 20 12 21 13 19 15 19 14 18 16 18 17 16 17 16 18 15 19 14 20 13 20 12 21 11 21 10 22 9 23 8 24 6 23 6 24 4 25 4 25 2 25 0 26zm-1000 9130l0 -9130 1000 0 0 9130 -1000 0zm500 5848l-3086 -6171 6171 0 -3085 6171zm-500 -5848l1000 0 0 26 -2 25 -4 25 -4 25 -6 24 -6 24 -8 23 -9 23 -10 22 -11 22 -12 21 -13 20 -14 19 -15 19 -16 18 -16 18 -18 16 -18 16 -19 15 -19 14 -21 13 -20 12 -22 11 -22 10 -23 9 -23 8 -24 6 -24 6 -25 5 -25 3 -25 2 -26 0 -26 0 -25 -2 -25 -3 -25 -5 -24 -6 -23 -6 -24 -8 -23 -9 -22 -10 -21 -11 -21 -12 -20 -13 -20 -14 -19 -15 -18 -16 -17 -16 -17 -18 -16 -18 -14 -19 -15 -19 -13 -20 -12 -21 -11 -22 -10 -22 -9 -23 -8 -23 -6 -24 -6 -24 -4 -25 -3 -25 -2 -25 -1 -26z"/>
  </g>
  <g>
   <path fill="#0096DC" fill-rule="nonzero" d="M209911 109654l-1001 0 1 -26 2 -25 3 -25 5 -24 5 -25 7 -23 8 -24 9 -22 10 -23 11 -21 12 -21 13 -20 14 -20 15 -19 15 -18 17 -17 17 -17 18 -16 19 -14 20 -14 20 -13 21 -12 22 -11 22 -10 23 -9 23 -8 23 -7 25 -6 24 -4 25 -3 26 -2 25 -1 26 1 26 2 25 3 24 4 24 6 24 7 23 8 23 9 22 10 22 11 21 12 20 13 20 14 19 14 18 16 17 17 17 17 15 18 15 19 14 20 13 20 12 21 11 21 10 23 9 22 8 24 7 23 5 25 5 24 3 25 2 25 1 26zm-1001 9130l0 -9130 1001 0 0 9130 -1001 0zm500 5849l-3086 -6172 6171 0 -3085 6172zm-500 -5849l1001 0 -1 26 -2 25 -3 26 -5 24 -5 24 -7 24 -8 23 -9 23 -10 22 -11 22 -12 21 -13 20 -14 19 -15 19 -15 19 -17 17 -17 17 -18 15 -19 15 -20 14 -20 13 -21 12 -22 11 -22 10 -23 9 -23 8 -24 7 -24 5 -24 5 -25 3 -26 2 -26 0 -25 0 -26 -2 -25 -3 -24 -5 -25 -5 -23 -7 -23 -8 -23 -9 -22 -10 -22 -11 -21 -12 -20 -13 -20 -14 -19 -15 -18 -15 -17 -17 -17 -17 -15 -19 -15 -19 -14 -19 -13 -20 -12 -21 -11 -22 -10 -22 -9 -23 -8 -23 -7 -24 -5 -24 -5 -24 -3 -26 -2 -25 -1 -26z"/>
  </g>
  <g>
   <path fill="#0096DC" fill-rule="nonzero" d="M226012 112351l-1000 0 0 -26 2 -25 3 -25 5 -24 5 -25 7 -23 8 -24 9 -23 10 -22 11 -21 12 -21 13 -20 14 -20 15 -19 15 -18 17 -17 17 -17 19 -16 19 -14 19 -15 20 -13 21 -12 22 -11 22 -9 23 -10 23 -8 24 -6 24 -6 24 -4 26 -3 25 -2 26 -1 25 1 26 2 25 3 24 4 25 6 23 6 23 8 23 10 22 9 22 11 21 12 20 13 20 15 19 14 18 16 17 17 17 17 15 18 15 19 14 20 13 20 12 21 11 21 10 22 9 23 8 24 7 23 5 25 5 24 3 25 2 25 1 26zm-1000 9130l0 -9130 1000 0 0 9130 -1000 0zm500 5848l-3087 -6171 6171 0 -3084 6171zm-500 -5848l1000 0 -1 26 -2 25 -3 25 -5 25 -5 24 -7 24 -8 23 -9 23 -10 22 -11 22 -12 21 -13 20 -14 19 -15 19 -15 18 -17 18 -17 16 -18 16 -19 15 -20 14 -20 13 -21 12 -22 11 -22 10 -23 9 -23 8 -23 6 -25 6 -24 5 -25 3 -26 2 -25 0 -26 0 -25 -2 -26 -3 -24 -5 -24 -6 -24 -6 -23 -8 -23 -9 -22 -10 -22 -11 -21 -12 -20 -13 -19 -14 -19 -15 -19 -16 -17 -16 -17 -18 -15 -18 -15 -19 -14 -19 -13 -20 -12 -21 -11 -22 -10 -22 -9 -23 -8 -23 -7 -24 -5 -24 -5 -25 -3 -25 -2 -25 0 -26z"/>
  </g>
  <g>
   <path fill="#0096DC" fill-rule="nonzero" d="M65084 136449l-1000 0 0 -26 2 -25 3 -25 5 -24 6 -25 6 -23 8 -23 9 -23 10 -23 11 -21 12 -21 13 -20 14 -20 15 -19 15 -18 17 -17 17 -17 19 -16 19 -14 19 -14 20 -13 21 -12 22 -11 22 -10 23 -9 23 -8 24 -7 24 -6 24 -4 26 -3 25 -2 26 -1 25 1 26 2 25 3 24 4 25 6 23 7 23 8 23 9 23 10 21 11 21 12 20 13 20 14 19 14 18 16 17 17 17 17 15 18 15 19 14 20 13 20 12 21 11 21 10 23 9 23 8 23 7 23 6 25 4 24 3 25 2 25 1 26zm-1000 9130l0 -9130 1000 0 0 9130 -1000 0zm500 5849l-3087 -6171 6171 0 -3084 6171zm-500 -5849l1000 0 -1 26 -2 25 -3 26 -4 24 -6 24 -7 24 -8 23 -9 23 -10 22 -11 22 -12 21 -13 20 -14 19 -15 19 -15 19 -17 17 -17 17 -18 15 -19 15 -20 14 -20 13 -21 12 -21 11 -23 10 -23 9 -23 8 -23 7 -25 5 -24 5 -25 3 -26 2 -25 0 -26 0 -25 -2 -26 -3 -24 -5 -24 -5 -24 -7 -23 -8 -23 -9 -22 -10 -22 -11 -21 -12 -20 -13 -19 -14 -19 -15 -19 -15 -17 -17 -17 -17 -15 -19 -15 -19 -14 -19 -13 -20 -12 -21 -11 -22 -10 -22 -9 -23 -8 -23 -6 -24 -6 -24 -5 -24 -3 -26 -2 -25 0 -26z"/>
  </g>
  <g>
   <path fill="#0096DC" fill-rule="nonzero" d="M81185 128924l-1000 0 0 -26 2 -25 3 -25 5 -24 6 -25 6 -23 8 -24 9 -23 10 -22 11 -21 12 -21 13 -20 14 -20 15 -19 16 -18 16 -17 18 -17 18 -16 19 -14 19 -15 20 -13 21 -11 22 -12 22 -9 23 -10 23 -7 24 -7 24 -6 25 -4 25 -3 25 -2 26 -1 26 1 25 2 25 3 24 4 25 6 23 7 24 7 22 10 23 9 21 12 21 11 20 13 20 15 19 14 18 16 17 17 17 17 16 18 14 19 14 20 14 20 11 21 11 21 10 22 9 23 8 24 7 23 6 25 4 24 3 25 2 25 1 26zm-1000 9130l0 -9130 1000 0 0 9130 -1000 0zm500 5848l-3087 -6171 6171 0 -3084 6171zm-500 -5848l1000 0 -1 26 -2 25 -3 26 -4 24 -6 24 -7 24 -8 23 -9 23 -10 22 -11 22 -11 21 -14 20 -14 19 -14 19 -16 18 -17 18 -17 16 -18 16 -19 15 -20 14 -20 13 -21 12 -21 11 -23 10 -22 9 -24 8 -23 6 -25 6 -24 5 -25 3 -25 2 -26 0 -26 0 -25 -2 -25 -3 -25 -5 -24 -6 -24 -6 -23 -8 -23 -9 -22 -10 -22 -11 -21 -12 -20 -13 -19 -14 -19 -15 -18 -16 -18 -16 -16 -18 -16 -18 -15 -19 -14 -19 -13 -20 -12 -21 -11 -22 -10 -22 -9 -23 -8 -23 -6 -24 -6 -24 -5 -24 -3 -26 -2 -25 0 -26z"/>
  </g>
  <g>
   <path fill="#0096DC" fill-rule="nonzero" d="M113393 113871l-1000 0 1 -26 2 -25 3 -25 4 -25 6 -24 6 -23 8 -24 9 -23 10 -22 11 -21 12 -21 13 -20 15 -20 14 -19 16 -18 17 -17 17 -17 18 -16 19 -14 20 -15 20 -13 21 -12 21 -11 22 -10 23 -9 24 -8 23 -6 24 -6 25 -4 25 -3 25 -2 26 -1 26 1 25 2 25 3 25 4 24 6 24 6 23 8 23 9 22 10 22 11 20 12 21 13 19 15 19 14 18 16 18 17 16 17 16 18 15 19 14 20 13 20 12 21 11 21 10 22 9 23 8 24 6 23 6 24 4 25 4 25 2 25 0 26zm-1000 9130l0 -9130 1000 0 0 9130 -1000 0zm500 5848l-3086 -6171 6170 0 -3084 6171zm-500 -5848l1000 0 0 26 -2 25 -4 25 -4 25 -6 24 -6 24 -8 23 -9 23 -10 22 -11 22 -12 21 -13 20 -14 19 -15 19 -16 18 -16 18 -18 16 -18 16 -19 15 -19 14 -21 13 -20 12 -22 11 -22 10 -23 9 -23 8 -24 6 -24 6 -25 5 -25 3 -25 2 -26 0 -26 0 -25 -2 -25 -3 -25 -5 -24 -6 -23 -6 -24 -8 -23 -9 -22 -10 -21 -11 -21 -12 -20 -13 -20 -14 -19 -15 -18 -16 -17 -16 -17 -18 -16 -18 -14 -19 -15 -19 -13 -20 -12 -21 -11 -22 -10 -22 -9 -23 -8 -23 -6 -24 -6 -24 -4 -25 -3 -25 -2 -25 -1 -26z"/>
  </g>
  <g>
   <path fill="#0096DC" fill-rule="nonzero" d="M129494 106346l-1000 0 1 -26 2 -25 3 -25 4 -25 6 -24 7 -24 7 -23 10 -23 9 -22 12 -21 11 -21 13 -21 15 -19 14 -19 16 -18 17 -18 17 -16 18 -16 19 -15 20 -14 20 -13 21 -12 21 -11 22 -10 23 -9 24 -8 23 -6 25 -6 24 -4 25 -4 25 -2 26 0 26 0 25 2 25 4 25 4 24 6 24 6 23 8 23 9 22 10 22 11 21 12 20 13 19 14 19 15 18 16 18 16 16 18 16 18 15 19 14 19 13 21 12 21 11 21 10 22 9 23 8 23 6 24 6 24 5 25 3 25 2 25 0 26zm-1000 9130l0 -9130 1000 0 0 9130 -1000 0zm500 5848l-3086 -6171 6171 0 -3085 6171zm-500 -5848l1000 0 0 26 -2 25 -3 25 -5 25 -6 24 -6 24 -8 23 -9 23 -10 22 -11 21 -12 21 -13 21 -14 19 -15 19 -16 18 -16 18 -18 16 -18 16 -19 15 -19 14 -20 13 -21 12 -22 11 -22 10 -23 9 -23 8 -24 6 -24 6 -25 4 -25 4 -25 2 -26 0 -26 0 -25 -2 -25 -4 -24 -4 -25 -6 -23 -6 -24 -8 -23 -9 -22 -10 -21 -11 -21 -12 -20 -13 -20 -14 -19 -15 -18 -16 -17 -16 -17 -18 -16 -18 -14 -19 -15 -19 -13 -21 -11 -21 -12 -21 -9 -22 -10 -23 -7 -23 -7 -24 -6 -24 -4 -25 -3 -25 -2 -25 -1 -26z"/>
  </g>
  <g>
   <path fill="#0096DC" fill-rule="nonzero" d="M161601 152681l-1000 0 1 -26 2 -25 3 -25 4 -25 6 -24 6 -24 8 -23 9 -23 10 -22 11 -22 12 -21 13 -20 15 -19 14 -19 16 -18 17 -18 17 -16 18 -16 19 -15 20 -14 20 -13 21 -12 21 -11 22 -10 23 -9 24 -8 23 -6 24 -6 25 -5 25 -3 25 -2 26 0 26 0 25 2 25 3 25 5 24 6 24 6 23 8 23 9 22 10 21 11 21 12 21 13 19 14 19 15 18 16 18 16 16 18 16 18 15 19 14 19 13 20 12 21 11 22 10 22 9 23 8 23 6 24 6 24 4 25 4 25 2 25 0 26zm-1000 9130l0 -9130 1000 0 0 9130 -1000 0zm500 5848l-3086 -6171 6170 0 -3084 6171zm-500 -5848l1000 0 0 26 -2 25 -4 25 -4 24 -6 25 -6 23 -8 24 -9 23 -10 22 -11 21 -12 21 -13 20 -14 20 -15 19 -16 18 -16 17 -18 17 -18 16 -19 14 -19 15 -21 13 -21 12 -21 11 -22 9 -23 10 -23 7 -24 7 -24 6 -25 4 -25 3 -25 2 -26 1 -26 -1 -25 -2 -25 -3 -25 -4 -24 -6 -23 -7 -24 -7 -23 -10 -22 -9 -21 -11 -21 -12 -20 -13 -20 -15 -19 -14 -18 -16 -17 -17 -17 -17 -16 -18 -14 -19 -15 -20 -13 -20 -12 -21 -11 -21 -10 -22 -9 -23 -8 -24 -6 -23 -6 -25 -4 -24 -3 -25 -2 -25 -1 -26z"/>
  </g>
  <g>
   <path fill="#0096DC" fill-rule="nonzero" d="M177702 145156l-1000 0 1 -26 2 -25 3 -26 4 -24 6 -24 6 -24 8 -23 9 -23 10 -22 11 -22 12 -21 13 -20 15 -19 14 -19 16 -19 17 -17 17 -17 18 -15 19 -15 20 -14 20 -13 21 -12 21 -11 22 -10 23 -9 24 -8 23 -7 24 -5 25 -5 25 -3 25 -2 26 0 26 0 25 2 25 3 25 5 24 5 24 7 23 8 23 9 22 10 22 11 20 12 21 13 19 14 19 15 18 15 18 17 16 17 16 19 15 19 14 19 13 20 12 21 11 22 10 22 9 23 8 23 6 24 6 24 4 24 4 26 2 25 0 26zm-1000 9130l0 -9130 1000 0 0 9130 -1000 0zm500 5848l-3086 -6171 6171 0 -3085 6171zm-500 -5848l1000 0 0 26 -2 25 -4 25 -4 24 -6 25 -6 23 -8 24 -9 22 -10 23 -11 21 -12 21 -13 20 -14 20 -15 19 -16 18 -16 17 -18 17 -18 16 -19 14 -19 14 -21 13 -20 12 -22 11 -22 10 -23 9 -23 8 -24 7 -24 6 -25 4 -25 3 -25 2 -26 1 -26 -1 -25 -2 -25 -3 -25 -4 -24 -6 -23 -7 -24 -8 -23 -9 -22 -10 -21 -11 -21 -12 -20 -13 -20 -14 -19 -14 -18 -16 -17 -17 -17 -17 -16 -18 -14 -19 -15 -20 -13 -20 -12 -21 -11 -21 -10 -23 -9 -22 -8 -24 -6 -23 -6 -25 -4 -24 -3 -25 -2 -25 -1 -26z"/>
  </g>
  <g>
   <path fill="#0096DC" fill-rule="nonzero" d="M209911 130103l-1001 0 1 -26 2 -25 3 -26 5 -24 5 -24 7 -24 8 -23 9 -23 10 -22 11 -22 12 -21 13 -20 14 -20 15 -19 15 -18 17 -17 17 -17 18 -15 19 -15 20 -14 20 -13 21 -12 22 -11 22 -10 23 -9 23 -8 23 -7 25 -5 24 -5 25 -3 26 -2 25 -1 26 1 26 2 25 3 24 5 24 5 24 7 23 8 23 9 22 10 22 11 21 12 20 13 20 14 19 15 18 15 17 17 17 17 15 18 15 19 14 20 13 20 12 21 11 22 10 22 9 23 8 23 7 24 5 24 5 24 3 26 2 25 1 26zm-1001 9130l0 -9130 1001 0 0 9130 -1001 0zm500 5848l-3086 -6171 6171 0 -3085 6171zm-500 -5848l1001 0 -1 25 -2 26 -3 25 -5 24 -5 25 -7 23 -8 23 -9 23 -10 22 -11 22 -12 21 -13 20 -14 20 -15 19 -15 18 -17 17 -17 17 -18 15 -19 15 -20 14 -20 13 -21 12 -22 11 -22 10 -23 9 -23 8 -24 7 -24 5 -24 5 -25 3 -26 2 -26 1 -25 -1 -26 -2 -25 -3 -24 -5 -25 -5 -23 -7 -23 -8 -23 -9 -22 -10 -22 -11 -21 -12 -20 -13 -20 -14 -19 -15 -18 -15 -17 -17 -17 -17 -15 -18 -15 -19 -14 -20 -13 -20 -12 -21 -11 -22 -10 -22 -9 -23 -8 -23 -7 -23 -5 -25 -5 -24 -3 -25 -2 -26 -1 -25z"/>
  </g>
  <g>
   <path fill="#0096DC" fill-rule="nonzero" d="M226012 122578l-1000 0 0 -26 2 -25 3 -26 5 -24 5 -24 7 -24 8 -23 9 -23 10 -22 11 -22 12 -21 13 -20 14 -19 15 -19 15 -19 17 -17 17 -17 19 -15 19 -15 19 -14 20 -13 21 -12 22 -11 22 -10 23 -9 23 -8 24 -6 24 -6 24 -5 26 -3 25 -2 26 0 25 0 26 2 25 3 24 5 25 6 23 6 23 8 23 9 22 10 22 11 21 12 20 13 20 14 19 15 18 15 17 17 17 17 15 19 15 19 14 19 13 20 12 21 11 22 10 22 9 23 8 23 7 24 5 24 5 24 3 26 2 25 1 26zm-1000 9130l0 -9130 1000 0 0 9130 -1000 0zm500 5848l-3087 -6171 6171 0 -3084 6171zm-500 -5848l1000 0 -1 26 -2 25 -3 25 -5 24 -5 25 -7 23 -8 24 -9 23 -10 22 -11 21 -12 21 -13 20 -14 20 -15 19 -15 18 -17 17 -17 17 -18 16 -19 14 -20 14 -20 14 -21 11 -22 11 -22 10 -23 9 -23 8 -23 7 -25 6 -24 4 -25 3 -26 2 -25 1 -26 -1 -25 -2 -26 -3 -24 -4 -24 -6 -24 -7 -23 -8 -23 -9 -22 -10 -22 -11 -21 -11 -20 -14 -19 -14 -19 -14 -19 -16 -17 -17 -17 -17 -15 -18 -15 -19 -14 -20 -13 -20 -12 -21 -11 -21 -10 -22 -9 -23 -8 -24 -7 -23 -5 -25 -5 -24 -3 -25 -2 -25 0 -26z"/>
  </g>
 </g>
</svg>
