<?xml version="1.0" encoding="UTF-8"?>
<!DOCTYPE svg PUBLIC "-//W3C//DTD SVG 1.1//EN" "http://www.w3.org/Graphics/SVG/1.1/DTD/svg11.dtd">
<!-- Creator: CorelDRAW X6 -->
<svg xmlns="http://www.w3.org/2000/svg" xml:space="preserve" width="290px" height="490px" version="1.1" shape-rendering="geometricPrecision" text-rendering="geometricPrecision" image-rendering="optimizeQuality" fill-rule="evenodd" clip-rule="evenodd"
viewBox="0 0 2900000 4899995"
 xmlns:xlink="http://www.w3.org/1999/xlink">
 <g id="Layer_x0020_1">
  <metadata id="CorelCorpID_0Corel-Layer"/>
  <path fill="black" fill-rule="nonzero" d="M5377 -177950l0 -9437 8306 0 0 9437 -8306 0zm0 58130l0 -48977 8306 0 0 48977 -8306 0z"/>
  <path id="1" fill="black" fill-rule="nonzero" d="M26342 -119820l0 -48977 7455 0 0 6919c1526,-2390 3572,-4326 6120,-5771 2546,-1463 5440,-2186 8697,-2186 3617,0 6591,754 8901,2248 2313,1511 3949,3603 4893,6307 3900,-5709 8949,-8555 15176,-8555 4876,0 8635,1335 11245,4025 2628,2690 3949,6826 3949,12410l0 33580 -8306 0 0 -30827c0,-3303 -280,-5695 -816,-7158 -536,-1462 -1511,-2625 -2942,-3520 -1415,-899 -3082,-1338 -4986,-1338 -3459,0 -6322,1148 -8604,3427 -2279,2299 -3413,5961 -3413,10995l0 28421 -8302 0 0 -31788c0,-3679 -678,-6446 -2030,-8289 -1352,-1839 -3569,-2766 -6636,-2766 -2330,0 -4484,612 -6466,1839 -1981,1228 -3412,3019 -4308,5395 -882,2358 -1321,5771 -1321,10224l0 25385 -8306 0z"/>
  <path id="2" fill="black" fill-rule="nonzero" d="M104950 -101041l0 -67756 7549 0 0 6431c1777,-2483 3792,-4356 6040,-5598 2234,-1242 4955,-1871 8147,-1871 4184,0 7863,1069 11058,3223 3192,2140 5598,5176 7234,9077 1621,3914 2438,8192 2438,12863 0,4986 -896,9485 -2690,13496 -1792,3994 -4403,7061 -7833,9201 -3412,2123 -7012,3192 -10788,3192 -2770,0 -5253,-581 -7441,-1746 -2200,-1162 -3994,-2625 -5409,-4402l0 23890 -8305 0zm7549 -42970c0,6276 1275,10916 3806,13921 2549,3004 5633,4512 9250,4512 3679,0 6826,-1556 9436,-4671 2625,-3113 3932,-7926 3932,-14454 0,-6228 -1273,-10882 -3838,-13980 -2563,-3099 -5615,-4641 -9170,-4641 -3524,0 -6636,1650 -9340,4938 -2722,3303 -4076,8085 -4076,14375z"/>
  <path id="3" fill="black" fill-rule="nonzero" d="M190840 -135675l8589 1134c-1338,4984 -3839,8870 -7487,11622 -3651,2753 -8305,4136 -13983,4136 -7140,0 -12801,-2202 -16985,-6605 -4184,-4388 -6276,-10570 -6276,-18513 0,-8209 2106,-14595 6338,-19125 4229,-4544 9720,-6809 16467,-6809 6528,0 11860,2217 15995,6667 4136,4453 6214,10712 6214,18780 0,487 -17,1227 -48,2202l-36474 0c315,5363 1826,9485 4561,12331 2722,2846 6135,4277 10208,4277 3036,0 5630,-802 7770,-2406 2154,-1605 3852,-4167 5111,-7691zm-27179 -13305l27275 0c-363,-4122 -1417,-7203 -3132,-9264 -2625,-3192 -6055,-4796 -10253,-4796 -3807,0 -6999,1273 -9595,3821 -2580,2548 -4012,5961 -4295,10239z"/>
  <path id="4" fill="black" fill-rule="nonzero" d="M209823 -119820l0 -48977 7455 0 0 7503c1902,-3478 3666,-5774 5284,-6874 1622,-1117 3399,-1667 5332,-1667 2801,0 5647,879 8541,2625l-2957 7659c-2012,-1131 -4028,-1698 -6040,-1698 -1809,0 -3427,550 -4859,1636 -1431,1086 -2455,2596 -3067,4530 -930,2942 -1383,6165 -1383,9674l0 25589 -8306 0z"/>
  <path id="5" fill="black" fill-rule="nonzero" d="M243323 -119820l0 -42560 -7359 0 0 -6417 7359 0 0 -5191c0,-3288 284,-5726 865,-7313 802,-2140 2188,-3886 4201,-5221 1998,-1338 4813,-1999 8430,-1999 2344,0 4924,284 7753,834l-1242 7268c-1729,-301 -3351,-457 -4893,-457 -2514,0 -4291,533 -5346,1605 -1037,1068 -1556,3067 -1556,5992l0 4482 9530 0 0 6417 -9436 0 0 42560 -8306 0z"/>
  <path id="6" fill="black" fill-rule="nonzero" d="M300966 -135675l8589 1134c-1338,4984 -3839,8870 -7487,11622 -3651,2753 -8305,4136 -13983,4136 -7141,0 -12801,-2202 -16985,-6605 -4184,-4388 -6276,-10570 -6276,-18513 0,-8209 2106,-14595 6338,-19125 4229,-4544 9720,-6809 16467,-6809 6528,0 11860,2217 15995,6667 4136,4453 6214,10712 6214,18780 0,487 -17,1227 -48,2202l-36474 0c315,5363 1826,9485 4561,12331 2722,2846 6135,4277 10208,4277 3036,0 5630,-802 7770,-2406 2154,-1605 3852,-4167 5111,-7691zm-27179 -13305l27275 0c-363,-4122 -1417,-7203 -3132,-9264 -2625,-3192 -6055,-4796 -10253,-4796 -3807,0 -6999,1273 -9596,3821 -2579,2548 -4011,5961 -4294,10239z"/>
  <path id="7" fill="black" fill-rule="nonzero" d="M352034 -137750l8116 1131c-896,5585 -3161,9942 -6826,13102 -3665,3161 -8178,4734 -13510,4734 -6684,0 -12064,-2185 -16123,-6559 -4074,-4371 -6100,-10630 -6100,-18777 0,-5287 878,-9893 2625,-13859 1746,-3945 4405,-6919 7990,-8886 3569,-1982 7456,-2971 11671,-2971 5300,0 9657,1335 13022,4025 3382,2690 5553,6511 6497,11449l-8022 1228c-771,-3286 -2123,-5754 -4090,-7424 -1951,-1650 -4309,-2483 -7078,-2483 -4184,0 -7580,1494 -10208,4481 -2611,3005 -3915,7722 -3915,14202 0,6576 1259,11341 3773,14312 2534,2974 5820,4467 9862,4467 3271,0 5992,-989 8164,-2987 2185,-1982 3571,-5049 4152,-9185z"/>
  <path id="8" fill="black" fill-rule="nonzero" d="M385254 -127227l1131 7327c-2328,488 -4419,740 -6242,740 -3005,0 -5332,-470 -7002,-1431 -1650,-959 -2815,-2203 -3489,-3759 -678,-1556 -1006,-4828 -1006,-9814l0 -28216 -6135 0 0 -6417 6135 0 0 -12110 8302 -4986 0 17096 8306 0 0 6417 -8306 0 0 28687c0,2375 142,3900 442,4578 281,674 754,1210 1415,1618 660,394 1604,598 2832,598 910,0 2123,-110 3617,-328z"/>
  <path id="9" fill="black" fill-rule="nonzero" d="M393446 -177950l0 -9437 8305 0 0 9437 -8305 0zm0 58130l0 -48977 8305 0 0 48977 -8305 0z"/>
  <path id="10" fill="black" fill-rule="nonzero" d="M411298 -144309c0,-9042 2515,-15744 7563,-20100 4201,-3617 9343,-5426 15398,-5426 6718,0 12223,2203 16500,6605 4261,4388 6401,10474 6401,18229 0,6291 -944,11228 -2832,14831 -1888,3603 -4640,6401 -8257,8399 -3600,1999 -7549,2988 -11812,2988 -6857,0 -12393,-2185 -16622,-6573 -4232,-4389 -6339,-10713 -6339,-18953zm8493 17c0,6259 1369,10945 4105,14043 2752,3115 6196,4671 10363,4671 4122,0 7552,-1556 10304,-4685 2735,-3130 4105,-7898 4105,-14298 0,-6038 -1384,-10616 -4136,-13714 -2753,-3115 -6183,-4672 -10273,-4672 -4167,0 -7611,1542 -10363,4641 -2736,3098 -4105,7769 -4105,14014z"/>
  <path id="11" fill="black" fill-rule="nonzero" d="M466894 -119820l0 -48977 7455 0 0 6950c3586,-5332 8776,-7988 15557,-7988 2956,0 5661,533 8130,1588 2469,1054 4325,2454 5553,4169 1227,1712 2092,3759 2579,6117 298,1542 457,4230 457,8068l0 30073 -8306 0 0 -29759c0,-3381 -314,-5913 -958,-7579 -646,-1667 -1794,-3005 -3430,-4011 -1635,-993 -3569,-1494 -5771,-1494 -3524,0 -6560,1117 -9122,3364 -2565,2234 -3838,6497 -3838,12756l0 26723 -8306 0z"/>
  <polygon id="12" fill="black" fill-rule="nonzero" points="516075,-140111 516075,-148413 541743,-148413 541743,-140111 "/>
  <path id="13" fill="black" fill-rule="nonzero" d="M582794 -137750l8116 1131c-896,5585 -3161,9942 -6826,13102 -3665,3161 -8178,4734 -13510,4734 -6684,0 -12064,-2185 -16123,-6559 -4074,-4371 -6100,-10630 -6100,-18777 0,-5287 878,-9893 2625,-13859 1746,-3945 4405,-6919 7990,-8886 3569,-1982 7455,-2971 11671,-2971 5300,0 9657,1335 13022,4025 3382,2690 5553,6511 6497,11449l-8022 1228c-771,-3286 -2123,-5754 -4090,-7424 -1951,-1650 -4309,-2483 -7079,-2483 -4184,0 -7579,1494 -10207,4481 -2611,3005 -3915,7722 -3915,14202 0,6576 1259,11341 3773,14312 2534,2974 5820,4467 9862,4467 3271,0 5992,-989 8164,-2987 2185,-1982 3571,-5049 4152,-9185z"/>
  <path id="14" fill="black" fill-rule="nonzero" d="M629980 -125955c-3084,2628 -6055,4468 -8904,5553 -2846,1086 -5896,1619 -9167,1619 -5380,0 -9516,-1304 -12410,-3932 -2894,-2610 -4343,-5961 -4343,-10034 0,-2390 553,-4575 1639,-6560 1100,-1981 2531,-3554 4291,-4748 1778,-1196 3759,-2109 5979,-2721 1635,-425 4104,-833 7390,-1241 6701,-788 11656,-1747 14816,-2849 31,-1131 48,-1854 48,-2155 0,-3364 -788,-5740 -2358,-7123 -2126,-1874 -5287,-2801 -9471,-2801 -3914,0 -6808,692 -8665,2061 -1871,1369 -3240,3790 -4136,7282l-8115 -1134c739,-3475 1950,-6290 3648,-8430 1698,-2137 4153,-3773 7361,-4938 3192,-1148 6920,-1729 11135,-1729 4184,0 7597,488 10224,1477 2611,992 4544,2219 5772,3713 1227,1494 2092,3382 2593,5661 270,1417 411,3963 411,7628l0 11010c0,7690 173,12552 519,14613 329,2060 1021,4025 2030,5913l-8683 0c-833,-1747 -1369,-3790 -1604,-6135zm-661 -18402c-3018,1227 -7548,2265 -13589,3115 -3430,488 -5851,1038 -7265,1653 -1417,612 -2503,1508 -3274,2673 -768,1179 -1162,2483 -1162,3931 0,2186 833,4026 2517,5488 1681,1463 4136,2203 7359,2203 3194,0 6040,-692 8540,-2092 2486,-1383 4326,-3285 5491,-5692 896,-1874 1335,-4626 1335,-8257l48 -3022z"/>
  <path id="15" fill="black" fill-rule="nonzero" d="M647169 -134447l8209 -1321c457,3285 1746,5802 3855,7566 2107,1746 5063,2624 8839,2624 3821,0 6653,-771 8509,-2327 1840,-1542 2767,-3365 2767,-5457 0,-1873 -833,-3350 -2483,-4419 -1165,-740 -3997,-1669 -8496,-2817 -6069,-1525 -10269,-2846 -12628,-3963 -2344,-1131 -4121,-2673 -5332,-4655 -1210,-1967 -1825,-4152 -1825,-6542 0,-2188 504,-4201 1494,-6055 1009,-1857 2361,-3399 4076,-4626 1289,-944 3050,-1746 5267,-2407 2233,-660 4609,-989 7157,-989 3838,0 7203,550 10097,1667 2908,1100 5048,2611 6432,4498 1369,1903 2330,4434 2849,7611l-8116 1134c-363,-2548 -1431,-4546 -3195,-5978 -1760,-1431 -4246,-2137 -7469,-2137 -3790,0 -6511,629 -8133,1888 -1618,1255 -2437,2735 -2437,4419 0,1069 331,2044 1006,2908 677,882 1732,1622 3178,2203 833,314 3257,1023 7313,2123 5851,1556 9941,2846 12268,3838 2328,989 4153,2452 5474,4340 1335,1905 1996,4263 1996,7095 0,2752 -803,5346 -2421,7784 -1622,2438 -3949,4326 -6985,5663 -3050,1336 -6494,1996 -10332,1996 -6355,0 -11214,-1321 -14547,-3946 -3337,-2644 -5460,-6545 -6387,-11718z"/>
  <path id="16" fill="black" fill-rule="nonzero" d="M731063 -135675l8589 1134c-1338,4984 -3838,8870 -7486,11622 -3651,2753 -8306,4136 -13983,4136 -7141,0 -12802,-2202 -16986,-6605 -4183,-4388 -6275,-10570 -6275,-18513 0,-8209 2106,-14595 6338,-19125 4229,-4544 9720,-6809 16466,-6809 6528,0 11860,2217 15996,6667 4136,4453 6214,10712 6214,18780 0,487 -17,1227 -48,2202l-36474 0c315,5363 1826,9485 4561,12331 2721,2846 6134,4277 10208,4277 3036,0 5629,-802 7769,-2406 2155,-1605 3853,-4167 5111,-7691zm-27178 -13305l27275 0c-363,-4122 -1418,-7203 -3133,-9264 -2624,-3192 -6054,-4796 -10253,-4796 -3806,0 -6998,1273 -9595,3821 -2579,2548 -4011,5961 -4294,10239z"/>
  <polygon id="17" fill="black" fill-rule="nonzero" points="742498,-101041 742498,-106985 797419,-106985 797419,-101041 "/>
  <path id="18" fill="black" fill-rule="nonzero" d="M802624 -119820l0 -48977 7455 0 0 6919c1525,-2390 3572,-4326 6120,-5771 2546,-1463 5440,-2186 8697,-2186 3617,0 6590,754 8900,2248 2314,1511 3949,3603 4893,6307 3901,-5709 8949,-8555 15177,-8555 4875,0 8634,1335 11245,4025 2628,2690 3948,6826 3948,12410l0 33580 -8305 0 0 -30827c0,-3303 -281,-5695 -816,-7158 -536,-1462 -1511,-2625 -2943,-3520 -1414,-899 -3081,-1338 -4986,-1338 -3458,0 -6321,1148 -8603,3427 -2279,2299 -3413,5961 -3413,10995l0 28421 -8303 0 0 -31788c0,-3679 -677,-6446 -2029,-8289 -1352,-1839 -3569,-2766 -6636,-2766 -2330,0 -4485,612 -6466,1839 -1981,1228 -3413,3019 -4309,5395 -881,2358 -1321,5771 -1321,10224l0 25385 -8305 0z"/>
  <path id="19" fill="black" fill-rule="nonzero" d="M913223 -125955c-3084,2628 -6055,4468 -8903,5553 -2846,1086 -5896,1619 -9168,1619 -5380,0 -9516,-1304 -12410,-3932 -2894,-2610 -4342,-5961 -4342,-10034 0,-2390 552,-4575 1638,-6560 1100,-1981 2531,-3554 4292,-4748 1777,-1196 3758,-2109 5978,-2721 1636,-425 4105,-833 7390,-1241 6701,-788 11656,-1747 14817,-2849 31,-1131 48,-1854 48,-2155 0,-3364 -788,-5740 -2359,-7123 -2126,-1874 -5286,-2801 -9470,-2801 -3915,0 -6809,692 -8666,2061 -1871,1369 -3240,3790 -4135,7282l-8116 -1134c740,-3475 1950,-6290 3648,-8430 1698,-2137 4153,-3773 7362,-4938 3192,-1148 6919,-1729 11134,-1729 4184,0 7597,488 10225,1477 2610,992 4544,2219 5771,3713 1227,1494 2092,3382 2594,5661 269,1417 411,3963 411,7628l0 11010c0,7690 173,12552 519,14613 328,2060 1020,4025 2029,5913l-8682 0c-834,-1747 -1369,-3790 -1605,-6135zm-660 -18402c-3019,1227 -7549,2265 -13590,3115 -3429,488 -5850,1038 -7265,1653 -1417,612 -2503,1508 -3274,2673 -768,1179 -1162,2483 -1162,3931 0,2186 833,4026 2517,5488 1681,1463 4136,2203 7359,2203 3195,0 6041,-692 8541,-2092 2486,-1383 4325,-3285 5490,-5692 896,-1874 1336,-4626 1336,-8257l48 -3022z"/>
  <path id="20" fill="black" fill-rule="nonzero" d="M933715 -177950l0 -9437 8305 0 0 9437 -8305 0zm0 58130l0 -48977 8305 0 0 48977 -8305 0z"/>
  <path id="21" fill="black" fill-rule="nonzero" d="M954680 -119820l0 -48977 7455 0 0 6950c3586,-5332 8776,-7988 15557,-7988 2956,0 5660,533 8129,1588 2469,1054 4326,2454 5553,4169 1228,1712 2092,3759 2580,6117 298,1542 456,4230 456,8068l0 30073 -8305 0 0 -29759c0,-3381 -315,-5913 -958,-7579 -647,-1667 -1795,-3005 -3430,-4011 -1636,-993 -3569,-1494 -5772,-1494 -3523,0 -6559,1117 -9121,3364 -2566,2234 -3839,6497 -3839,12756l0 26723 -8305 0z"/>
  <polygon id="22" fill="black" fill-rule="nonzero" points="999521,-101041 999521,-106985 1054442,-106985 1054442,-101041 "/>
  <path id="23" fill="black" fill-rule="nonzero" d="M1059647 -177950l0 -9437 8305 0 0 9437 -8305 0zm0 58130l0 -48977 8305 0 0 48977 -8305 0z"/>
  <path id="24" fill="black" fill-rule="nonzero" d="M1109488 -119820l-8302 0 0 -52878c-1999,1919 -4626,3821 -7866,5726 -3240,1902 -6166,3334 -8745,4278l0 -8022c4640,-2172 8699,-4814 12174,-7926 3476,-3098 5945,-6103 7393,-9028l5346 0 0 67850z"/>
  <polygon id="25" fill="black" fill-rule="nonzero" points="1125453,-101041 1125453,-106985 1180374,-106985 1180374,-101041 "/>
  <polygon id="26" fill="black" fill-rule="nonzero" points="1185392,-119820 1185392,-187387 1193694,-187387 1193694,-119820 "/>
  <path id="27" fill="black" fill-rule="nonzero" d="M1203431 -144309c0,-9042 2515,-15744 7563,-20100 4201,-3617 9343,-5426 15398,-5426 6718,0 12223,2203 16500,6605 4261,4388 6401,10474 6401,18229 0,6291 -944,11228 -2832,14831 -1888,3603 -4640,6401 -8257,8399 -3600,1999 -7549,2988 -11812,2988 -6857,0 -12393,-2185 -16622,-6573 -4233,-4389 -6339,-10713 -6339,-18953zm8493 17c0,6259 1369,10945 4104,14043 2753,3115 6197,4671 10364,4671 4121,0 7551,-1556 10304,-4685 2735,-3130 4104,-7898 4104,-14298 0,-6038 -1383,-10616 -4135,-13714 -2753,-3115 -6183,-4672 -10273,-4672 -4167,0 -7611,1542 -10364,4641 -2735,3098 -4104,7769 -4104,14014z"/>
  <path id="28" fill="black" fill-rule="nonzero" d="M1291019 -137750l8116 1131c-896,5585 -3161,9942 -6826,13102 -3665,3161 -8178,4734 -13510,4734 -6684,0 -12064,-2185 -16124,-6559 -4073,-4371 -6100,-10630 -6100,-18777 0,-5287 879,-9893 2625,-13859 1746,-3945 4405,-6919 7991,-8886 3569,-1982 7455,-2971 11670,-2971 5301,0 9658,1335 13023,4025 3381,2690 5553,6511 6497,11449l-8023 1228c-771,-3286 -2123,-5754 -4090,-7424 -1950,-1650 -4309,-2483 -7078,-2483 -4184,0 -7580,1494 -10208,4481 -2610,3005 -3914,7722 -3914,14202 0,6576 1258,11341 3773,14312 2534,2974 5819,4467 9861,4467 3272,0 5993,-989 8164,-2987 2186,-1982 3572,-5049 4153,-9185z"/>
  <path id="29" fill="black" fill-rule="nonzero" d="M1338204 -125955c-3084,2628 -6054,4468 -8903,5553 -2846,1086 -5896,1619 -9167,1619 -5381,0 -9516,-1304 -12410,-3932 -2895,-2610 -4343,-5961 -4343,-10034 0,-2390 553,-4575 1638,-6560 1100,-1981 2532,-3554 4292,-4748 1777,-1196 3759,-2109 5978,-2721 1636,-425 4105,-833 7390,-1241 6701,-788 11656,-1747 14817,-2849 31,-1131 48,-1854 48,-2155 0,-3364 -788,-5740 -2358,-7123 -2126,-1874 -5287,-2801 -9471,-2801 -3915,0 -6809,692 -8665,2061 -1871,1369 -3240,3790 -4136,7282l-8116 -1134c740,-3475 1950,-6290 3648,-8430 1698,-2137 4153,-3773 7362,-4938 3192,-1148 6919,-1729 11134,-1729 4184,0 7597,488 10225,1477 2611,992 4544,2219 5771,3713 1228,1494 2092,3382 2594,5661 269,1417 411,3963 411,7628l0 11010c0,7690 173,12552 519,14613 329,2060 1020,4025 2029,5913l-8682 0c-834,-1747 -1369,-3790 -1605,-6135zm-660 -18402c-3019,1227 -7549,2265 -13589,3115 -3430,488 -5851,1038 -7265,1653 -1418,612 -2503,1508 -3275,2673 -768,1179 -1162,2483 -1162,3931 0,2186 834,4026 2517,5488 1681,1463 4136,2203 7359,2203 3195,0 6041,-692 8541,-2092 2486,-1383 4326,-3285 5491,-5692 895,-1874 1335,-4626 1335,-8257l48 -3022z"/>
  <polygon id="30" fill="black" fill-rule="nonzero" points="1358509,-119820 1358509,-187387 1366812,-187387 1366812,-119820 "/>
  <polygon id="31" fill="black" fill-rule="nonzero" points="1376359,-140111 1376359,-148413 1402026,-148413 1402026,-140111 "/>
  <path id="32" fill="black" fill-rule="nonzero" d="M1411086 -177950l0 -9437 8306 0 0 9437 -8306 0zm0 58130l0 -48977 8306 0 0 48977 -8306 0z"/>
  <path id="33" fill="black" fill-rule="nonzero" d="M1432051 -119820l0 -48977 7455 0 0 6919c1525,-2390 3572,-4326 6120,-5771 2546,-1463 5440,-2186 8697,-2186 3617,0 6590,754 8901,2248 2313,1511 3948,3603 4892,6307 3901,-5709 8949,-8555 15177,-8555 4875,0 8634,1335 11245,4025 2628,2690 3949,6826 3949,12410l0 33580 -8306 0 0 -30827c0,-3303 -281,-5695 -816,-7158 -536,-1462 -1511,-2625 -2943,-3520 -1414,-899 -3081,-1338 -4986,-1338 -3458,0 -6321,1148 -8603,3427 -2279,2299 -3413,5961 -3413,10995l0 28421 -8303 0 0 -31788c0,-3679 -677,-6446 -2029,-8289 -1352,-1839 -3569,-2766 -6636,-2766 -2330,0 -4484,612 -6466,1839 -1981,1228 -3413,3019 -4309,5395 -881,2358 -1320,5771 -1320,10224l0 25385 -8306 0z"/>
  <path id="34" fill="black" fill-rule="nonzero" d="M1510659 -101041l0 -67756 7548 0 0 6431c1778,-2483 3793,-4356 6041,-5598 2234,-1242 4955,-1871 8147,-1871 4184,0 7863,1069 11058,3223 3191,2140 5598,5176 7234,9077 1621,3914 2437,8192 2437,12863 0,4986 -895,9485 -2690,13496 -1791,3994 -4402,7061 -7832,9201 -3413,2123 -7013,3192 -10788,3192 -2770,0 -5253,-581 -7441,-1746 -2200,-1162 -3994,-2625 -5409,-4402l0 23890 -8305 0zm7548 -42970c0,6276 1276,10916 3807,13921 2548,3004 5633,4512 9250,4512 3679,0 6825,-1556 9436,-4671 2625,-3113 3932,-7926 3932,-14454 0,-6228 -1273,-10882 -3838,-13980 -2563,-3099 -5616,-4641 -9170,-4641 -3524,0 -6636,1650 -9341,4938 -2721,3303 -4076,8085 -4076,14375z"/>
  <path id="35" fill="black" fill-rule="nonzero" d="M1596548 -135675l8589 1134c-1338,4984 -3838,8870 -7486,11622 -3651,2753 -8306,4136 -13983,4136 -7141,0 -12802,-2202 -16986,-6605 -4183,-4388 -6275,-10570 -6275,-18513 0,-8209 2106,-14595 6338,-19125 4229,-4544 9720,-6809 16466,-6809 6528,0 11860,2217 15996,6667 4136,4453 6214,10712 6214,18780 0,487 -17,1227 -48,2202l-36474 0c315,5363 1826,9485 4561,12331 2721,2846 6134,4277 10208,4277 3036,0 5629,-802 7769,-2406 2155,-1605 3853,-4167 5111,-7691zm-27178 -13305l27275 0c-363,-4122 -1418,-7203 -3133,-9264 -2625,-3192 -6054,-4796 -10253,-4796 -3806,0 -6998,1273 -9595,3821 -2579,2548 -4011,5961 -4294,10239z"/>
  <path id="36" fill="black" fill-rule="nonzero" d="M1615532 -119820l0 -48977 7455 0 0 7503c1902,-3478 3665,-5774 5284,-6874 1621,-1117 3399,-1667 5332,-1667 2800,0 5646,879 8541,2625l-2957 7659c-2013,-1131 -4028,-1698 -6041,-1698 -1808,0 -3427,550 -4858,1636 -1432,1086 -2455,2596 -3067,4530 -930,2942 -1384,6165 -1384,9674l0 25589 -8305 0z"/>
  <path id="37" fill="black" fill-rule="nonzero" d="M1649032 -119820l0 -42560 -7359 0 0 -6417 7359 0 0 -5191c0,-3288 283,-5726 864,-7313 802,-2140 2189,-3886 4201,-5221 1999,-1338 4813,-1999 8430,-1999 2345,0 4924,284 7753,834l-1241 7268c-1729,-301 -3351,-457 -4893,-457 -2514,0 -4292,533 -5346,1605 -1038,1068 -1556,3067 -1556,5992l0 4482 9530 0 0 6417 -9437 0 0 42560 -8305 0z"/>
  <path id="38" fill="black" fill-rule="nonzero" d="M1706674 -135675l8589 1134c-1338,4984 -3838,8870 -7486,11622 -3651,2753 -8306,4136 -13983,4136 -7141,0 -12802,-2202 -16986,-6605 -4184,-4388 -6275,-10570 -6275,-18513 0,-8209 2106,-14595 6338,-19125 4229,-4544 9720,-6809 16466,-6809 6528,0 11860,2217 15996,6667 4136,4453 6214,10712 6214,18780 0,487 -17,1227 -49,2202l-36473 0c315,5363 1826,9485 4561,12331 2721,2846 6134,4277 10208,4277 3035,0 5629,-802 7769,-2406 2155,-1605 3853,-4167 5111,-7691zm-27178 -13305l27275 0c-363,-4122 -1418,-7203 -3133,-9264 -2625,-3192 -6054,-4796 -10253,-4796 -3807,0 -6998,1273 -9595,3821 -2579,2548 -4011,5961 -4294,10239z"/>
  <path id="39" fill="black" fill-rule="nonzero" d="M1757743 -137750l8116 1131c-896,5585 -3161,9942 -6826,13102 -3665,3161 -8178,4734 -13510,4734 -6684,0 -12064,-2185 -16123,-6559 -4074,-4371 -6101,-10630 -6101,-18777 0,-5287 879,-9893 2625,-13859 1746,-3945 4405,-6919 7991,-8886 3569,-1982 7455,-2971 11670,-2971 5301,0 9658,1335 13023,4025 3381,2690 5553,6511 6497,11449l-8022 1228c-771,-3286 -2123,-5754 -4091,-7424 -1950,-1650 -4308,-2483 -7078,-2483 -4184,0 -7580,1494 -10207,4481 -2611,3005 -3915,7722 -3915,14202 0,6576 1259,11341 3773,14312 2534,2974 5819,4467 9862,4467 3271,0 5992,-989 8163,-2987 2186,-1982 3572,-5049 4153,-9185z"/>
  <path id="40" fill="black" fill-rule="nonzero" d="M1790962 -127227l1131 7327c-2327,488 -4419,740 -6241,740 -3005,0 -5332,-470 -7002,-1431 -1650,-959 -2815,-2203 -3490,-3759 -677,-1556 -1006,-4828 -1006,-9814l0 -28216 -6134 0 0 -6417 6134 0 0 -12110 8303 -4986 0 17096 8305 0 0 6417 -8305 0 0 28687c0,2375 142,3900 442,4578 281,674 754,1210 1415,1618 660,394 1604,598 2831,598 910,0 2124,-110 3617,-328z"/>
  <path id="41" fill="black" fill-rule="nonzero" d="M1799154 -177950l0 -9437 8306 0 0 9437 -8306 0zm0 58130l0 -48977 8306 0 0 48977 -8306 0z"/>
  <path id="42" fill="black" fill-rule="nonzero" d="M1817007 -144309c0,-9042 2514,-15744 7563,-20100 4201,-3617 9343,-5426 15398,-5426 6718,0 12223,2203 16500,6605 4261,4388 6401,10474 6401,18229 0,6291 -944,11228 -2832,14831 -1888,3603 -4640,6401 -8257,8399 -3600,1999 -7549,2988 -11812,2988 -6857,0 -12393,-2185 -16623,-6573 -4232,-4389 -6338,-10713 -6338,-18953zm8493 17c0,6259 1369,10945 4104,14043 2753,3115 6197,4671 10364,4671 4121,0 7551,-1556 10304,-4685 2735,-3130 4104,-7898 4104,-14298 0,-6038 -1383,-10616 -4136,-13714 -2752,-3115 -6182,-4672 -10272,-4672 -4167,0 -7611,1542 -10364,4641 -2735,3098 -4104,7769 -4104,14014z"/>
  <path id="43" fill="black" fill-rule="nonzero" d="M1872603 -119820l0 -48977 7455 0 0 6950c3586,-5332 8776,-7988 15557,-7988 2956,0 5660,533 8129,1588 2469,1054 4326,2454 5553,4169 1228,1712 2092,3759 2580,6117 298,1542 456,4230 456,8068l0 30073 -8305 0 0 -29759c0,-3381 -315,-5913 -958,-7579 -647,-1667 -1795,-3005 -3430,-4011 -1636,-993 -3569,-1494 -5772,-1494 -3523,0 -6559,1117 -9121,3364 -2566,2234 -3839,6497 -3839,12756l0 26723 -8305 0z"/>
  <path id="44" fill="black" fill-rule="nonzero" d="M1921784 -134447l8209 -1321c457,3285 1746,5802 3855,7566 2106,1746 5063,2624 8839,2624 3821,0 6653,-771 8509,-2327 1840,-1542 2767,-3365 2767,-5457 0,-1873 -833,-3350 -2483,-4419 -1165,-740 -3997,-1669 -8496,-2817 -6069,-1525 -10270,-2846 -12628,-3963 -2344,-1131 -4122,-2673 -5332,-4655 -1210,-1967 -1825,-4152 -1825,-6542 0,-2188 504,-4201 1493,-6055 1010,-1857 2362,-3399 4077,-4626 1289,-944 3050,-1746 5266,-2407 2234,-660 4610,-989 7158,-989 3838,0 7203,550 10097,1667 2908,1100 5048,2611 6432,4498 1369,1903 2330,4434 2848,7611l-8115 1134c-363,-2548 -1432,-4546 -3195,-5978 -1760,-1431 -4246,-2137 -7469,-2137 -3790,0 -6511,629 -8133,1888 -1618,1255 -2437,2735 -2437,4419 0,1069 331,2044 1006,2908 677,882 1732,1622 3178,2203 833,314 3257,1023 7313,2123 5851,1556 9941,2846 12268,3838 2327,989 4153,2452 5474,4340 1335,1905 1996,4263 1996,7095 0,2752 -803,5346 -2421,7784 -1622,2438 -3949,4326 -6985,5663 -3050,1336 -6494,1996 -10332,1996 -6355,0 -11214,-1321 -14547,-3946 -3337,-2644 -5460,-6545 -6387,-11718z"/>
  <polygon id="45" fill="black" fill-rule="nonzero" points="1968970,-140111 1968970,-148413 1994637,-148413 1994637,-140111 "/>
  <path id="46" fill="black" fill-rule="nonzero" d="M2000584 -144309c0,-9042 2515,-15744 7563,-20100 4201,-3617 9343,-5426 15398,-5426 6718,0 12223,2203 16500,6605 4261,4388 6401,10474 6401,18229 0,6291 -944,11228 -2832,14831 -1888,3603 -4640,6401 -8257,8399 -3600,1999 -7549,2988 -11812,2988 -6857,0 -12393,-2185 -16622,-6573 -4233,-4389 -6339,-10713 -6339,-18953zm8493 17c0,6259 1369,10945 4104,14043 2753,3115 6197,4671 10364,4671 4122,0 7551,-1556 10304,-4685 2735,-3130 4104,-7898 4104,-14298 0,-6038 -1383,-10616 -4135,-13714 -2753,-3115 -6183,-4672 -10273,-4672 -4167,0 -7611,1542 -10364,4641 -2735,3098 -4104,7769 -4104,14014z"/>
  <path id="47" fill="black" fill-rule="nonzero" d="M2056180 -119820l0 -48977 7455 0 0 6950c3586,-5332 8776,-7988 15557,-7988 2956,0 5661,533 8130,1588 2469,1054 4325,2454 5553,4169 1227,1712 2092,3759 2579,6117 298,1542 457,4230 457,8068l0 30073 -8306 0 0 -29759c0,-3381 -315,-5913 -958,-7579 -646,-1667 -1794,-3005 -3430,-4011 -1636,-993 -3569,-1494 -5771,-1494 -3524,0 -6560,1117 -9122,3364 -2566,2234 -3838,6497 -3838,12756l0 26723 -8306 0z"/>
  <polygon id="48" fill="black" fill-rule="nonzero" points="2108477,-119820 2108477,-187387 2116779,-187387 2116779,-119820 "/>
  <path id="49" fill="black" fill-rule="nonzero" d="M2129252 -100993l-944 -7676c1825,488 3398,740 4751,740 1856,0 3333,-315 4433,-930 1117,-612 2030,-1477 2738,-2579 519,-834 1369,-2895 2532,-6197 158,-456 394,-1131 739,-2030l-18589 -49132 8869 0 10225 28278c1335,3572 2514,7345 3569,11310 961,-3727 2092,-7410 3413,-11027l10443 -28561 8288 0 -18510 49827c-1999,5363 -3555,9042 -4672,11072 -1479,2721 -3177,4717 -5079,5993 -1919,1272 -4201,1902 -6843,1902 -1605,0 -3396,-329 -5363,-990z"/>
  <polygon id="50" fill="black" fill-rule="nonzero" points="2172174,-119820 2172174,-129257 2181613,-129257 2181613,-119820 "/>
  <path id="51" fill="black" fill-rule="nonzero" d="M2192731 -134447l8209 -1321c456,3285 1746,5802 3855,7566 2106,1746 5063,2624 8838,2624 3821,0 6653,-771 8510,-2327 1840,-1542 2767,-3365 2767,-5457 0,-1873 -834,-3350 -2484,-4419 -1165,-740 -3996,-1669 -8495,-2817 -6069,-1525 -10270,-2846 -12628,-3963 -2345,-1131 -4122,-2673 -5332,-4655 -1211,-1967 -1826,-4152 -1826,-6542 0,-2188 505,-4201 1494,-6055 1009,-1857 2361,-3399 4076,-4626 1290,-944 3050,-1746 5267,-2407 2234,-660 4609,-989 7158,-989 3838,0 7202,550 10097,1667 2908,1100 5048,2611 6431,4498 1369,1903 2330,4434 2849,7611l-8115 1134c-363,-2548 -1432,-4546 -3195,-5978 -1760,-1431 -4246,-2137 -7469,-2137 -3790,0 -6512,629 -8133,1888 -1619,1255 -2438,2735 -2438,4419 0,1069 332,2044 1007,2908 677,882 1731,1622 3177,2203 834,314 3257,1023 7314,2123 5850,1556 9941,2846 12268,3838 2327,989 4153,2452 5474,4340 1335,1905 1995,4263 1995,7095 0,2752 -802,5346 -2421,7784 -1621,2438 -3948,4326 -6984,5663 -3050,1336 -6494,1996 -10332,1996 -6356,0 -11214,-1321 -14548,-3946 -3336,-2644 -5459,-6545 -6386,-11718z"/>
  <path id="52" fill="black" fill-rule="nonzero" d="M2256604 -119820l-18482 -48977 8886 0 10477 29332c1131,3161 2186,6449 3144,9862 740,-2579 1763,-5678 3098,-9312l10885 -29882 8524 0 -18541 48977 -7991 0z"/>
  <path id="53" fill="black" fill-rule="nonzero" d="M2288879 -115761l8022 1131c329,2486 1273,4294 2815,5442 2061,1525 4875,2296 8444,2296 3838,0 6812,-771 8904,-2296 2092,-1525 3506,-3682 4246,-6434 425,-1681 629,-5222 598,-10616 -3634,4277 -8146,6418 -13558,6418 -6732,0 -11954,-2421 -15633,-7283 -3696,-4844 -5536,-10664 -5536,-17441 0,-4672 848,-8980 2531,-12929 1684,-3949 4136,-6985 7345,-9139 3209,-2154 6985,-3223 11324,-3223 5772,0 10540,2359 14281,7078l0 -6040 7645 0 0 42292c0,7629 -771,13023 -2327,16200 -1542,3178 -4011,5692 -7361,7535 -3368,1840 -7504,2767 -12411,2767 -5833,0 -10536,-1304 -14122,-3932 -3603,-2611 -5332,-6559 -5207,-11826zm6795 -29381c0,6400 1272,11072 3821,14014 2565,2940 5757,4419 9595,4419 3821,0 7013,-1462 9609,-4388 2580,-2925 3870,-7517 3870,-13779 0,-5975 -1338,-10491 -3994,-13524 -2659,-3036 -5868,-4547 -9613,-4547 -3693,0 -6825,1494 -9419,4482 -2580,2990 -3869,7424 -3869,13323z"/>
  <line fill="none" stroke="#5A5A6E" stroke-width="19998.4" stroke-linejoin="round" x1="645630" y1="2885478" x2="645630" y2= "1727041" />
  <line fill="none" stroke="#5A5A6E" stroke-width="15000.9" stroke-dasharray="75004.691825 45002.815095 15000.938365 45002.815095" x1="645630" y1="2885478" x2="938979" y2= "1730403" />
  <line fill="none" stroke="#5A5A6E" stroke-width="15000.9" stroke-dasharray="15000.938365 45002.815095" x1="645630" y1="1729088" x2="938979" y2= "1730403" />
  <path fill="none" stroke="#5A5A6E" stroke-width="15000.9" d="M944934 1731863c31731,106636 47849,217304 47849,328561 0,310484 -125325,607818 -347573,824623"/>
  <circle fill="#C83200" cx="645629" cy="1729089" r="25000"/>
  <circle fill="#C83200" cx="938978" cy="1730404" r="25000"/>
  <circle fill="#C83200" cx="647010" cy="2880048" r="25000"/>
  <line fill="none" stroke="#5A5A6E" stroke-width="19998.4" stroke-linejoin="round" x1="1945629" y1="2434016" x2="1945629" y2= "2074798" />
  <line fill="none" stroke="#5A5A6E" stroke-width="15000.9" stroke-dasharray="75004.691825 45002.815095 15000.938365 45002.815095" x1="1945629" y1="2885478" x2="2238978" y2= "1730403" />
  <line fill="none" stroke="#5A5A6E" stroke-width="15000.9" stroke-dasharray="15000.938365 45002.815095" x1="1945629" y1="1729088" x2="2238978" y2= "1730403" />
  <path fill="none" stroke="#5A5A6E" stroke-width="15000.9" d="M2244934 1731863c31062,104386 47165,212635 47826,321517"/>
  <circle fill="#C83200" cx="2238977" cy="1730404" r="25000"/>
  <line fill="none" stroke="#5A5A6E" stroke-width="19998.4" stroke-linejoin="round" x1="1945629" y1="2044025" x2="1945629" y2= "1727041" />
  <line fill="none" stroke="#5A5A6E" stroke-width="19998.4" stroke-linejoin="round" x1="1945629" y1="2885478" x2="1945629" y2= "2464780" />
  <circle fill="#C83200" cx="1945628" cy="2464781" r="25000"/>
  <circle fill="#C83200" cx="1945628" cy="2074799" r="25000"/>
  <circle fill="#C83200" cx="1945628" cy="1721291" r="25000"/>
  <path fill="none" stroke="#5A5A6E" stroke-width="15000.9" d="M2292490 2086358c-2857,127068 -26682,251617 -69508,368971"/>
  <path fill="none" stroke="#5A5A6E" stroke-width="15000.9" d="M2211017 2486692c-59139,148484 -149114,284519 -265807,398355"/>
  <circle fill="#C83200" cx="1947009" cy="2880048" r="25000"/>
  <circle fill="#C83200" cx="2211892" cy="2484485" r="25000"/>
  <circle fill="#C83200" cx="2292555" cy="2083332" r="25000"/>
 </g>
</svg>
