<?xml version="1.0" encoding="UTF-8"?>
<!DOCTYPE svg PUBLIC "-//W3C//DTD SVG 1.1//EN" "http://www.w3.org/Graphics/SVG/1.1/DTD/svg11.dtd">
<!-- Creator: CorelDRAW X6 -->
<svg xmlns="http://www.w3.org/2000/svg" xml:space="preserve" width="290px" height="212px" version="1.1" shape-rendering="geometricPrecision" text-rendering="geometricPrecision" image-rendering="optimizeQuality" fill-rule="evenodd" clip-rule="evenodd"
viewBox="0 0 29000000 21199966"
 xmlns:xlink="http://www.w3.org/1999/xlink">
 <defs>
    <linearGradient id="id0" gradientUnits="userSpaceOnUse" x1="1.36911e+007" y1="1.00651e+007" x2="1.43128e+007" y2="1.14594e+007">
     <stop offset="0" stop-color="#C5C6C6"/>
     <stop offset="0.678431" stop-color="#A0ACC0"/>
     <stop offset="1" stop-color="#7B91B9"/>
    </linearGradient>
    <linearGradient id="id1" gradientUnits="userSpaceOnUse" x1="1.40062e+007" y1="1.13177e+007" x2="1.41876e+007" y2="1.17215e+007">
     <stop offset="0" stop-color="#C5C6C6"/>
     <stop offset="0.678431" stop-color="#A0ACC0"/>
     <stop offset="1" stop-color="#7B91B9"/>
    </linearGradient>
 </defs>
 <g id="Layer_x0020_1">
  <metadata id="CorelCorpID_0Corel-Layer"/>
  <g>
   <path fill="#0096DC" fill-rule="nonzero" d="M27196996 4728329l-2365482 1102223 -42236 -90652 2365482 -1102223 42236 90652zm508989 -292309l-428995 540397 -260646 -559360 689641 18964z"/>
  </g>
  <g>
   <path fill="#0096DC" fill-rule="nonzero" d="M26687355 4966297l-1855842 864255 -42236 -90652 1855842 -864255 42236 90652zm509045 -292195l-429108 540312 -260504 -559417 689612 19106z"/>
  </g>
  <g>
   <path fill="#0096DC" fill-rule="nonzero" d="M23869350 6278851l-2365482 1102223 -42236 -90652 2365482 -1102223 42236 90652zm508989 -292309l-428995 540397 -260646 -559360 689641 18964z"/>
  </g>
  <path fill="#0096DC" fill-rule="nonzero" d="M24874260 4027236l0 -859181 170390 0 203216 608173c18794,56608 32400,99014 40989,127219 9808,-31209 25200,-77216 46006,-137820l206787 -597571 152192 0 0 859181 -109191 0 0 -718781 -250781 718781 -102416 0 -248003 -731990 0 731990 -109191 0zm915590 249987l189496 -268838 -175493 -250157 108142 0 82006 122513c15165,22989 27156,41669 35660,56324 14854,-20835 28006,-39657 39827,-56494l86343 -122343 107490 0 -176485 250157 187994 268838 -107008 0 -107320 -159987 -24491 -38494 -138671 198482 -107490 0zm582973 0l0 -100006 99978 0 0 100006c0,36822 -6491,66671 -19644,89320 -13011,22677 -33846,40337 -62334,52668l-24009 -37984c18652,-8164 32343,-20183 40989,-35830 8844,-15846 13833,-38494 14854,-68173l-49833 0zm254324 -613984l0 -101991 87987 0 0 101991 -87987 0zm-111345 814648l16157 -74494c17688,4507 31521,6831 41669,6831 18000,0 31351,-6009 40167,-17830 8844,-11849 13351,-41669 13351,-89178l0 -544989 87987 0 0 546831c0,63836 -8334,108340 -25002,133313 -21175,32513 -56324,48841 -105505,48841 -23811,0 -46658,-3175 -68825,-9326z"/>
  <path fill="#0096DC" fill-rule="nonzero" d="M22256438 5606502l0 -859181 116816 0 450765 674390 0 -674390 109191 0 0 859181 -116787 0 -450794 -674390 0 674390 -109191 0zm840897 -363997l0 -101991 87987 0 0 101991 -87987 0zm-111345 814648l16157 -74494c17688,4507 31521,6831 41669,6831 18000,0 31351,-6009 40167,-17830 8844,-11849 13351,-41669 13351,-89178l0 -544989 87987 0 0 546831c0,63836 -8334,108340 -25002,133313 -21175,32513 -56324,48841 -105505,48841 -23811,0 -46658,-3175 -68825,-9326z"/>
  <g>
   <path fill="#0096DC" fill-rule="nonzero" d="M23868301 8527716l-2452761 -384746 15477 -98816 2452761 384746 -15477 98816zm585496 41216l-657467 209282 95613 -609619 561855 400337z"/>
  </g>
  <g>
   <path fill="#0096DC" fill-rule="nonzero" d="M27571821 9104368l-2578676 -400989 15364 -98816 2578676 400989 -15364 98816zm585553 40450l-657184 210161 94819 -609760 562365 399600z"/>
  </g>
  <g>
   <path fill="#0096DC" fill-rule="nonzero" d="M27015976 9018421l-2022831 -315042 15364 -98816 2022831 315042 -15364 98816zm585553 40564l-657241 210019 94961 -609760 562280 399742z"/>
  </g>
  <path fill="#0096DC" fill-rule="nonzero" d="M25785570 10282616l0 -859181 170390 0 203216 608173c18794,56608 32400,99014 40989,127219 9808,-31209 25200,-77216 46006,-137820l206787 -597571 152192 0 0 859181 -109191 0 0 -718781 -250781 718781 -102416 0 -248003 -731990 0 731990 -109191 0zm971574 449490l-10006 -81326c19332,5159 36000,7824 50343,7824 19672,0 35320,-3345 46998,-9836 11820,-6491 21487,-15676 28998,-27326 5499,-8844 14513,-30671 26844,-65679 1644,-4819 4167,-11991 7824,-21487l-197008 -520667 93997 0 108340 299679c14173,37814 26674,77811 37843,119820 10148,-39515 22167,-78491 36170,-116844l110665 -302655 87817 0 -196157 527981c-21175,56835 -37672,95839 -49493,117354 -15676,28828 -33676,50003 -53830,63496 -20353,13493 -44504,20154 -72510,20154 -17008,0 -36000,-3487 -56835,-10488zm452834 -199502l0 -100006 99978 0 0 100006c0,36822 -6491,66671 -19644,89320 -13011,22677 -33846,40337 -62334,52668l-24009 -37984c18652,-8164 32343,-20183 40989,-35830 8844,-15846 13833,-38494 14854,-68173l-49833 0zm254324 -613984l0 -101991 87987 0 0 101991 -87987 0zm-111345 814648l16157 -74494c17688,4507 31521,6831 41669,6831 18000,0 31351,-6009 40167,-17830 8844,-11849 13351,-41669 13351,-89178l0 -544989 87987 0 0 546831c0,63836 -8334,108340 -25002,133313 -21175,32513 -56324,48841 -105505,48841 -23811,0 -46658,-3175 -68825,-9326z"/>
  <path fill="#0096DC" fill-rule="nonzero" d="M22525672 9832588l-331994 -859181 123222 0 223172 624387c17802,50003 32995,96803 45014,140598 13181,-46998 28602,-93798 46205,-140598l231590 -624387 115994 0 -334998 859181 -118205 0zm525175 449490l-10006 -81326c19332,5159 36000,7824 50343,7824 19672,0 35320,-3345 46998,-9836 11820,-6491 21487,-15676 28998,-27326 5499,-8844 14513,-30671 26844,-65679 1644,-4819 4167,-11991 7824,-21487l-197008 -520667 93997 0 108340 299679c14173,37814 26674,77811 37843,119820 10148,-39515 22167,-78491 36170,-116844l110665 -302655 87817 0 -196157 527981c-21175,56835 -37672,95839 -49493,117354 -15676,28828 -33676,50003 -53830,63496 -20353,13493 -44504,20154 -72510,20154 -17008,0 -36000,-3487 -56835,-10488zm452834 -199502l0 -100006 99978 0 0 100006c0,36822 -6491,66671 -19644,89320 -13011,22677 -33846,40337 -62334,52668l-24009 -37984c18652,-8164 32343,-20183 40989,-35830 8844,-15846 13833,-38494 14854,-68173l-49833 0zm254324 -613984l0 -101991 87987 0 0 101991 -87987 0zm-111345 814648l16157 -74494c17688,4507 31521,6831 41669,6831 18000,0 31351,-6009 40167,-17830 8844,-11849 13351,-41669 13351,-89178l0 -544989 87987 0 0 546831c0,63836 -8334,108340 -25002,133313 -21175,32513 -56324,48841 -105505,48841 -23811,0 -46658,-3175 -68825,-9326z"/>
  <g>
   <path fill="#0096DC" fill-rule="nonzero" d="M20202511 15453546l794 -2609659 100006 57 -794 2609659 -100006 -57zm49833 584844l-308466 -617187 617102 170 -308636 617017z"/>
  </g>
  <g>
   <path fill="#0096DC" fill-rule="nonzero" d="M20202199 14884406l1106 -1999303 100006 57 -1106 1999303 -100006 -57zm49691 584844l-308324 -617272 617102 340 -308778 616932z"/>
  </g>
  <g>
   <path fill="#0096DC" fill-rule="nonzero" d="M20199818 11857148l794 -2609659 100006 57 -794 2609659 -100006 -57zm49833 584844l-308466 -617187 617102 170 -308636 617017z"/>
  </g>
  <path fill="#0096DC" fill-rule="nonzero" d="M20858589 15689332l0 -859181 170390 0 203216 608173c18794,56608 32400,99014 40989,127219 9808,-31209 25200,-77216 46006,-137820l206787 -597571 152192 0 0 859181 -109191 0 0 -718781 -250781 718781 -102416 0 -248003 -731990 0 731990 -109191 0zm929083 249987l0 -71660 328649 -379332c-37332,2013 -70157,3005 -98504,3005l-210161 0 0 -71008 423014 0 0 57827 -281338 329017 -53830 61143c39487,-3317 76507,-4989 111005,-4989l240151 0 0 75997 -458986 0zm569480 0l0 -100006 99978 0 0 100006c0,36822 -6491,66671 -19644,89320 -13011,22677 -33846,40337 -62334,52668l-24009 -37984c18652,-8164 32343,-20183 40989,-35830 8844,-15846 13833,-38494 14854,-68173l-49833 0zm254324 -613984l0 -101991 87987 0 0 101991 -87987 0zm-111345 814648l16157 -74494c17688,4507 31521,6831 41669,6831 18000,0 31351,-6009 40167,-17830 8844,-11849 13351,-41669 13351,-89178l0 -544989 87987 0 0 546831c0,63836 -8334,108340 -25002,133313 -21175,32513 -56324,48841 -105505,48841 -23811,0 -46658,-3175 -68825,-9326z"/>
  <path fill="#0096DC" fill-rule="nonzero" d="M21035443 12149343l-331994 -859181 123222 0 223172 624387c17802,50003 32995,96803 45014,140598 13181,-46998 28602,-93798 46205,-140598l231590 -624387 115994 0 -334998 859181 -118205 0zm482683 249987l0 -71660 328649 -379332c-37332,2013 -70157,3005 -98504,3005l-210161 0 0 -71008 423014 0 0 57827 -281338 329017 -53830 61143c39487,-3317 76507,-4989 111005,-4989l240151 0 0 75997 -458986 0zm569480 0l0 -100006 99978 0 0 100006c0,36822 -6491,66671 -19644,89320 -13011,22677 -33846,40337 -62334,52668l-24009 -37984c18652,-8164 32343,-20183 40989,-35830 8844,-15846 13833,-38494 14854,-68173l-49833 0zm254324 -613984l0 -101991 87987 0 0 101991 -87987 0zm-111345 814648l16157 -74494c17688,4507 31521,6831 41669,6831 18000,0 31351,-6009 40167,-17830 8844,-11849 13351,-41669 13351,-89178l0 -544989 87987 0 0 546831c0,63836 -8334,108340 -25002,133313 -21175,32513 -56324,48841 -105505,48841 -23811,0 -46658,-3175 -68825,-9326z"/>
  <g>
   <g>
    <path fill="#0096DC" fill-rule="nonzero" d="M8800465 5769494l794 2609659 -100006 57 -794 -2609659 100006 -57zm-50173 -584787l308835 617017 -617102 170 308268 -617187z"/>
   </g>
   <g>
    <path fill="#0096DC" fill-rule="nonzero" d="M8800154 6338633l1106 1999303 -100006 57 -1106 -1999303 100006 -57zm-50315 -584787l308976 616932 -617074 340 308098 -617272z"/>
   </g>
   <g>
    <path fill="#0096DC" fill-rule="nonzero" d="M8797773 9365892l794 2609659 -100006 57 -794 -2609659 100006 -57zm-50173 -584787l308835 617017 -617102 170 308268 -617187z"/>
   </g>
  </g>
  <g>
   <g>
    <path fill="#0096DC" fill-rule="nonzero" d="M1897086 16427728l2365482 -1102223 42236 90652 -2365482 1102223 -42236 -90652zm-508989 292309l428995 -540397 260646 559360 -689641 -18964z"/>
   </g>
   <g>
    <path fill="#0096DC" fill-rule="nonzero" d="M2406727 16189760l1855842 -864255 42236 90652 -1855842 864255 -42236 -90652zm-509045 292195l429108 -540312 260504 559417 -689612 -19106z"/>
   </g>
   <g>
    <path fill="#0096DC" fill-rule="nonzero" d="M5224732 14877206l2365482 -1102223 42236 90652 -2365482 1102223 -42236 -90652zm-508989 292309l428995 -540397 260646 559360 -689641 -18964z"/>
   </g>
  </g>
  <g>
   <g>
    <path fill="#0096DC" fill-rule="nonzero" d="M5140486 12673525l2452761 384746 -15477 98816 -2452761 -384746 15477 -98816zm-585496 -41216l657467 -209282 -95613 609619 -561855 -400337z"/>
   </g>
   <g>
    <path fill="#0096DC" fill-rule="nonzero" d="M1436966 12096873l2578676 400989 -15364 98816 -2578676 -400989 15364 -98816zm-585553 -40450l657184 -210161 -94819 609760 -562365 -399600z"/>
   </g>
   <g>
    <path fill="#0096DC" fill-rule="nonzero" d="M1992812 12182820l2022831 315042 -15364 98816 -2022831 -315042 15364 -98816zm-585553 -40564l657241 -210019 -94961 609760 -562280 -399742z"/>
   </g>
  </g>
  <g>
   <polygon fill="#7B91B9" fill-opacity="0.800000" points="20672778,8456368 20384240,8408122 20384240,7455653 20672778,7503899 20672778,7209833 19829387,7068866 19829387,7362904 20117897,7411121 20117897,8363618 19829387,8315373 19829387,8609410 20672778,8750377 "/>
   <polygon fill="#7B91B9" fill-opacity="0.800000" points="9170613,13837062 20672778,8456311 20672778,8750292 9170613,14131043 "/>
   <polygon fill="#7B91B9" fill-opacity="0.800000" points="9170613,12590584 20672778,7209833 20672778,7503814 9170613,12884593 "/>
   <polygon fill="#9FCCF9" fill-opacity="0.800000" points="8327222,12449532 19829387,7068810 20672778,7209833 9170613,12590470 "/>
   <polygon fill="#9FCCF9" fill-opacity="0.800000" points="8882103,13788788 8882103,12836319 9170613,12884536 20382312,7639707 20384240,8408066 20672778,8456311 9170613,13837033 "/>
   <polygon fill="url(#id0)" fill-rule="nonzero" fill-opacity="0.800000" points="20384127,8408151 8882132,13788986 8881990,12836347 9170528,12884678 20384325,7638658 "/>
   <polygon fill="url(#id1)" fill-rule="nonzero" fill-opacity="0.800000" points="9170783,13836948 8882075,13789185 20384382,8407981 20672750,8456113 "/>
   <polygon fill="#B4788C" fill-opacity="0.800000" points="9170613,13837033 8882103,13788816 8882103,12836319 9170613,12884564 9170613,12590498 8327222,12449532 8327222,12743569 8615760,12791815 8615760,13744284 8327222,13696038 8327222,13990076 9170613,14131043 "/>
   <line fill="none" stroke="#5A5A6E" stroke-width="99977.9" stroke-dasharray="499889.546613 499889.546613" x1="8748932" y1="13290259" x2="20251068" y2= "7909650" />
   <polygon fill="#9FCCF9" fill-opacity="0.800000" points="8615760,13744284 8615760,13561024 8327222,13696038 "/>
   <polygon fill="none" stroke="#5A5A6E" stroke-width="50003.1" stroke-linecap="round" stroke-linejoin="round" points="9170613,13837062 20672778,8456311 20672778,8750292 9170613,14131043 "/>
   <polygon fill="none" stroke="#5A5A6E" stroke-width="50003.1" stroke-linecap="round" stroke-linejoin="round" points="9170613,12590584 20672778,7209833 20672778,7503814 9170613,12884593 "/>
   <polygon fill="none" stroke="#5A5A6E" stroke-width="50003.1" stroke-linecap="round" stroke-linejoin="round" points="8327222,12449532 19829387,7068810 20672778,7209833 9170613,12590470 "/>
   <polygon fill="none" stroke="#5A5A6E" stroke-width="50003.1" stroke-linecap="round" stroke-linejoin="round" points="9170783,13836948 8882075,13789185 20384382,8407981 20672750,8456113 "/>
   <polygon fill="none" stroke="#5A5A6E" stroke-width="50003.1" stroke-linecap="round" stroke-linejoin="round" points="9170613,13837033 8882103,13788816 8882103,12836319 9170613,12884564 9170613,12590498 8327222,12449532 8327222,12743569 8615760,12791815 8615760,13744284 8327222,13696038 8327222,13990076 9170613,14131043 "/>
   <polygon fill="none" stroke="#5A5A6E" stroke-width="50003.1" stroke-linecap="round" stroke-linejoin="round" points="8615760,13744284 8615760,13561024 8327222,13696038 "/>
   <line fill="none" stroke="#5A5A6E" stroke-width="50003.1" stroke-linecap="round" stroke-linejoin="round" x1="20384410" y1="8408009" x2="20384410" y2= "7638715" />
   <circle fill="#C83200" cx="8748924" cy="13290276" r="149999"/>
   <path fill="#C83200" fill-opacity="0.600000" d="M20251068 7759641c82828,0 150009,67153 150009,150009 0,82828 -67181,149981 -150009,149981 -82857,0 -150009,-67153 -150009,-149981 0,-82857 67153,-150009 150009,-150009z"/>
  </g>
  <path fill="#C83200" fill-rule="nonzero" d="M7929266 13307097l0 -152390 164409 0 0 152390 -164409 0zm0 706790l0 -622800 164409 0 0 622800 -164409 0z"/>
  <path fill="#C83200" fill-rule="nonzero" d="M21000803 7053956l0 -152390 164409 0 0 152390 -164409 0zm164409 83991l0 603014c0,79172 -5216,135184 -15619,167783 -10205,32598 -30189,58195 -59783,76394 -29395,18397 -67011,27609 -112819,27609 -16384,0 -33987,-1389 -52980,-4394 -19020,-2806 -39402,-7200 -61200,-13209l28205 -140003c7795,1417 15194,2806 22195,3798 6803,1020 13181,1417 19191,1417 16809,0 30813,-3600 41613,-10800 10800,-7200 18000,-16016 21373,-26220 3600,-10176 5414,-40592 5414,-91389l0 -594000 164409 0z"/>
  <g>
   <g>
    <path fill="#C83200" fill-rule="nonzero" d="M18093054 8973350l-3571850 1671902 -42406 -90595 3571850 -1671902 42406 90595zm-339874 -111883l714869 -118857 -549212 472819 -165657 -353962z"/>
   </g>
   <path fill="#0032BE" fill-rule="nonzero" d="M13578315 15883647l0 -86003 394412 -455187c-44787,2381 -84189,3600 -118205,3600l-252198 0 0 -85209 507600 0 0 69392 -337606 394809 -64602 73389c47424,-3997 91814,-5981 133200,-5981l288198 0 0 91191 -550800 0z"/>
   <g>
    <path fill="#0032BE" fill-rule="nonzero" d="M14449997 14471880l0 -3871926 100006 0 0 3871926 -100006 0zm245395 -260362l-195392 697833 -195392 -697833 390784 0z"/>
   </g>
   <g>
    <path fill="#00A046" fill-rule="nonzero" d="M18565107 11292827l-4072902 -643493 15591 -98759 4072902 643493 -15591 98759zm-218920 -283039l658800 301918 -719801 84104 61002 -386022z"/>
   </g>
   <circle fill="#FADC00" transform="matrix(0.473467 -0.133422 0.133421 0.473465 1.45E+007 1.06E+007)" r="508223"/>
   <path fill="#00A046" fill-rule="nonzero" d="M19189806 11130175l-12019 -97597c23216,6208 43200,9411 60406,9411 23613,0 42406,-3997 56409,-11792 14202,-7795 25795,-18822 34781,-32797 6605,-10602 17405,-36822 32202,-78803 2013,-5811 5017,-14400 9411,-25795l-236409 -624812 112819 0 129997 359603c16980,45411 32003,93402 45383,143802 12217,-47395 26617,-94195 43398,-140202l132803 -363203 105392 0 -235389 633600c-25398,68202 -45184,115002 -59386,140797 -18822,34611 -40422,60009 -64602,76195 -24406,16214 -53405,24208 -86995,24208 -20409,0 -43200,-4195 -68202,-12614z"/>
   <path fill="#C83200" fill-rule="nonzero" d="M18713982 8947045l227395 -322611 -210586 -300189 129798 0 98391 147005c18198,27609 32598,50003 42803,67606 17802,-25002 33591,-47594 47792,-67805l103606 -146806 129005 0 -211805 300189 225609 322611 -128409 0 -128806 -191990 -29395 -46205 -166394 238195 -129005 0z"/>
  </g>
  <path fill="#0096DC" fill-rule="nonzero" d="M2355504 17889725l0 -859181 170390 0 203216 608173c18794,56608 32400,99014 40989,127219 9808,-31209 25200,-77216 46006,-137820l206787 -597571 152192 0 0 859181 -109191 0 0 -718781 -250781 718781 -102416 0 -248003 -731990 0 731990 -109191 0zm915590 249987l189496 -268838 -175493 -250157 108142 0 82006 122513c15165,22989 27156,41669 35660,56324 14854,-20835 28006,-39657 39827,-56494l86343 -122343 107490 0 -176485 250157 187994 268838 -107008 0 -107320 -159987 -24491 -38494 -138671 198482 -107490 0zm582973 0l0 -100006 99978 0 0 100006c0,36822 -6491,66671 -19644,89320 -13011,22677 -33846,40337 -62334,52668l-24009 -37984c18652,-8164 32343,-20183 40989,-35830 8844,-15846 13833,-38494 14854,-68173l-49833 0zm254806 -615997l0 -99978 88016 0 0 99978 -88016 0zm0 615997l0 -518995 88016 0 0 518995 -88016 0z"/>
  <path fill="#0096DC" fill-rule="nonzero" d="M5691456 16210254l0 -859181 116816 0 450765 674390 0 -674390 109191 0 0 859181 -116787 0 -450794 -674390 0 674390 -109191 0zm841379 -366009l0 -99978 88016 0 0 99978 -88016 0zm0 615997l0 -518995 88016 0 0 518995 -88016 0z"/>
  <path fill="#0096DC" fill-rule="nonzero" d="M1598059 11557611l0 -859181 170390 0 203216 608173c18794,56608 32400,99014 40989,127219 9808,-31209 25200,-77216 46006,-137820l206787 -597571 152192 0 0 859181 -109191 0 0 -718781 -250781 718781 -102416 0 -248003 -731990 0 731990 -109191 0zm971574 449490l-10006 -81326c19332,5159 36000,7824 50343,7824 19672,0 35320,-3345 46998,-9836 11820,-6491 21487,-15676 28998,-27326 5499,-8844 14513,-30671 26844,-65679 1644,-4819 4167,-11991 7824,-21487l-197008 -520667 93997 0 108340 299679c14173,37814 26674,77811 37843,119820 10148,-39515 22167,-78491 36170,-116844l110665 -302655 87817 0 -196157 527981c-21175,56835 -37672,95839 -49493,117354 -15676,28828 -33676,50003 -53830,63496 -20353,13493 -44504,20154 -72510,20154 -17008,0 -36000,-3487 -56835,-10488zm452834 -199502l0 -100006 99978 0 0 100006c0,36822 -6491,66671 -19644,89320 -13011,22677 -33846,40337 -62334,52668l-24009 -37984c18652,-8164 32343,-20183 40989,-35830 8844,-15846 13833,-38494 14854,-68173l-49833 0zm254806 -615997l0 -99978 88016 0 0 99978 -88016 0zm0 615997l0 -518995 88016 0 0 518995 -88016 0z"/>
  <path fill="#0096DC" fill-rule="nonzero" d="M5388149 12091856l-331994 -859181 123222 0 223172 624387c17802,50003 32995,96803 45014,140598 13181,-46998 28602,-93798 46205,-140598l231590 -624387 115994 0 -334998 859181 -118205 0zm525175 449490l-10006 -81326c19332,5159 36000,7824 50343,7824 19672,0 35320,-3345 46998,-9836 11820,-6491 21487,-15676 28998,-27326 5499,-8844 14513,-30671 26844,-65679 1644,-4819 4167,-11991 7824,-21487l-197008 -520667 93997 0 108340 299679c14173,37814 26674,77811 37843,119820 10148,-39515 22167,-78491 36170,-116844l110665 -302655 87817 0 -196157 527981c-21175,56835 -37672,95839 -49493,117354 -15676,28828 -33676,50003 -53830,63496 -20353,13493 -44504,20154 -72510,20154 -17008,0 -36000,-3487 -56835,-10488zm452834 -199502l0 -100006 99978 0 0 100006c0,36822 -6491,66671 -19644,89320 -13011,22677 -33846,40337 -62334,52668l-24009 -37984c18652,-8164 32343,-20183 40989,-35830 8844,-15846 13833,-38494 14854,-68173l-49833 0zm254806 -615997l0 -99978 88016 0 0 99978 -88016 0zm0 615997l0 -518995 88016 0 0 518995 -88016 0z"/>
  <path fill="#0096DC" fill-rule="nonzero" d="M6134114 5883134l0 -859181 170390 0 203216 608173c18794,56608 32400,99014 40989,127219 9808,-31209 25200,-77216 46006,-137820l206787 -597571 152192 0 0 859181 -109191 0 0 -718781 -250781 718781 -102416 0 -248003 -731990 0 731990 -109191 0zm929083 249987l0 -71660 328649 -379332c-37332,2013 -70157,3005 -98504,3005l-210161 0 0 -71008 423014 0 0 57827 -281338 329017 -53830 61143c39487,-3317 76507,-4989 111005,-4989l240151 0 0 75997 -458986 0zm569480 0l0 -100006 99978 0 0 100006c0,36822 -6491,66671 -19644,89320 -13011,22677 -33846,40337 -62334,52668l-24009 -37984c18652,-8164 32343,-20183 40989,-35830 8844,-15846 13833,-38494 14854,-68173l-49833 0zm254806 -615997l0 -99978 88016 0 0 99978 -88016 0zm0 615997l0 -518995 88016 0 0 518995 -88016 0z"/>
  <path fill="#0096DC" fill-rule="nonzero" d="M6580514 9382276l-331994 -859181 123222 0 223172 624387c17802,50003 32995,96803 45014,140598 13181,-46998 28602,-93798 46205,-140598l231590 -624387 115994 0 -334998 859181 -118205 0zm482683 249987l0 -71660 328649 -379332c-37332,2013 -70157,3005 -98504,3005l-210161 0 0 -71008 423014 0 0 57827 -281338 329017 -53830 61143c39487,-3317 76507,-4989 111005,-4989l240151 0 0 75997 -458986 0zm569480 0l0 -100006 99978 0 0 100006c0,36822 -6491,66671 -19644,89320 -13011,22677 -33846,40337 -62334,52668l-24009 -37984c18652,-8164 32343,-20183 40989,-35830 8844,-15846 13833,-38494 14854,-68173l-49833 0zm254806 -615997l0 -99978 88016 0 0 99978 -88016 0zm0 615997l0 -518995 88016 0 0 518995 -88016 0z"/>
 </g>
</svg>
