<?xml version="1.0" encoding="UTF-8"?>
<!DOCTYPE svg PUBLIC "-//W3C//DTD SVG 1.1//EN" "http://www.w3.org/Graphics/SVG/1.1/DTD/svg11.dtd">
<!-- Creator: CorelDRAW X6 -->
<svg xmlns="http://www.w3.org/2000/svg" xml:space="preserve" width="290px" height="300px" version="1.1" shape-rendering="geometricPrecision" text-rendering="geometricPrecision" image-rendering="optimizeQuality" fill-rule="evenodd" clip-rule="evenodd"
viewBox="0 0 29000000 29999949"
 xmlns:xlink="http://www.w3.org/1999/xlink">
 <g id="Layer_x0020_1">
  <metadata id="CorelCorpID_0Corel-Layer"/>
  <g>
   <polygon fill="#5A5A6E" fill-opacity="0.211765" points="6499981,4499998 22500019,4499998 22500019,20500007 6499981,20500007 "/>
   <polygon id="1" fill="none" stroke="#5A5A6E" stroke-width="99977.9" stroke-linecap="round" stroke-linejoin="round" points="6499981,4499998 22500019,4499998 22500019,20500007 6499981,20500007 "/>
  </g>
  <g>
   <path fill="black" fill-rule="nonzero" d="M-31153 -1344472l82092 -13209c4563,32853 17461,58025 38551,75656 21061,17462 50626,26249 88384,26249 38211,0 66529,-7710 85096,-23272 18397,-15421 27666,-33647 27666,-54567 0,-18737 -8334,-33506 -24831,-44192 -11651,-7399 -39969,-16696 -84955,-28177 -60689,-15250 -102699,-28459 -126283,-39628 -23443,-11310 -41216,-26731 -53320,-46545 -12104,-19672 -18255,-41527 -18255,-65423 0,-21884 5046,-42010 14939,-60548 10091,-18567 23612,-33988 40762,-46262 12898,-9439 30501,-17461 52668,-24066 22337,-6605 46091,-9893 71574,-9893 38381,0 72029,5499 100970,16668 29084,10998 50485,26107 64318,44986 13692,19020 23301,44333 28489,76110l-81156 11338c-3629,-25483 -14315,-45467 -31947,-59782 -17603,-14315 -42463,-21373 -74693,-21373 -37899,0 -65111,6292 -81325,18878 -16186,12558 -24378,27355 -24378,44192 0,10687 3316,20438 10063,29084 6774,8816 17319,16214 31776,22025 8334,3146 32570,10233 73134,21232 58507,15562 99411,28459 122683,38381 23273,9893 41528,24519 54737,43398 13351,19049 19956,42633 19956,70951 0,27525 -8022,53462 -24208,77840 -16214,24377 -39486,43256 -69845,56636 -30501,13351 -64942,19956 -103323,19956 -63553,0 -112139,-13210 -145474,-39459 -33364,-26447 -54595,-65452 -63865,-117184zm824797 146268l0 -72822c-38070,55530 -89660,83197 -154914,83197 -28800,0 -55700,-5500 -80702,-16498 -25001,-11169 -43568,-25030 -55672,-41698 -12104,-16809 -20608,-37275 -25484,-61483 -3288,-16356 -5017,-42151 -5017,-77386l0 -303080 83027 0 0 270992c0,43257 1729,72510 5045,87449 5188,21855 16186,38834 33194,51278 16809,12416 37587,18709 62419,18709 24860,0 48132,-6293 69846,-19020 21685,-12756 37105,-30218 46233,-52073 8957,-21855 13521,-53773 13521,-95471l0 -261864 83055 0 0 489770 -74551 0zm203981 0l0 -489770 74551 0 0 75033c19020,-34781 36652,-57742 52838,-68740 16214,-11169 33987,-16668 53319,-16668 28007,0 56466,8788 85408,26249l-29565 76592c-20126,-11310 -40280,-16979 -60406,-16979 -18085,0 -34271,5499 -48586,16355 -14315,10857 -24548,25966 -30671,45298 -9298,29424 -13833,61654 -13833,96746l0 255884 -83055 0zm334998 0l0 -425594 -73587 0 0 -64176 73587 0 0 -51902c0,-32882 2835,-57260 8646,-73134 8022,-21402 21883,-38863 42009,-52214 19984,-13380 48132,-19985 84302,-19985 23443,0 49238,2835 77528,8334l-12416 72681c-17291,-3005 -33505,-4564 -48926,-4564 -25143,0 -42916,5329 -53461,16044 -10375,10686 -15562,30671 -15562,59924l0 44816 95300 0 0 64176 -94365 0 0 425594 -83055 0zm562280 -61342c-30841,26277 -60548,44674 -89036,55531 -28460,10856 -58961,16186 -91672,16186 -53802,0 -95159,-13040 -124101,-39317 -28942,-26107 -43427,-59612 -43427,-100346 0,-23896 5528,-45751 16384,-65594 10999,-19814 25314,-35546 42917,-47480 17773,-11963 37587,-21090 59782,-27213 16356,-4252 41046,-8334 73900,-12416 67011,-7880 116560,-17461 148167,-28488 311,-11310 481,-18538 481,-21543 0,-33647 -7880,-57402 -23584,-71235 -21260,-18737 -52866,-28006 -94705,-28006 -39147,0 -68088,6917 -86655,20608 -18709,13691 -32400,37899 -41358,72822l-81156 -11339c7399,-34752 19503,-62900 36482,-84302 16980,-21373 41528,-37729 73616,-49380 31918,-11480 69194,-17291 111345,-17291 41839,0 75968,4876 102245,14769 26107,9921 45440,22195 57714,37133 12274,14939 20919,33818 25937,56608 2693,14174 4110,39629 4110,76281l0 110097c0,76904 1729,125518 5187,146126 3288,20608 10205,40252 20296,59131l-86825 0c-8334,-17462 -13691,-37899 -16044,-61342zm-6605 -184025c-30189,12274 -75486,22649 -135892,31153 -34300,4875 -58508,10375 -72652,16526 -14174,6123 -25030,15080 -32741,26730 -7681,11793 -11622,24832 -11622,39317 0,21855 8334,40252 25172,54879 16809,14626 41358,22025 73587,22025 31947,0 60407,-6917 85408,-20920 24860,-13833 43257,-32853 54907,-56920 8958,-18737 13352,-46261 13352,-82573l481 -30217zm531440 66076l81155 11310c-8957,55842 -31606,99411 -68258,131017 -36652,31606 -81779,47339 -135099,47339 -66841,0 -120642,-21856 -161235,-65594 -40733,-43710 -61001,-106299 -61001,-187767 0,-52866 8787,-98929 26249,-138586 17461,-39458 44050,-69193 79908,-88866 35688,-19814 74551,-29707 116703,-29707 53007,0 96576,13351 130223,40252 33818,26901 55531,65112 64970,114491l-80220 12274c-7710,-32853 -21232,-57543 -40904,-74239 -19502,-16498 -43087,-24831 -70781,-24831 -41840,0 -75799,14938 -102076,44815 -26107,30048 -39146,77216 -39146,142016 0,65764 12586,113414 37729,143121 25342,29736 58195,44674 98617,44674 32712,0 59925,-9893 81638,-29877 21855,-19814 35717,-50485 41528,-91842zm485999 20749l85890 11339c-13379,49833 -38381,88696 -74863,116220 -36510,27525 -83055,41358 -139833,41358 -71405,0 -128012,-22026 -169852,-66048 -41839,-43880 -62759,-105704 -62759,-185130 0,-82092 21062,-145956 63383,-191254 42293,-45439 97200,-68088 164664,-68088 65282,0 118602,22167 159959,66671 41358,44532 62136,107121 62136,187795 0,4876 -170,12274 -482,22025l-364734 0c3147,53632 18255,94848 45610,123307 27212,28460 61341,42775 102075,42775 30359,0 56296,-8022 77698,-24066 21543,-16044 38522,-41669 51108,-76904zm-271785 -133058l272749 0c-3628,-41216 -14173,-72028 -31323,-92636 -26249,-31918 -60548,-47962 -102529,-47962 -38069,0 -69987,12727 -95953,38211 -25795,25483 -40110,59612 -42944,102387zm429533 88696l0 -83027 256677 0 0 83027 -256677 0zm346337 202904l0 -489770 74551 0 0 75033c19021,-34781 36652,-57742 52838,-68740 16214,-11169 33987,-16668 53320,-16668 28006,0 56466,8788 85408,26249l-29566 76592c-20126,-11310 -40280,-16979 -60406,-16979 -18085,0 -34271,5499 -48586,16355 -14315,10857 -24548,25966 -30671,45298 -9297,29424 -13833,61654 -13833,96746l0 255884 -83055 0zm649247 -158542l85890 11339c-13380,49833 -38381,88696 -74863,116220 -36510,27525 -83055,41358 -139833,41358 -71405,0 -128013,-22026 -169852,-66048 -41839,-43880 -62759,-105704 -62759,-185130 0,-82092 21061,-145956 63383,-191254 42292,-45439 97200,-68088 164664,-68088 65282,0 118602,22167 159959,66671 41358,44532 62135,107121 62135,187795 0,4876 -170,12274 -481,22025l-364734 0c3146,53632 18255,94848 45609,123307 27213,28460 61342,42775 102076,42775 30359,0 56296,-8022 77697,-24066 21544,-16044 38523,-41669 51109,-76904zm-271786 -133058l272750 0c-3628,-41216 -14173,-72028 -31323,-92636 -26249,-31918 -60548,-47962 -102529,-47962 -38069,0 -69987,12727 -95953,38211 -25795,25483 -40110,59612 -42945,102387zm462558 -289701l0 -94365 83055 0 0 94365 -83055 0zm0 581301l0 -489770 83055 0 0 489770 -83055 0zm209650 0l0 -489770 74551 0 0 69505c35858,-53319 87761,-79880 155565,-79880 29566,0 56608,5329 81298,15874 24690,10545 43257,24548 55531,41698 12274,17121 20919,37587 25795,61171 2976,15421 4564,42293 4564,80674l0 300728 -83055 0 0 -297581c0,-33817 -3147,-59131 -9581,-75799 -6463,-16667 -17944,-30047 -34300,-40110 -16356,-9921 -35688,-14938 -57713,-14938 -35235,0 -65594,11168 -91219,33647 -25653,22337 -38381,64970 -38381,127559l0 267222 -83055 0zm544649 0l0 -425594 -73588 0 0 -64176 73588 0 0 -51902c0,-32882 2834,-57260 8645,-73134 8022,-21402 21884,-38863 42010,-52214 19984,-13380 48132,-19985 84302,-19985 23442,0 49238,2835 77528,8334l-12416 72681c-17292,-3005 -33506,-4564 -48926,-4564 -25143,0 -42917,5329 -53462,16044 -10374,10686 -15562,30671 -15562,59924l0 44816 95301 0 0 64176 -94365 0 0 425594 -83055 0zm211237 -244885c0,-90425 25144,-157436 75629,-201005 42009,-36170 93429,-54255 153977,-54255 67182,0 122230,22025 165005,66047 42605,43881 64006,104740 64006,182296 0,62901 -9439,112281 -28318,148309 -18878,36028 -46403,64006 -82573,83990 -36000,19985 -75486,29878 -118120,29878 -68570,0 -123930,-21856 -166223,-65736 -42321,-43880 -63383,-107121 -63383,-189524zm84926 170c0,62589 13692,109446 41046,140428 27524,31153 61965,46715 103634,46715 41216,0 75515,-15562 103040,-46857 27354,-31294 41045,-78973 41045,-142979 0,-60378 -13833,-106157 -41357,-137140 -27524,-31153 -61824,-46715 -102728,-46715 -41669,0 -76110,15420 -103634,46403 -27354,30983 -41046,77698 -41046,140145zm470098 244715l0 -489770 74551 0 0 75033c19020,-34781 36652,-57742 52838,-68740 16214,-11169 33987,-16668 53319,-16668 28007,0 56466,8788 85408,26249l-29565 76592c-20126,-11310 -40281,-16979 -60407,-16979 -18085,0 -34270,5499 -48585,16355 -14315,10857 -24548,25966 -30671,45298 -9298,29424 -13833,61654 -13833,96746l0 255884 -83055 0zm635102 -179291l81156 11310c-8958,55842 -31607,99411 -68259,131017 -36652,31606 -81779,47339 -135099,47339 -66841,0 -120642,-21856 -161234,-65594 -40734,-43710 -61002,-106299 -61002,-187767 0,-52866 8787,-98929 26249,-138586 17461,-39458 44050,-69193 79909,-88866 35688,-19814 74551,-29707 116702,-29707 53008,0 96576,13351 130223,40252 33818,26901 55531,65112 64970,114491l-80220 12274c-7710,-32853 -21231,-57543 -40904,-74239 -19502,-16498 -43087,-24831 -70781,-24831 -41839,0 -75798,14938 -102076,44815 -26107,30048 -39146,77216 -39146,142016 0,65764 12586,113414 37729,143121 25342,29736 58195,44674 98617,44674 32712,0 59925,-9893 81638,-29877 21855,-19814 35717,-50485 41528,-91842zm486000 20749l85889 11339c-13379,49833 -38381,88696 -74863,116220 -36510,27525 -83055,41358 -139833,41358 -71404,0 -128012,-22026 -169852,-66048 -41839,-43880 -62759,-105704 -62759,-185130 0,-82092 21062,-145956 63383,-191254 42293,-45439 97200,-68088 164664,-68088 65282,0 118602,22167 159959,66671 41358,44532 62136,107121 62136,187795 0,4876 -170,12274 -482,22025l-364734 0c3147,53632 18255,94848 45610,123307 27212,28460 61341,42775 102075,42775 30359,0 56296,-8022 77698,-24066 21543,-16044 38523,-41669 51109,-76904zm-271786 -133058l272749 0c-3628,-41216 -14173,-72028 -31323,-92636 -26248,-31918 -60548,-47962 -102529,-47962 -38069,0 -69987,12727 -95952,38211 -25796,25483 -40111,59612 -42945,102387zm462557 291600l0 -489770 74551 0 0 69194c15251,-23896 35717,-43257 61200,-57714 25455,-14627 54397,-21855 86967,-21855 36170,0 65906,7540 89008,22479 23131,15109 39487,36028 48926,63071 39005,-57090 89490,-85550 151767,-85550 48756,0 86343,13351 112450,40252 26277,26901 39487,68258 39487,124101l0 335792 -83055 0 0 -308268c0,-33023 -2807,-56948 -8164,-71575 -5358,-14626 -15109,-26248 -29424,-35206 -14145,-8986 -30812,-13379 -49861,-13379 -34583,0 -63213,11480 -86032,34270 -22790,22989 -34129,59613 -34129,109956l0 284202 -83026 0 0 -317877c0,-36794 -6775,-64460 -20297,-82885 -13521,-18397 -35688,-27666 -66359,-27666 -23300,0 -44844,6122 -64658,18396 -19814,12274 -34129,30189 -43086,53944 -8816,23584 -13210,57713 -13210,102245l0 253843 -83055 0zm1120138 -158542l85890 11339c-13380,49833 -38381,88696 -74863,116220 -36510,27525 -83055,41358 -139833,41358 -71405,0 -128013,-22026 -169852,-66048 -41839,-43880 -62759,-105704 -62759,-185130 0,-82092 21061,-145956 63383,-191254 42293,-45439 97200,-68088 164664,-68088 65282,0 118602,22167 159959,66671 41358,44532 62136,107121 62136,187795 0,4876 -171,12274 -482,22025l-364734 0c3146,53632 18255,94848 45609,123307 27213,28460 61342,42775 102076,42775 30359,0 56296,-8022 77698,-24066 21543,-16044 38522,-41669 51108,-76904zm-271786 -133058l272750 0c-3628,-41216 -14173,-72028 -31323,-92636 -26249,-31918 -60548,-47962 -102529,-47962 -38069,0 -69987,12727 -95953,38211 -25795,25483 -40110,59612 -42945,102387zm462558 291600l0 -489770 74551 0 0 69505c35858,-53319 87760,-79880 155565,-79880 29566,0 56608,5329 81298,15874 24690,10545 43256,24548 55530,41698 12274,17121 20920,37587 25796,61171 2976,15421 4564,42293 4564,80674l0 300728 -83056 0 0 -297581c0,-33817 -3146,-59131 -9581,-75799 -6463,-16667 -17943,-30047 -34299,-40110 -16356,-9921 -35688,-14938 -57713,-14938 -35235,0 -65594,11168 -91219,33647 -25654,22337 -38381,64970 -38381,127559l0 267222 -83055 0zm705089 -74069l11310 73275c-23272,4876 -44192,7399 -62418,7399 -30048,0 -53320,-4706 -70016,-14315 -16498,-9582 -28148,-22026 -34895,-37588 -6774,-15562 -10063,-48274 -10063,-98135l0 -282161 -61341 0 0 -64176 61341 0 0 -121096 83027 -49861 0 170957 83055 0 0 64176 -83055 0 0 286866c0,23755 1417,39005 4422,45780 2806,6746 7540,12104 14145,16186 6605,3940 16044,5981 28318,5981 9099,0 21232,-1106 36170,-3288zm5499 261864l0 -59443 549213 0 0 59443 -549213 0zm601257 -187795l0 -489770 74551 0 0 69194c15250,-23896 35717,-43257 61200,-57714 25455,-14627 54397,-21855 86967,-21855 36170,0 65905,7540 89008,22479 23130,15109 39486,36028 48926,63071 39004,-57090 89489,-85550 151767,-85550 48755,0 86343,13351 112450,40252 26277,26901 39486,68258 39486,124101l0 335792 -83055 0 0 -308268c0,-33023 -2806,-56948 -8163,-71575 -5358,-14626 -15109,-26248 -29424,-35206 -14145,-8986 -30813,-13379 -49861,-13379 -34583,0 -63213,11480 -86032,34270 -22790,22989 -34129,59613 -34129,109956l0 284202 -83027 0 0 -317877c0,-36794 -6775,-64460 -20296,-82885 -13521,-18397 -35688,-27666 -66359,-27666 -23301,0 -44844,6122 -64658,18396 -19814,12274 -34129,30189 -43087,53944 -8815,23584 -13209,57713 -13209,102245l0 253843 -83055 0zm1105993 -61342c-30841,26277 -60548,44674 -89036,55531 -28460,10856 -58961,16186 -91673,16186 -53801,0 -95159,-13040 -124100,-39317 -28942,-26107 -43427,-59612 -43427,-100346 0,-23896 5528,-45751 16384,-65594 10999,-19814 25314,-35546 42917,-47480 17773,-11963 37587,-21090 59782,-27213 16356,-4252 41046,-8334 73900,-12416 67011,-7880 116560,-17461 148166,-28488 312,-11310 482,-18538 482,-21543 0,-33647 -7880,-57402 -23584,-71235 -21260,-18737 -52866,-28006 -94705,-28006 -39147,0 -68089,6917 -86655,20608 -18709,13691 -32400,37899 -41358,72822l-81156 -11339c7399,-34752 19503,-62900 36482,-84302 16980,-21373 41528,-37729 73616,-49380 31918,-11480 69193,-17291 111345,-17291 41839,0 75968,4876 102245,14769 26107,9921 45440,22195 57714,37133 12274,14939 20919,33818 25937,56608 2693,14174 4110,39629 4110,76281l0 110097c0,76904 1729,125518 5187,146126 3288,20608 10205,40252 20296,59131l-86825 0c-8334,-17462 -13691,-37899 -16044,-61342zm-6605 -184025c-30189,12274 -75486,22649 -135893,31153 -34299,4875 -58507,10375 -72651,16526 -14174,6123 -25030,15080 -32741,26730 -7681,11793 -11622,24832 -11622,39317 0,21855 8334,40252 25172,54879 16809,14626 41357,22025 73587,22025 31947,0 60407,-6917 85408,-20920 24860,-13833 43257,-32853 54907,-56920 8958,-18737 13351,-46261 13351,-82573l482 -30217zm211522 -335934l0 -94365 83055 0 0 94365 -83055 0zm0 581301l0 -489770 83055 0 0 489770 -83055 0zm209650 0l0 -489770 74551 0 0 69505c35858,-53319 87761,-79880 155565,-79880 29566,0 56608,5329 81298,15874 24690,10545 43257,24548 55531,41698 12274,17121 20919,37587 25795,61171 2976,15421 4564,42293 4564,80674l0 300728 -83055 0 0 -297581c0,-33817 -3147,-59131 -9582,-75799 -6463,-16667 -17943,-30047 -34299,-40110 -16356,-9921 -35688,-14938 -57713,-14938 -35235,0 -65594,11168 -91219,33647 -25654,22337 -38381,64970 -38381,127559l0 267222 -83055 0zm448412 187795l0 -59443 549213 0 0 59443 -549213 0zm601257 -769096l0 -94365 83055 0 0 94365 -83055 0zm0 581301l0 -489770 83055 0 0 489770 -83055 0zm622034 -79257l0 79257 -447307 0c-623,-19984 2693,-39175 9751,-57714 11481,-30359 29906,-60406 55219,-89801 25314,-29424 61484,-63411 108510,-101934 73134,-60236 122854,-107886 148791,-143121 26107,-35235 39175,-68570 39175,-100035 0,-32882 -11792,-60548 -35405,-83197 -23584,-22478 -54397,-33817 -92296,-33817 -40110,0 -72198,11962 -96265,35858 -24066,23755 -36170,56778 -36481,99100l-84955 -8504c5840,-63553 27836,-111997 65906,-145333 38211,-33335 89348,-50003 153666,-50003 64800,0 116220,17915 153978,53944 37899,36028 56778,80674 56778,133851 0,27043 -5500,53632 -16668,79739 -10999,26249 -29424,53773 -55049,82715 -25795,28800 -68428,68570 -127871,118913 -49861,41840 -81949,70158 -96094,85096 -14145,14939 -25795,29877 -35065,44986l331682 0zm36028 267052l0 -59443 549213 0 0 59443 -549213 0zm570132 -432680c0,-90425 25144,-157436 75629,-201005 42009,-36170 93430,-54255 153978,-54255 67181,0 122229,22025 165004,66047 42605,43881 64007,104740 64007,182296 0,62901 -9440,112281 -28319,148309 -18878,36028 -46403,64006 -82573,83990 -36000,19985 -75486,29878 -118119,29878 -68570,0 -123931,-21856 -166224,-65736 -42321,-43880 -63383,-107121 -63383,-189524zm84926 170c0,62589 13692,109446 41046,140428 27524,31153 61965,46715 103635,46715 41215,0 75515,-15562 103039,-46857 27354,-31294 41046,-78973 41046,-142979 0,-60378 -13833,-106157 -41358,-137140 -27524,-31153 -61823,-46715 -102727,-46715 -41670,0 -76111,15420 -103635,46403 -27354,30983 -41046,77698 -41046,140145zm471033 244715l0 -489770 74551 0 0 69505c35859,-53319 87761,-79880 155566,-79880 29565,0 56607,5329 81297,15874 24690,10545 43257,24548 55531,41698 12274,17121 20920,37587 25795,61171 2977,15421 4564,42293 4564,80674l0 300728 -83055 0 0 -297581c0,-33817 -3147,-59131 -9581,-75799 -6463,-16667 -17944,-30047 -34299,-40110 -16356,-9921 -35689,-14938 -57714,-14938 -35234,0 -65593,11168 -91219,33647 -25653,22337 -38381,64970 -38381,127559l0 267222 -83055 0zm491811 -202904l0 -83027 256677 0 0 83027 -256677 0zm314249 56636l82091 -13209c4564,32853 17461,58025 38551,75656 21062,17462 50627,26249 88384,26249 38211,0 66529,-7710 85096,-23272 18397,-15421 27667,-33647 27667,-54567 0,-18737 -8334,-33506 -24832,-44192 -11650,-7399 -39968,-16696 -84954,-28177 -60690,-15250 -102699,-28459 -126284,-39628 -23442,-11310 -41215,-26731 -53319,-46545 -12104,-19672 -18255,-41527 -18255,-65423 0,-21884 5045,-42010 14938,-60548 10091,-18567 23613,-33988 40762,-46262 12898,-9439 30501,-17461 52668,-24066 22337,-6605 46091,-9893 71575,-9893 38381,0 72028,5499 100970,16668 29083,10998 50485,26107 64318,44986 13691,19020 23301,44333 28488,76110l-81156 11338c-3628,-25483 -14315,-45467 -31946,-59782 -17603,-14315 -42463,-21373 -74693,-21373 -37899,0 -65112,6292 -81326,18878 -16186,12558 -24378,27355 -24378,44192 0,10687 3317,20438 10063,29084 6775,8816 17320,16214 31776,22025 8334,3146 32570,10233 73134,21232 58507,15562 99411,28459 122684,38381 23272,9893 41527,24519 54737,43398 13351,19049 19955,42633 19955,70951 0,27525 -8022,53462 -24207,77840 -16215,24377 -39487,43256 -69846,56636 -30501,13351 -64942,19956 -103323,19956 -63553,0 -112138,-13210 -145474,-39459 -33364,-26447 -54595,-65452 -63864,-117184zm824796 146268l0 -72822c-38069,55530 -89660,83197 -154913,83197 -28800,0 -55701,-5500 -80702,-16498 -25002,-11169 -43569,-25030 -55673,-41698 -12104,-16809 -20608,-37275 -25483,-61483 -3289,-16356 -5018,-42151 -5018,-77386l0 -303080 83027 0 0 270992c0,43257 1729,72510 5046,87449 5187,21855 16186,38834 33193,51278 16810,12416 37588,18709 62419,18709 24860,0 48133,-6293 69846,-19020 21685,-12756 37105,-30218 46233,-52073 8957,-21855 13521,-53773 13521,-95471l0 -261864 83055 0 0 489770 -74551 0zm203981 0l0 -489770 74551 0 0 75033c19021,-34781 36652,-57742 52838,-68740 16214,-11169 33988,-16668 53320,-16668 28006,0 56466,8788 85408,26249l-29566 76592c-20126,-11310 -40280,-16979 -60406,-16979 -18085,0 -34271,5499 -48586,16355 -14315,10857 -24548,25966 -30671,45298 -9297,29424 -13833,61654 -13833,96746l0 255884 -83055 0zm334998 0l0 -425594 -73587 0 0 -64176 73587 0 0 -51902c0,-32882 2835,-57260 8646,-73134 8022,-21402 21884,-38863 42010,-52214 19984,-13380 48132,-19985 84302,-19985 23442,0 49238,2835 77527,8334l-12415 72681c-17292,-3005 -33506,-4564 -48926,-4564 -25144,0 -42917,5329 -53462,16044 -10374,10686 -15562,30671 -15562,59924l0 44816 95301 0 0 64176 -94365 0 0 425594 -83056 0zm562281 -61342c-30841,26277 -60548,44674 -89037,55531 -28459,10856 -58960,16186 -91672,16186 -53802,0 -95159,-13040 -124101,-39317 -28941,-26107 -43427,-59612 -43427,-100346 0,-23896 5528,-45751 16385,-65594 10998,-19814 25313,-35546 42916,-47480 17773,-11963 37588,-21090 59783,-27213 16356,-4252 41046,-8334 73899,-12416 67011,-7880 116561,-17461 148167,-28488 312,-11310 482,-18538 482,-21543 0,-33647 -7880,-57402 -23584,-71235 -21260,-18737 -52867,-28006 -94706,-28006 -39146,0 -68088,6917 -86655,20608 -18709,13691 -32400,37899 -41357,72822l-81156 -11339c7398,-34752 19502,-62900 36482,-84302 16979,-21373 41527,-37729 73615,-49380 31918,-11480 69194,-17291 111345,-17291 41839,0 75969,4876 102246,14769 26107,9921 45439,22195 57713,37133 12274,14939 20920,33818 25937,56608 2693,14174 4110,39629 4110,76281l0 110097c0,76904 1729,125518 5188,146126 3288,20608 10204,40252 20296,59131l-86825 0c-8334,-17462 -13692,-37899 -16044,-61342zm-6605 -184025c-30189,12274 -75487,22649 -135893,31153 -34299,4875 -58507,10375 -72652,16526 -14173,6123 -25030,15080 -32740,26730 -7682,11793 -11622,24832 -11622,39317 0,21855 8334,40252 25172,54879 16809,14626 41357,22025 73587,22025 31946,0 60406,-6917 85408,-20920 24860,-13833 43256,-32853 54907,-56920 8957,-18737 13351,-46261 13351,-82573l482 -30217zm531439 66076l81156 11310c-8958,55842 -31606,99411 -68258,131017 -36652,31606 -81780,47339 -135100,47339 -66840,0 -120642,-21856 -161234,-65594 -40734,-43710 -61002,-106299 -61002,-187767 0,-52866 8788,-98929 26249,-138586 17462,-39458 44051,-69193 79909,-88866 35688,-19814 74551,-29707 116702,-29707 53008,0 96576,13351 130224,40252 33817,26901 55530,65112 64970,114491l-80221 12274c-7710,-32853 -21231,-57543 -40904,-74239 -19502,-16498 -43086,-24831 -70781,-24831 -41839,0 -75798,14938 -102075,44815 -26107,30048 -39147,77216 -39147,142016 0,65764 12586,113414 37729,143121 25342,29736 58196,44674 98618,44674 32711,0 59924,-9893 81637,-29877 21856,-19814 35717,-50485 41528,-91842z"/>
   <path fill="black" fill-rule="nonzero" d="M17802361 -1356746l85889 11339c-13379,49833 -38381,88696 -74862,116220 -36511,27525 -83056,41358 -139833,41358 -71405,0 -128013,-22026 -169852,-66048 -41840,-43880 -62759,-105704 -62759,-185130 0,-82092 21061,-145956 63382,-191254 42293,-45439 97200,-68088 164665,-68088 65282,0 118601,22167 159959,66671 41357,44532 62135,107121 62135,187795 0,4876 -170,12274 -482,22025l-364733 0c3146,53632 18255,94848 45609,123307 27213,28460 61342,42775 102076,42775 30359,0 56296,-8022 77697,-24066 21543,-16044 38523,-41669 51109,-76904zm-271786 -133058l272750 0c-3629,-41216 -14174,-72028 -31323,-92636 -26249,-31918 -60548,-47962 -102529,-47962 -38070,0 -69988,12727 -95953,38211 -25795,25483 -40110,59612 -42945,102387zm386135 479395l0 -59443 549213 0 0 59443 -549213 0zm3505265 -334063l82091 -13209c4564,32853 17462,58025 38551,75656 21062,17462 50627,26249 88385,26249 38211,0 66529,-7710 85096,-23272 18396,-15421 27666,-33647 27666,-54567 0,-18737 -8334,-33506 -24832,-44192 -11650,-7399 -39968,-16696 -84954,-28177 -60690,-15250 -102699,-28459 -126283,-39628 -23443,-11310 -41216,-26731 -53320,-46545 -12104,-19672 -18255,-41527 -18255,-65423 0,-21884 5045,-42010 14938,-60548 10092,-18567 23613,-33988 40763,-46262 12897,-9439 30500,-17461 52667,-24066 22337,-6605 46092,-9893 71575,-9893 38381,0 72028,5499 100970,16668 29084,10998 50485,26107 64318,44986 13692,19020 23301,44333 28488,76110l-81156 11338c-3628,-25483 -14314,-45467 -31946,-59782 -17603,-14315 -42463,-21373 -74693,-21373 -37899,0 -65112,6292 -81326,18878 -16186,12558 -24378,27355 -24378,44192 0,10687 3317,20438 10063,29084 6775,8816 17320,16214 31777,22025 8333,3146 32570,10233 73133,21232 58507,15562 99411,28459 122684,38381 23272,9893 41527,24519 54737,43398 13351,19049 19956,42633 19956,70951 0,27525 -8022,53462 -24208,77840 -16214,24377 -39487,43256 -69846,56636 -30501,13351 -64941,19956 -103323,19956 -63552,0 -112138,-13210 -145474,-39459 -33363,-26447 -54595,-65452 -63864,-117184zm638730 146268l-184818 -489770 88866 0 104768 293329c11310,31606 21855,64488 31436,98617 7399,-25795 17632,-56778 30983,-93118l108850 -298828 85238 0 -185414 489770 -79909 0zm322753 40592l80220 11310c3289,24860 12728,42945 28148,54425 20608,15251 48756,22961 84445,22961 38381,0 68116,-7710 89036,-22961 20919,-15250 35064,-36822 42463,-64346 4252,-16810 6293,-52214 5981,-106158 -36340,42775 -81468,64177 -135581,64177 -67323,0 -119537,-24208 -156331,-72822 -36964,-48444 -55361,-106640 -55361,-174416 0,-46715 8476,-89801 25314,-129288 16838,-39487 41357,-69846 73445,-91389 32089,-21543 69846,-32230 113245,-32230 57713,0 105392,23584 142809,70781l0 -60406 76450 0 0 422929c0,76280 -7710,130223 -23272,162000 -15421,31776 -40110,56919 -73616,75345 -33675,18397 -75033,27666 -124101,27666 -58337,0 -105363,-13040 -141222,-39317 -36028,-26107 -53319,-65593 -52072,-118261zm67946 -293811c0,64006 12728,110721 38211,140145 25654,29395 57572,44192 95953,44192 38211,0 70129,-14627 96095,-43880 25795,-29254 38692,-75175 38692,-137792 0,-59755 -13379,-104911 -39940,-135241 -26589,-30359 -58677,-45468 -96122,-45468 -36936,0 -68259,14939 -94196,44816 -25795,29905 -38693,74239 -38693,133228zm-3934373 253219l0 -489770 74551 0 0 75033c19021,-34781 36652,-57742 52838,-68740 16214,-11169 33988,-16668 53320,-16668 28006,0 56466,8788 85408,26249l-29566 76592c-20126,-11310 -40280,-16979 -60406,-16979 -18085,0 -34271,5499 -48586,16355 -14315,10857 -24548,25966 -30671,45298 -9297,29424 -13833,61654 -13833,96746l0 255884 -83055 0zm649247 -158542l85890 11339c-13380,49833 -38381,88696 -74863,116220 -36510,27525 -83055,41358 -139833,41358 -71405,0 -128012,-22026 -169852,-66048 -41839,-43880 -62759,-105704 -62759,-185130 0,-82092 21062,-145956 63383,-191254 42293,-45439 97200,-68088 164664,-68088 65282,0 118602,22167 159959,66671 41358,44532 62136,107121 62136,187795 0,4876 -170,12274 -482,22025l-364734 0c3147,53632 18255,94848 45609,123307 27213,28460 61342,42775 102076,42775 30359,0 56296,-8022 77698,-24066 21543,-16044 38522,-41669 51108,-76904zm-271785 -133058l272749 0c-3628,-41216 -14173,-72028 -31323,-92636 -26249,-31918 -60548,-47962 -102529,-47962 -38069,0 -69987,12727 -95953,38211 -25795,25483 -40110,59612 -42944,102387zm539007 291600l-77386 0 0 -675666 83056 0 0 241086c35064,-43710 79738,-65565 134135,-65565 30047,0 58677,5981 85578,18085 26901,12104 48897,29254 66359,51109 17320,22025 30982,48444 40734,79427 9921,30840 14797,64006 14797,99240 0,83679 -20778,148479 -62136,194089 -41527,45779 -91219,68570 -149244,68570 -57742,0 -103039,-24067 -135893,-72029l0 61654zm-964 -248513c0,58507 8022,100828 23925,126935 26107,42633 61342,64006 105845,64006 36341,0 67635,-15732 93884,-47168 26447,-31465 39657,-78322 39657,-140627 0,-63836 -12586,-110863 -37928,-141222 -25313,-30359 -55984,-45609 -91842,-45609 -36341,0 -67635,15732 -93884,47168 -26419,31465 -39657,76904 -39657,136517zm769266 187171c-30841,26277 -60548,44674 -89036,55531 -28460,10856 -58961,16186 -91672,16186 -53802,0 -95159,-13040 -124101,-39317 -28942,-26107 -43427,-59612 -43427,-100346 0,-23896 5528,-45751 16384,-65594 10999,-19814 25314,-35546 42917,-47480 17773,-11963 37587,-21090 59783,-27213 16355,-4252 41045,-8334 73899,-12416 67011,-7880 116560,-17461 148167,-28488 311,-11310 482,-18538 482,-21543 0,-33647 -7881,-57402 -23585,-71235 -21260,-18737 -52866,-28006 -94705,-28006 -39147,0 -68088,6917 -86655,20608 -18709,13691 -32400,37899 -41358,72822l-81156 -11339c7399,-34752 19503,-62900 36482,-84302 16980,-21373 41528,-37729 73616,-49380 31918,-11480 69194,-17291 111345,-17291 41839,0 75968,4876 102245,14769 26108,9921 45440,22195 57714,37133 12274,14939 20919,33818 25937,56608 2693,14174 4110,39629 4110,76281l0 110097c0,76904 1729,125518 5187,146126 3289,20608 10205,40252 20296,59131l-86825 0c-8334,-17462 -13691,-37899 -16044,-61342zm-6604 -184025c-30189,12274 -75487,22649 -135893,31153 -34300,4875 -58507,10375 -72652,16526 -14173,6123 -25030,15080 -32740,26730 -7682,11793 -11622,24832 -11622,39317 0,21855 8333,40252 25171,54879 16810,14626 41358,22025 73588,22025 31946,0 60406,-6917 85407,-20920 24860,-13833 43257,-32853 54907,-56920 8958,-18737 13352,-46261 13352,-82573l482 -30217zm210585 245367l0 -489770 74551 0 0 75033c19021,-34781 36652,-57742 52838,-68740 16214,-11169 33988,-16668 53320,-16668 28006,0 56466,8788 85408,26249l-29566 76592c-20126,-11310 -40280,-16979 -60406,-16979 -18085,0 -34271,5499 -48586,16355 -14315,10857 -24548,25966 -30671,45298 -9297,29424 -13833,61654 -13833,96746l0 255884 -83055 0zm282161 -146268l82091 -13209c4564,32853 17461,58025 38551,75656 21062,17462 50627,26249 88384,26249 38211,0 66530,-7710 85096,-23272 18397,-15421 27667,-33647 27667,-54567 0,-18737 -8334,-33506 -24832,-44192 -11650,-7399 -39968,-16696 -84954,-28177 -60690,-15250 -102699,-28459 -126284,-39628 -23442,-11310 -41215,-26731 -53319,-46545 -12104,-19672 -18255,-41527 -18255,-65423 0,-21884 5045,-42010 14938,-60548 10092,-18567 23613,-33988 40762,-46262 12898,-9439 30501,-17461 52668,-24066 22337,-6605 46091,-9893 71575,-9893 38381,0 72028,5499 100970,16668 29083,10998 50485,26107 64318,44986 13691,19020 23301,44333 28488,76110l-81156 11338c-3628,-25483 -14315,-45467 -31946,-59782 -17603,-14315 -42463,-21373 -74693,-21373 -37899,0 -65112,6292 -81326,18878 -16186,12558 -24378,27355 -24378,44192 0,10687 3317,20438 10063,29084 6775,8816 17320,16214 31776,22025 8334,3146 32570,10233 73134,21232 58507,15562 99411,28459 122684,38381 23272,9893 41527,24519 54737,43398 13351,19049 19956,42633 19956,70951 0,27525 -8022,53462 -24208,77840 -16214,24377 -39487,43256 -69846,56636 -30501,13351 -64942,19956 -103323,19956 -63552,0 -112138,-13210 -145474,-39459 -33363,-26447 -54595,-65452 -63864,-117184zm528463 146268l0 -94366 94393 0 0 94366 -94393 0z"/>
  </g>
  <line fill="none" stroke="#B2D7FB" stroke-width="149981" x1="7700000" y1="4899966" x2="7700000" y2= "20099953" />
  <polyline fill="none" stroke="#B2D7FB" stroke-width="149981" points="21300000,4899966 21300000,20099925 21300000,20099953 "/>
  <line fill="none" stroke="#B2D7FB" stroke-width="149981" x1="9399993" y1="4899966" x2="9399993" y2= "20099953" />
  <line fill="none" stroke="#B2D7FB" stroke-width="149981" x1="11099986" y1="4899966" x2="11099986" y2= "20099953" />
  <line fill="none" stroke="#B2D7FB" stroke-width="149981" x1="12799979" y1="4899966" x2="12799979" y2= "20099953" />
  <line fill="none" stroke="#B2D7FB" stroke-width="149981" x1="14499972" y1="4899966" x2="14499972" y2= "20099953" />
  <line fill="none" stroke="#B2D7FB" stroke-width="149981" x1="16199965" y1="4899966" x2="16199965" y2= "20099953" />
  <line fill="none" stroke="#B2D7FB" stroke-width="149981" x1="17899958" y1="4899966" x2="17899958" y2= "20099953" />
  <line fill="none" stroke="#B2D7FB" stroke-width="149981" x1="19599951" y1="4899966" x2="19599951" y2= "20099953" />
  <line fill="none" stroke="#5A5A6E" stroke-width="50003.1" x1="12799979" y1="22499905" x2="14499972" y2= "22499905" />
  <path fill="#5A5A6E" fill-rule="nonzero" d="M13449509 22032161l104400 -16810c5811,41783 22195,73786 49011,96208 26787,22195 64403,33392 112394,33392 48586,0 84586,-9808 108198,-29594 23386,-19615 35206,-42803 35206,-69420 0,-23783 -10601,-42576 -31606,-56183 -14797,-9411 -50797,-21203 -108000,-35801 -77187,-19389 -130592,-36199 -160611,-50400 -29792,-14400 -52384,-33988 -67776,-59188 -15421,-25001 -23216,-52809 -23216,-83197 0,-27807 6406,-53404 19021,-77017 12784,-23584 29990,-43200 51789,-58790 16384,-11991 38806,-22196 66982,-30586 28403,-8419 58621,-12614 91021,-12614 48784,0 91587,7001 128381,21203 36992,14003 64204,33194 81807,57203 17405,24179 29594,56381 36199,96803l-103210 14372c-4592,-32372 -18198,-57770 -40592,-75997 -22393,-18199 -54000,-27184 -94989,-27184 -48217,0 -82800,7993 -103407,24009 -20608,15987 -31011,34781 -31011,56183 0,13606 4223,25993 12812,36992 8589,11197 21997,20608 40394,28006 10601,3997 41414,13011 93005,27014 74409,19786 126396,36199 155990,48785 29594,12614 52809,31209 69591,55190 17007,24208 25398,54198 25398,90198 0,35008 -10176,68004 -30784,99015 -20608,30982 -50202,54992 -88810,72000 -38778,16979 -82601,25398 -131385,25398 -80788,0 -142611,-16809 -184989,-50202 -42407,-33618 -69392,-83196 -81213,-148988z"/>
  <line fill="none" stroke="#5A5A6E" stroke-width="50003.1" x1="12799979" y1="21709323" x2="12799979" y2= "22931848" />
  <line fill="none" stroke="#5A5A6E" stroke-width="50003.1" x1="14499972" y1="21709323" x2="14499972" y2= "22931848" />
  <polygon fill="#5A5A6E" stroke="#5A5A6E" stroke-width="21543.3" stroke-linejoin="round" points="13279544,22672960 13279572,22317354 12799979,22499962 "/>
  <polygon fill="#5A5A6E" stroke="#5A5A6E" stroke-width="21543.3" stroke-linejoin="round" points="14020321,22327219 14020492,22682825 14499972,22499990 "/>
 </g>
</svg>
