<?xml version="1.0" encoding="UTF-8" standalone="no"?>
<svg width="35.2778mm" height="35.2778mm"
 viewBox="0 0 100 100"
 xmlns="http://www.w3.org/2000/svg" xmlns:xlink="http://www.w3.org/1999/xlink"  version="1.2" baseProfile="tiny">
<title>Qt SVG Document</title>
<desc>Generated with Qt</desc>
<defs>
</defs>
<g fill="none" stroke="black" stroke-width="1" fill-rule="evenodd" stroke-linecap="square" stroke-linejoin="bevel" >

<g fill="#ffffff" fill-opacity="1" stroke="none" transform="matrix(1,0,0,1,0,0)"
font-family="Segoe UI" font-size="8.25" font-weight="400" font-style="normal" 
>
<rect x="0" y="0" width="100" height="100"/>
</g>

<g fill="none" stroke="#000000" stroke-opacity="1" stroke-width="1" stroke-linecap="square" stroke-linejoin="bevel" transform="matrix(1,0,0,1,0,0)"
font-family="Segoe UI" font-size="8.25" font-weight="400" font-style="normal" 
>
</g>

<g fill="none" stroke="#000000" stroke-opacity="1" stroke-width="1" stroke-linecap="square" stroke-linejoin="bevel" transform="matrix(1,0,0,1,0,0)"
font-family="Segoe UI" font-size="8.25" font-weight="400" font-style="normal" 
>
</g>

<g fill="#6ebeeb" fill-opacity="1" stroke="#464646" stroke-opacity="1" stroke-width="1" stroke-linecap="square" stroke-linejoin="bevel" transform="matrix(1,0,0,1,0,0)"
font-family="Segoe UI" font-size="8.25" font-weight="400" font-style="normal" 
>
<path vector-effect="none" fill-rule="evenodd" d="M72.5,5 L72.5,95 L27.5,95 L27.5,5 L72.5,5"/>
</g>

<g fill="#ffffff" fill-opacity="1" stroke="#ffffff" stroke-opacity="1" stroke-width="1" stroke-linecap="square" stroke-linejoin="bevel" transform="matrix(1,0,0,1,0,0)"
font-family="Segoe UI" font-size="8.25" font-weight="400" font-style="normal" 
>
<path vector-effect="none" fill-rule="evenodd" d=""/>
<path vector-effect="none" fill-rule="evenodd" d=""/>
<path vector-effect="none" fill-rule="evenodd" d=""/>
<path vector-effect="none" fill-rule="evenodd" d=""/>
<path vector-effect="none" fill-rule="evenodd" d="M72.5,84.0685 L72.5,85.4828 L62.9828,95 L61.5685,95 L72.5,84.0685"/>
<path vector-effect="none" fill-rule="evenodd" d="M72.5,72.7548 L72.5,74.169 L51.669,95 L50.2548,95 L72.5,72.7548"/>
<path vector-effect="none" fill-rule="evenodd" d="M72.5,61.4411 L72.5,62.8553 L40.3553,95 L38.9411,95 L72.5,61.4411"/>
<path vector-effect="none" fill-rule="evenodd" d="M72.5,50.1274 L72.5,51.5416 L29.0416,95 L27.6274,95 L72.5,50.1274"/>
<path vector-effect="none" fill-rule="evenodd" d="M72.5,38.8137 L72.5,40.2279 L27.5,85.2279 L27.5,83.8137 L72.5,38.8137"/>
<path vector-effect="none" fill-rule="evenodd" d="M72.5,27.5 L72.5,28.9142 L27.5,73.9142 L27.5,72.5 L72.5,27.5"/>
<path vector-effect="none" fill-rule="evenodd" d="M72.5,16.1863 L72.5,17.6005 L27.5,62.6005 L27.5,61.1863 L72.5,16.1863"/>
<path vector-effect="none" fill-rule="evenodd" d="M72.5,5 L72.5,6.2868 L27.5,51.2868 L27.5,49.8726 L72.3726,5 L72.5,5"/>
<path vector-effect="none" fill-rule="evenodd" d="M27.5,39.9731 L27.5,38.5589 L61.0589,5 L62.4731,5 L27.5,39.9731"/>
<path vector-effect="none" fill-rule="evenodd" d="M27.5,28.6594 L27.5,27.2452 L49.7452,5 L51.1594,5 L27.5,28.6594"/>
<path vector-effect="none" fill-rule="evenodd" d="M27.5,17.3457 L27.5,15.9315 L38.4315,5 L39.8457,5 L27.5,17.3457"/>
<path vector-effect="none" fill-rule="evenodd" d="M27.5,6.03196 L27.5,5 L28.532,5 L27.5,6.03196"/>
<path vector-effect="none" fill-rule="evenodd" d=""/>
<path vector-effect="none" fill-rule="evenodd" d=""/>
</g>

<g fill="none" stroke="#464646" stroke-opacity="1" stroke-width="1" stroke-linecap="square" stroke-linejoin="bevel" transform="matrix(1,0,0,1,0,0)"
font-family="Segoe UI" font-size="8.25" font-weight="400" font-style="normal" 
>
<path vector-effect="none" fill-rule="evenodd" d="M72.5,5 L72.5,95 L27.5,95 L27.5,5 L72.5,5"/>
</g>

<g fill="none" stroke="#000000" stroke-opacity="1" stroke-width="1" stroke-linecap="square" stroke-linejoin="bevel" transform="matrix(1,0,0,1,0,0)"
font-family="Segoe UI" font-size="8.25" font-weight="400" font-style="normal" 
>
</g>

<g fill="none" stroke="#000000" stroke-opacity="1" stroke-width="1" stroke-linecap="square" stroke-linejoin="bevel" transform="matrix(1,0,0,1,0,0)"
font-family="Segoe UI" font-size="8.25" font-weight="400" font-style="normal" 
>
</g>
</g>
</svg>
