<?xml version="1.0" encoding="UTF-8"?>
<!DOCTYPE svg PUBLIC "-//W3C//DTD SVG 1.0//EN" "http://www.w3.org/TR/2001/REC-SVG-20010904/DTD/svg10.dtd">
<!-- Creator: CorelDRAW X6 -->
<svg xmlns="http://www.w3.org/2000/svg" xml:space="preserve" width="290px" height="230px" version="1.0" shape-rendering="geometricPrecision" text-rendering="geometricPrecision" image-rendering="optimizeQuality" fill-rule="evenodd" clip-rule="evenodd"
viewBox="0 0 290000 230000"
 xmlns:xlink="http://www.w3.org/1999/xlink">
 <g id="Layer_x0020_1">
  <metadata id="CorelCorpID_0Corel-Layer"/>
  <path fill="#2B2A29" fill-rule="nonzero" d="M0 -11982l0 -4898 746 0 0 695c358,-533 877,-798 1555,-798 296,0 566,53 813,158 247,106 433,246 555,417 123,171 210,376 258,612 30,154 46,423 46,807l0 3007 -831 0 0 -2976c0,-338 -31,-591 -95,-758 -65,-167 -180,-300 -343,-401 -164,-99 -357,-149 -577,-149 -353,0 -656,111 -913,336 -256,224 -383,650 -383,1276l0 2672 -831 0zm4937 -2449c0,-904 252,-1574 756,-2010 420,-362 935,-542 1540,-542 672,0 1222,220 1650,660 426,439 640,1047 640,1823 0,629 -94,1123 -283,1483 -189,360 -464,640 -826,840 -360,200 -755,299 -1181,299 -686,0 -1239,-219 -1662,-658 -423,-438 -634,-1071 -634,-1895zm849 2c0,626 137,1094 411,1404 275,312 619,467 1036,467 412,0 755,-155 1031,-468 273,-313 410,-790 410,-1430 0,-604 -138,-1062 -414,-1372 -275,-311 -618,-467 -1027,-467 -417,0 -761,155 -1036,464 -274,310 -411,777 -411,1402zm7872 2447l0 -621c-310,483 -766,725 -1368,725 -390,0 -749,-107 -1074,-323 -328,-214 -581,-514 -762,-898 -179,-385 -269,-827 -269,-1327 0,-488 82,-930 244,-1328 164,-396 408,-701 733,-912 324,-212 689,-317 1090,-317 296,0 558,62 788,187 230,124 417,287 561,487l0 -2430 831 0 0 6757 -774 0zm-2623 -2443c0,626 132,1093 398,1403 264,310 577,464 937,464 363,0 672,-147 926,-443 254,-296 381,-747 381,-1354 0,-667 -129,-1158 -388,-1471 -258,-313 -578,-469 -957,-469 -370,0 -678,150 -926,450 -247,301 -371,774 -371,1420zm8051 858l859 113c-134,498 -384,887 -749,1162 -365,275 -831,414 -1398,414 -714,0 -1281,-221 -1699,-661 -418,-439 -628,-1057 -628,-1851 0,-821 211,-1460 634,-1913 423,-454 972,-680 1647,-680 653,0 1186,221 1600,666 413,446 621,1071 621,1878 0,49 -2,123 -5,220l-3647 0c31,537 182,949 456,1233 272,285 613,428 1021,428 303,0 563,-80 777,-240 215,-161 385,-417 511,-769zm-2718 -1331l2727 0c-36,-412 -141,-720 -313,-926 -262,-320 -605,-480 -1025,-480 -381,0 -700,127 -960,382 -258,255 -401,596 -429,1024zm3861 4794l0 -595 5492 0 0 595 -5492 0zm6013 -1878l0 -4898 745 0 0 692c153,-239 357,-432 612,-577 255,-146 544,-218 870,-218 362,0 659,75 890,224 231,151 395,361 489,631 390,-571 895,-855 1518,-855 487,0 863,133 1124,402 263,269 395,683 395,1241l0 3358 -830 0 0 -3083c0,-330 -28,-569 -82,-715 -53,-147 -151,-263 -294,-353 -142,-89 -308,-133 -499,-133 -346,0 -632,114 -860,342 -228,230 -341,597 -341,1100l0 2842 -831 0 0 -3179c0,-368 -67,-644 -203,-829 -135,-184 -356,-276 -663,-276 -233,0 -449,61 -647,184 -198,122 -341,302 -431,539 -88,236 -132,577 -132,1023l0 2538 -830 0zm11060 -613c-309,262 -606,446 -891,555 -284,108 -589,162 -916,162 -538,0 -952,-131 -1241,-393 -290,-262 -435,-597 -435,-1004 0,-239 56,-457 164,-656 110,-198 253,-355 429,-475 178,-119 376,-211 598,-272 164,-42 411,-83 739,-124 670,-79 1166,-175 1482,-285 3,-113 5,-185 5,-215 0,-337 -79,-574 -236,-713 -213,-187 -529,-280 -947,-280 -392,0 -681,69 -867,206 -187,137 -324,379 -413,729l-812 -114c74,-347 195,-629 365,-843 170,-214 415,-377 736,-494 319,-114 692,-172 1113,-172 419,0 760,48 1023,147 261,99 454,222 577,372 123,149 209,338 259,566 27,141 42,396 42,762l0 1101c0,769 17,1256 51,1462 33,206 102,402 203,591l-868 0c-83,-175 -137,-379 -160,-613zm-66 -1841c-302,123 -755,227 -1359,312 -343,49 -585,104 -727,165 -142,61 -250,151 -327,267 -77,118 -116,249 -116,394 0,218 83,402 251,548 168,147 414,221 736,221 320,0 604,-70 854,-210 249,-138 433,-328 549,-569 90,-187 134,-462 134,-826l5 -302zm2115 -3359l0 -944 830 0 0 944 -830 0zm0 5813l0 -4898 830 0 0 4898 -830 0zm2096 0l0 -4898 746 0 0 695c358,-533 877,-798 1555,-798 296,0 567,53 813,158 247,106 433,246 556,417 123,171 209,376 258,612 29,154 45,423 45,807l0 3007 -830 0 0 -2976c0,-338 -32,-591 -96,-758 -65,-167 -179,-300 -343,-401 -164,-99 -357,-149 -577,-149 -352,0 -656,111 -912,336 -257,224 -384,650 -384,1276l0 2672 -831 0zm4484 1878l0 -595 5493 0 0 595 -5493 0zm6013 -7691l0 -944 831 0 0 944 -831 0zm0 5813l0 -4898 831 0 0 4898 -831 0zm6220 -793l0 793 -4473 0c-6,-200 27,-392 98,-577 115,-304 299,-604 552,-898 253,-294 615,-634 1085,-1020 731,-602 1229,-1078 1488,-1431 261,-352 392,-685 392,-1000 0,-329 -118,-606 -354,-832 -236,-225 -544,-338 -923,-338 -401,0 -722,119 -963,358 -241,238 -362,568 -365,991l-849 -85c58,-635 278,-1120 659,-1453 382,-333 893,-500 1536,-500 648,0 1163,179 1540,539 379,361 568,807 568,1339 0,270 -55,536 -167,797 -110,263 -294,538 -550,827 -258,288 -684,686 -1279,1190 -498,418 -819,701 -961,851 -141,149 -258,298 -350,449l3316 0zm361 2671l0 -595 5492 0 0 595 -5492 0zm9211 -3671l812 113c-90,559 -316,994 -683,1310 -366,316 -817,474 -1351,474 -668,0 -1206,-219 -1612,-656 -407,-437 -610,-1063 -610,-1878 0,-529 88,-989 262,-1386 175,-394 441,-692 800,-888 356,-199 745,-297 1167,-297 530,0 965,133 1302,402 338,269 555,651 650,1145l-803 123c-77,-329 -212,-576 -409,-743 -195,-165 -431,-248 -708,-248 -418,0 -758,149 -1020,448 -261,301 -392,772 -392,1420 0,658 126,1134 378,1432 253,297 582,446 986,446 327,0 599,-99 816,-299 219,-198 357,-504 415,-918zm4719 1180c-308,262 -606,446 -890,555 -285,108 -590,162 -917,162 -538,0 -952,-131 -1241,-393 -290,-262 -434,-597 -434,-1004 0,-239 55,-457 163,-656 110,-198 254,-355 430,-475 177,-119 375,-211 597,-272 164,-42 411,-83 739,-124 671,-79 1166,-175 1482,-285 3,-113 5,-185 5,-215 0,-337 -79,-574 -236,-713 -213,-187 -529,-280 -947,-280 -391,0 -681,69 -867,206 -187,137 -324,379 -413,729l-812 -114c74,-347 195,-629 365,-843 170,-214 415,-377 736,-494 319,-114 692,-172 1114,-172 418,0 759,48 1022,147 261,99 455,222 577,372 123,149 210,338 260,566 27,141 41,396 41,762l0 1101c0,769 17,1256 52,1462 33,206 102,402 203,591l-869 0c-83,-175 -137,-379 -160,-613zm-66 -1841c-302,123 -755,227 -1359,312 -343,49 -585,104 -727,165 -141,61 -250,151 -327,267 -77,118 -116,249 -116,394 0,218 83,402 252,548 168,147 413,221 735,221 320,0 604,-70 854,-210 249,-138 433,-328 550,-569 89,-187 133,-462 133,-826l5 -302zm2106 2454l0 -4898 745 0 0 751c190,-348 367,-578 529,-688 162,-111 340,-166 533,-166 280,0 564,87 854,262l-296 766c-201,-113 -403,-170 -604,-170 -181,0 -343,55 -486,164 -143,108 -245,259 -306,453 -93,294 -139,616 -139,967l0 2559 -830 0zm4954 -741l113 733c-232,49 -442,74 -624,74 -300,0 -533,-47 -700,-143 -165,-96 -282,-220 -349,-376 -68,-156 -101,-483 -101,-981l0 -2822 -613 0 0 -642 613 0 0 -1211 831 -498 0 1709 830 0 0 642 -830 0 0 2869c0,237 14,390 44,457 28,68 75,122 141,162 66,40 161,60 283,60 91,0 213,-11 362,-33zm4160 -844l859 113c-134,498 -384,887 -749,1162 -365,275 -830,414 -1398,414 -714,0 -1280,-221 -1699,-661 -418,-439 -627,-1057 -627,-1851 0,-821 210,-1460 634,-1913 423,-454 972,-680 1646,-680 653,0 1186,221 1600,666 413,446 621,1071 621,1878 0,49 -1,123 -5,220l-3647 0c32,537 183,949 456,1233 272,285 614,428 1021,428 303,0 563,-80 777,-240 215,-161 385,-417 511,-769zm-2718 -1331l2728 0c-37,-412 -142,-720 -314,-926 -262,-320 -605,-480 -1025,-480 -381,0 -700,127 -959,382 -258,255 -402,596 -430,1024zm4295 1453l821 -132c46,329 175,580 386,757 210,174 506,262 884,262 382,0 665,-77 851,-232 184,-155 276,-337 276,-546 0,-188 -83,-335 -248,-442 -116,-74 -400,-167 -850,-282 -606,-152 -1027,-284 -1262,-396 -235,-113 -413,-267 -534,-466 -121,-196 -182,-415 -182,-654 0,-219 50,-420 149,-605 101,-186 236,-340 408,-463 129,-94 305,-175 527,-241 223,-66 460,-98 715,-98 384,0 721,55 1010,166 291,110 505,261 643,450 137,190 233,443 285,761l-811 114c-37,-255 -144,-455 -320,-598 -176,-143 -425,-214 -747,-214 -379,0 -651,63 -813,189 -162,125 -244,273 -244,442 0,107 33,204 101,291 67,88 173,162 317,220 84,31 326,102 732,212 585,156 994,285 1227,384 232,99 415,245 547,434 134,190 200,426 200,709 0,276 -81,535 -242,779 -163,244 -395,432 -699,566 -305,134 -649,200 -1033,200 -636,0 -1122,-132 -1455,-395 -334,-264 -546,-654 -639,-1172zm5049 -4350l0 -944 831 0 0 944 -831 0zm0 5813l0 -4898 831 0 0 4898 -831 0zm5296 -613c-308,262 -606,446 -890,555 -285,108 -590,162 -917,162 -538,0 -952,-131 -1241,-393 -290,-262 -434,-597 -434,-1004 0,-239 55,-457 163,-656 110,-198 254,-355 430,-475 177,-119 375,-211 597,-272 164,-42 411,-83 739,-124 670,-79 1166,-175 1482,-285 3,-113 5,-185 5,-215 0,-337 -79,-574 -236,-713 -213,-187 -529,-280 -947,-280 -391,0 -681,69 -867,206 -187,137 -324,379 -413,729l-812 -114c74,-347 195,-629 365,-843 170,-214 415,-377 736,-494 319,-114 692,-172 1114,-172 418,0 759,48 1022,147 261,99 455,222 577,372 123,149 210,338 260,566 27,141 41,396 41,762l0 1101c0,769 17,1256 52,1462 33,206 102,402 203,591l-869 0c-83,-175 -137,-379 -160,-613zm-66 -1841c-302,123 -755,227 -1359,312 -343,49 -585,104 -727,165 -141,61 -250,151 -327,267 -77,118 -116,249 -116,394 0,218 83,402 252,548 168,147 413,221 735,221 320,0 604,-70 854,-210 249,-138 433,-328 550,-569 89,-187 133,-462 133,-826l5 -302zm2115 2454l0 -4898 746 0 0 695c358,-533 877,-798 1555,-798 296,0 566,53 813,158 247,106 433,246 556,417 122,171 209,376 257,612 30,154 46,423 46,807l0 3007 -830 0 0 -2976c0,-338 -32,-591 -96,-758 -65,-167 -180,-300 -343,-401 -164,-99 -357,-149 -577,-149 -353,0 -656,111 -913,336 -256,224 -383,650 -383,1276l0 2672 -831 0zm4484 1878l0 -595 5492 0 0 595 -5492 0zm5574 -1878l0 -676 3102 -3580c-353,19 -663,28 -930,28l-1983 0 0 -670 3992 0 0 546 -2655 3105 -508 577c372,-32 722,-47 1047,-47l2267 0 0 717 -4332 0zm8319 0l0 -621c-310,483 -766,725 -1369,725 -390,0 -748,-107 -1074,-323 -327,-214 -580,-514 -761,-898 -179,-385 -269,-827 -269,-1327 0,-488 82,-930 244,-1328 163,-396 407,-701 733,-912 324,-212 688,-317 1090,-317 295,0 558,62 788,187 229,124 416,287 561,487l0 -2430 831 0 0 6757 -774 0zm-2624 -2443c0,626 132,1093 398,1403 265,310 577,464 937,464 364,0 672,-147 927,-443 253,-296 381,-747 381,-1354 0,-667 -129,-1158 -389,-1471 -258,-313 -577,-469 -956,-469 -370,0 -678,150 -927,450 -247,301 -371,774 -371,1420zm4399 -6c0,-904 252,-1574 757,-2010 420,-362 934,-542 1539,-542 672,0 1223,220 1651,660 426,439 640,1047 640,1823 0,629 -95,1123 -284,1483 -188,360 -464,640 -825,840 -360,200 -755,299 -1182,299 -685,0 -1239,-219 -1662,-658 -423,-438 -634,-1071 -634,-1895zm850 2c0,626 137,1094 410,1404 275,312 620,467 1036,467 413,0 756,-155 1031,-468 273,-313 410,-790 410,-1430 0,-604 -138,-1062 -413,-1372 -275,-311 -618,-467 -1028,-467 -416,0 -761,155 -1036,464 -273,310 -410,777 -410,1402zm5591 2447l-1480 -4898 868 0 782 2827 276 1052c12,-52 97,-389 254,-1010l775 -2869 851 0 738 2844 240 933 282 -946 846 -2831 807 0 -1537 4898 -859 0 -777 -2930 -196 -838 -991 3768 -879 0zm5934 0l0 -4898 746 0 0 695c358,-533 877,-798 1555,-798 296,0 566,53 813,158 247,106 433,246 556,417 122,171 209,376 257,612 30,154 46,423 46,807l0 3007 -830 0 0 -2976c0,-338 -32,-591 -96,-758 -65,-167 -180,-300 -343,-401 -164,-99 -357,-149 -577,-149 -353,0 -656,111 -913,336 -256,224 -383,650 -383,1276l0 2672 -831 0zm5484 0l0 -944 944 0 0 944 -944 0zm2056 -1463l821 -132c45,329 174,580 385,757 211,174 507,262 884,262 382,0 665,-77 851,-232 184,-155 277,-337 277,-546 0,-188 -84,-335 -248,-442 -117,-74 -400,-167 -850,-282 -607,-152 -1027,-284 -1263,-396 -234,-113 -412,-267 -533,-466 -121,-196 -183,-415 -183,-654 0,-219 51,-420 150,-605 101,-186 236,-340 407,-463 129,-94 305,-175 527,-241 223,-66 461,-98 716,-98 384,0 720,55 1010,166 290,110 504,261 643,450 137,190 233,443 285,761l-812 114c-36,-255 -143,-455 -319,-598 -176,-143 -425,-214 -747,-214 -379,0 -651,63 -814,189 -161,125 -243,273 -243,442 0,107 33,204 100,291 68,88 173,162 318,220 83,31 326,102 731,212 585,156 994,285 1227,384 233,99 415,245 548,434 133,190 199,426 199,709 0,276 -80,535 -242,779 -162,244 -395,432 -698,566 -305,134 -650,200 -1034,200 -635,0 -1121,-132 -1454,-395 -334,-264 -546,-654 -639,-1172zm6387 1463l-1848 -4898 889 0 1047 2934c113,316 219,644 315,986 74,-258 176,-568 310,-931l1088 -2989 852 0 -1854 4898 -799 0zm3228 406l802 113c33,249 127,429 281,544 207,153 488,230 845,230 384,0 681,-77 890,-230 209,-152 351,-368 425,-643 42,-168 63,-522 60,-1062 -364,428 -815,642 -1356,642 -673,0 -1195,-242 -1563,-728 -370,-485 -554,-1067 -554,-1744 0,-468 85,-898 253,-1293 168,-395 414,-699 735,-914 320,-216 698,-322 1132,-322 577,0 1054,235 1428,707l0 -604 765 0 0 4230c0,762 -78,1302 -233,1620 -154,317 -401,569 -736,753 -337,184 -751,277 -1241,277 -584,0 -1054,-131 -1413,-394 -360,-261 -533,-655 -520,-1182zm679 -2938c0,640 128,1107 382,1401 257,294 576,442 960,442 382,0 701,-146 961,-439 258,-292 387,-751 387,-1378 0,-597 -134,-1049 -400,-1352 -266,-304 -586,-455 -961,-455 -369,0 -682,150 -942,448 -258,300 -387,743 -387,1333z"/>
  <path fill="#5A5A6E" fill-rule="nonzero" d="M152513 155785l0 -8592 3244 0c570,0 1006,29 1308,83 422,69 776,203 1062,400 286,197 516,474 690,828 174,353 260,743 260,1169 0,728 -232,1346 -698,1850 -464,506 -1306,758 -2522,758l-2204 0 0 3504 -1140 0zm1140 -4512l2220 0c736,0 1256,-136 1566,-410 308,-274 462,-657 462,-1156 0,-358 -90,-666 -272,-922 -182,-256 -422,-425 -718,-508 -192,-49 -546,-76 -1060,-76l-2198 0 0 3072zm11866 7032c-580,-734 -1072,-1592 -1474,-2576 -402,-984 -603,-2004 -603,-3058 0,-930 150,-1820 451,-2670 351,-987 893,-1972 1626,-2952l756 0c-472,813 -786,1393 -938,1740 -239,538 -426,1100 -563,1686 -168,730 -252,1464 -252,2202 0,1878 584,3754 1753,5628l-756 0zm1239 -2520l3320 -4458 -2924 -4134 1355 0 1565 2198c326,457 552,804 682,1046 194,-299 423,-620 684,-957l1716 -2287 1246 0 -2984 4084 3212 4508 -1396 0 -2167 -3064c-125,-174 -243,-348 -353,-520 -191,288 -327,490 -412,604l-2178 2980 -1366 0zm9020 0l0 -1200 1200 0 0 1200c0,442 -78,800 -236,1072 -156,272 -406,484 -748,632l-288 -456c224,-98 388,-242 492,-430 106,-190 166,-462 178,-818l-598 0zm5612 0l0 -3640 -3312 -4952 1368 0 1698 2600c316,483 610,964 878,1446 262,-450 580,-954 950,-1514l1664 -2532 1326 0 -3432 4952 0 3640 -1140 0zm4180 0l0 -1200 1200 0 0 1200c0,442 -78,800 -236,1072 -156,272 -406,484 -748,632l-288 -456c224,-98 388,-242 492,-430 106,-190 166,-462 178,-818l-598 0zm2506 0l0 -1050 4399 -5507c317,-388 612,-731 895,-1027l-4790 0 0 -1008 6144 0 0 1008 -4826 5960 -516 616 5486 0 0 1008 -6792 0zm8577 2520l-756 0c1169,-1874 1753,-3750 1753,-5628 0,-734 -85,-1461 -252,-2183 -133,-587 -318,-1148 -557,-1688 -152,-351 -468,-936 -944,-1757l756 0c732,980 1274,1965 1626,2952 300,850 451,1740 451,2670 0,1054 -203,2074 -606,3058 -402,984 -893,1842 -1471,2576z"/>
  <line fill="none" stroke="#5A5A6E" stroke-width="1500.09" stroke-dasharray="1500.093837 4500.281510" x1="146665" y1="144998" x2="146665" y2= "89225" />
  <circle fill="#C83200" cx="146665" cy="144998" r="2500"/>
  <g id="_541146600">
   <path fill="#C83200" fill-rule="nonzero" d="M247430 88285l3320 -4458 -2924 -4134 1354 0 1566 2198c326,456 552,804 682,1046 194,-300 422,-620 684,-958l1716 -2286 1246 0 -2984 4084 3212 4508 -1396 0 -2168 -3064c-124,-174 -242,-348 -352,-520 -192,288 -328,490 -412,604l-2178 2980 -1366 0z"/>
   <path fill="#00A046" fill-rule="nonzero" d="M37736 100585l0 -3640 -3312 -4952 1368 0 1698 2600c316,482 610,963 878,1446 262,-451 580,-955 950,-1514l1664 -2532 1326 0 -3432 4952 0 3640 -1140 0z"/>
   <path fill="#0032BE" fill-rule="nonzero" d="M111262 202885l0 -1050 4400 -5508c316,-388 612,-730 894,-1026l-4790 0 0 -1008 6144 0 0 1008 -4826 5960 -516 616 5486 0 0 1008 -6792 0z"/>
   <g>
    <path fill="#0032BE" fill-rule="nonzero" d="M114067 184015l0 -124626 1000 0 0 124626 -1000 0zm2454 -2604l-1954 6978 -1954 -6978 3908 0z"/>
   </g>
   <g>
    <path fill="#00A046" fill-rule="nonzero" d="M47712 90084l66643 -31147 423 905 -66643 31148 -423 -906zm3397 1120l-7149 1185 5495 -4725 1654 3540z"/>
   </g>
   <g>
    <path fill="#C83200" fill-rule="nonzero" d="M238570 80667l-124086 -20785 165 -986 124086 20785 -165 986zm-2163 -2851l6559 3081 -7205 774 646 -3855z"/>
   </g>
   <circle fill="#FADC00" cx="114567" cy="59389" r="2500"/>
  </g>
  <path fill="#5A5A6E" fill-rule="nonzero" d="M103725 96534l3320 -4457 -2924 -4134 1354 0 1566 2198c326,456 552,803 682,1046 194,-300 422,-620 684,-958l1716 -2286 1246 0 -2984 4083 3212 4508 -1396 0 -2168 -3064c-124,-174 -242,-347 -352,-519 -192,288 -328,489 -412,604l-2178 2979 -1366 0z"/>
  <path fill="#5A5A6E" fill-rule="nonzero" d="M172719 92334l0 -3640 -3312 -4952 1368 0 1698 2600c316,483 610,964 878,1446 262,-449 580,-953 950,-1514l1664 -2532 1326 0 -3432 4952 0 3640 -1140 0z"/>
  <path fill="#5A5A6E" fill-rule="nonzero" d="M151325 123234l0 -1049 4400 -5508c316,-388 612,-730 894,-1026l-4790 0 0 -1008 6144 0 0 1008 -4826 5959 -516 616 5486 0 0 1008 -6792 0z"/>
  <line fill="none" stroke="#5A5A6E" stroke-width="1500.09" stroke-dasharray="1500.093837 4500.281510" x1="75013" y1="77876" x2="146665" y2= "89225" />
  <line fill="none" stroke="#5A5A6E" stroke-width="1500.09" stroke-dasharray="1500.093837 4500.281510" x1="185255" y1="71230" x2="146665" y2= "89225" />
 </g>
</svg>
