<?xml version="1.0" encoding="UTF-8"?>
<!DOCTYPE svg PUBLIC "-//W3C//DTD SVG 1.0//EN" "http://www.w3.org/TR/2001/REC-SVG-20010904/DTD/svg10.dtd">
<!-- Creator: CorelDRAW X6 -->
<svg xmlns="http://www.w3.org/2000/svg" xml:space="preserve" width="290px" height="500px" version="1.0" shape-rendering="geometricPrecision" text-rendering="geometricPrecision" image-rendering="optimizeQuality" fill-rule="evenodd" clip-rule="evenodd"
viewBox="0 0 290000 500000"
 xmlns:xlink="http://www.w3.org/1999/xlink">
 <g id="Layer_x0020_1">
  <metadata id="CorelCorpID_0Corel-Layer"/>
  <g id="_538453240">
   <path fill="black" fill-rule="nonzero" d="M19 -10104l0 -6776 755 0 0 643c177,-248 379,-435 604,-559 223,-125 495,-187 814,-187 419,0 787,106 1106,322 319,214 560,517 724,907 162,392 243,820 243,1287 0,498 -89,948 -269,1349 -179,400 -440,707 -783,921 -341,212 -701,319 -1079,319 -277,0 -525,-58 -744,-175 -220,-116 -399,-262 -541,-440l0 2389 -830 0zm755 -4297c0,627 127,1091 380,1392 255,300 564,451 925,451 368,0 683,-155 944,-467 262,-311 393,-792 393,-1445 0,-623 -127,-1089 -384,-1398 -256,-310 -561,-464 -917,-464 -352,0 -663,165 -934,493 -272,331 -407,809 -407,1438zm7692 2419l0 -728c-380,555 -896,832 -1549,832 -288,0 -557,-55 -807,-165 -250,-112 -436,-251 -557,-417 -121,-168 -206,-373 -254,-615 -33,-164 -51,-422 -51,-774l0 -3031 831 0 0 2710c0,433 17,725 50,875 52,218 162,388 332,512 168,125 376,188 624,188 249,0 482,-63 699,-191 217,-127 371,-302 462,-520 90,-219 135,-538 135,-955l0 -2619 831 0 0 4898 -746 0zm2049 0l0 -4898 746 0 0 695c358,-533 878,-798 1556,-798 295,0 566,53 813,158 246,106 432,246 555,417 123,171 209,376 258,612 30,154 45,423 45,807l0 3007 -830 0 0 -2976c0,-338 -32,-591 -96,-758 -65,-167 -179,-300 -343,-401 -163,-99 -357,-149 -577,-149 -352,0 -656,111 -912,336 -257,224 -384,650 -384,1276l0 2672 -831 0zm8448 -1793l811 113c-89,559 -316,994 -682,1310 -367,316 -818,474 -1351,474 -669,0 -1207,-219 -1612,-656 -408,-437 -610,-1063 -610,-1878 0,-529 87,-989 262,-1386 175,-394 441,-692 799,-888 357,-199 746,-297 1167,-297 530,0 966,133 1302,402 339,269 556,651 650,1145l-802 123c-77,-329 -212,-576 -409,-743 -195,-165 -431,-248 -708,-248 -418,0 -758,149 -1021,448 -261,301 -391,772 -391,1420 0,658 126,1134 377,1432 254,297 582,446 986,446 327,0 600,-99 817,-299 218,-198 357,-504 415,-918zm1519 1793l0 -6757 831 0 0 2432c385,-452 871,-676 1459,-676 360,0 674,70 941,213 266,143 456,340 571,592 115,251 171,618 171,1096l0 3100 -830 0 0 -3097c0,-413 -90,-716 -268,-904 -179,-189 -430,-283 -758,-283 -244,0 -473,63 -689,190 -215,127 -368,300 -460,519 -92,217 -137,518 -137,901l0 2674 -831 0zm5249 -5813l0 -944 830 0 0 944 -830 0zm0 5813l0 -4898 830 0 0 4898 -830 0zm2096 0l0 -4898 746 0 0 695c358,-533 877,-798 1555,-798 296,0 566,53 813,158 247,106 433,246 556,417 122,171 209,376 258,612 29,154 45,423 45,807l0 3007 -830 0 0 -2976c0,-338 -32,-591 -96,-758 -65,-167 -180,-300 -343,-401 -164,-99 -357,-149 -577,-149 -353,0 -656,111 -913,336 -256,224 -383,650 -383,1276l0 2672 -831 0zm5096 406l802 113c33,249 127,429 282,544 206,153 487,230 844,230 384,0 681,-77 890,-230 210,-152 351,-368 425,-643 43,-168 63,-522 60,-1062 -363,428 -815,642 -1356,642 -673,0 -1195,-242 -1563,-728 -370,-485 -554,-1067 -554,-1744 0,-468 85,-898 253,-1293 169,-395 414,-699 735,-914 321,-216 698,-322 1132,-322 577,0 1054,235 1428,707l0 -604 765 0 0 4230c0,762 -77,1302 -233,1620 -154,317 -401,569 -736,753 -337,184 -750,277 -1241,277 -583,0 -1054,-131 -1412,-394 -361,-261 -533,-655 -521,-1182zm679 -2938c0,640 128,1107 383,1401 256,294 575,442 959,442 382,0 701,-146 961,-439 258,-292 387,-751 387,-1378 0,-597 -134,-1049 -399,-1352 -266,-304 -587,-455 -962,-455 -369,0 -682,150 -942,448 -258,300 -387,743 -387,1333zm109084 2532l0 -6757 830 0 0 6757 -830 0zm1804 -2449c0,-904 251,-1574 756,-2010 420,-362 934,-542 1540,-542 672,0 1222,220 1650,660 426,439 640,1047 640,1823 0,629 -94,1123 -283,1483 -189,360 -464,640 -826,840 -360,200 -755,299 -1181,299 -686,0 -1239,-219 -1662,-658 -424,-438 -634,-1071 -634,-1895zm849 2c0,626 137,1094 410,1404 276,312 620,467 1037,467 412,0 755,-155 1030,-468 274,-313 411,-790 411,-1430 0,-604 -139,-1062 -414,-1372 -275,-311 -618,-467 -1027,-467 -417,0 -761,155 -1037,464 -273,310 -410,777 -410,1402zm4710 2447l0 -4898 746 0 0 695c358,-533 877,-798 1556,-798 295,0 566,53 812,158 247,106 433,246 556,417 123,171 209,376 258,612 30,154 45,423 45,807l0 3007 -830 0 0 -2976c0,-338 -32,-591 -96,-758 -65,-167 -179,-300 -343,-401 -164,-99 -357,-149 -577,-149 -352,0 -656,111 -912,336 -257,224 -384,650 -384,1276l0 2672 -831 0zm5096 406l802 113c33,249 128,429 282,544 206,153 487,230 844,230 384,0 681,-77 891,-230 209,-152 350,-368 424,-643 43,-168 63,-522 60,-1062 -363,428 -815,642 -1356,642 -673,0 -1195,-242 -1563,-728 -370,-485 -554,-1067 -554,-1744 0,-468 85,-898 254,-1293 168,-395 413,-699 734,-914 321,-216 698,-322 1132,-322 578,0 1054,235 1429,707l0 -604 764 0 0 4230c0,762 -77,1302 -233,1620 -154,317 -401,569 -736,753 -337,184 -750,277 -1241,277 -583,0 -1054,-131 -1412,-394 -360,-261 -533,-655 -521,-1182zm680 -2938c0,640 127,1107 382,1401 256,294 575,442 959,442 382,0 702,-146 961,-439 258,-292 387,-751 387,-1378 0,-597 -134,-1049 -399,-1352 -266,-304 -587,-455 -961,-455 -370,0 -683,150 -942,448 -258,300 -387,743 -387,1333zm3957 4410l0 -595 5492 0 0 595 -5492 0zm7351 -1878l-1848 -4898 888 0 1048 2934c113,316 219,644 314,986 74,-258 177,-568 310,-931l1089 -2989 852 0 -1854 4898 -799 0zm6721 -1585l858 113c-133,498 -383,887 -748,1162 -365,275 -831,414 -1399,414 -714,0 -1280,-221 -1698,-661 -418,-439 -628,-1057 -628,-1851 0,-821 211,-1460 634,-1913 423,-454 972,-680 1647,-680 653,0 1186,221 1599,666 414,446 622,1071 622,1878 0,49 -2,123 -5,220l-3647 0c31,537 182,949 456,1233 272,285 613,428 1020,428 304,0 563,-80 777,-240 216,-161 386,-417 512,-769zm-2718 -1331l2727 0c-36,-412 -142,-720 -313,-926 -263,-320 -606,-480 -1025,-480 -381,0 -700,127 -960,382 -258,255 -401,596 -429,1024zm4616 2916l0 -4898 745 0 0 751c191,-348 367,-578 529,-688 162,-111 340,-166 533,-166 280,0 565,87 854,262l-296 766c-201,-113 -402,-170 -604,-170 -180,0 -342,55 -485,164 -144,108 -246,259 -307,453 -93,294 -139,616 -139,967l0 2559 -830 0zm4954 -741l113 733c-232,49 -442,74 -624,74 -300,0 -533,-47 -700,-143 -165,-96 -281,-220 -349,-376 -68,-156 -101,-483 -101,-981l0 -2822 -613 0 0 -642 613 0 0 -1211 831 -498 0 1709 830 0 0 642 -830 0 0 2869c0,237 14,390 44,457 28,68 75,122 141,162 66,40 161,60 284,60 91,0 212,-11 361,-33zm820 -5072l0 -944 830 0 0 944 -830 0zm0 5813l0 -4898 830 0 0 4898 -830 0zm5295 -1793l812 113c-90,559 -316,994 -683,1310 -366,316 -818,474 -1351,474 -668,0 -1206,-219 -1612,-656 -407,-437 -610,-1063 -610,-1878 0,-529 88,-989 262,-1386 175,-394 441,-692 799,-888 357,-199 746,-297 1167,-297 531,0 966,133 1303,402 338,269 555,651 649,1145l-802 123c-77,-329 -212,-576 -409,-743 -195,-165 -431,-248 -708,-248 -418,0 -758,149 -1020,448 -262,301 -392,772 -392,1420 0,658 126,1134 377,1432 254,297 582,446 987,446 327,0 599,-99 816,-299 218,-198 357,-504 415,-918zm4719 1180c-309,262 -606,446 -891,555 -284,108 -589,162 -916,162 -538,0 -952,-131 -1241,-393 -290,-262 -435,-597 -435,-1004 0,-239 56,-457 164,-656 110,-198 253,-355 429,-475 178,-119 376,-211 598,-272 164,-42 411,-83 739,-124 670,-79 1166,-175 1482,-285 3,-113 5,-185 5,-215 0,-337 -79,-574 -236,-713 -213,-187 -529,-280 -947,-280 -392,0 -681,69 -867,206 -187,137 -324,379 -413,729l-812 -114c74,-347 195,-629 365,-843 170,-214 415,-377 736,-494 319,-114 692,-172 1114,-172 418,0 759,48 1022,147 261,99 454,222 577,372 123,149 209,338 260,566 26,141 41,396 41,762l0 1101c0,769 17,1256 51,1462 33,206 103,402 203,591l-868 0c-83,-175 -137,-379 -160,-613zm-66 -1841c-302,123 -755,227 -1359,312 -343,49 -585,104 -727,165 -141,61 -250,151 -327,267 -77,118 -116,249 -116,394 0,218 83,402 251,548 168,147 414,221 736,221 320,0 604,-70 854,-210 249,-138 433,-328 549,-569 90,-187 134,-462 134,-826l5 -302zm2096 2454l0 -6757 830 0 0 6757 -830 0zm1351 1878l0 -595 5492 0 0 595 -5492 0zm9212 -2491c-308,262 -606,446 -890,555 -285,108 -590,162 -917,162 -538,0 -952,-131 -1241,-393 -290,-262 -434,-597 -434,-1004 0,-239 55,-457 163,-656 110,-198 254,-355 430,-475 177,-119 375,-211 597,-272 164,-42 411,-83 739,-124 671,-79 1166,-175 1482,-285 3,-113 5,-185 5,-215 0,-337 -79,-574 -236,-713 -213,-187 -529,-280 -947,-280 -391,0 -681,69 -867,206 -187,137 -324,379 -413,729l-812 -114c74,-347 195,-629 365,-843 170,-214 415,-377 736,-494 319,-114 692,-172 1114,-172 418,0 759,48 1022,147 261,99 455,222 577,372 123,149 210,338 260,566 27,141 41,396 41,762l0 1101c0,769 17,1256 52,1462 33,206 102,402 203,591l-869 0c-83,-175 -137,-379 -160,-613zm-66 -1841c-302,123 -755,227 -1359,312 -343,49 -585,104 -727,165 -141,61 -250,151 -327,267 -77,118 -116,249 -116,394 0,218 83,402 252,548 168,147 413,221 735,221 320,0 604,-70 855,-210 248,-138 432,-328 549,-569 89,-187 133,-462 133,-826l5 -302zm5314 2454l0 -728c-380,555 -896,832 -1549,832 -288,0 -557,-55 -807,-165 -250,-112 -436,-251 -557,-417 -121,-168 -206,-373 -254,-615 -33,-164 -51,-422 -51,-774l0 -3031 831 0 0 2710c0,433 17,725 50,875 52,218 162,388 332,512 168,125 376,188 624,188 249,0 482,-63 699,-191 217,-127 371,-302 462,-520 90,-219 135,-538 135,-955l0 -2619 831 0 0 4898 -746 0zm3852 -741l113 733c-233,49 -442,74 -624,74 -301,0 -533,-47 -700,-143 -165,-96 -282,-220 -349,-376 -68,-156 -101,-483 -101,-981l0 -2822 -613 0 0 -642 613 0 0 -1211 830 -498 0 1709 831 0 0 642 -831 0 0 2869c0,237 15,390 45,457 28,68 75,122 141,162 66,40 161,60 283,60 91,0 213,-11 362,-33zm508 -1708c0,-904 251,-1574 756,-2010 420,-362 935,-542 1540,-542 672,0 1222,220 1650,660 426,439 640,1047 640,1823 0,629 -94,1123 -283,1483 -189,360 -464,640 -826,840 -360,200 -755,299 -1181,299 -686,0 -1239,-219 -1662,-658 -423,-438 -634,-1071 -634,-1895zm849 2c0,626 137,1094 411,1404 275,312 619,467 1036,467 412,0 755,-155 1030,-468 274,-313 411,-790 411,-1430 0,-604 -138,-1062 -414,-1372 -275,-311 -618,-467 -1027,-467 -417,0 -761,155 -1036,464 -274,310 -411,777 -411,1402zm4946 2447l0 -944 944 0 0 944 -944 0zm-181542 -2029l0 -830 2566 0 0 830 -2566 0zm3463 2029l0 -4898 745 0 0 751c191,-348 367,-578 529,-688 162,-111 340,-166 533,-166 280,0 565,87 854,262l-296 766c-201,-113 -402,-170 -604,-170 -180,0 -342,55 -485,164 -144,108 -246,259 -307,453 -93,294 -138,616 -138,967l0 2559 -831 0zm6492 -1585l859 113c-133,498 -383,887 -748,1162 -365,275 -831,414 -1399,414 -714,0 -1280,-221 -1698,-661 -419,-439 -628,-1057 -628,-1851 0,-821 211,-1460 634,-1913 423,-454 972,-680 1647,-680 653,0 1186,221 1599,666 414,446 622,1071 622,1878 0,49 -2,123 -5,220l-3647 0c31,537 182,949 456,1233 272,285 613,428 1020,428 304,0 563,-80 777,-240 216,-161 386,-417 511,-769zm-2717 -1331l2727 0c-36,-412 -142,-720 -313,-926 -263,-320 -606,-480 -1025,-480 -381,0 -700,127 -960,382 -258,255 -401,596 -429,1024zm4625 -2897l0 -944 831 0 0 944 -831 0zm0 5813l0 -4898 831 0 0 4898 -831 0zm2097 0l0 -4898 745 0 0 695c359,-533 878,-798 1556,-798 295,0 566,53 813,158 247,106 432,246 555,417 123,171 209,376 258,612 30,154 46,423 46,807l0 3007 -831 0 0 -2976c0,-338 -31,-591 -96,-758 -64,-167 -179,-300 -343,-401 -163,-99 -357,-149 -577,-149 -352,0 -656,111 -912,336 -257,224 -384,650 -384,1276l0 2672 -830 0zm5446 0l0 -4256 -736 0 0 -642 736 0 0 -519c0,-329 28,-572 87,-731 80,-214 218,-389 420,-522 200,-134 481,-200 843,-200 234,0 492,28 775,83l-124 727c-173,-30 -335,-46 -489,-46 -252,0 -430,54 -535,161 -104,107 -156,307 -156,599l0 448 953 0 0 642 -943 0 0 4256 -831 0zm2113 -2449c0,-904 251,-1574 756,-2010 420,-362 934,-542 1540,-542 671,0 1222,220 1650,660 426,439 640,1047 640,1823 0,629 -95,1123 -284,1483 -188,360 -464,640 -825,840 -360,200 -755,299 -1181,299 -686,0 -1240,-219 -1663,-658 -423,-438 -633,-1071 -633,-1895zm849 2c0,626 137,1094 410,1404 275,312 620,467 1037,467 412,0 755,-155 1030,-468 274,-313 410,-790 410,-1430 0,-604 -138,-1062 -413,-1372 -275,-311 -618,-467 -1027,-467 -417,0 -762,155 -1037,464 -273,310 -410,777 -410,1402zm4701 2447l0 -4898 745 0 0 751c190,-348 367,-578 529,-688 162,-111 340,-166 533,-166 280,0 564,87 854,262l-296 766c-201,-113 -403,-170 -604,-170 -181,0 -343,55 -486,164 -143,108 -245,259 -306,453 -93,294 -139,616 -139,967l0 2559 -830 0zm6351 -1793l811 113c-89,559 -316,994 -682,1310 -367,316 -818,474 -1351,474 -669,0 -1207,-219 -1613,-656 -407,-437 -610,-1063 -610,-1878 0,-529 88,-989 263,-1386 174,-394 440,-692 799,-888 357,-199 745,-297 1167,-297 530,0 966,133 1302,402 338,269 556,651 650,1145l-802 123c-77,-329 -213,-576 -409,-743 -195,-165 -431,-248 -708,-248 -419,0 -758,149 -1021,448 -261,301 -391,772 -391,1420 0,658 126,1134 377,1432 253,297 582,446 986,446 327,0 599,-99 816,-299 219,-198 358,-504 416,-918zm4860 208l859 113c-134,498 -384,887 -749,1162 -365,275 -831,414 -1398,414 -714,0 -1280,-221 -1699,-661 -418,-439 -627,-1057 -627,-1851 0,-821 210,-1460 633,-1913 423,-454 972,-680 1647,-680 653,0 1186,221 1600,666 413,446 621,1071 621,1878 0,49 -2,123 -5,220l-3647 0c31,537 182,949 456,1233 272,285 613,428 1021,428 303,0 563,-80 777,-240 215,-161 385,-417 511,-769zm-2718 -1331l2727 0c-36,-412 -141,-720 -313,-926 -262,-320 -605,-480 -1025,-480 -381,0 -700,127 -960,382 -258,255 -401,596 -429,1024zm4625 2916l0 -4898 746 0 0 692c152,-239 357,-432 612,-577 255,-146 544,-218 870,-218 361,0 659,75 890,224 231,151 395,361 489,631 390,-571 895,-855 1518,-855 487,0 863,133 1124,402 263,269 395,683 395,1241l0 3358 -831 0 0 -3083c0,-330 -28,-569 -81,-715 -54,-147 -151,-263 -294,-353 -142,-89 -309,-133 -499,-133 -346,0 -632,114 -860,342 -228,230 -342,597 -342,1100l0 2842 -830 0 0 -3179c0,-368 -68,-644 -203,-829 -135,-184 -357,-276 -663,-276 -233,0 -449,61 -647,184 -198,122 -341,302 -431,539 -88,236 -132,577 -132,1023l0 2538 -831 0zm11202 -1585l859 113c-134,498 -384,887 -749,1162 -365,275 -830,414 -1398,414 -714,0 -1280,-221 -1699,-661 -418,-439 -627,-1057 -627,-1851 0,-821 210,-1460 634,-1913 422,-454 972,-680 1646,-680 653,0 1186,221 1600,666 413,446 621,1071 621,1878 0,49 -2,123 -5,220l-3647 0c31,537 182,949 456,1233 272,285 613,428 1021,428 303,0 563,-80 777,-240 215,-161 385,-417 511,-769zm-2718 -1331l2727 0c-36,-412 -141,-720 -313,-926 -262,-320 -605,-480 -1025,-480 -381,0 -700,127 -960,382 -258,255 -401,596 -429,1024zm4626 2916l0 -4898 745 0 0 695c359,-533 878,-798 1556,-798 295,0 566,53 813,158 247,106 432,246 555,417 123,171 209,376 258,612 30,154 46,423 46,807l0 3007 -831 0 0 -2976c0,-338 -31,-591 -96,-758 -64,-167 -179,-300 -343,-401 -163,-99 -357,-149 -577,-149 -352,0 -656,111 -912,336 -257,224 -384,650 -384,1276l0 2672 -830 0zm7050 -741l114 733c-233,49 -442,74 -625,74 -300,0 -533,-47 -700,-143 -165,-96 -281,-220 -349,-376 -67,-156 -100,-483 -100,-981l0 -2822 -614 0 0 -642 614 0 0 -1211 830 -498 0 1709 830 0 0 642 -830 0 0 2869c0,237 14,390 44,457 28,68 76,122 142,162 66,40 160,60 283,60 91,0 212,-11 361,-33zm55 2619l0 -595 5493 0 0 595 -5493 0zm6013 -1878l0 -4898 746 0 0 692c152,-239 357,-432 612,-577 254,-146 544,-218 869,-218 362,0 659,75 890,224 232,151 395,361 490,631 390,-571 894,-855 1517,-855 488,0 864,133 1125,402 262,269 395,683 395,1241l0 3358 -831 0 0 -3083c0,-330 -28,-569 -82,-715 -53,-147 -151,-263 -294,-353 -141,-89 -308,-133 -498,-133 -346,0 -633,114 -861,342 -228,230 -341,597 -341,1100l0 2842 -830 0 0 -3179c0,-368 -68,-644 -203,-829 -136,-184 -357,-276 -664,-276 -233,0 -448,61 -646,184 -199,122 -342,302 -431,539 -88,236 -132,577 -132,1023l0 2538 -831 0z"/>
   <path fill="black" fill-rule="nonzero" d="M115469 -12595c-308,262 -606,446 -890,555 -285,108 -590,162 -917,162 -538,0 -952,-131 -1241,-393 -290,-262 -434,-597 -434,-1004 0,-239 55,-457 163,-656 110,-198 254,-355 430,-475 177,-119 375,-211 597,-272 164,-42 411,-83 739,-124 671,-79 1166,-175 1482,-285 3,-113 5,-185 5,-215 0,-337 -79,-574 -236,-713 -213,-187 -529,-280 -947,-280 -391,0 -681,69 -867,206 -187,137 -324,379 -413,729l-812 -114c74,-347 195,-629 365,-843 170,-214 415,-377 736,-494 319,-114 692,-172 1114,-172 418,0 759,48 1022,147 261,99 455,222 577,372 123,149 210,338 260,566 27,141 41,396 41,762l0 1101c0,769 17,1256 52,1462 33,206 102,402 203,591l-869 0c-83,-175 -137,-379 -160,-613zm-66 -1841c-302,123 -755,227 -1359,312 -343,49 -585,104 -727,165 -141,61 -250,151 -327,267 -77,118 -116,249 -116,394 0,218 83,402 252,548 168,147 413,221 735,221 320,0 604,-70 855,-210 248,-138 432,-328 549,-569 89,-187 133,-462 133,-826l5 -302zm2115 -3359l0 -944 831 0 0 944 -831 0zm0 5813l0 -4898 831 0 0 4898 -831 0zm2097 0l0 -4898 745 0 0 695c359,-533 878,-798 1556,-798 295,0 566,53 813,158 247,106 432,246 555,417 123,171 209,376 258,612 30,154 46,423 46,807l0 3007 -831 0 0 -2976c0,-338 -31,-591 -96,-758 -64,-167 -179,-300 -343,-401 -163,-99 -357,-149 -577,-149 -352,0 -656,111 -912,336 -257,224 -384,650 -384,1276l0 2672 -830 0zm4484 1878l0 -595 5492 0 0 595 -5492 0zm6012 -7691l0 -944 831 0 0 944 -831 0zm0 5813l0 -4898 831 0 0 4898 -831 0zm4984 0l-830 0 0 -5288c-200,192 -462,382 -786,573 -324,190 -617,333 -875,428l0 -803c464,-217 870,-481 1218,-792 347,-310 594,-611 739,-903l534 0 0 6785zm1597 1878l0 -595 5492 0 0 595 -5492 0zm84900 -3341l821 -132c46,329 175,580 386,757 210,174 506,262 883,262 382,0 666,-77 851,-232 184,-155 277,-337 277,-546 0,-188 -83,-335 -248,-442 -117,-74 -400,-167 -850,-282 -607,-152 -1027,-284 -1263,-396 -234,-113 -412,-267 -533,-466 -121,-196 -182,-415 -182,-654 0,-219 50,-420 149,-605 101,-186 236,-340 408,-463 129,-94 305,-175 526,-241 224,-66 461,-98 716,-98 384,0 720,55 1010,166 291,110 505,261 643,450 137,190 233,443 285,761l-812 114c-36,-255 -143,-455 -319,-598 -176,-143 -425,-214 -747,-214 -379,0 -651,63 -813,189 -162,125 -244,273 -244,442 0,107 33,204 100,291 68,88 174,162 318,220 83,31 326,102 731,212 586,156 995,285 1227,384 233,99 416,245 548,434 133,190 199,426 199,709 0,276 -80,535 -242,779 -162,244 -395,432 -698,566 -305,134 -650,200 -1034,200 -635,0 -1121,-132 -1454,-395 -334,-264 -546,-654 -639,-1172zm6387 1463l-1848 -4898 889 0 1048 2934c113,316 218,644 314,986 74,-258 176,-568 310,-931l1088 -2989 853 0 -1855 4898 -799 0zm3228 406l802 113c33,249 127,429 282,544 206,153 487,230 844,230 384,0 681,-77 890,-230 210,-152 351,-368 425,-643 43,-168 63,-522 60,-1062 -364,428 -815,642 -1356,642 -673,0 -1195,-242 -1563,-728 -370,-485 -554,-1067 -554,-1744 0,-468 85,-898 253,-1293 169,-395 414,-699 735,-914 321,-216 698,-322 1132,-322 577,0 1054,235 1428,707l0 -604 765 0 0 4230c0,762 -77,1302 -233,1620 -154,317 -401,569 -736,753 -337,184 -750,277 -1241,277 -584,0 -1054,-131 -1412,-394 -361,-261 -534,-655 -521,-1182zm679 -2938c0,640 128,1107 382,1401 257,294 576,442 960,442 382,0 701,-146 961,-439 258,-292 387,-751 387,-1378 0,-597 -134,-1049 -400,-1352 -265,-304 -586,-455 -961,-455 -369,0 -682,150 -942,448 -258,300 -387,743 -387,1333z"/>
  </g>
 </g>
 <g id="Layer_x0020_2">
  <metadata id="CorelCorpID_1Corel-Layer"/>
  <polygon fill="#5A5A6E" fill-opacity="0.211765" points="275000,99973 275000,135000 170000,135000 170000,202248 120000,202248 120000,135000 15000,134999 15000,99999 120000,99973 120000,80000 170000,80000 170000,99966 "/>
  <line fill="none" stroke="#5A5A6E" stroke-width="1500.09" x1="120000" y1="202248" x2="120000" y2= "135000" />
  <line fill="none" stroke="#5A5A6E" stroke-width="1500.09" x1="170000" y1="202248" x2="170000" y2= "135000" />
  <line fill="none" stroke="#5A5A6E" stroke-width="1500.09" x1="15000" y1="99999" x2="120000" y2= "99973" />
  <line fill="none" stroke="#5A5A6E" stroke-width="1500.09" x1="120000" y1="135000" x2="15000" y2= "134999" />
  <line fill="none" stroke="#5A5A6E" stroke-width="1500.09" x1="170000" y1="135000" x2="275000" y2= "135000" />
  <line fill="none" stroke="#5A5A6E" stroke-width="500.031" x1="180000" y1="169809" x2="180000" y2= "192448" />
  <line fill="none" stroke="#B2D7FB" stroke-width="2999.9" x1="15000" y1="107005" x2="275000" y2= "107005" />
  <line fill="none" stroke="#849DB6" stroke-width="2999.9" x1="58000" y1="130000" x2="58000" y2= "104204" />
  <line fill="none" stroke="#849DB6" stroke-width="2999.9" x1="232000" y1="130000" x2="232000" y2= "104204" />
  <line fill="none" stroke="#849DB6" stroke-width="2999.9" x1="110000" y1="130000" x2="110000" y2= "104204" />
  <line fill="none" stroke="#5A5A6E" stroke-width="500.031" x1="206000" y1="169809" x2="206000" y2= "192448" />
  <line fill="none" stroke="#5A5A6E" stroke-width="500.031" x1="232000" y1="169809" x2="232000" y2= "192448" />
  <line fill="none" stroke="#5A5A6E" stroke-width="500.031" x1="172652" y1="184324" x2="271298" y2= "184324" />
  <path fill="#5A5A6E" fill-rule="nonzero" d="M214915 88476l0 -6228 948 0 0 884c456,-678 1116,-1016 1978,-1016 376,0 720,68 1034,202 314,134 550,312 706,530 156,218 266,478 328,778 38,196 58,538 58,1026l0 3824 -1056 0 0 -3784c0,-430 -40,-752 -122,-964 -82,-212 -228,-382 -436,-510 -208,-126 -454,-190 -734,-190 -448,0 -834,142 -1160,428 -326,284 -488,826 -488,1622l0 3398 -1056 0zm14293 0l2274 -3226 -2106 -3002 1298 0 984 1470c182,276 326,500 428,676 178,-250 336,-476 478,-678l1036 -1468 1290 0 -2118 3002 2256 3226 -1284 0 -1288 -1920 -294 -462 -1664 2382 -1290 0zm14075 0l0 -790c-395,614 -974,922 -1741,922 -496,0 -952,-136 -1366,-410 -416,-272 -738,-654 -968,-1142 -228,-490 -342,-1052 -342,-1688 0,-620 104,-1182 311,-1688 207,-504 517,-892 931,-1160 412,-270 876,-404 1386,-404 376,0 710,80 1002,238 292,158 530,366 715,620l0 -3090 1055 0 0 8592 -983 0zm-3337 -3106c0,796 169,1390 506,1784 336,394 734,590 1192,590 462,0 854,-188 1178,-564 322,-376 484,-950 484,-1722 0,-848 -164,-1472 -494,-1870 -328,-398 -734,-596 -1216,-596 -470,0 -862,190 -1178,572 -314,382 -472,984 -472,1806zm-18555 7147l0 -6462 720 0 0 614c169,-237 361,-416 576,-534 213,-119 472,-179 777,-179 399,0 750,102 1054,308 305,204 534,493 690,865 155,374 233,782 233,1227 0,476 -86,905 -257,1287 -171,381 -420,674 -747,878 -325,202 -669,304 -1029,304 -264,0 -501,-55 -709,-166 -210,-111 -381,-251 -516,-420l0 2278 -792 0zm720 -4098c0,599 121,1041 363,1328 243,286 537,430 882,430 351,0 651,-148 900,-445 250,-297 375,-756 375,-1379 0,-594 -122,-1038 -366,-1333 -245,-296 -536,-443 -875,-443 -336,0 -633,158 -891,471 -259,315 -388,771 -388,1371zm23312 912l783 -126c44,314 167,554 368,722 201,166 483,250 843,250 364,0 634,-73 811,-222 176,-147 264,-321 264,-520 0,-179 -79,-320 -237,-422 -111,-70 -381,-159 -810,-268 -579,-146 -979,-272 -1204,-378 -224,-108 -393,-255 -509,-444 -115,-188 -174,-396 -174,-624 0,-209 48,-401 143,-578 96,-177 225,-324 388,-441 123,-90 291,-166 503,-229 213,-63 439,-95 682,-95 366,0 687,53 963,159 278,105 482,249 614,429 130,182 222,423 271,726l-774 108c-34,-243 -136,-433 -304,-570 -168,-136 -405,-204 -713,-204 -361,0 -621,60 -775,180 -155,120 -233,261 -233,422 0,102 32,195 96,277 65,84 165,155 303,210 80,30 311,98 698,203 558,148 948,271 1170,366 222,94 396,234 522,414 127,181 190,406 190,676 0,263 -76,510 -231,743 -154,232 -376,412 -666,540 -291,127 -619,190 -985,190 -606,0 -1070,-126 -1388,-376 -318,-252 -520,-624 -609,-1118z"/>
  <polyline fill="none" stroke="#5A5A6E" stroke-width="500.031" points="206000,104204 216413,92517 180000,104204 "/>
  <line fill="none" stroke="#5A5A6E" stroke-width="500.031" x1="232000" y1="104204" x2="216413" y2= "92517" />
  <polygon fill="#5A5A6E" stroke="#5A5A6E" stroke-width="215.433" stroke-linejoin="round" points="227969,182708 227985,185958 231999,184326 "/>
  <polygon fill="#5A5A6E" stroke="#5A5A6E" stroke-width="215.433" stroke-linejoin="round" points="201970,182708 201986,185958 206001,184326 "/>
  <polygon fill="#5A5A6E" stroke="#5A5A6E" stroke-width="215.433" stroke-linejoin="round" points="210031,185944 210015,182694 206001,184326 "/>
  <polygon fill="#5A5A6E" stroke="#5A5A6E" stroke-width="215.433" stroke-linejoin="round" points="175969,182708 175985,185958 179999,184326 "/>
  <polygon fill="#5A5A6E" stroke="#5A5A6E" stroke-width="215.433" stroke-linejoin="round" points="184030,185944 184014,182694 179999,184326 "/>
  <polygon fill="#5A5A6E" stroke="#5A5A6E" stroke-width="215.433" stroke-linejoin="round" points="174011,185944 173996,182694 169981,184326 "/>
  <path fill="#5A5A6E" fill-rule="nonzero" d="M161775 179576c-392,335 -770,568 -1132,707 -362,138 -749,206 -1166,206 -684,0 -1209,-166 -1578,-500 -368,-332 -552,-758 -552,-1277 0,-303 70,-582 208,-834 141,-252 323,-451 546,-604 226,-152 478,-267 760,-345 208,-55 522,-106 940,-159 852,-99 1482,-222 1884,-362 4,-144 7,-235 7,-273 0,-428 -101,-730 -301,-906 -270,-238 -671,-356 -1204,-356 -498,0 -866,87 -1102,262 -237,174 -412,481 -525,926l-1033 -144c95,-442 248,-800 464,-1072 216,-273 529,-480 936,-628 406,-146 880,-220 1416,-220 532,0 966,62 1300,188 332,126 578,282 735,472 155,190 265,430 329,720 34,180 52,504 52,970l0 1400c0,978 22,1596 66,1857 42,262 130,512 258,753l-1103 0c-106,-222 -175,-482 -205,-781zm-83 -2340c-385,157 -961,288 -1728,396 -437,63 -745,133 -925,210 -180,78 -318,193 -416,341 -97,150 -148,315 -148,500 0,277 106,512 320,698 214,186 526,280 936,280 406,0 768,-89 1086,-267 316,-176 551,-417 698,-724 114,-237 170,-587 170,-1049l7 -385zm5245 5371l-792 0 0 -5043c-190,183 -441,364 -750,546 -309,181 -588,318 -834,408l0 -765c443,-207 830,-459 1161,-756 332,-296 567,-582 705,-861l510 0 0 6471z"/>
  <path fill="#5A5A6E" fill-rule="nonzero" d="M194810 179576c-392,335 -770,568 -1132,707 -362,138 -750,206 -1166,206 -684,0 -1210,-166 -1578,-500 -368,-332 -552,-758 -552,-1277 0,-303 70,-582 208,-834 140,-252 322,-451 546,-604 226,-152 478,-267 760,-345 208,-55 522,-106 940,-159 852,-99 1482,-222 1884,-362 4,-144 6,-235 6,-273 0,-428 -100,-730 -300,-906 -270,-238 -672,-356 -1204,-356 -498,0 -866,87 -1102,262 -238,174 -412,481 -526,926l-1032 -144c94,-442 248,-800 464,-1072 216,-273 528,-480 936,-628 406,-146 880,-220 1416,-220 532,0 966,62 1300,188 332,126 578,282 734,472 156,190 266,430 330,720 34,180 52,504 52,970l0 1400c0,978 22,1596 66,1857 42,262 130,512 258,753l-1104 0c-106,-222 -174,-482 -204,-781zm-84 -2340c-384,157 -960,288 -1728,396 -436,63 -744,133 -924,210 -180,78 -318,193 -416,341 -98,150 -148,315 -148,500 0,277 106,512 320,698 214,186 526,280 936,280 406,0 768,-89 1086,-267 316,-176 550,-417 698,-724 114,-237 170,-587 170,-1049l6 -385z"/>
  <path fill="#5A5A6E" fill-rule="nonzero" d="M220828 179576c-392,335 -771,568 -1133,707 -362,138 -749,206 -1165,206 -684,0 -1210,-166 -1579,-500 -367,-332 -551,-758 -551,-1277 0,-303 70,-582 208,-834 140,-252 322,-451 546,-604 226,-152 478,-267 760,-345 208,-55 521,-106 940,-159 852,-99 1481,-222 1883,-362 4,-144 7,-235 7,-273 0,-428 -100,-730 -301,-906 -269,-238 -671,-356 -1203,-356 -498,0 -866,87 -1102,262 -238,174 -412,481 -526,926l-1032 -144c94,-442 248,-800 464,-1072 216,-273 528,-480 936,-628 406,-146 879,-220 1416,-220 532,0 966,62 1299,188 332,126 578,282 735,472 156,190 266,430 330,720 34,180 51,504 51,970l0 1400c0,978 23,1596 67,1857 41,262 130,512 257,753l-1103 0c-106,-222 -174,-482 -204,-781zm-84 -2340c-384,157 -960,288 -1728,396 -437,63 -744,133 -924,210 -180,78 -318,193 -417,341 -97,150 -148,315 -148,500 0,277 107,512 321,698 214,186 526,280 936,280 405,0 767,-89 1085,-267 317,-176 551,-417 699,-724 114,-237 169,-587 169,-1049l7 -385z"/>
  <path fill="#5A5A6E" fill-rule="nonzero" d="M54839 176825c-392,334 -770,568 -1132,706 -362,138 -750,206 -1166,206 -684,0 -1210,-166 -1578,-500 -368,-332 -552,-758 -552,-1276 0,-304 70,-582 208,-834 140,-252 322,-452 546,-604 226,-152 478,-268 760,-346 208,-54 522,-106 940,-158 852,-100 1482,-222 1884,-362 4,-144 6,-236 6,-274 0,-428 -100,-730 -300,-906 -270,-238 -672,-356 -1204,-356 -498,0 -866,88 -1102,262 -238,174 -412,482 -526,926l-1032 -144c94,-442 248,-800 464,-1072 216,-272 528,-480 936,-628 406,-146 880,-220 1416,-220 532,0 966,62 1300,188 332,126 578,282 734,472 156,190 266,430 330,720 34,180 52,504 52,970l0 1400c0,978 22,1596 66,1858 42,262 130,512 258,752l-1104 0c-106,-222 -174,-482 -204,-780zm-84 -2340c-384,156 -960,288 -1728,396 -436,62 -744,132 -924,210 -180,78 -318,192 -416,340 -98,150 -148,316 -148,500 0,278 106,512 320,698 214,186 526,280 936,280 406,0 768,-88 1086,-266 316,-176 550,-418 698,-724 114,-238 170,-588 170,-1050l6 -384zm16573 -636l-5663 2436 0 -1056 4475 -1866 -4475 -1842 0 -1056 5663 2400 0 984zm4510 -484c0,-1014 104,-1834 312,-2454 210,-622 520,-1100 932,-1434 410,-334 928,-500 1552,-500 460,0 864,92 1214,278 348,186 636,454 860,804 224,348 400,774 528,1276 130,502 194,1180 194,2030 0,1008 -104,1824 -310,2444 -206,622 -516,1100 -928,1436 -410,336 -930,504 -1558,504 -826,0 -1476,-294 -1948,-884 -566,-720 -848,-1886 -848,-3500zm1080 4c0,1414 164,2354 494,2818 330,466 738,698 1222,698 484,0 892,-234 1222,-700 330,-468 494,-1406 494,-2816 0,-1414 -164,-2354 -494,-2818 -328,-466 -740,-698 -1234,-698 -484,0 -872,206 -1162,616 -362,522 -542,1490 -542,2900zm6158 4236l0 -1200 1200 0 0 1200c0,442 -78,800 -236,1072 -156,272 -406,484 -748,632l-288 -456c224,-98 388,-242 492,-430 106,-190 166,-462 178,-818l-598 0zm2770 -2280l1056 -144c122,600 326,1032 616,1296 290,264 646,396 1068,396 500,0 922,-172 1262,-516 340,-344 510,-770 510,-1278 0,-484 -158,-884 -476,-1200 -316,-314 -718,-472 -1208,-472 -200,0 -448,40 -746,118l118 -924c70,8 128,12 170,12 452,0 856,-118 1218,-352 360,-234 540,-594 540,-1080 0,-386 -132,-706 -394,-960 -262,-254 -600,-380 -1014,-380 -412,0 -754,130 -1028,390 -274,260 -450,650 -528,1170l-1056 -192c130,-708 422,-1258 880,-1648 456,-390 1026,-584 1706,-584 468,0 900,100 1294,302 396,200 698,474 906,820 210,348 314,716 314,1106 0,370 -100,706 -298,1010 -200,304 -496,546 -886,726 508,116 902,360 1184,730 280,368 420,832 420,1386 0,750 -274,1388 -820,1910 -548,522 -1240,782 -2076,782 -754,0 -1380,-226 -1878,-676 -500,-450 -784,-1032 -854,-1748zm10982 2280l0 -790c-394,614 -974,922 -1740,922 -496,0 -952,-136 -1366,-410 -416,-272 -738,-654 -968,-1142 -228,-490 -342,-1052 -342,-1688 0,-620 104,-1182 310,-1688 208,-504 518,-892 932,-1160 412,-270 876,-404 1386,-404 376,0 710,80 1002,238 292,158 530,366 714,620l0 -3090 1056 0 0 8592 -984 0zm-3336 -3106c0,796 168,1390 506,1784 336,394 734,590 1192,590 462,0 854,-188 1178,-564 322,-376 484,-950 484,-1722 0,-848 -164,-1472 -494,-1870 -328,-398 -734,-596 -1216,-596 -470,0 -862,190 -1178,572 -314,382 -472,984 -472,1806zm-33491 5356l-792 0 0 -5043c-191,183 -441,364 -750,546 -309,181 -588,318 -834,408l0 -765c442,-207 829,-459 1161,-756 331,-296 567,-582 705,-861l510 0 0 6471z"/>
  <path fill="#5A5A6E" fill-rule="nonzero" d="M59578 192913c-392,334 -770,568 -1132,706 -362,138 -750,206 -1166,206 -684,0 -1210,-166 -1578,-500 -368,-332 -552,-758 -552,-1276 0,-304 70,-582 208,-834 140,-252 322,-452 546,-604 226,-152 478,-268 760,-346 208,-54 522,-106 940,-158 852,-100 1482,-222 1884,-362 4,-144 6,-236 6,-274 0,-428 -100,-730 -300,-906 -270,-238 -672,-356 -1204,-356 -498,0 -866,88 -1102,262 -238,174 -412,482 -526,926l-1032 -144c94,-442 248,-800 464,-1072 216,-272 528,-480 936,-628 406,-146 880,-220 1416,-220 532,0 966,62 1300,188 332,126 578,282 734,472 156,190 266,430 330,720 34,180 52,504 52,970l0 1400c0,978 22,1596 66,1858 42,262 130,512 258,752l-1104 0c-106,-222 -174,-482 -204,-780zm-84 -2340c-384,156 -960,288 -1728,396 -436,62 -744,132 -924,210 -180,78 -318,192 -416,340 -98,150 -148,316 -148,500 0,278 106,512 320,698 214,186 526,280 936,280 406,0 768,-88 1086,-266 316,-176 550,-418 698,-724 114,-238 170,-588 170,-1050l6 -384zm5904 -636l0 -984 5664 -2400 0 1056 -4488 1842 4488 1866 0 1056 -5664 -2436zm10174 -484c0,-1014 104,-1834 312,-2454 210,-622 520,-1100 932,-1434 410,-334 928,-500 1552,-500 460,0 864,92 1214,278 348,186 636,454 860,804 224,348 400,774 528,1276 130,502 194,1180 194,2030 0,1008 -104,1824 -310,2444 -206,622 -516,1100 -928,1436 -410,336 -930,504 -1558,504 -826,0 -1476,-294 -1948,-884 -566,-720 -848,-1886 -848,-3500zm1080 4c0,1414 164,2354 494,2818 330,466 738,698 1222,698 484,0 892,-234 1222,-700 330,-468 494,-1406 494,-2816 0,-1414 -164,-2354 -494,-2818 -328,-466 -740,-698 -1234,-698 -484,0 -872,206 -1162,616 -362,522 -542,1490 -542,2900zm6158 4236l0 -1200 1200 0 0 1200c0,442 -78,800 -236,1072 -156,272 -406,484 -748,632l-288 -456c224,-98 388,-242 492,-430 106,-190 166,-462 178,-818l-598 0zm2830 -7476l0 -1008 5556 0 0 816c-546,582 -1090,1356 -1626,2322 -538,966 -952,1960 -1246,2982 -210,718 -346,1508 -404,2364l-1080 0c12,-676 144,-1494 398,-2452 254,-960 616,-1884 1090,-2774 474,-890 978,-1640 1512,-2250l-4200 0zm6614 5220l1104 -84c82,538 272,942 568,1214 296,270 658,406 1084,406 514,0 944,-192 1294,-574 348,-384 522,-892 522,-1524 0,-602 -166,-1076 -500,-1424 -334,-348 -776,-522 -1326,-522 -342,0 -648,78 -920,234 -270,156 -482,358 -638,606l-996 -144 828 -4416 4260 0 0 1008 -3418 0 -458 2318c514,-362 1054,-542 1618,-542 748,0 1380,260 1894,780 514,520 772,1188 772,2004 0,778 -226,1450 -678,2016 -550,696 -1302,1044 -2254,1044 -780,0 -1416,-220 -1910,-658 -494,-438 -776,-1018 -846,-1742zm10982 2256l0 -790c-394,614 -974,922 -1740,922 -496,0 -952,-136 -1366,-410 -416,-272 -738,-654 -968,-1142 -228,-490 -342,-1052 -342,-1688 0,-620 104,-1182 310,-1688 208,-504 518,-892 932,-1160 412,-270 876,-404 1386,-404 376,0 710,80 1002,238 292,158 530,366 714,620l0 -3090 1056 0 0 8592 -984 0zm-3336 -3106c0,796 168,1390 506,1784 336,394 734,590 1192,590 462,0 854,-188 1178,-564 322,-376 484,-950 484,-1722 0,-848 -164,-1472 -494,-1870 -328,-398 -734,-596 -1216,-596 -470,0 -862,190 -1178,572 -314,382 -472,984 -472,1806z"/>
  <line fill="none" stroke="#5A5A6E" stroke-width="999.779" x1="65346" y1="193284" x2="71121" y2= "193284" />
  <line fill="none" stroke="#5A5A6E" stroke-width="500.031" x1="36922" y1="135000" x2="50411" y2= "134999" />
  <line fill="none" stroke="#5A5A6E" stroke-width="500.031" x1="42296" y1="110683" x2="42296" y2= "132775" />
  <path fill="#5A5A6E" fill-rule="nonzero" d="M35938 125419l0 -790c-394,614 -974,923 -1740,923 -496,0 -952,-137 -1366,-411 -416,-272 -738,-654 -968,-1141 -228,-491 -342,-1053 -342,-1688 0,-620 104,-1183 310,-1689 208,-504 518,-892 932,-1159 412,-271 876,-404 1386,-404 376,0 710,80 1002,237 292,158 530,366 714,620l0 -3089 1056 0 0 8591 -984 0zm-3336 -3106c0,796 168,1390 506,1784 336,394 734,591 1192,591 462,0 854,-189 1178,-565 322,-375 484,-949 484,-1722 0,-847 -164,-1472 -494,-1870 -328,-398 -734,-595 -1216,-595 -470,0 -862,189 -1178,572 -314,381 -472,983 -472,1805z"/>
  <polygon fill="#5A5A6E" stroke="#5A5A6E" stroke-width="215.433" stroke-linejoin="round" points="39800,113402 44761,113378 42270,107251 "/>
  <polygon fill="#5A5A6E" stroke="#5A5A6E" stroke-width="215.433" stroke-linejoin="round" points="44739,128851 39779,128875 42270,135002 "/>
  <line fill="none" stroke="#5A5A6E" stroke-width="500.031" x1="36922" y1="107006" x2="50411" y2= "107005" />
  <line fill="none" stroke="#0096DC" stroke-width="500.031" x1="66841" y1="58330" x2="66841" y2= "73213" />
  <line fill="none" stroke="#0096DC" stroke-width="500.031" x1="224068" y1="58330" x2="224068" y2= "73213" />
  <line fill="none" stroke="#0096DC" stroke-width="999.779" x1="71282" y1="65764" x2="219923" y2= "65778" />
  <polygon fill="#0096DC" stroke="#0096DC" stroke-width="215.433" stroke-linejoin="round" points="217917,63302 217941,68262 224068,65771 "/>
  <polygon fill="#0096DC" stroke="#0096DC" stroke-width="215.433" stroke-linejoin="round" points="72993,68241 72969,63280 66842,65771 "/>
  <path fill="#0096DC" fill-rule="nonzero" d="M97750 61552l0 -6444 2418 0c492,0 886,64 1184,195 297,130 530,331 698,603 170,270 253,553 253,850 0,275 -74,534 -223,777 -148,243 -374,440 -675,590 390,114 690,309 898,585 210,274 316,600 316,975 0,303 -65,583 -193,843 -127,259 -284,459 -472,600 -187,139 -423,246 -705,318 -284,72 -630,108 -1041,108l-2458 0zm855 -3735l1393 0c378,0 649,-26 813,-75 217,-65 381,-173 490,-323 110,-150 166,-337 166,-564 0,-214 -51,-403 -155,-565 -102,-164 -249,-276 -439,-336 -191,-60 -518,-90 -980,-90l-1288 0 0 1953zm0 2979l1604 0c277,0 470,-11 582,-32 195,-34 360,-93 493,-175 132,-83 240,-203 325,-360 86,-158 128,-339 128,-545 0,-241 -62,-450 -186,-628 -123,-179 -294,-303 -514,-375 -217,-72 -532,-108 -941,-108l-1491 0 0 2223zm8136 171c-294,250 -578,426 -849,529 -272,104 -563,155 -875,155 -513,0 -908,-125 -1183,-375 -277,-249 -415,-569 -415,-957 0,-228 53,-437 156,-626 106,-189 242,-339 410,-453 169,-114 359,-201 570,-259 156,-41 391,-80 705,-119 639,-75 1111,-166 1413,-271 3,-108 5,-177 5,-206 0,-321 -76,-547 -225,-679 -203,-179 -504,-267 -904,-267 -373,0 -649,66 -826,196 -178,131 -309,362 -394,695l-775 -108c71,-332 186,-600 348,-804 162,-204 396,-360 702,-471 305,-110 661,-165 1062,-165 400,0 725,46 976,141 248,94 433,211 550,354 117,142 199,322 248,540 25,135 38,378 38,727l0 1050c0,734 17,1197 50,1394 31,196 97,384 194,564l-828 0c-80,-167 -131,-362 -153,-585zm-63 -1755c-288,117 -720,216 -1296,297 -328,46 -559,99 -693,157 -135,59 -239,144 -313,255 -73,113 -110,237 -110,375 0,209 79,384 239,524 161,139 395,210 703,210 304,0 576,-66 814,-200 237,-132 412,-313 523,-543 86,-178 128,-441 128,-787l5 -288zm1702 945l783 -126c43,313 166,553 367,721 201,167 483,251 843,251 365,0 635,-74 812,-222 175,-147 264,-321 264,-521 0,-178 -80,-319 -237,-421 -111,-71 -381,-159 -810,-269 -579,-145 -980,-271 -1205,-378 -223,-108 -393,-255 -508,-444 -116,-187 -174,-396 -174,-624 0,-208 48,-400 142,-577 96,-177 225,-324 389,-441 123,-90 291,-167 502,-230 213,-63 440,-94 683,-94 366,0 687,52 963,159 277,105 481,249 613,429 131,181 222,423 272,726l-774 108c-35,-243 -137,-434 -305,-570 -168,-137 -405,-204 -712,-204 -362,0 -621,60 -776,180 -154,120 -232,261 -232,421 0,102 31,195 96,278 64,84 165,154 303,210 79,30 310,97 697,202 558,149 948,272 1170,366 222,95 396,234 522,414 128,182 191,407 191,677 0,262 -77,510 -231,742 -155,233 -377,413 -666,540 -291,128 -620,191 -986,191 -606,0 -1069,-126 -1387,-377 -318,-252 -521,-624 -609,-1117zm4815 -4149l0 -900 792 0 0 900 -792 0zm0 5544l0 -4671 792 0 0 4671 -792 0zm5050 -1710l774 108c-85,532 -301,948 -650,1249 -350,302 -781,452 -1289,452 -638,0 -1151,-209 -1538,-626 -388,-417 -582,-1014 -582,-1791 0,-504 84,-943 251,-1321 166,-377 420,-660 762,-848 340,-189 711,-283 1113,-283 506,0 921,127 1242,384 323,256 529,621 619,1092l-764 117c-74,-314 -203,-549 -390,-708 -186,-158 -412,-237 -676,-237 -399,0 -723,142 -973,427 -249,287 -373,737 -373,1355 0,627 119,1081 360,1365 241,283 554,426 940,426 312,0 572,-95 778,-285 209,-189 341,-482 396,-876zm8639 -551l855 216c-179,701 -500,1233 -963,1601 -464,367 -1031,552 -1701,552 -693,0 -1257,-141 -1692,-425 -435,-282 -765,-691 -992,-1227 -226,-537 -340,-1111 -340,-1726 0,-671 127,-1256 384,-1755 256,-500 621,-879 1093,-1139 473,-259 993,-388 1560,-388 645,0 1187,163 1625,492 439,328 745,789 918,1383l-837 198c-149,-468 -366,-810 -650,-1023 -283,-215 -640,-321 -1071,-321 -493,0 -907,118 -1239,355 -331,237 -565,557 -699,956 -135,400 -202,813 -202,1237 0,548 79,1026 238,1434 159,410 407,714 743,917 336,202 699,303 1090,303 477,0 879,-138 1209,-413 330,-276 554,-684 671,-1227zm1513 -75c0,-862 240,-1501 722,-1917 400,-345 891,-517 1469,-517 640,0 1165,210 1573,630 407,418 610,999 610,1738 0,600 -90,1071 -270,1415 -180,343 -442,610 -787,801 -344,190 -720,285 -1126,285 -655,0 -1183,-209 -1586,-627 -404,-419 -605,-1022 -605,-1808zm810 2c0,597 131,1044 392,1339 262,297 591,446 989,446 392,0 720,-149 982,-447 261,-299 391,-753 391,-1364 0,-576 -132,-1012 -394,-1308 -263,-297 -590,-445 -979,-445 -398,0 -727,147 -989,442 -261,296 -392,741 -392,1337zm4493 2334l0 -4671 711 0 0 663c342,-509 837,-762 1483,-762 282,0 540,51 776,151 235,101 412,234 529,398 117,163 200,358 246,583 29,147 44,404 44,770l0 2868 -792 0 0 -2838c0,-323 -30,-564 -92,-723 -61,-159 -171,-287 -327,-383 -156,-94 -340,-142 -550,-142 -336,0 -626,106 -870,321 -245,213 -366,619 -366,1216l0 2549 -792 0zm6724 -707l108 699c-222,47 -421,71 -595,71 -287,0 -509,-45 -668,-137 -157,-91 -268,-210 -333,-358 -64,-149 -96,-461 -96,-936l0 -2691 -585 0 0 -612 585 0 0 -1155 792 -476 0 1631 792 0 0 612 -792 0 0 2736c0,226 14,372 42,436 27,65 72,116 135,155 63,37 153,57 270,57 87,0 203,-11 345,-32zm773 707l0 -4671 711 0 0 715c181,-331 349,-550 504,-655 154,-107 324,-159 508,-159 267,0 539,84 815,250l-282 731c-192,-108 -384,-162 -576,-162 -173,0 -327,52 -464,156 -136,103 -234,247 -292,432 -89,280 -132,588 -132,922l0 2441 -792 0zm2709 -2336c0,-862 240,-1501 721,-1917 401,-345 891,-517 1469,-517 640,0 1165,210 1573,630 407,418 611,999 611,1738 0,600 -90,1071 -270,1415 -180,343 -443,610 -788,801 -343,190 -720,285 -1126,285 -654,0 -1182,-209 -1586,-627 -403,-419 -604,-1022 -604,-1808zm810 2c0,597 130,1044 391,1339 263,297 591,446 989,446 393,0 720,-149 982,-447 261,-299 392,-753 392,-1364 0,-576 -132,-1012 -395,-1308 -262,-297 -589,-445 -979,-445 -398,0 -726,147 -989,442 -261,296 -391,741 -391,1337zm4474 2334l0 -6444 792 0 0 6444 -792 0zm4617 0l0 -6444 2433 0c428,0 755,21 981,61 317,53 582,153 797,300 214,149 387,356 517,621 131,266 195,558 195,878 0,546 -174,1009 -523,1387 -348,380 -980,569 -1892,569l-1653 0 0 2628 -855 0zm855 -3384l1665 0c552,0 942,-102 1175,-308 231,-205 346,-493 346,-867 0,-268 -67,-499 -204,-691 -136,-192 -316,-320 -538,-381 -144,-38 -410,-57 -795,-57l-1649 0 0 2304zm8235 1872l819 108c-128,475 -366,846 -714,1108 -348,263 -792,395 -1333,395 -681,0 -1221,-210 -1620,-630 -399,-419 -599,-1008 -599,-1766 0,-783 201,-1392 605,-1824 403,-433 927,-649 1570,-649 623,0 1131,211 1526,636 394,424 592,1021 592,1791 0,46 -1,117 -4,210l-3479 0c30,511 174,904 435,1176 260,271 585,408 974,408 289,0 537,-77 741,-230 205,-153 367,-397 487,-733zm-2592 -1269l2601 0c-34,-393 -135,-687 -298,-884 -251,-304 -578,-457 -978,-457 -363,0 -668,121 -915,364 -246,243 -383,569 -410,977zm4403 2781l0 -4671 711 0 0 715c181,-331 349,-550 504,-655 154,-107 324,-159 508,-159 267,0 539,84 814,250l-282 731c-192,-108 -383,-162 -576,-162 -172,0 -326,52 -463,156 -136,103 -234,247 -293,432 -88,280 -131,588 -131,922l0 2441 -792 0zm3006 -5544l0 -900 792 0 0 900 -792 0zm0 5544l0 -4671 792 0 0 4671 -792 0zm1999 0l0 -4671 711 0 0 660c146,-228 341,-413 584,-551 243,-139 519,-208 829,-208 345,0 629,72 849,214 221,144 377,344 467,602 372,-545 853,-816 1447,-816 465,0 824,127 1073,384 250,256 376,651 376,1183l0 3203 -792 0 0 -2940c0,-315 -27,-543 -78,-683 -51,-139 -144,-250 -280,-336 -135,-85 -294,-127 -476,-127 -330,0 -603,109 -820,327 -218,219 -326,568 -326,1048l0 2711 -792 0 0 -3032c0,-351 -64,-615 -193,-790 -129,-176 -341,-264 -633,-264 -222,0 -428,58 -617,175 -189,117 -325,288 -411,515 -84,225 -126,550 -126,975l0 2421 -792 0zm10683 -1512l819 108c-127,475 -366,846 -714,1108 -348,263 -792,395 -1333,395 -681,0 -1221,-210 -1620,-630 -399,-419 -599,-1008 -599,-1766 0,-783 201,-1392 605,-1824 403,-433 927,-649 1570,-649 623,0 1131,211 1526,636 394,424 592,1021 592,1791 0,46 -1,117 -4,210l-3479 0c30,511 174,904 435,1176 260,271 585,408 974,408 289,0 537,-77 741,-230 205,-153 367,-397 487,-733zm-2592 -1269l2601 0c-34,-393 -135,-687 -298,-884 -251,-304 -578,-457 -978,-457 -363,0 -668,121 -915,364 -246,243 -383,569 -410,977zm6131 2074l108 699c-222,47 -422,71 -596,71 -286,0 -508,-45 -667,-137 -158,-91 -269,-210 -333,-358 -65,-149 -96,-461 -96,-936l0 -2691 -585 0 0 -612 585 0 0 -1155 792 -476 0 1631 792 0 0 612 -792 0 0 2736c0,226 13,372 42,436 27,65 72,116 135,155 63,37 153,57 270,57 87,0 202,-11 345,-32zm3967 -805l819 108c-128,475 -366,846 -714,1108 -348,263 -792,395 -1333,395 -681,0 -1221,-210 -1620,-630 -399,-419 -599,-1008 -599,-1766 0,-783 201,-1392 604,-1824 404,-433 928,-649 1571,-649 623,0 1131,211 1525,636 395,424 593,1021 593,1791 0,46 -1,117 -4,210l-3479 0c30,511 174,904 435,1176 259,271 585,408 974,408 289,0 537,-77 741,-230 205,-153 367,-397 487,-733zm-2592 -1269l2601 0c-34,-393 -135,-687 -298,-884 -251,-304 -578,-457 -978,-457 -363,0 -668,121 -915,364 -246,243 -383,569 -410,977zm4403 2781l0 -4671 710 0 0 715c182,-331 350,-550 504,-655 155,-107 324,-159 509,-159 267,0 539,84 814,250l-282 731c-192,-108 -383,-162 -576,-162 -172,0 -326,52 -463,156 -136,103 -234,247 -293,432 -88,280 -131,588 -131,922l0 2441 -792 0z"/>
  <line fill="none" stroke="#5A5A6E" stroke-width="500.031" x1="16934" y1="40117" x2="16934" y2= "55000" />
  <line fill="none" stroke="#5A5A6E" stroke-width="500.031" x1="274068" y1="40117" x2="274068" y2= "55000" />
  <line fill="none" stroke="#5A5A6E" stroke-width="999.779" x1="23074" y1="47551" x2="270180" y2= "47565" />
  <polygon fill="#5A5A6E" stroke="#5A5A6E" stroke-width="215.433" stroke-linejoin="round" points="267916,45089 267941,50049 274068,47558 "/>
  <polygon fill="#5A5A6E" stroke="#5A5A6E" stroke-width="215.433" stroke-linejoin="round" points="23086,50028 23062,45067 16935,47558 "/>
  <path fill="#5A5A6E" fill-rule="nonzero" d="M86631 40202c0,-1068 288,-1905 863,-2509 574,-605 1315,-906 2224,-906 595,0 1131,142 1609,426 477,283 842,679 1093,1188 250,506 376,1082 376,1726 0,652 -132,1238 -396,1752 -264,516 -637,906 -1120,1170 -485,266 -1007,398 -1567,398 -607,0 -1149,-148 -1627,-440 -477,-292 -840,-691 -1086,-1199 -246,-505 -369,-1040 -369,-1606zm882 15c0,776 208,1386 625,1832 417,445 941,669 1571,669 642,0 1169,-226 1584,-675 414,-451 621,-1089 621,-1917 0,-524 -89,-982 -265,-1371 -178,-390 -437,-693 -777,-908 -343,-215 -725,-323 -1150,-323 -602,0 -1122,208 -1557,622 -434,414 -652,1104 -652,2071zm9331 3122l0 -695c-363,530 -854,794 -1477,794 -275,0 -531,-53 -770,-158 -238,-106 -415,-238 -530,-397 -116,-161 -197,-356 -244,-587 -31,-156 -48,-402 -48,-738l0 -2890 792 0 0 2584c0,412 17,692 48,834 50,209 155,370 317,489 160,119 359,179 596,179 236,0 458,-60 665,-182 207,-121 354,-288 441,-497 86,-208 129,-512 129,-910l0 -2497 792 0 0 4671 -711 0zm3674 -707l108 699c-222,47 -422,71 -596,71 -286,0 -508,-45 -667,-137 -158,-91 -269,-210 -333,-358 -65,-149 -96,-461 -96,-936l0 -2691 -585 0 0 -612 585 0 0 -1155 792 -476 0 1631 792 0 0 612 -792 0 0 2736c0,226 13,372 42,436 27,65 72,116 135,155 63,37 153,57 270,57 87,0 202,-11 345,-32zm3967 -805l819 108c-127,475 -366,845 -714,1108 -348,263 -792,395 -1333,395 -681,0 -1221,-211 -1620,-630 -399,-419 -599,-1008 -599,-1766 0,-783 201,-1392 605,-1824 403,-434 927,-650 1570,-650 623,0 1131,212 1526,637 394,424 592,1021 592,1790 0,47 -1,118 -4,211l-3479 0c30,511 174,904 435,1176 260,271 585,408 974,408 289,0 537,-77 741,-230 205,-153 367,-397 487,-733zm-2592 -1269l2601 0c-34,-393 -135,-687 -298,-884 -251,-304 -578,-458 -978,-458 -363,0 -668,122 -915,365 -246,243 -383,569 -410,977zm4403 2781l0 -4671 711 0 0 715c181,-332 349,-550 504,-656 154,-106 324,-159 508,-159 267,0 539,85 815,251l-282 731c-192,-108 -384,-162 -576,-162 -173,0 -327,52 -464,156 -136,103 -234,247 -292,432 -89,280 -132,587 -132,922l0 2441 -792 0zm3006 0l0 -4671 711 0 0 660c145,-228 340,-413 583,-551 243,-139 519,-209 830,-209 345,0 628,72 849,215 220,144 376,344 466,602 372,-545 854,-817 1448,-817 465,0 823,128 1072,385 251,256 377,651 377,1183l0 3203 -792 0 0 -2940c0,-315 -27,-543 -78,-683 -51,-140 -144,-250 -281,-336 -135,-85 -294,-128 -475,-128 -330,0 -603,110 -821,328 -217,219 -325,568 -325,1048l0 2711 -792 0 0 -3032c0,-351 -65,-615 -194,-790 -129,-176 -340,-265 -633,-265 -222,0 -427,59 -616,176 -189,117 -326,288 -411,515 -84,224 -126,550 -126,975l0 2421 -792 0zm7200 -2336c0,-862 240,-1501 721,-1917 401,-345 891,-518 1469,-518 640,0 1165,211 1573,631 407,418 611,999 611,1738 0,600 -90,1071 -270,1415 -180,343 -443,610 -788,801 -343,190 -720,285 -1126,285 -654,0 -1182,-209 -1586,-627 -403,-419 -604,-1022 -604,-1808zm810 2c0,597 130,1044 391,1339 263,297 591,446 989,446 393,0 720,-149 982,-447 261,-299 392,-753 392,-1364 0,-576 -132,-1012 -395,-1308 -262,-297 -589,-445 -979,-445 -398,0 -726,147 -989,442 -261,296 -391,741 -391,1337zm4177 939l783 -126c44,313 167,553 368,721 201,167 483,251 843,251 364,0 634,-74 811,-222 176,-148 264,-321 264,-521 0,-178 -79,-319 -237,-421 -111,-71 -381,-159 -810,-269 -579,-146 -979,-271 -1204,-378 -224,-108 -393,-255 -509,-444 -115,-188 -174,-396 -174,-624 0,-208 48,-400 143,-577 96,-177 225,-324 388,-442 123,-89 291,-166 503,-229 213,-63 439,-95 682,-95 366,0 687,53 963,159 278,106 482,250 614,430 130,181 222,423 271,726l-774 108c-34,-243 -136,-434 -304,-570 -168,-137 -405,-205 -713,-205 -361,0 -621,61 -775,180 -155,121 -233,262 -233,422 0,102 32,195 96,277 65,85 165,155 303,211 80,30 311,97 698,202 558,148 948,271 1170,366 222,95 396,234 522,414 127,182 190,407 190,677 0,262 -76,510 -231,742 -154,232 -376,412 -666,540 -291,128 -619,191 -985,191 -606,0 -1070,-126 -1388,-377 -318,-252 -520,-624 -609,-1117zm6534 688l108 699c-222,47 -421,71 -595,71 -287,0 -509,-45 -668,-137 -157,-91 -268,-210 -333,-358 -64,-149 -96,-461 -96,-936l0 -2691 -585 0 0 -612 585 0 0 -1155 792 -476 0 1631 792 0 0 612 -792 0 0 2736c0,226 14,372 42,436 27,65 72,116 135,155 63,37 153,57 270,57 87,0 203,-11 345,-32zm7971 -1554l855 216c-178,701 -499,1233 -963,1601 -463,367 -1030,552 -1701,552 -693,0 -1257,-141 -1692,-425 -435,-282 -765,-691 -991,-1227 -227,-537 -341,-1111 -341,-1726 0,-671 128,-1256 384,-1755 257,-500 621,-879 1094,-1139 472,-259 993,-388 1560,-388 645,0 1186,163 1624,492 439,328 746,789 918,1383l-837 198c-148,-468 -366,-810 -650,-1023 -283,-215 -640,-321 -1070,-321 -494,0 -908,118 -1239,355 -332,237 -566,557 -699,956 -135,400 -203,813 -203,1237 0,548 79,1026 239,1434 159,410 406,714 742,917 336,202 699,303 1091,303 477,0 879,-139 1209,-413 330,-276 553,-684 670,-1227zm1514 -75c0,-862 240,-1501 721,-1917 401,-345 891,-518 1469,-518 640,0 1165,211 1573,631 407,418 611,999 611,1738 0,600 -90,1071 -270,1415 -180,343 -443,610 -788,801 -343,190 -720,285 -1126,285 -654,0 -1182,-209 -1586,-627 -403,-419 -604,-1022 -604,-1808zm810 2c0,597 130,1044 391,1339 263,297 591,446 989,446 393,0 720,-149 982,-447 261,-299 392,-753 392,-1364 0,-576 -132,-1012 -395,-1308 -262,-297 -589,-445 -979,-445 -398,0 -726,147 -989,442 -261,296 -391,741 -391,1337zm4492 2334l0 -4671 711 0 0 663c342,-509 837,-763 1484,-763 282,0 540,51 775,152 236,100 413,234 530,398 117,163 199,358 246,583 28,147 43,404 43,770l0 2868 -792 0 0 -2838c0,-323 -30,-565 -92,-723 -61,-159 -170,-287 -326,-383 -156,-94 -341,-143 -551,-143 -336,0 -625,107 -870,322 -244,213 -366,619 -366,1216l0 2549 -792 0zm6725 -707l108 699c-222,47 -422,71 -596,71 -287,0 -509,-45 -668,-137 -157,-91 -268,-210 -333,-358 -64,-149 -95,-461 -95,-936l0 -2691 -585 0 0 -612 585 0 0 -1155 792 -476 0 1631 792 0 0 612 -792 0 0 2736c0,226 13,372 42,436 26,65 72,116 134,155 63,37 154,57 271,57 87,0 202,-11 345,-32zm772 707l0 -4671 711 0 0 715c181,-332 349,-550 504,-656 154,-106 324,-159 508,-159 268,0 539,85 815,251l-282 731c-192,-108 -384,-162 -576,-162 -173,0 -327,52 -464,156 -136,103 -233,247 -292,432 -89,280 -132,587 -132,922l0 2441 -792 0zm2709 -2336c0,-862 240,-1501 722,-1917 400,-345 890,-518 1468,-518 640,0 1165,211 1574,631 406,418 610,999 610,1738 0,600 -90,1071 -270,1415 -180,343 -442,610 -787,801 -344,190 -720,285 -1127,285 -654,0 -1182,-209 -1586,-627 -403,-419 -604,-1022 -604,-1808zm810 2c0,597 131,1044 391,1339 263,297 591,446 989,446 393,0 720,-149 983,-447 260,-299 391,-753 391,-1364 0,-576 -132,-1012 -394,-1308 -263,-297 -590,-445 -980,-445 -398,0 -726,147 -989,442 -260,296 -391,741 -391,1337zm4474 2334l0 -6444 792 0 0 6444 -792 0zm4618 0l0 -6444 2432 0c428,0 755,21 982,61 316,53 582,153 796,300 214,149 387,355 517,621 131,266 195,558 195,878 0,546 -174,1009 -523,1387 -348,380 -979,569 -1892,569l-1653 0 0 2628 -854 0zm854 -3384l1666 0c551,0 941,-102 1174,-308 231,-205 347,-493 347,-867 0,-269 -68,-500 -205,-691 -136,-192 -316,-320 -538,-381 -144,-38 -409,-57 -795,-57l-1649 0 0 2304zm8235 1872l819 108c-127,475 -366,845 -714,1108 -348,263 -792,395 -1333,395 -681,0 -1221,-211 -1620,-630 -399,-419 -599,-1008 -599,-1766 0,-783 201,-1392 605,-1824 403,-434 927,-650 1570,-650 623,0 1131,212 1526,637 394,424 592,1021 592,1790 0,47 -1,118 -4,211l-3479 0c30,511 174,904 435,1176 260,271 585,408 974,408 289,0 537,-77 741,-230 205,-153 367,-397 487,-733zm-2592 -1269l2601 0c-34,-393 -134,-687 -298,-884 -251,-304 -578,-458 -978,-458 -363,0 -668,122 -915,365 -246,243 -383,569 -410,977zm4403 2781l0 -4671 711 0 0 715c181,-332 349,-550 504,-656 154,-106 324,-159 508,-159 267,0 539,85 815,251l-282 731c-192,-108 -384,-162 -576,-162 -173,0 -327,52 -464,156 -136,103 -234,247 -292,432 -89,280 -132,587 -132,922l0 2441 -792 0zm3006 -5544l0 -900 792 0 0 900 -792 0zm0 5544l0 -4671 792 0 0 4671 -792 0zm2000 0l0 -4671 710 0 0 660c146,-228 341,-413 584,-551 243,-139 519,-209 830,-209 345,0 628,72 849,215 220,144 376,344 466,602 372,-545 853,-817 1447,-817 465,0 824,128 1073,385 250,256 377,651 377,1183l0 3203 -792 0 0 -2940c0,-315 -28,-543 -79,-683 -51,-140 -144,-250 -280,-336 -135,-85 -294,-128 -476,-128 -330,0 -603,110 -820,328 -217,219 -325,568 -325,1048l0 2711 -792 0 0 -3032c0,-351 -65,-615 -194,-790 -129,-176 -341,-265 -633,-265 -222,0 -428,59 -617,176 -189,117 -325,288 -411,515 -84,224 -125,550 -125,975l0 2421 -792 0zm10682 -1512l819 108c-127,475 -366,845 -714,1108 -347,263 -792,395 -1333,395 -681,0 -1221,-211 -1620,-630 -399,-419 -598,-1008 -598,-1766 0,-783 201,-1392 604,-1824 404,-434 927,-650 1571,-650 622,0 1131,212 1525,637 394,424 593,1021 593,1790 0,47 -2,118 -5,211l-3479 0c30,511 174,904 436,1176 259,271 585,408 973,408 289,0 537,-77 741,-230 205,-153 368,-397 487,-733zm-2592 -1269l2602 0c-35,-393 -135,-687 -299,-884 -251,-304 -578,-458 -978,-458 -363,0 -667,122 -915,365 -246,243 -383,569 -410,977zm6131 2074l108 699c-222,47 -422,71 -596,71 -286,0 -508,-45 -667,-137 -157,-91 -269,-210 -333,-358 -65,-149 -96,-461 -96,-936l0 -2691 -585 0 0 -612 585 0 0 -1155 792 -476 0 1631 792 0 0 612 -792 0 0 2736c0,226 13,372 42,436 27,65 72,116 135,155 63,37 153,57 270,57 87,0 202,-11 345,-32zm3967 -805l819 108c-127,475 -366,845 -714,1108 -348,263 -792,395 -1333,395 -681,0 -1221,-211 -1620,-630 -399,-419 -599,-1008 -599,-1766 0,-783 201,-1392 605,-1824 403,-434 927,-650 1570,-650 623,0 1131,212 1526,637 394,424 592,1021 592,1790 0,47 -1,118 -4,211l-3479 0c30,511 174,904 435,1176 260,271 585,408 974,408 289,0 537,-77 741,-230 205,-153 367,-397 487,-733zm-2592 -1269l2601 0c-34,-393 -135,-687 -298,-884 -251,-304 -578,-458 -978,-458 -363,0 -668,122 -915,365 -246,243 -383,569 -410,977zm4403 2781l0 -4671 711 0 0 715c181,-332 349,-550 504,-656 154,-106 324,-159 508,-159 267,0 539,85 815,251l-282 731c-192,-108 -384,-162 -576,-162 -173,0 -327,52 -464,156 -136,103 -234,247 -292,432 -89,280 -132,587 -132,922l0 2441 -792 0z"/>
  <line fill="none" stroke="#5A5A6E" stroke-width="999.779" stroke-dasharray="1999.558186 2999.337280" x1="70000" y1="135000" x2="16841" y2= "99999" />
  <line fill="none" stroke="#5A5A6E" stroke-width="999.779" stroke-dasharray="1999.558186 2999.337280" x1="274068" y1="99973" x2="219999" y2= "135000" />
  <line fill="none" stroke="#5A5A6E" stroke-width="500.031" x1="274068" y1="169809" x2="274068" y2= "192448" />
  <polygon fill="#5A5A6E" stroke="#5A5A6E" stroke-width="215.433" stroke-linejoin="round" points="270037,182708 270053,185958 274067,184326 "/>
  <g id="_537703336">
   <path fill="#5A5A6E" fill-rule="nonzero" d="M242147 176538l0 -984 5664 -2400 0 1056 -4488 1842 4488 1866 0 1056 -5664 -2436zm10466 3756l0 -8592 1056 0 0 4894 2496 -2530 1364 0 -2376 2314 2616 3914 -1300 0 -2068 -3182 -732 712 0 2470 -1056 0zm10016 0l0 -790c-394,614 -974,922 -1740,922 -496,0 -952,-136 -1366,-410 -416,-272 -738,-654 -968,-1142 -228,-490 -342,-1052 -342,-1688 0,-620 104,-1182 310,-1688 208,-504 518,-892 932,-1160 412,-270 876,-404 1386,-404 376,0 710,80 1002,238 292,158 530,366 714,620l0 -3090 1056 0 0 8592 -984 0zm-3336 -3106c0,796 168,1390 506,1784 336,394 734,590 1192,590 462,0 854,-188 1178,-564 322,-376 484,-950 484,-1722 0,-848 -164,-1472 -494,-1870 -328,-398 -734,-596 -1216,-596 -470,0 -862,190 -1178,572 -314,382 -472,984 -472,1806z"/>
   <line fill="none" stroke="#5A5A6E" stroke-width="999.779" x1="242147" y1="179874" x2="247922" y2= "179874" />
  </g>
  <polygon fill="#5A5A6E" stroke="#5A5A6E" stroke-width="215.433" stroke-linejoin="round" points="236001,185944 235985,182694 231971,184326 "/>
  <line fill="none" stroke="#5A5A6E" stroke-width="1500.09" x1="120000" y1="99973" x2="120000" y2= "80000" />
  <polyline fill="none" stroke="#5A5A6E" stroke-width="1500.09" points="170000,80000 170000,99966 275000,99973 "/>
  <line fill="none" stroke="#849DB6" stroke-width="2999.9" x1="180000" y1="130000" x2="180000" y2= "104204" />
  <line fill="none" stroke="#849DB6" stroke-width="2999.9" x1="206000" y1="130000" x2="206000" y2= "104204" />
  <line fill="none" stroke="#849DB6" stroke-width="2999.9" x1="84000" y1="130000" x2="84000" y2= "104204" />
  <line fill="none" stroke="#0096DC" stroke-width="999.779" stroke-dasharray="999.779093 999.779093" x1="120000" y1="135000" x2="66841" y2= "99981" />
  <line fill="none" stroke="#0096DC" stroke-width="999.779" stroke-dasharray="999.779093 999.779093" x1="224068" y1="99981" x2="170000" y2= "135000" />
  <line fill="none" stroke="#5A5A6E" stroke-width="500.031" x1="181496" y1="117838" x2="181496" y2= "128838" />
  <line fill="none" stroke="#5A5A6E" stroke-width="500.031" x1="167692" y1="123752" x2="173317" y2= "123752" />
  <line fill="none" stroke="#5A5A6E" stroke-width="500.031" x1="192308" y1="123752" x2="186683" y2= "123752" />
  <polygon fill="#5A5A6E" stroke="#5A5A6E" stroke-width="215.433" stroke-linejoin="round" points="187647,126150 187623,121190 181495,123681 "/>
  <polygon fill="#5A5A6E" stroke="#5A5A6E" stroke-width="215.433" stroke-linejoin="round" points="172345,121211 172369,126172 178496,123681 "/>
  <line fill="none" stroke="#5A5A6E" stroke-width="500.031" x1="178496" y1="117838" x2="178496" y2= "128838" />
  <path fill="#5A5A6E" fill-rule="nonzero" d="M188179 118840l0 -790c-394,614 -974,923 -1740,923 -496,0 -952,-136 -1366,-411 -416,-271 -738,-654 -968,-1141 -228,-490 -342,-1053 -342,-1688 0,-620 104,-1182 310,-1688 208,-504 518,-893 932,-1160 412,-271 876,-404 1386,-404 376,0 710,80 1002,238 292,157 530,365 714,619l0 -3089 1056 0 0 8591 -984 0zm-3336 -3105c0,796 168,1389 506,1783 336,394 734,591 1192,591 462,0 854,-189 1178,-565 322,-375 484,-949 484,-1722 0,-847 -164,-1472 -494,-1870 -328,-398 -734,-595 -1216,-595 -470,0 -862,190 -1178,572 -314,381 -472,984 -472,1806zm5477 3961l783 -126c44,313 167,553 368,721 201,167 483,251 843,251 364,0 634,-74 811,-222 176,-148 264,-321 264,-521 0,-178 -79,-319 -237,-421 -111,-71 -381,-159 -810,-269 -579,-145 -979,-271 -1204,-378 -224,-108 -393,-255 -509,-444 -115,-187 -174,-396 -174,-624 0,-208 48,-400 143,-577 96,-177 225,-324 388,-442 123,-89 291,-166 502,-229 214,-63 440,-95 683,-95 366,0 687,53 963,160 277,105 482,249 614,429 130,181 222,423 271,726l-774 108c-35,-243 -137,-434 -304,-570 -168,-137 -405,-205 -713,-205 -361,0 -621,61 -776,180 -154,121 -232,262 -232,422 0,102 31,195 96,278 64,84 165,154 303,210 79,30 311,97 697,202 559,148 949,272 1171,366 222,95 396,234 521,414 128,182 191,407 191,677 0,262 -76,510 -231,742 -154,233 -377,413 -666,540 -291,128 -619,191 -986,191 -605,0 -1069,-126 -1387,-377 -318,-252 -521,-624 -609,-1117z"/>
 </g>
 <g id="Layer_x0020_3">
  <metadata id="CorelCorpID_2Corel-Layer"/>
  <line fill="none" stroke="#5A5A6E" stroke-width="1000.06" stroke-dasharray="5000.312788 3000.187673 1000.062558 3000.187673" x1="145000" y1="74785" x2="145000" y2= "207463" />
  <g id="_537727696">
   <path fill="#C83200" fill-rule="nonzero" d="M171101 114991l2274 -3226 -2105 -3002 1297 0 984 1470c182,276 326,500 428,676 178,-250 336,-476 478,-678l1036 -1468 1290 0 -2118 3002 2256 3226 -1284 0 -1288 -1920 -294 -462 -1664 2382 -1290 0z"/>
   <path fill="#0032BE" fill-rule="nonzero" d="M147500 152475l0 -860 3944 -4552c-448,24 -842,36 -1182,36l-2522 0 0 -852 5076 0 0 694 -3376 3948 -646 734c474,-40 918,-60 1332,-60l2882 0 0 912 -5508 0z"/>
   <g>
    <path fill="#0032BE" fill-rule="nonzero" d="M144500 144222l0 -26731 1000 0 0 26731 -1000 0zm2454 -2604l-1954 6978 -1954 -6978 3908 0z"/>
   </g>
   <g>
    <path fill="#C83200" fill-rule="nonzero" d="M171142 117991l-26142 0 0 -1000 26142 0 0 1000zm-2604 -2454l6979 1954 -6979 1954 0 -3908z"/>
   </g>
   <circle fill="#FADC00" cx="145000" cy="117491" r="2500"/>
   <circle fill="#00A046" cx="145000" cy="117491" r="1000"/>
  </g>
 </g>
</svg>
