<?xml version="1.0" encoding="UTF-8"?>
<!DOCTYPE svg PUBLIC "-//W3C//DTD SVG 1.0//EN" "http://www.w3.org/TR/2001/REC-SVG-20010904/DTD/svg10.dtd">
<!-- Creator: CorelDRAW X6 -->
<svg xmlns="http://www.w3.org/2000/svg" xml:space="preserve" width="290px" height="245px" version="1.0" shape-rendering="geometricPrecision" text-rendering="geometricPrecision" image-rendering="optimizeQuality" fill-rule="evenodd" clip-rule="evenodd"
viewBox="0 0 290000 245000"
 xmlns:xlink="http://www.w3.org/1999/xlink">
 <defs>
    <mask id="id0">
      <linearGradient id="id1" gradientUnits="userSpaceOnUse" x1="153650" y1="126004" x2="149369" y2="146489">
       <stop offset="0" stop-opacity="1" stop-color="white"/>
       <stop offset="1" stop-opacity="0.356863" stop-color="white"/>
      </linearGradient>
     <rect fill="url(#id1)" x="38309" y="100386" width="226401" height="71720"/>
    </mask>
    <linearGradient id="id2" gradientUnits="userSpaceOnUse" x1="228214" y1="172092" x2="74804.6" y2="100401">
     <stop offset="0" stop-color="#BEBEBE"/>
     <stop offset="0.431373" stop-color="#D2D2D2"/>
     <stop offset="1" stop-color="#E6E6E6"/>
    </linearGradient>
 </defs>
 <g id="Layer_x0020_1">
  <metadata id="CorelCorpID_0Corel-Layer"/>
  <g id="_178635448">
   <polygon fill="url(#id2)" fill-rule="nonzero" stroke="#5A5A6E" stroke-width="216" mask="url(#id0)" points="38417,133917 253163,133917 253163,122416 38417,122413 "/>
   <polygon fill="#C5C6C6" stroke="#5A5A6E" stroke-width="499.748" points="38417,120416 253163,120416 253163,122411 38417,122416 "/>
   <polygon fill="#C5C6C6" stroke="#5A5A6E" stroke-width="499.748" points="38417,133917 253163,133917 253163,135912 38417,135917 "/>
   <line fill="none" stroke="#5A5A6E" stroke-width="1500.09" stroke-dasharray="7500.469183 7500.469183" x1="38417" y1="128166" x2="253163" y2= "128166" />
  </g>
  <path fill="black" fill-rule="nonzero" d="M-442 -5106l0 -4898 745 0 0 692c153,-239 357,-432 612,-577 255,-146 544,-218 870,-218 361,0 659,75 890,224 231,151 395,361 489,631 390,-571 895,-855 1518,-855 487,0 863,133 1124,402 263,269 395,683 395,1241l0 3358 -830 0 0 -3083c0,-330 -29,-569 -82,-715 -54,-147 -151,-263 -294,-353 -142,-89 -308,-133 -499,-133 -346,0 -632,114 -860,342 -228,230 -342,597 -342,1100l0 2842 -830 0 0 -3179c0,-368 -68,-644 -203,-829 -135,-184 -357,-276 -663,-276 -233,0 -449,61 -647,184 -198,122 -341,302 -431,539 -88,236 -132,577 -132,1023l0 2538 -830 0zm11201 -1585l859 113c-134,498 -384,887 -749,1162 -365,275 -830,414 -1398,414 -714,0 -1280,-221 -1699,-661 -418,-439 -627,-1057 -627,-1851 0,-821 210,-1460 634,-1913 422,-454 972,-680 1646,-680 653,0 1186,221 1600,666 413,446 621,1071 621,1878 0,49 -2,123 -5,220l-3647 0c31,537 183,949 456,1233 272,285 613,428 1021,428 303,0 563,-80 777,-240 215,-161 385,-417 511,-769zm-2718 -1331l2728 0c-37,-412 -142,-720 -314,-926 -262,-320 -605,-480 -1025,-480 -381,0 -700,127 -960,382 -257,255 -401,596 -429,1024zm4626 2916l0 -4898 745 0 0 692c153,-239 357,-432 612,-577 255,-146 544,-218 870,-218 361,0 659,75 890,224 231,151 395,361 489,631 390,-571 895,-855 1518,-855 487,0 863,133 1124,402 263,269 395,683 395,1241l0 3358 -830 0 0 -3083c0,-330 -28,-569 -82,-715 -54,-147 -151,-263 -294,-353 -142,-89 -308,-133 -499,-133 -346,0 -632,114 -860,342 -228,230 -341,597 -341,1100l0 2842 -831 0 0 -3179c0,-368 -67,-644 -203,-829 -135,-184 -357,-276 -663,-276 -233,0 -449,61 -647,184 -198,122 -341,302 -431,539 -88,236 -132,577 -132,1023l0 2538 -830 0zm8625 0l-774 0 0 -6757 831 0 0 2411c350,-437 797,-655 1341,-655 300,0 587,59 856,180 269,121 489,293 663,511 173,221 310,485 408,795 99,308 148,640 148,992 0,837 -208,1485 -622,1941 -415,458 -912,686 -1492,686 -578,0 -1031,-241 -1359,-721l0 617zm-10 -2485c0,585 80,1008 239,1269 262,427 614,640 1059,640 363,0 676,-157 939,-471 264,-315 396,-784 396,-1407 0,-638 -126,-1108 -379,-1412 -253,-304 -560,-456 -918,-456 -364,0 -677,157 -939,472 -264,314 -397,769 -397,1365zm7834 900l859 113c-134,498 -384,887 -748,1162 -366,275 -831,414 -1399,414 -714,0 -1280,-221 -1698,-661 -419,-439 -628,-1057 -628,-1851 0,-821 211,-1460 634,-1913 423,-454 972,-680 1647,-680 652,0 1186,221 1599,666 414,446 622,1071 622,1878 0,49 -2,123 -5,220l-3648 0c32,537 183,949 457,1233 272,285 613,428 1020,428 304,0 563,-80 777,-240 216,-161 385,-417 511,-769zm-2718 -1331l2728 0c-36,-412 -142,-720 -313,-926 -263,-320 -606,-480 -1026,-480 -380,0 -699,127 -959,382 -258,255 -401,596 -430,1024zm4617 2916l0 -4898 745 0 0 751c190,-348 367,-578 529,-688 162,-111 339,-166 533,-166 280,0 564,87 854,262l-296 766c-201,-113 -403,-170 -604,-170 -181,0 -343,55 -486,164 -143,108 -245,259 -306,453 -93,294 -139,616 -139,967l0 2559 -830 0zm2821 -2029l0 -830 2567 0 0 830 -2567 0zm3454 2029l0 -6757 831 0 0 6757 -831 0zm1804 -2449c0,-904 252,-1574 757,-2010 420,-362 934,-542 1539,-542 672,0 1223,220 1650,660 426,439 640,1047 640,1823 0,629 -94,1123 -283,1483 -189,360 -464,640 -825,840 -360,200 -755,299 -1182,299 -685,0 -1239,-219 -1662,-658 -423,-438 -634,-1071 -634,-1895zm850 2c0,626 136,1094 410,1404 275,312 620,467 1036,467 413,0 755,-155 1031,-468 273,-313 410,-790 410,-1430 0,-604 -138,-1062 -413,-1372 -276,-311 -619,-467 -1028,-467 -416,0 -761,155 -1036,464 -274,310 -410,777 -410,1402zm7909 1834c-308,262 -605,446 -890,555 -285,108 -590,162 -917,162 -538,0 -952,-131 -1241,-393 -289,-262 -434,-597 -434,-1004 0,-239 55,-457 164,-656 110,-198 253,-355 429,-475 177,-119 376,-211 598,-272 163,-42 410,-83 739,-124 670,-79 1165,-175 1481,-285 3,-113 5,-185 5,-215 0,-337 -79,-574 -236,-713 -212,-187 -529,-280 -947,-280 -391,0 -681,69 -866,206 -188,137 -324,379 -414,729l-812 -114c74,-347 195,-629 365,-843 170,-214 416,-377 736,-494 320,-114 692,-172 1114,-172 418,0 760,48 1022,147 261,99 455,222 577,372 123,149 210,338 260,566 27,141 41,396 41,762l0 1101c0,769 17,1256 52,1462 33,206 102,402 203,591l-869 0c-83,-175 -136,-379 -160,-613zm-66 -1841c-302,123 -755,227 -1359,312 -343,49 -585,104 -726,165 -142,61 -251,151 -328,267 -77,118 -116,249 -116,394 0,218 83,402 252,548 168,147 413,221 736,221 319,0 604,-70 854,-210 248,-138 432,-328 549,-569 89,-187 133,-462 133,-826l5 -302zm5277 2454l0 -621c-310,483 -766,725 -1369,725 -390,0 -749,-107 -1074,-323 -327,-214 -580,-514 -761,-898 -179,-385 -269,-827 -269,-1327 0,-488 82,-930 244,-1328 163,-396 407,-701 733,-912 324,-212 688,-317 1089,-317 296,0 559,62 788,187 230,124 417,287 562,487l0 -2430 831 0 0 6757 -774 0zm-2624 -2443c0,626 132,1093 398,1403 264,310 577,464 937,464 364,0 672,-147 927,-443 253,-296 380,-747 380,-1354 0,-667 -129,-1158 -388,-1471 -258,-313 -577,-469 -956,-469 -370,0 -678,150 -927,450 -247,301 -371,774 -371,1420zm3946 4321l0 -595 5492 0 0 595 -5492 0zm6013 -1878l0 -4898 745 0 0 692c153,-239 358,-432 612,-577 255,-146 544,-218 870,-218 362,0 659,75 890,224 231,151 395,361 489,631 390,-571 895,-855 1518,-855 488,0 864,133 1125,402 262,269 394,683 394,1241l0 3358 -830 0 0 -3083c0,-330 -28,-569 -82,-715 -53,-147 -151,-263 -294,-353 -141,-89 -308,-133 -499,-133 -345,0 -632,114 -860,342 -228,230 -341,597 -341,1100l0 2842 -830 0 0 -3179c0,-368 -68,-644 -203,-829 -136,-184 -357,-276 -664,-276 -233,0 -448,61 -647,184 -198,122 -341,302 -430,539 -89,236 -133,577 -133,1023l0 2538 -830 0zm11060 -613c-309,262 -606,446 -891,555 -284,108 -589,162 -916,162 -538,0 -952,-131 -1241,-393 -290,-262 -435,-597 -435,-1004 0,-239 56,-457 164,-656 110,-198 253,-355 429,-475 178,-119 376,-211 598,-272 164,-42 411,-83 739,-124 670,-79 1166,-175 1482,-285 3,-113 5,-185 5,-215 0,-337 -79,-574 -236,-713 -213,-187 -529,-280 -947,-280 -392,0 -681,69 -867,206 -187,137 -324,379 -413,729l-812 -114c74,-347 195,-629 365,-843 170,-214 415,-377 736,-494 319,-114 692,-172 1114,-172 418,0 759,48 1022,147 261,99 454,222 577,372 123,149 209,338 260,566 27,141 41,396 41,762l0 1101c0,769 17,1256 52,1462 32,206 102,402 203,591l-869 0c-83,-175 -137,-379 -160,-613zm-66 -1841c-302,123 -755,227 -1359,312 -343,49 -585,104 -727,165 -141,61 -250,151 -327,267 -77,118 -116,249 -116,394 0,218 83,402 251,548 169,147 414,221 736,221 320,0 604,-70 854,-210 249,-138 433,-328 549,-569 90,-187 134,-462 134,-826l5 -302zm2115 -3359l0 -944 831 0 0 944 -831 0zm0 5813l0 -4898 831 0 0 4898 -831 0zm2097 0l0 -4898 745 0 0 695c359,-533 878,-798 1556,-798 295,0 566,53 813,158 247,106 432,246 555,417 123,171 209,376 258,612 30,154 46,423 46,807l0 3007 -831 0 0 -2976c0,-338 -31,-591 -96,-758 -64,-167 -179,-300 -343,-401 -163,-99 -357,-149 -577,-149 -352,0 -656,111 -912,336 -257,224 -384,650 -384,1276l0 2672 -830 0zm4484 1878l0 -595 5492 0 0 595 -5492 0zm6012 -7691l0 -944 831 0 0 944 -831 0zm0 5813l0 -4898 831 0 0 4898 -831 0zm4984 0l-830 0 0 -5288c-200,192 -463,382 -787,573 -324,190 -616,333 -874,428l0 -803c464,-217 870,-481 1217,-792 348,-310 595,-611 740,-903l534 0 0 6785zm1597 1878l0 -595 5492 0 0 595 -5492 0zm6211 -1878l0 -4256 -736 0 0 -642 736 0 0 -519c0,-329 28,-572 86,-731 80,-214 219,-389 420,-522 200,-134 481,-200 843,-200 235,0 492,28 775,83l-124 727c-173,-30 -335,-46 -489,-46 -251,0 -429,54 -535,161 -103,107 -155,307 -155,599l0 448 953 0 0 642 -944 0 0 4256 -830 0zm2112 -2449c0,-904 251,-1574 756,-2010 420,-362 934,-542 1540,-542 672,0 1222,220 1650,660 426,439 640,1047 640,1823 0,629 -94,1123 -283,1483 -189,360 -464,640 -826,840 -360,200 -755,299 -1181,299 -686,0 -1239,-219 -1662,-658 -423,-438 -634,-1071 -634,-1895zm849 2c0,626 137,1094 411,1404 275,312 619,467 1036,467 412,0 755,-155 1030,-468 274,-313 411,-790 411,-1430 0,-604 -139,-1062 -414,-1372 -275,-311 -618,-467 -1027,-467 -417,0 -761,155 -1036,464 -274,310 -411,777 -411,1402zm4701 2447l0 -4898 746 0 0 751c190,-348 366,-578 528,-688 162,-111 340,-166 533,-166 280,0 565,87 854,262l-295 766c-202,-113 -403,-170 -604,-170 -181,0 -343,55 -486,164 -143,108 -246,259 -307,453 -93,294 -138,616 -138,967l0 2559 -831 0zm6351 -1793l812 113c-90,559 -316,994 -683,1310 -366,316 -818,474 -1351,474 -668,0 -1206,-219 -1612,-656 -408,-437 -610,-1063 -610,-1878 0,-529 88,-989 262,-1386 175,-394 441,-692 799,-888 357,-199 746,-297 1167,-297 530,0 966,133 1303,402 338,269 555,651 649,1145l-802 123c-77,-329 -212,-576 -409,-743 -195,-165 -431,-248 -708,-248 -418,0 -758,149 -1020,448 -262,301 -392,772 -392,1420 0,658 126,1134 377,1431 254,298 582,447 987,447 327,0 599,-99 816,-299 218,-198 357,-504 415,-918zm4860 208l859 113c-134,498 -384,887 -749,1162 -365,275 -830,414 -1398,414 -714,0 -1280,-221 -1698,-661 -419,-439 -628,-1057 -628,-1851 0,-821 211,-1460 634,-1913 423,-454 972,-680 1646,-680 653,0 1186,221 1600,666 414,446 621,1071 621,1878 0,49 -1,123 -4,220l-3648 0c32,537 183,949 456,1233 272,285 614,428 1021,428 304,0 563,-80 777,-240 216,-161 385,-417 511,-769zm-2718 -1331l2728 0c-36,-412 -142,-720 -313,-926 -263,-320 -606,-480 -1026,-480 -380,0 -700,127 -959,382 -258,255 -401,596 -430,1024zm3862 4794l0 -595 5492 0 0 595 -5492 0zm9211 -1878l0 -728c-380,555 -896,832 -1549,832 -288,0 -557,-55 -807,-165 -250,-112 -435,-251 -556,-417 -122,-168 -207,-373 -255,-615 -33,-164 -50,-422 -50,-774l0 -3031 830 0 0 2710c0,433 17,725 50,875 52,218 162,388 332,512 168,125 376,188 624,188 249,0 482,-63 699,-191 217,-127 371,-302 462,-520 90,-219 135,-538 135,-955l0 -2619 831 0 0 4898 -746 0zm2050 0l0 -4898 745 0 0 695c359,-533 878,-798 1556,-798 295,0 566,53 813,158 247,106 432,246 555,417 123,171 209,376 258,612 30,154 46,423 46,807l0 3007 -831 0 0 -2976c0,-338 -31,-591 -96,-758 -64,-167 -179,-300 -343,-401 -163,-99 -357,-149 -577,-149 -352,0 -656,111 -912,336 -257,224 -384,650 -384,1276l0 2672 -830 0zm5248 -5813l0 -944 830 0 0 944 -830 0zm0 5813l0 -4898 830 0 0 4898 -830 0zm2295 0l0 -4256 -736 0 0 -642 736 0 0 -519c0,-329 28,-572 86,-731 80,-214 219,-389 420,-522 200,-134 481,-200 843,-200 235,0 492,28 775,83l-124 727c-173,-30 -335,-46 -489,-46 -251,0 -429,54 -535,161 -103,107 -155,307 -155,599l0 448 953 0 0 642 -944 0 0 4256 -830 0zm2112 -2449c0,-904 251,-1574 756,-2010 420,-362 935,-542 1540,-542 672,0 1222,220 1650,660 426,439 640,1047 640,1823 0,629 -94,1123 -283,1483 -189,360 -464,640 -826,840 -360,200 -755,299 -1181,299 -686,0 -1239,-219 -1662,-658 -423,-438 -634,-1071 -634,-1895zm849 2c0,626 137,1094 411,1404 275,312 619,467 1036,467 412,0 755,-155 1030,-468 274,-313 411,-790 411,-1430 0,-604 -138,-1062 -414,-1372 -275,-311 -618,-467 -1027,-467 -417,0 -761,155 -1036,464 -274,310 -411,777 -411,1402zm4701 2447l0 -4898 746 0 0 751c190,-348 366,-578 528,-688 162,-111 340,-166 533,-166 280,0 565,87 854,262l-295 766c-202,-113 -403,-170 -604,-170 -181,0 -343,55 -486,164 -143,108 -246,259 -307,453 -93,294 -138,616 -138,967l0 2559 -831 0zm3152 0l0 -4898 746 0 0 692c152,-239 357,-432 612,-577 254,-146 543,-218 869,-218 362,0 659,75 890,224 232,151 395,361 490,631 390,-571 894,-855 1517,-855 488,0 864,133 1125,402 262,269 395,683 395,1241l0 3358 -831 0 0 -3083c0,-330 -28,-569 -82,-715 -53,-147 -151,-263 -294,-353 -141,-89 -308,-133 -498,-133 -346,0 -633,114 -861,342 -228,230 -341,597 -341,1100l0 2842 -830 0 0 -3179c0,-368 -68,-644 -203,-829 -136,-184 -357,-276 -664,-276 -233,0 -448,61 -646,184 -199,122 -342,302 -431,539 -89,236 -132,577 -132,1023l0 2538 -831 0zm8097 0l0 -944 944 0 0 944 -944 0zm2055 -1463l821 -132c46,329 175,580 386,757 210,174 506,262 884,262 382,0 665,-77 851,-232 183,-155 276,-337 276,-546 0,-188 -83,-335 -248,-442 -117,-74 -400,-167 -850,-282 -607,-152 -1027,-284 -1263,-396 -234,-113 -412,-267 -533,-466 -121,-196 -182,-415 -182,-654 0,-219 50,-420 149,-605 101,-186 236,-340 408,-463 129,-94 305,-175 526,-241 224,-66 461,-98 716,-98 384,0 720,55 1010,166 291,110 505,261 643,450 137,190 233,443 285,761l-812 114c-36,-255 -143,-455 -319,-598 -176,-143 -425,-214 -747,-214 -379,0 -651,63 -813,189 -162,125 -244,273 -244,442 0,107 33,204 101,291 67,88 173,162 317,220 84,31 326,102 732,212 585,156 994,285 1226,384 233,99 416,245 548,434 133,190 199,426 199,709 0,276 -80,535 -242,779 -162,244 -395,432 -698,566 -305,134 -650,200 -1033,200 -636,0 -1122,-132 -1455,-395 -334,-264 -546,-654 -639,-1172zm6388 1463l-1849 -4898 889 0 1048 2934c113,316 218,644 314,986 74,-258 176,-568 310,-931l1088 -2989 853 0 -1854 4898 -799 0zm3227 406l802 113c33,249 128,429 282,544 206,153 487,230 844,230 384,0 681,-77 891,-230 209,-152 350,-368 424,-643 43,-168 63,-522 60,-1062 -363,428 -815,642 -1356,642 -673,0 -1195,-242 -1563,-728 -370,-485 -554,-1067 -554,-1744 0,-468 85,-898 253,-1293 169,-395 414,-699 735,-914 321,-216 698,-322 1132,-322 577,0 1054,235 1428,707l0 -604 765 0 0 4230c0,762 -77,1302 -233,1620 -154,317 -401,569 -736,753 -337,184 -750,277 -1241,277 -583,0 -1054,-131 -1412,-394 -360,-261 -533,-655 -521,-1182zm680 -2938c0,640 127,1107 382,1401 256,294 575,442 959,442 382,0 702,-146 961,-439 258,-292 387,-751 387,-1378 0,-597 -134,-1049 -399,-1352 -266,-304 -587,-455 -962,-455 -369,0 -682,150 -941,448 -258,300 -387,743 -387,1333z"/>
  <path fill="#C83200" fill-rule="nonzero" d="M29892 125224l0 -1524 1644 0 0 1524 -1644 0zm0 7067l0 -6228 1644 0 0 6228 -1644 0z"/>
  <path fill="#C83200" fill-rule="nonzero" d="M260465 123859l0 -1524 1644 0 0 1524 -1644 0zm1644 840l0 6030c0,792 -52,1352 -156,1678 -102,326 -302,582 -598,764 -294,184 -670,276 -1128,276 -164,0 -340,-14 -530,-44 -190,-28 -394,-72 -612,-132l282 -1400c78,14 152,28 222,38 68,10 132,14 192,14 168,0 308,-36 416,-108 108,-72 180,-160 214,-262 36,-102 54,-406 54,-914l0 -5940 1644 0z"/>
  <circle fill="#C83200" cx="38417" cy="128166" r="2500"/>
  <circle fill="#C83200" cx="253163" cy="128166" r="2500"/>
  <polygon fill="#0096DC" fill-opacity="0.168627" points="38417,72818 253163,72818 253163,105945 38417,105945 "/>
  <rect fill="none" stroke="#0096DC" stroke-width="1500.09" x="38417" y="72818" width="214746" height="33127"/>
  <g>
   <path fill="#0096DC" fill-rule="nonzero" d="M37917 96468l0 -23650 1000 0 0 23650 -1000 0zm500 9477l-5001 -10000 9999 0 -4998 10000z"/>
  </g>
  <g>
   <path fill="#0096DC" fill-rule="nonzero" d="M55812 96468l0 -23650 1001 0 0 23650 -1001 0zm500 9477l-5001 -10000 10000 0 -4999 10000z"/>
  </g>
  <g>
   <path fill="#0096DC" fill-rule="nonzero" d="M73708 96468l0 -23650 1000 0 0 23650 -1000 0zm500 9477l-5002 -10000 10000 0 -4998 10000z"/>
  </g>
  <g>
   <path fill="#0096DC" fill-rule="nonzero" d="M91603 96468l0 -23650 1000 0 0 23650 -1000 0zm500 9477l-5001 -10000 10000 0 -4999 10000z"/>
  </g>
  <g>
   <path fill="#0096DC" fill-rule="nonzero" d="M109499 96468l0 -23650 1000 0 0 23650 -1000 0zm500 9477l-5002 -10000 10000 0 -4998 10000z"/>
  </g>
  <g>
   <path fill="#0096DC" fill-rule="nonzero" d="M127394 96468l0 -23650 1000 0 0 23650 -1000 0zm500 9477l-5001 -10000 9999 0 -4998 10000z"/>
  </g>
  <g>
   <path fill="#0096DC" fill-rule="nonzero" d="M145289 96468l0 -23650 1000 0 0 23650 -1000 0zm500 9477l-5001 -10000 10000 0 -4999 10000z"/>
  </g>
  <g>
   <path fill="#0096DC" fill-rule="nonzero" d="M163185 96468l0 -23650 1000 0 0 23650 -1000 0zm500 9477l-5002 -10000 10000 0 -4998 10000z"/>
  </g>
  <g>
   <path fill="#0096DC" fill-rule="nonzero" d="M181080 96468l0 -23650 1000 0 0 23650 -1000 0zm500 9477l-5001 -10000 10000 0 -4999 10000z"/>
  </g>
  <g>
   <path fill="#0096DC" fill-rule="nonzero" d="M198976 96468l0 -23650 1000 0 0 23650 -1000 0zm500 9477l-5002 -10000 10000 0 -4998 10000z"/>
  </g>
  <g>
   <path fill="#0096DC" fill-rule="nonzero" d="M216871 96468l0 -23650 1000 0 0 23650 -1000 0zm500 9477l-5001 -10000 9999 0 -4998 10000z"/>
  </g>
  <g>
   <path fill="#0096DC" fill-rule="nonzero" d="M234766 96468l0 -23650 1000 0 0 23650 -1000 0zm500 9477l-5001 -10000 10000 0 -4999 10000z"/>
  </g>
  <g>
   <path fill="#0096DC" fill-rule="nonzero" d="M252662 96468l0 -23650 1000 0 0 23650 -1000 0zm500 9477l-5001 -10000 9999 0 -4998 10000z"/>
  </g>
  <polyline fill="none" stroke="#0096DC" stroke-width="1000.06" points="194436,59821 190050,59789 171310,78528 "/>
  <path fill="#0096DC" fill-rule="nonzero" d="M198006 55641l1536 0 0 914c200,-312 468,-564 808,-758 340,-192 718,-288 1132,-288 722,0 1336,284 1840,852 504,566 756,1358 756,2370 0,1042 -254,1850 -762,2428 -508,578 -1124,866 -1848,866 -344,0 -656,-68 -936,-206 -278,-136 -574,-370 -882,-702l0 3116 -1644 0 0 -8592zm1620 3018c0,702 138,1220 416,1556 276,334 614,502 1010,502 382,0 700,-154 954,-462 254,-308 380,-812 380,-1514 0,-656 -130,-1142 -392,-1460 -260,-318 -584,-476 -970,-476 -402,0 -736,156 -1000,468 -266,312 -398,774 -398,1386z"/>
 </g>
</svg>
