<?xml version="1.0" encoding="UTF-8"?>
<!DOCTYPE svg PUBLIC "-//W3C//DTD SVG 1.1//EN" "http://www.w3.org/Graphics/SVG/1.1/DTD/svg11.dtd">
<!-- Creator: CorelDRAW X6 -->
<svg xmlns="http://www.w3.org/2000/svg" xml:space="preserve" width="290px" height="481px" version="1.1" shape-rendering="geometricPrecision" text-rendering="geometricPrecision" image-rendering="optimizeQuality" fill-rule="evenodd" clip-rule="evenodd"
viewBox="0 0 29000000 48099948"
 xmlns:xlink="http://www.w3.org/1999/xlink">
 <g id="Layer_x0020_1">
  <metadata id="CorelCorpID_0Corel-Layer"/>
  <path fill="#2B2A29" fill-rule="nonzero" d="M650012 -1198204l0 -675666 83027 0 0 675666 -83027 0zm211521 -581301l0 -94365 83056 0 0 94365 -83056 0zm0 581301l0 -489770 83056 0 0 489770 -83056 0zm209651 0l0 -489770 74551 0 0 69505c35858,-53319 87761,-79880 155565,-79880 29566,0 56608,5329 81298,15874 24690,10545 43256,24548 55531,41698 12274,17121 20919,37587 25795,61171 2976,15421 4564,42293 4564,80674l0 300728 -83056 0 0 -297581c0,-33817 -3146,-59131 -9581,-75799 -6463,-16667 -17943,-30047 -34299,-40110 -16356,-9921 -35688,-14938 -57713,-14938 -35235,0 -65594,11168 -91219,33647 -25654,22337 -38381,64970 -38381,127559l0 267222 -83055 0zm858897 -158542l85890 11339c-13380,49833 -38381,88696 -74863,116220 -36510,27525 -83055,41358 -139833,41358 -71405,0 -128013,-22026 -169852,-66048 -41839,-43880 -62759,-105704 -62759,-185130 0,-82092 21061,-145956 63383,-191254 42292,-45439 97199,-68088 164664,-68088 65282,0 118602,22167 159959,66671 41357,44532 62135,107121 62135,187795 0,4876 -170,12274 -481,22025l-364734 0c3146,53632 18255,94848 45609,123307 27213,28460 61342,42775 102076,42775 30359,0 56296,-8022 77697,-24066 21544,-16044 38523,-41669 51109,-76904zm-271786 -133058l272750 0c-3629,-41216 -14173,-72028 -31323,-92636 -26249,-31918 -60548,-47962 -102529,-47962 -38069,0 -69987,12727 -95953,38211 -25795,25483 -40110,59612 -42945,102387zm386136 479395l0 -59443 549212 0 0 59443 -549212 0zm5970895 -334063l82091 -13209c4564,32853 17461,58025 38551,75656 21062,17462 50627,26249 88384,26249 38211,0 66529,-7710 85096,-23272 18397,-15421 27666,-33647 27666,-54567 0,-18737 -8333,-33506 -24831,-44192 -11650,-7399 -39968,-16696 -84954,-28177 -60690,-15250 -102699,-28459 -126284,-39628 -23442,-11310 -41215,-26731 -53319,-46545 -12104,-19672 -18255,-41527 -18255,-65423 0,-21884 5045,-42010 14938,-60548 10091,-18567 23613,-33988 40762,-46262 12898,-9439 30501,-17461 52668,-24066 22337,-6605 46091,-9893 71575,-9893 38381,0 72028,5499 100970,16668 29083,10998 50485,26107 64318,44986 13691,19020 23301,44333 28488,76110l-81156 11338c-3628,-25483 -14315,-45467 -31946,-59782 -17603,-14315 -42463,-21373 -74693,-21373 -37899,0 -65112,6292 -81326,18878 -16186,12558 -24378,27355 -24378,44192 0,10687 3316,20438 10063,29084 6775,8816 17320,16214 31776,22025 8334,3146 32570,10233 73134,21232 58507,15562 99411,28459 122684,38381 23272,9893 41527,24519 54737,43398 13351,19049 19955,42633 19955,70951 0,27525 -8022,53462 -24207,77840 -16215,24377 -39487,43256 -69846,56636 -30501,13351 -64942,19956 -103323,19956 -63553,0 -112138,-13210 -145474,-39459 -33364,-26447 -54595,-65452 -63864,-117184zm638730 146268l-184819 -489770 88866 0 104769 293329c11310,31606 21855,64488 31436,98617 7398,-25795 17632,-56778 30983,-93118l108850 -298828 85238 0 -185414 489770 -79909 0zm322753 40592l80220 11310c3288,24860 12728,42945 28148,54425 20608,15251 48756,22961 84444,22961 38381,0 68117,-7710 89036,-22961 20920,-15250 35065,-36822 42463,-64346 4252,-16810 6293,-52214 5981,-106158 -36340,42775 -81467,64177 -135581,64177 -67322,0 -119537,-24208 -156330,-72822 -36964,-48444 -55361,-106640 -55361,-174416 0,-46715 8476,-89801 25314,-129288 16837,-39487 41357,-69846 73445,-91389 32088,-21543 69846,-32230 113244,-32230 57714,0 105392,23584 142810,70781l0 -60406 76450 0 0 422929c0,76280 -7710,130223 -23272,162000 -15421,31776 -40111,56919 -73616,75345 -33676,18397 -75033,27666 -124101,27666 -58337,0 -105364,-13040 -141222,-39317 -36028,-26107 -53320,-65593 -52072,-118261zm67946 -293811c0,64006 12728,110721 38211,140145 25654,29395 57572,44192 95953,44192 38211,0 70129,-14627 96094,-43880 25796,-29254 38693,-75175 38693,-137792 0,-59755 -13379,-104911 -39940,-135241 -26589,-30359 -58677,-45468 -96123,-45468 -36935,0 -68258,14939 -94195,44816 -25795,29905 -38693,74239 -38693,133228zm-6399068 253219l0 -489770 74551 0 0 69194c15251,-23896 35717,-43257 61200,-57714 25455,-14627 54397,-21855 86967,-21855 36170,0 65906,7540 89008,22479 23131,15109 39486,36028 48926,63071 39005,-57090 89490,-85550 151767,-85550 48756,0 86343,13351 112450,40252 26277,26901 39487,68258 39487,124101l0 335792 -83055 0 0 -308268c0,-33023 -2807,-56948 -8164,-71575 -5358,-14626 -15109,-26248 -29424,-35206 -14145,-8986 -30812,-13379 -49861,-13379 -34583,0 -63213,11480 -86032,34270 -22790,22989 -34129,59613 -34129,109956l0 284202 -83027 0 0 -317877c0,-36794 -6774,-64460 -20296,-82885 -13521,-18397 -35688,-27666 -66359,-27666 -23300,0 -44844,6122 -64658,18396 -19814,12274 -34129,30189 -43086,53944 -8816,23584 -13210,57713 -13210,102245l0 253843 -83055 0zm1105993 -61342c-30841,26277 -60548,44674 -89036,55531 -28460,10856 -58961,16186 -91672,16186 -53802,0 -95159,-13040 -124101,-39317 -28942,-26107 -43427,-59612 -43427,-100346 0,-23896 5528,-45751 16384,-65594 10999,-19814 25314,-35546 42917,-47480 17773,-11963 37587,-21090 59783,-27213 16356,-4252 41045,-8334 73899,-12416 67011,-7880 116560,-17461 148167,-28488 311,-11310 482,-18538 482,-21543 0,-33647 -7881,-57402 -23585,-71235 -21260,-18737 -52866,-28006 -94705,-28006 -39147,0 -68088,6917 -86655,20608 -18709,13691 -32400,37899 -41358,72822l-81156 -11339c7399,-34752 19503,-62900 36482,-84302 16980,-21373 41528,-37729 73616,-49380 31918,-11480 69194,-17291 111345,-17291 41839,0 75968,4876 102245,14769 26108,9921 45440,22195 57714,37133 12274,14939 20919,33818 25937,56608 2693,14174 4110,39629 4110,76281l0 110097c0,76904 1729,125518 5187,146126 3289,20608 10205,40252 20297,59131l-86826 0c-8334,-17462 -13691,-37899 -16044,-61342zm-6604 -184025c-30189,12274 -75487,22649 -135893,31153 -34300,4875 -58507,10375 -72652,16526 -14173,6123 -25030,15080 -32740,26730 -7682,11793 -11622,24832 -11622,39317 0,21855 8333,40252 25171,54879 16810,14626 41358,22025 73588,22025 31946,0 60406,-6917 85407,-20920 24860,-13833 43257,-32853 54907,-56920 8958,-18737 13352,-46261 13352,-82573l482 -30217zm211521 -335934l0 -94365 83055 0 0 94365 -83055 0zm0 581301l0 -489770 83055 0 0 489770 -83055 0zm209650 0l0 -489770 74551 0 0 69505c35858,-53319 87761,-79880 155565,-79880 29566,0 56608,5329 81298,15874 24690,10545 43257,24548 55531,41698 12274,17121 20919,37587 25795,61171 2976,15421 4564,42293 4564,80674l0 300728 -83055 0 0 -297581c0,-33817 -3147,-59131 -9581,-75799 -6463,-16667 -17944,-30047 -34300,-40110 -16356,-9921 -35688,-14938 -57713,-14938 -35235,0 -65594,11168 -91219,33647 -25653,22337 -38381,64970 -38381,127559l0 267222 -83055 0zm448412 187795l0 -59443 549213 0 0 59443 -549213 0zm601257 -769096l0 -94365 83055 0 0 94365 -83055 0zm0 581301l0 -489770 83055 0 0 489770 -83055 0zm498415 0l-83026 0 0 -528775c-19985,19191 -46262,38211 -78662,57260 -32400,19021 -61653,33335 -87449,42775l0 -80221c46404,-21713 86996,-48132 121748,-79256 34753,-30983 59443,-61030 73928,-90284l53461 0 0 678501zm159648 187795l0 -59443 549212 0 0 59443 -549212 0zm921174 -249137c-30841,26277 -60548,44674 -89036,55531 -28460,10856 -58961,16186 -91673,16186 -53801,0 -95159,-13040 -124100,-39317 -28942,-26107 -43427,-59612 -43427,-100346 0,-23896 5527,-45751 16384,-65594 10999,-19814 25314,-35546 42917,-47480 17773,-11963 37587,-21090 59782,-27213 16356,-4252 41046,-8334 73899,-12416 67011,-7880 116561,-17461 148167,-28488 312,-11310 482,-18538 482,-21543 0,-33647 -7880,-57402 -23584,-71235 -21260,-18737 -52866,-28006 -94705,-28006 -39147,0 -68089,6917 -86656,20608 -18708,13691 -32400,37899 -41357,72822l-81156 -11339c7399,-34752 19502,-62900 36482,-84302 16980,-21373 41528,-37729 73616,-49380 31918,-11480 69193,-17291 111345,-17291 41839,0 75968,4876 102245,14769 26107,9921 45440,22195 57714,37133 12274,14939 20919,33818 25937,56608 2692,14174 4110,39629 4110,76281l0 110097c0,76904 1729,125518 5187,146126 3288,20608 10205,40252 20296,59131l-86825 0c-8334,-17462 -13691,-37899 -16044,-61342zm-6605 -184025c-30189,12274 -75486,22649 -135893,31153 -34299,4875 -58507,10375 -72652,16526 -14173,6123 -25029,15080 -32740,26730 -7682,11793 -11622,24832 -11622,39317 0,21855 8334,40252 25172,54879 16809,14626 41357,22025 73587,22025 31947,0 60407,-6917 85408,-20920 24860,-13833 43257,-32853 54907,-56920 8958,-18737 13351,-46261 13351,-82573l482 -30217zm210586 245367l0 -489770 74551 0 0 75033c19021,-34781 36652,-57742 52838,-68740 16214,-11169 33987,-16668 53320,-16668 28006,0 56466,8788 85407,26249l-29565 76592c-20126,-11310 -40280,-16979 -60406,-16979 -18085,0 -34271,5499 -48586,16355 -14315,10857 -24548,25966 -30671,45298 -9298,29424 -13833,61654 -13833,96746l0 255884 -83055 0zm635102 -179291l81156 11310c-8958,55842 -31606,99411 -68258,131017 -36652,31606 -81780,47339 -135099,47339 -66841,0 -120643,-21856 -161235,-65594 -40734,-43710 -61002,-106299 -61002,-187767 0,-52866 8788,-98929 26249,-138586 17462,-39458 44051,-69193 79909,-88866 35688,-19814 74551,-29707 116702,-29707 53008,0 96576,13351 130224,40252 33817,26901 55530,65112 64970,114491l-80221 12274c-7710,-32853 -21231,-57543 -40904,-74239 -19502,-16498 -43086,-24831 -70781,-24831 -41839,0 -75798,14938 -102075,44815 -26107,30048 -39147,77216 -39147,142016 0,65764 12586,113414 37729,143121 25342,29736 58196,44674 98618,44674 32712,0 59924,-9893 81638,-29877 21855,-19814 35716,-50485 41527,-91842zm175521 179291l0 -94366 94394 0 0 94366 -94394 0z"/>
  <path fill="none" stroke="#5A5A6E" stroke-width="199984" d="M6078668 23070122c2008856,-2621422 5123365,-4158593 8426009,-4158593 3294084,0 6401563,1529234 8411156,4139289"/>
  <circle fill="#C83200" cx="6094966" cy="23068873" r="249986"/>
  <circle fill="#C83200" cx="10951907" cy="19498812" r="249986"/>
  <circle fill="#C83200" cx="22915832" cy="23050816" r="249986"/>
 </g>
</svg>
