<?xml version="1.0" encoding="UTF-8"?>
<!DOCTYPE svg PUBLIC "-//W3C//DTD SVG 1.1//EN" "http://www.w3.org/Graphics/SVG/1.1/DTD/svg11.dtd">
<!-- Creator: CorelDRAW X6 -->
<svg xmlns="http://www.w3.org/2000/svg" xml:space="preserve" width="290px" height="480px" version="1.1" shape-rendering="geometricPrecision" text-rendering="geometricPrecision" image-rendering="optimizeQuality" fill-rule="evenodd" clip-rule="evenodd"
viewBox="0 0 29000000 47999941"
 xmlns:xlink="http://www.w3.org/1999/xlink">
 <g id="Layer_x0020_1">
  <metadata id="CorelCorpID_0Corel-Layer"/>
  <g id="_142542040">
   <path fill="#C83200" fill-rule="nonzero" d="M7698242 3723419l332022 -445805 -292422 -413376 135411 0 156586 219798c32627,45582 55219,80391 68202,104599 19417,-30019 42207,-62022 68400,-95811l171609 -228586 124611 0 -298403 408387 321193 450794 -139606 0 -216793 -306397c-12388,-17405 -24208,-34809 -35207,-51987 -19190,28800 -32797,48982 -41187,60378l-217814 298006 -136602 0z"/>
   <g>
    <path fill="#00A046" fill-rule="nonzero" d="M2071955 3779602l2406812 -1124901 42349 90595 -2406811 1124901 -42350 -90595zm339789 112053l-714926 118460 549468 -472507 165458 354047z"/>
   </g>
   <path fill="#00A046" fill-rule="nonzero" d="M1120875 4551929l0 -363997 -331200 -495184 136800 0 169795 259994c31607,48189 61002,96378 87789,144595 26221,-45014 57997,-95414 95018,-151399l166393 -253190 132605 0 -343219 495184 0 363997 -113981 0z"/>
   <path fill="#0032BE" fill-rule="nonzero" d="M4169507 6981077l0 -104995 439993 -550800c31607,-38806 61200,-72992 89405,-102585l-478998 0 0 -100800 614381 0 0 100800 -482599 595984 -51590 61596 548589 0 0 100800 -679181 0z"/>
   <g>
    <path fill="#0032BE" fill-rule="nonzero" d="M4449938 5373097l0 -2673098 100006 0 0 2673098 -100006 0zm245395 -260362l-195392 697833 -195392 -697833 390784 0z"/>
   </g>
   <g>
    <path fill="#C83200" fill-rule="nonzero" d="M7111924 3188238l-2620231 -438916 16497 -98646 2620232 438916 -16498 98646zm-216283 -285080l655965 308012 -720538 77414 64573 -385426z"/>
   </g>
   <ellipse fill="#FADC00" cx="4499942" cy="2700004" rx="249999" ry="250004"/>
  </g>
  <g>
   <path fill="#00A046" fill-rule="nonzero" d="M15961940 21567846l-1418655 2457211 -86627 -50003 1418655 -2457211 86627 50003zm-401698 68768l577105 -472620 -120727 736100 -456378 -263480z"/>
  </g>
  <g>
   <path fill="#C83200" fill-rule="nonzero" d="M15889543 26065916l403681 -338740 246728 703956 -650409 -365216zm-1351247 -2098090l1758755 2096049 -76592 64290 -1758755 -2096049 76592 -64290z"/>
  </g>
  <circle fill="#FADC00" transform="matrix(0.245954 -0.426005 0.426005 0.245954 1.44999E+007 2.40001E+007)" r="508223"/>
  <line fill="none" stroke="#5A5A6E" stroke-width="150009" stroke-dasharray="150009.383651 450028.150952" x1="16539952" y1="26431132" x2="19098814" y2= "29480727" />
  <path fill="#5A5A6E" fill-rule="nonzero" d="M14391688 24300046l216595 0 0 -184138 191707 0 0 -231733 -191707 0 0 -184138 -216595 0 0 184138 -191707 0 0 231733 191707 0 0 184138zm108284 0m108311 -92069m95868 -92069m95839 -115852m-95839 -115881m-95868 -92069m-108311 -92069m-108284 92069m-95867 92069m-95840 115881m95840 115852m95867 92069"/>
  <path fill="#5A5A6E" fill-rule="nonzero" d="M18032562 28639036l216595 0 0 -184138 191707 0 0 -231732 -191707 0 0 -184139 -216595 0 0 184139 -191707 0 0 231732 191707 0 0 184138zm108284 0m108311 -92069m95868 -92069m95839 -115852m-95839 -115880m-95868 -92070m-108311 -92069m-108284 92069m-95867 92070m-95840 115880m95840 115852m95867 92069"/>
  <path fill="#5A5A6E" fill-rule="nonzero" d="M19759343 29435146l-164608 0 0 -621977c-60095,56409 -130961,98192 -212684,125206l0 -150010c43059,-14003 89717,-40592 140004,-79993 50456,-39203 84897,-85011 103747,-137197l133541 0 0 863971z"/>
  <polygon id="1" fill="#5A5A6E" fill-rule="nonzero" points="20370945,29673937 20370945,28575966 20604010,28575966 20604010,28663584 20476678,28663584 20476678,29586346 20604010,29586346 20604010,29673937 "/>
  <path id="2" fill="#5A5A6E" fill-rule="nonzero" d="M20628218 29435146l332447 -445776 -292791 -413404 135582 0 156784 219798c32655,45609 55275,80390 68315,104598 19417,-29990 42264,-61993 68485,-95782l171807 -228614 124753 0 -298771 408387 321590 450793 -139748 0 -217077 -306396c-12444,-17405 -24236,-34782 -35263,-51988 -19191,28800 -32825,48983 -41244,60406l-218098 297978 -136771 0z"/>
  <path id="3" fill="#5A5A6E" fill-rule="nonzero" d="M22088258 29435146l0 -119990 120132 0 0 119990c0,44192 -7795,79994 -23641,107207 -15590,27184 -40648,48387 -74863,63184l-28828 -45581c22422,-9808 38806,-24208 49238,-43002 10601,-19020 16639,-46205 17830,-81808l-59868 0z"/>
  <path id="4" fill="#5A5A6E" fill-rule="nonzero" d="M22650141 29435146l0 -363996 -331625 -495184 136970 0 170022 259993c31663,48217 61087,96406 87903,144595 26248,-44985 58081,-95385 95130,-151398l166592 -253190 132775 0 -343616 495184 0 363996 -114151 0z"/>
  <path id="5" fill="#5A5A6E" fill-rule="nonzero" d="M23780342 29435146l0 -119990 120133 0 0 119990c0,44192 -7796,79994 -23641,107207 -15591,27184 -40649,48387 -74863,63184l-28829 -45581c22422,-9808 38807,-24208 49238,-43002 10602,-19020 16640,-46205 17830,-81808l-59868 0z"/>
  <path id="6" fill="#5A5A6E" fill-rule="nonzero" d="M24031237 29435146l0 -104995 440532 -550771c31663,-38807 61285,-73021 89518,-102615l-479594 0 0 -100799 615203 0 0 100799 -483250 595984 -51647 61597 549297 0 0 100800 -680059 0z"/>
  <polygon id="7" fill="#5A5A6E" fill-rule="nonzero" points="25553951,29673937 25320830,29673937 25320830,29586346 25448219,29586346 25448219,28663584 25320830,28663584 25320830,28575966 25553951,28575966 "/>
  <path id="8" fill="#5A5A6E" fill-rule="nonzero" d="M21796913 29685134l-88129 0 0 -560296c-21175,20324 -49039,40478 -83423,60661 -34356,20154 -65424,35320 -92778,45326l0 -85011c49209,-22989 92267,-50995 129146,-83990 36907,-32826 63099,-64659 78435,-95641l56749 0 0 718951z"/>
  <path id="9" fill="#5A5A6E" fill-rule="nonzero" d="M23488998 29685134l-88129 0 0 -560296c-21175,20324 -49040,40478 -83424,60661 -34356,20154 -65424,35320 -92778,45326l0 -85011c49210,-22989 92268,-50995 129146,-83990 36908,-32826 63100,-64659 78435,-95641l56750 0 0 718951z"/>
  <path id="10" fill="#5A5A6E" fill-rule="nonzero" d="M25113617 29685134l-88129 0 0 -560296c-21174,20324 -49039,40478 -83423,60661 -34356,20154 -65424,35320 -92778,45326l0 -85011c49209,-22989 92268,-50995 129146,-83990 36907,-32826 63099,-64659 78435,-95641l56749 0 0 718951z"/>
  <path fill="#5A5A6E" fill-rule="nonzero" d="M15938780 24277142c83311,0 148394,29792 195449,89405 55899,70384 83906,187398 83906,350589 0,162992 -28205,280176 -84501,351382 -46658,58791 -111543,88186 -194854,88186 -83707,0 -151199,-32202 -202450,-96576 -51279,-64403 -76904,-179405 -76904,-344608 0,-162198 28262,-278986 84501,-350192 46658,-58791 111543,-88186 194853,-88186zm0 136800c-19615,0 -37247,6406 -52440,19191 -15449,12614 -27468,35404 -35859,68400 -11197,42604 -16837,114604 -16837,215603 0,101197 5017,170589 15023,208374 10006,37815 22621,63015 37871,75600 15194,12615 32627,18794 52242,18794 19645,0 37248,-6378 52697,-19190 15193,-12586 27212,-35405 35631,-68400 11225,-42180 16809,-113981 16809,-215178 0,-100999 -4989,-170391 -15023,-208205 -10006,-37786 -22621,-63184 -37814,-75798 -15251,-12785 -32655,-19191 -52300,-19191z"/>
  <polygon id="1" fill="#5A5A6E" fill-rule="nonzero" points="16692768,25379904 16692768,24281933 16925832,24281933 16925832,24369552 16798500,24369552 16798500,25292313 16925832,25292313 16925832,25379904 "/>
  <path id="2" fill="#5A5A6E" fill-rule="nonzero" d="M16950040 25141113l332447 -445776 -292790 -413404 135581 0 156784 219798c32655,45610 55275,80391 68315,104598 19417,-29990 42264,-61993 68485,-95782l171808 -228614 124752 0 -298771 408387 321590 450793 -139748 0 -217077 -306396c-12444,-17405 -24236,-34781 -35263,-51988 -19190,28800 -32825,48983 -41244,60407l-218098 297977 -136771 0z"/>
  <path id="3" fill="#5A5A6E" fill-rule="nonzero" d="M18410080 25141113l0 -119990 120132 0 0 119990c0,44193 -7795,79994 -23641,107207 -15590,27184 -40648,48387 -74862,63184l-28829 -45581c22422,-9808 38806,-24208 49238,-43002 10602,-19020 16639,-46204 17830,-81808l-59868 0z"/>
  <path id="4" fill="#5A5A6E" fill-rule="nonzero" d="M18971963 25141113l0 -363996 -331625 -495184 136970 0 170022 259993c31663,48218 61087,96407 87903,144596 26248,-44986 58082,-95386 95130,-151399l166592 -253190 132775 0 -343615 495184 0 363996 -114152 0z"/>
  <path id="5" fill="#5A5A6E" fill-rule="nonzero" d="M20102164 25141113l0 -119990 120133 0 0 119990c0,44193 -7796,79994 -23641,107207 -15591,27184 -40649,48387 -74863,63184l-28829 -45581c22423,-9808 38807,-24208 49238,-43002 10602,-19020 16640,-46204 17830,-81808l-59868 0z"/>
  <path id="6" fill="#5A5A6E" fill-rule="nonzero" d="M20353059 25141113l0 -104995 440532 -550771c31663,-38806 61285,-73021 89518,-102614l-479593 0 0 -100800 615202 0 0 100800 -483250 595984 -51647 61597 549297 0 0 100799 -680059 0z"/>
  <polygon id="7" fill="#5A5A6E" fill-rule="nonzero" points="21875773,25379904 21642652,25379904 21642652,25292313 21770041,25292313 21770041,24369552 21642652,24369552 21642652,24281933 21875773,24281933 "/>
  <path id="8" fill="#5A5A6E" fill-rule="nonzero" d="M17788329 25037791c0,-84501 8646,-152844 26022,-204492 17518,-51845 43370,-91672 77783,-119508 34186,-27808 77414,-41641 129487,-41641 38352,0 72085,7653 101281,23159 29055,15505 53065,37814 71774,66983 18652,28998 33363,64516 44050,106327 10828,41839 16157,98334 16157,169172 0,83990 -8674,151993 -25852,203641 -17206,51845 -43058,91672 -77414,119678 -34214,27978 -77612,41981 -129996,41981 -68939,0 -123166,-24491 -162567,-73644 -47197,-60009 -70725,-157181 -70725,-291656zm90085 340c0,117808 13720,196157 41244,234822 27525,38806 61569,58138 101963,58138 40365,0 74409,-19474 101933,-58308 27553,-39005 41216,-117156 41216,-234652 0,-117836 -13663,-196158 -41216,-234822 -27354,-38835 -61738,-58167 -102926,-58167 -40393,0 -72793,17150 -96973,51335 -30189,43484 -45241,124158 -45241,241654z"/>
  <path id="9" fill="#5A5A6E" fill-rule="nonzero" d="M19480414 25037791c0,-84501 8645,-152844 26022,-204492 17518,-51845 43370,-91672 77782,-119508 34186,-27808 77414,-41641 129487,-41641 38353,0 72085,7653 101282,23159 29055,15505 53064,37814 71773,66983 18652,28998 33364,64516 44050,106327 10829,41839 16158,98334 16158,169172 0,83990 -8674,151993 -25852,203641 -17207,51845 -43058,91672 -77414,119678 -34215,27978 -77613,41981 -129997,41981 -68939,0 -123165,-24491 -162567,-73644 -47197,-60009 -70724,-157181 -70724,-291656zm90085 340c0,117808 13719,196157 41244,234822 27524,38806 61568,58138 101962,58138 40365,0 74409,-19474 101934,-58308 27552,-39005 41215,-117156 41215,-234652 0,-117836 -13663,-196158 -41215,-234822 -27355,-38835 -61739,-58167 -102926,-58167 -40394,0 -72794,17150 -96973,51335 -30189,43484 -45241,124158 -45241,241654z"/>
  <path id="10" fill="#5A5A6E" fill-rule="nonzero" d="M21105033 25037791c0,-84501 8646,-152844 26022,-204492 17518,-51845 43370,-91672 77783,-119508 34186,-27808 77414,-41641 129487,-41641 38352,0 72085,7653 101281,23159 29056,15505 53065,37814 71774,66983 18652,28998 33363,64516 44050,106327 10828,41839 16157,98334 16157,169172 0,83990 -8674,151993 -25851,203641 -17207,51845 -43059,91672 -77415,119678 -34214,27978 -77612,41981 -129996,41981 -68939,0 -123166,-24491 -162567,-73644 -47197,-60009 -70725,-157181 -70725,-291656zm90085 340c0,117808 13720,196157 41244,234822 27525,38806 61569,58138 101963,58138 40365,0 74409,-19474 101933,-58308 27553,-39005 41216,-117156 41216,-234652 0,-117836 -13663,-196158 -41216,-234822 -27354,-38835 -61738,-58167 -102926,-58167 -40393,0 -72793,17150 -96973,51335 -30189,43484 -45241,124158 -45241,241654z"/>
  <g>
   <path fill="#0032BE" fill-rule="nonzero" d="M13101500 24225920l179348 495524 -745852 -10261 566504 -485263zm1415508 -178923l-1553669 562337 -34015 -94053 1553668 -562337 34016 94053z"/>
  </g>
  <g>
   <path fill="#5A5A6E" fill-opacity="0.101961" d="M14248794 6752066c1001763,1206198 2011634,2406585 3020739,3608021 1006213,1198006 2015545,2395161 3021816,3594726 1003039,1195710 2009961,2401482 3017110,3599290 503716,599073 1008907,1202087 1513360,1803372 504453,601285 1012535,1207162 1524217,1811593 -964630,1671221 -1931782,3346553 -2895334,5015648 -963666,1669322 -1925206,3334336 -2888163,5001645 -966302,1673092 -1929344,3342641 -2892811,5011652 -963694,1669378 -1931329,3344455 -2895278,5013664 -509187,-598139 -1015710,-1195313 -1520361,-1793962 -505332,-599470 -1010579,-1198969 -1515656,-1795917 -506098,-598138 -1014803,-1195030 -1519200,-1796343 -504510,-601455 -1010579,-1202853 -1514550,-1801926 -506098,-601654 -1016078,-1199905 -1521637,-1799206 -505644,-599414 -1010749,-1199253 -1514466,-1798525 -1008368,-1199650 -2016537,-2398506 -3015778,-3590928 965111,-1669237 1932377,-3344370 2897460,-5015676 482428,-835483 964856,-1671165 1448589,-2508831 483675,-837552 967917,-1679668 1452528,-2518893 964091,-1669577 1933738,-3346270 2898821,-5017689 966018,-1673007 1931612,-3346468 2898594,-5021715z"/>
   <path fill="#5A5A6E" d="M3708565 26482496c18142,21628 36284,43228 54454,64828 -18567,32145 -35943,62277 -53320,92409 -18142,-21628 -36312,-43228 -54453,-64828 17404,-30132 34781,-60265 53319,-92409zm1056246 -1829792c18141,21629 36283,43229 54425,64857 -18539,32145 -35915,62249 -53320,92381 -18142,-21600 -36283,-43228 -54453,-64828 17404,-30133 34781,-60265 53348,-92410zm1055479 -1827722c18142,21600 36284,43229 54454,64829 -17433,30132 -34838,60264 -52243,90396 -18141,-21628 -36283,-43228 -54425,-64856 17405,-30133 34810,-60265 52214,-90369zm1056529 -1829791c19361,21628 37502,43228 55644,64857 -17376,30132 -34781,60264 -52186,90368 -18141,-21600 -36283,-43228 -55644,-64857 17405,-30104 34781,-60236 52186,-90368zm1057889 -1829791c18142,21628 36284,43256 54426,64856 -17405,30132 -34782,60265 -52186,90397 -18170,-21628 -36312,-43257 -54454,-64857 17405,-30132 34810,-60264 52214,-90396zm1057068 -1831776c18141,21600 36311,43228 54453,64857 -18567,32144 -35943,60264 -53348,92409 -18142,-21628 -36283,-43257 -54453,-64885 17433,-32145 34809,-60265 53348,-92381zm1056387 -1829791c18141,21628 36283,43256 54425,64885 -18539,32116 -35944,62248 -53348,92381 -18142,-21629 -36284,-43257 -54425,-64885 17404,-30133 34781,-60236 53348,-92381zm1056812 -1829792c18141,21629 36283,43257 54425,64885 -18567,32145 -35972,62277 -53376,92410 -18142,-21629 -36284,-43257 -54426,-64885 17405,-30133 34810,-60265 53377,-92410zm1056727 -1829791c18142,21657 36283,43285 54425,64913 -18539,32145 -35915,62249 -53320,92381 -18141,-21628 -36283,-43256 -54425,-64885 17377,-30132 34781,-60264 53320,-92409zm1055281 -1827750c18142,21628 36284,43256 54425,64885 -17404,30132 -34809,60264 -52185,90396 -18170,-21628 -36312,-43285 -54454,-64913 17405,-30132 34810,-60264 52214,-90368zm1056245 -1829792c18142,21629 36284,43257 54426,64914 -17405,30132 -34781,60236 -52158,90368 -18170,-21628 -36312,-43257 -54453,-64913 17404,-30104 34781,-60236 52185,-90369zm-9461306 19610184c18142,21600 36284,43228 54454,64857 -17405,30103 -34781,60236 -52186,90368 -18142,-21628 -36283,-43228 -54425,-64857 17376,-30132 34781,-60264 52157,-90368zm1057493 -1829706c18141,21628 36283,43228 53234,64856 -18538,32145 -35943,62277 -53319,92381 -16951,-21600 -35093,-43228 -53235,-64856 17376,-30104 34781,-60237 53320,-92381zm1056642 -1829678c18142,21600 36283,43228 54453,64856 -18567,32117 -36000,62249 -53404,92381 -18142,-21628 -36284,-43228 -54426,-64856 17405,-30133 34810,-60265 53377,-92381zm1056500 -1829678c18142,21628 36284,41244 54425,62844 -18538,32145 -35943,62277 -53348,92381 -18141,-21600 -36283,-43229 -54425,-64857 17377,-30104 34781,-60236 53348,-90368zm1055480 -1827694c18142,21628 36283,43257 54425,64857 -17405,30132 -34809,60264 -52214,90396 -18142,-21628 -36283,-43256 -54425,-64856 17405,-30132 34809,-60265 52214,-90397zm1057011 -1831691c18141,21629 36283,43229 54453,64857 -17405,30132 -34781,60265 -52186,90369 -18141,-21600 -36311,-43229 -54453,-64857 17404,-30104 34809,-60236 52186,-90369zm1056330 -1829706c18170,21628 36312,43257 54453,64857 -17404,30132 -34809,60264 -52185,90397 -18142,-21629 -36312,-43229 -54454,-64857 17405,-30132 34809,-60265 52186,-90397zm1056755 -1829678c18142,21629 36284,43229 54425,64857 -18538,32145 -35943,62249 -53348,92381 -18141,-21600 -36283,-43228 -54425,-64857 17377,-30132 34781,-60236 53348,-92381zm1056699 -1829706c18142,21628 36312,43257 54454,64857 -18567,32144 -35944,62277 -53320,92409 -18142,-21628 -36284,-43257 -54425,-64857 17376,-30132 34752,-60264 53291,-92409zm1056472 -1829678c18142,21600 36283,43228 55616,64857 -18539,32116 -35944,62248 -53348,92381 -19361,-21629 -37503,-43229 -55644,-64857 17404,-30132 34809,-60265 53376,-92381zm1057464 -1829706c18142,21628 36284,43256 54425,64856 -18567,32145 -35943,62277 -53348,92410 -18141,-21629 -36283,-43257 -54425,-64857 17405,-30132 34781,-60264 53348,-92409zm-9464708 19610353c18142,21657 36312,43285 55644,66359 -17376,30133 -34752,60265 -52157,90369 -19361,-23074 -37502,-44702 -55644,-66331 17376,-30132 34781,-60264 52157,-90397zm1056331 -1831690c18141,21628 36283,43256 55644,66330 -17377,30133 -34781,60265 -52158,90397 -19360,-23074 -37502,-44730 -55644,-66359 17377,-30132 34781,-60236 52158,-90368zm1057861 -1827694c18141,21628 36283,43285 55644,66359 -17405,30132 -34810,60236 -52214,90369 -19361,-23074 -37503,-44703 -56863,-66359 18623,-30104 36028,-60237 53433,-90369zm1056443 -1831662c18142,21628 36312,43257 55644,66331 -18538,32144 -35943,62277 -53319,92409 -19361,-23102 -37503,-44731 -55673,-66359 17405,-30132 34810,-60265 53348,-92381zm1056614 -1827694c18142,21629 36283,43257 55644,66359 -18567,32117 -35972,62249 -53376,92381 -19361,-23074 -37503,-44730 -55644,-66359 17404,-30132 34809,-60236 53376,-92381zm1056954 -1831719c18142,21657 36312,43285 55644,66359 -18539,32145 -35915,62278 -53320,92381 -19360,-23074 -37502,-44702 -55644,-66330 17405,-30133 34781,-60265 53320,-92410zm1055140 -1827665c18141,21628 36283,43257 55644,66331 -17405,30132 -34781,60264 -52186,90396 -19361,-23074 -37503,-44730 -55644,-66359 17404,-30132 34781,-60264 52186,-90368zm1056698 -1829706c18142,21628 36284,43285 55644,66359 -17404,30132 -34809,60236 -52214,90368 -19332,-23074 -37474,-44702 -55644,-66359 17405,-30104 34810,-60236 52214,-90368zm1057890 -1829707c16922,21657 35064,43285 54425,66359 -17377,30133 -34753,60265 -52158,90397 -19332,-23102 -37474,-44730 -55615,-66359 17376,-30132 35971,-60264 53348,-90397zm1056415 -1829678c18142,21629 36283,43257 55644,66359 -18567,32117 -35972,62249 -53376,92382 -19333,-23074 -37474,-44731 -55644,-66359 17404,-30133 34809,-60265 53376,-92382zm1056330 -1829706c18142,21629 36312,43285 55644,66359 -18538,32145 -35943,62249 -53319,92381 -19361,-23074 -37503,-44702 -55645,-66359 17377,-30104 34782,-60236 53320,-92381zm-9460937 19607944c16922,21629 35064,43257 54425,66331 -18539,32117 -35944,62249 -53320,92381 -19361,-23074 -37502,-44702 -55644,-66331 17376,-30132 35972,-60264 54539,-92381zm1056358 -1829763c18142,21629 36312,43257 55644,66331 -18538,32145 -35915,62277 -53319,92381 -19361,-23074 -37503,-44674 -55645,-66302 17377,-30132 34782,-60265 53320,-92410zm1055480 -1825737c18142,21628 36312,43256 55672,66330 -17433,30133 -34837,60265 -52242,90397 -19361,-23074 -37502,-44702 -55644,-66331 17405,-30132 34809,-60264 52214,-90396zm1056415 -1831748c18142,21629 36312,43257 55673,66303 -17405,30132 -34810,60264 -52186,90397 -19361,-23074 -37502,-44703 -55673,-66331 17405,-30104 34810,-60236 52186,-90369zm1056557 -1827722c18142,21629 36312,43257 55644,66331 -17376,30104 -34781,60236 -52185,90369 -19361,-23074 -37503,-44674 -55645,-66303 17377,-30132 34782,-60264 52186,-90397zm1056926 -1831747c18142,21628 36283,43228 55644,66302 -18539,32145 -35915,62278 -53320,92382 -19360,-23046 -37502,-44674 -55644,-66303 17405,-30132 34781,-60236 53320,-92381zm1056245 -1829763c18142,21628 36312,43257 55644,66302 -18538,32145 -35943,62278 -53348,92410 -19332,-23074 -37474,-44702 -55644,-66302 17405,-30133 34809,-60265 53348,-92410zm1056670 -1829734c18142,21599 36284,43228 55645,66302 -18567,32116 -35972,62249 -53377,92381 -19360,-23046 -37502,-44674 -55644,-66302 17405,-30133 34810,-60265 53376,-92381zm1055452 -1827751c18142,21628 36283,43228 55644,66302 -17376,30133 -34781,60265 -52157,90369 -19361,-23046 -37503,-44674 -55645,-66274 17377,-30132 34782,-60265 52158,-90397zm1056444 -1829735c18141,21600 36283,43229 55644,66274 -17405,30133 -34810,60265 -52215,90397 -19360,-23074 -37502,-44674 -55644,-66302 17405,-30132 34810,-60265 52215,-90369zm1056387 -1829763c18141,21629 36283,43229 55644,66274 -17405,30133 -34781,60265 -52186,90397 -19361,-23045 -37503,-44674 -55644,-66274 17404,-30132 34781,-60264 52186,-90397zm-9460796 19608625c18141,21628 36283,43257 54425,64913 -18539,32117 -35943,62249 -53320,92381 -18142,-21628 -36312,-43256 -54453,-64885 17404,-30132 34781,-60264 53348,-92409zm1056415 -1829820c18142,21629 36283,43257 54453,64885 -18566,32145 -35943,62278 -53348,92410 -18141,-21657 -36283,-43285 -54425,-64914 17377,-30132 34781,-60264 53320,-92381zm1056642 -1829848c18142,21629 36283,43257 54453,64885 -18595,32145 -35999,62277 -53404,92410 -18142,-21629 -36284,-43257 -54425,-64885 17404,-30133 34809,-60265 53376,-92410zm1056387 -1829819c18142,21628 36283,43256 54425,64885 -18538,32145 -35943,62277 -53320,92381 -18170,-21629 -36311,-43257 -54453,-64885 17405,-30133 34781,-60265 53348,-92381zm1055338 -1825823c18142,21628 36312,43257 54454,64885 -17405,30132 -34810,60264 -52215,90397 -18141,-21629 -36283,-43257 -54425,-64885 17405,-30133 34781,-60265 52186,-90397zm1058088 -1831804c18141,21628 36283,43257 54453,64885 -17404,30104 -34781,60236 -52186,90368 -18141,-21628 -36283,-43256 -54425,-64885 17405,-30132 34781,-60264 52158,-90368zm1056217 -1829848c18141,21628 36283,43257 54396,64885 -17376,30132 -34752,60264 -52157,90397 -18142,-21629 -36283,-43257 -54425,-64885 17376,-30133 34781,-60265 52186,-90397zm1056557 -1829820c18141,21629 36311,43229 54453,64857 -18567,32145 -35971,62277 -53376,92409 -18142,-21628 -36284,-43256 -54425,-64885 17404,-30132 34809,-60264 53348,-92381zm1056613 -1829848c18142,21629 36284,43257 54454,64885 -18567,32145 -35943,62249 -53320,92381 -18141,-21628 -36283,-43228 -54425,-64856 17376,-30133 34753,-60265 53291,-92410zm1056472 -1829819c18142,21628 36284,43228 54426,64856 -18567,32145 -35972,62277 -53377,92410 -18142,-21629 -36283,-43257 -54425,-64885 17405,-30133 34809,-60265 53376,-92381zm1055282 -1827836c18142,21628 36283,43257 55587,62872 -18567,32117 -35971,62249 -53348,92382 -18142,-21629 -36283,-43229 -54453,-64857 17404,-30132 34809,-60265 52214,-90397zm-9459464 19609815c18170,21629 36312,43257 54454,64885 -17405,30132 -34781,60265 -52186,90397 -18142,-21628 -36284,-43257 -54425,-64913 17376,-30104 34781,-60237 52157,-90369zm1056472 -1829905c18142,21629 36312,43257 54454,64885 -17405,30133 -34781,60265 -52158,90397 -18170,-21628 -36312,-43256 -54453,-64913 17376,-30132 34781,-60265 52157,-90369zm1056642 -1829933c18142,21657 36284,43285 54454,64914 -18567,32116 -36000,62249 -53405,92381 -18142,-21600 -36283,-43257 -54425,-64885 17405,-30132 34809,-60265 53376,-92410zm1056330 -1829904c18171,21656 36312,43285 54454,64885 -18539,32145 -35943,62277 -53348,92409 -18142,-21628 -36283,-43257 -54425,-64885 17376,-30132 34781,-60264 53319,-92409zm1056472 -1827892c18171,21628 36312,41244 54454,62872 -18567,32145 -35972,62277 -53348,92409 -18170,-21628 -36312,-41244 -54454,-62872 17405,-30132 34810,-60265 53348,-92409zm1056813 -1831889c18141,21628 36283,43256 54425,64885 -18539,32144 -35915,62220 -53320,92352 -18113,-21600 -36255,-43228 -54397,-64828 17405,-30132 34781,-60265 53292,-92409zm1054998 -1827893c18141,21629 36283,43257 54425,64857 -17377,32145 -34781,62277 -52186,92410 -18142,-21600 -36284,-45241 -54425,-66870 17404,-30132 34781,-60264 52186,-90397zm1056557 -1829904c18141,21628 36283,43256 54425,64856 -17405,30133 -34781,60265 -52186,90397 -18142,-21628 -36283,-43228 -54425,-64885 17376,-30104 34781,-60236 52186,-90368zm1056585 -1829905c18142,21628 36283,43228 54425,64857 -17376,30132 -34753,60264 -52157,90397 -18142,-21629 -36284,-43257 -54426,-64885 17377,-30133 34782,-60265 52158,-90369zm1056444 -1829933c18141,21657 36283,43257 54425,64885 -18539,32117 -35944,62249 -53348,92381 -18142,-21600 -36284,-43228 -54425,-64857 17376,-30132 34781,-60264 53348,-92409zm1056500 -1829905c18142,21629 36283,43257 54425,64857 -18538,32145 -35943,62277 -53348,92409 -18142,-21600 -36283,-43228 -54425,-64856 17376,-30133 34781,-60265 53348,-92410zm-9460513 19608511c18171,21629 36312,43257 55673,66331 -18567,32145 -35972,62277 -53348,92410 -19361,-23074 -37502,-44703 -55644,-66331 17376,-30132 34781,-60265 53319,-92410zm1055367 -1827977c18142,21629 36283,43257 55644,66331 -17376,30132 -34753,60264 -52157,90397 -19361,-23074 -37503,-44703 -55644,-66331 17376,-30132 34781,-60264 52157,-90397zm1056642 -1829989c18142,21628 36283,43256 55644,66330 -17405,30132 -34809,60265 -52214,90397 -19361,-23074 -37502,-44702 -55672,-66331 17433,-30132 34837,-60264 52242,-90396zm1056302 -1829990c18142,21628 36283,43256 55644,66330 -17376,30133 -34781,60237 -52157,90369 -19361,-23046 -37531,-44674 -55673,-66302 17405,-30133 34781,-60265 52186,-90397zm1056387 -1829990c18170,21628 36312,43257 55672,66302 -18567,32145 -35971,62277 -53376,92410 -19332,-23046 -37502,-44674 -55644,-66303 17405,-30132 34809,-60264 53348,-92409zm1056784 -1829990c18141,21629 36283,43257 55644,66303 -18539,32144 -35915,62277 -53320,92409 -19361,-23046 -37502,-44674 -55644,-66302 17405,-30133 34781,-60265 53320,-92410zm1054913 -1827949c18141,21629 36283,43257 55644,66303 -18567,32145 -35944,62277 -53348,92409 -19361,-23074 -37503,-44674 -55644,-66302 17404,-30132 34781,-60265 53348,-92410zm1056500 -1832002c18142,21628 36283,43257 55644,66302 -18567,32145 -35943,62278 -53348,92410 -19361,-23074 -37502,-44674 -55644,-66303 17405,-30132 34781,-60264 53348,-92409zm1055395 -1825964c18141,21628 36283,43228 55644,66302 -17377,28120 -34753,58252 -52158,88384 -19332,-23074 -37474,-44674 -55644,-66302 17405,-30133 34781,-60265 52158,-88384zm1056443 -1832003c18170,21629 36312,43228 55644,66303 -17404,30132 -34781,60264 -52185,90396 -19361,-23074 -37503,-44674 -55644,-66302 17404,-30132 34809,-60265 52185,-90397zm1056557 -1829990c18142,21629 36284,43229 55644,66303 -17404,30132 -34809,60264 -52185,90397 -19361,-23074 -37503,-44674 -55644,-66303 17376,-30132 34781,-60264 52185,-90397zm-9457933 19611119c18171,21629 36312,43285 55673,66359 -18567,32145 -35972,62278 -53376,92410 -19333,-23074 -37503,-44731 -55645,-66359 17405,-30132 34810,-60265 53348,-92410zm1056558 -1830074c18170,21656 36311,43285 55672,66359 -18567,32145 -35943,62277 -53320,92409 -19360,-23074 -37530,-44702 -55672,-66359 17405,-30132 34781,-60264 53320,-92409zm1056642 -1830047c18141,21629 36311,43257 55644,66331 -18567,32145 -35972,62277 -53377,92409 -19360,-23074 -37502,-44702 -55644,-66330 17405,-30133 34810,-60265 53377,-92410zm1055083 -1828062c18141,21628 36283,43257 55644,66331 -17377,30132 -34781,60264 -52158,90397 -19360,-23075 -37502,-44703 -55672,-66331 17404,-30132 34781,-60265 52186,-90397zm1056387 -1830075c18141,21629 36283,43257 55644,66331 -17377,30132 -34781,60264 -52186,90397 -19361,-23074 -37503,-44703 -55644,-66331 17404,-30132 34781,-60265 52186,-90397zm1056727 -1830046c18141,21628 36283,43256 55644,66330 -17377,30133 -34753,60265 -52158,90397 -19360,-23074 -37502,-44702 -55644,-66330 17405,-30133 34781,-60265 52158,-90397zm1056075 -1828062c18141,21628 36283,43256 55644,66330 -18567,32117 -35943,62249 -53348,92381 -19361,-23045 -37503,-44674 -55644,-66302 17404,-30132 34781,-60265 53348,-92409zm1056472 -1832059c18141,21628 36283,43256 55615,66330 -18538,32145 -35943,62277 -53348,92410 -19360,-23074 -37502,-44703 -55644,-66331 17405,-30132 34810,-60265 53377,-92409zm1056500 -1828063c18142,21629 36284,43257 55644,66331 -18538,32145 -35915,62277 -53291,92409 -19361,-23074 -37503,-44702 -55644,-66330 17376,-30133 34752,-60265 53291,-92410zm1056472 -1832059c18142,21629 36283,43229 55644,66303 -18567,32144 -35972,62277 -53376,92409 -19361,-23074 -37503,-44674 -55644,-66302 17404,-30133 34809,-60265 53376,-92410zm1054204 -1826049c18142,21628 36312,43228 55644,66302 -17376,28120 -34781,58252 -52185,88384 -19361,-23045 -37503,-44674 -55644,-66302 17404,-30132 34809,-60265 52185,-88384zm-9456544 19609871c18142,21600 36284,43229 55644,66274 -17404,30133 -34781,60265 -52185,90397 -19361,-23045 -37503,-44674 -55644,-66274 17376,-30132 34781,-60264 52185,-90397zm1056614 -1830131c18142,21600 36284,43228 55644,66274 -17376,30132 -34781,60265 -52157,90397 -20523,-21033 -38665,-42662 -56835,-64262 17405,-30132 34781,-60264 53348,-92409zm1055395 -1830132c18142,21600 36283,43229 55644,66274 -18567,32145 -35972,62278 -52186,92410 -20551,-23046 -38693,-44674 -56863,-66274 17405,-30132 34838,-60265 53405,-92410zm1056217 -1830131c18142,21628 36283,43228 55644,66274 -18539,32145 -35943,62277 -53320,92409 -19360,-23045 -37502,-44645 -55644,-66274 17376,-30132 34781,-60264 53320,-92409zm1056358 -1830131c18142,21628 36284,43228 55644,66302 -18566,32145 -35943,62277 -53348,92409 -19360,-23074 -37502,-44674 -55644,-66302 17377,-30132 34781,-60265 53348,-92409zm1055509 -1828119c18141,21628 36283,43228 55644,66302 -17377,30132 -34753,60265 -52158,90397 -19360,-23074 -37502,-44674 -55644,-66303 17405,-30132 34781,-60264 52158,-90396zm1056018 -1828119c18142,21628 36283,43228 55644,66302 -17376,30132 -34781,60265 -52157,90397 -19361,-23074 -37503,-44674 -55673,-66302 17405,-30133 34781,-60265 52186,-90397zm1056415 -1832116c18142,21600 36284,43228 55644,66274 -17404,30132 -34781,60265 -52185,90397 -19361,-23046 -37503,-44674 -55644,-66274 17404,-30132 34781,-60265 52185,-90397zm1056501 -1828091c18141,21600 36283,43229 54425,66274 -18539,32145 -34725,62278 -52101,92410 -19361,-23046 -37502,-44674 -55644,-66274 17405,-30132 34781,-60293 53320,-92410zm1055253 -1832144c18141,21600 36283,43229 55615,66274 -18538,32145 -35943,62277 -53348,92410 -19360,-23046 -37502,-44674 -55644,-66274 17405,-30132 34810,-60265 53377,-92410zm1056642 -1828119c18142,21600 36283,43229 55644,66274 -18567,32145 -35972,62278 -53377,92410 -19360,-23046 -37502,-44674 -55644,-66274 17405,-30132 34810,-60265 53377,-92410zm-9457565 19611942c18142,21656 36284,43285 55588,62900 -18539,32145 -35944,62277 -53348,92410 -18142,-21629 -36312,-43257 -54454,-64885 17405,-30133 34810,-60293 52214,-90425zm1056614 -1830104c16951,21629 35093,43257 53235,64885 -17377,30133 -34781,60265 -52158,90397 -18141,-21628 -36312,-43256 -53234,-64885 17376,-30132 34781,-60264 52157,-90397zm1055423 -1830131c18142,21628 36284,43257 54454,64885 -17405,30132 -34838,60264 -52243,90397 -18141,-21629 -36283,-43257 -54425,-64885 17405,-30133 34810,-60265 52214,-90397zm1056189 -1830132c18142,21629 36312,43257 54453,64885 -17404,30133 -34781,60265 -52186,90397 -18141,-21628 -36283,-43256 -54425,-64885 17377,-30132 34781,-60264 52158,-90397zm1056302 -1830131c18170,21628 36311,43257 54453,64885 -18567,32145 -35943,62277 -53348,92409 -18142,-21628 -36283,-43256 -54453,-64885 17404,-30132 34809,-60264 53348,-92409zm1056642 -1830132c18141,21629 36283,43257 54425,64914 -18539,32116 -35915,62249 -53320,92409 -18141,-21656 -36283,-43285 -54425,-64913 17405,-30132 34781,-60265 53320,-92410zm1055961 -1828118c18142,21628 36312,43256 54454,64913 -18567,32116 -35943,62277 -53348,92409 -18142,-21656 -36283,-43285 -54425,-64913 17376,-30132 34781,-60265 53319,-92409zm1055225 -1830132c18142,21628 36284,43285 54425,64913 -17404,30133 -34781,60265 -52185,90397 -18142,-21628 -36284,-43256 -54426,-64885 17377,-30160 34782,-60293 52186,-90425zm1056472 -1828090c18142,21656 36284,43285 54425,64913 -17404,30132 -34781,60264 -52157,90397 -18142,-21629 -36284,-43257 -54425,-64885 17376,-30133 34752,-60293 52157,-90425zm1055225 -1832116c19361,21628 37502,43256 55644,64885 -17405,32145 -34809,62277 -52214,92409 -18142,-21628 -36284,-43256 -55644,-64885 17405,-30132 34809,-60264 52214,-92409zm1056699 -1828119c18141,21628 36283,43257 54425,64885 -18539,32145 -35943,62277 -53348,92409 -18142,-21628 -36284,-43256 -54454,-64885 17405,-30132 34810,-60264 53377,-92409zm-9457480 19609645c18142,21628 36284,43228 54426,64857 -18539,32144 -35944,62277 -53348,92409 -18142,-21628 -36312,-43228 -54454,-64857 17405,-30132 34809,-60264 53376,-92409zm1056699 -1830047c18142,21629 36284,43229 54454,64857 -18567,32145 -35944,62277 -53348,92410 -18142,-21629 -36284,-43229 -54426,-64857 17377,-30132 34782,-60265 53320,-92410zm1056614 -1830046c18170,21628 36312,43257 54453,64857 -18567,32145 -35971,62277 -53376,92409 -18142,-21600 -36312,-43228 -54454,-64857 17405,-30132 34810,-60264 53377,-92409zm1054998 -1828034c18142,21629 36312,43257 54453,64885 -17404,30132 -34781,60265 -52157,90397 -18170,-21628 -36312,-43257 -54454,-64885 17377,-30132 34781,-60265 52158,-90397zm1056273 -1830046c18142,21628 36284,43256 54454,64885 -17405,30132 -34810,60264 -52186,90397 -18170,-21629 -36312,-43257 -54453,-64885 17404,-30133 34781,-60265 52185,-90397zm1056586 -1830047c18141,21629 36283,43257 54425,64885 -17376,30133 -34753,60265 -52158,90397 -18141,-21628 -36283,-43257 -54425,-64885 17377,-30132 34781,-60264 52158,-90397zm1055933 -1828034c18142,21629 36284,43257 54425,64885 -18538,32145 -35943,62278 -53319,92410 -18170,-21628 -36312,-43257 -54454,-64885 17405,-30132 34781,-60265 53348,-92410zm1056302 -1832059c18142,21657 36283,43285 53235,64914 -18567,34157 -35944,64289 -53348,94422 -16952,-21657 -35093,-43285 -53235,-64914 17405,-30132 34809,-60264 53348,-94422zm1055225 -1828033c18141,21656 36283,43285 54453,64913 -18567,32145 -35943,62277 -53319,92409 -18142,-21628 -36284,-43285 -54426,-64913 17377,-30132 34753,-60265 53292,-92409zm1055310 -1828006c18141,21657 36283,43285 54425,64913 -17405,30133 -34810,60265 -52214,90397 -18142,-21628 -36284,-43256 -54426,-64913 17405,-30132 34810,-60265 52215,-90397zm1056755 -1830046c18142,21656 36283,43285 54425,64941 -17405,30133 -34809,60265 -52214,90397 -18142,-21657 -36283,-43285 -54425,-64942 17405,-30132 34809,-60264 52214,-90396z"/>
  </g>
  <path fill="#00A046" fill-rule="nonzero" d="M16326390 21013531l-332022 -859181 123222 0 223200 624387c17801,50004 32995,96804 44986,140599 13209,-46999 28601,-93799 46204,-140599l231591 -624387 115993 0 -334998 859181 -118176 0z"/>
  <path fill="#0032BE" fill-rule="nonzero" d="M11463784 25425882l-226205 -859181 118007 0 128778 563386c14003,58989 26418,117609 37020,175606 22592,-91616 35802,-144397 39600,-158400l162397 -580592 136998 0 123194 434976c30189,108000 52611,209396 67011,304016 11395,-54198 25993,-116419 43795,-186605l134192 -552387 114208 0 -235219 859181 -110579 0 -180199 -654605c-15193,-54793 -24406,-88384 -27808,-100800 -9807,39204 -18595,72822 -26192,100602l-180198 654803 -118800 0z"/>
  <path fill="#C83200" fill-rule="nonzero" d="M17129926 26674316l113981 0 0 496176c0,86400 -9779,154998 -29196,205795 -19588,50599 -54794,92013 -105591,123818 -50995,31804 -117609,47792 -200409,47792 -80192,0 -145984,-13805 -196980,-41613 -51193,-27779 -87619,-67776 -109417,-120387 -21798,-52611 -32797,-124384 -32797,-215405l0 -496176 114010 0 0 495978c0,74608 7001,129798 20806,165004 13805,35405 37389,62788 71178,81808 33619,19191 74806,28800 123420,28800 83197,0 142583,-19020 177988,-56806 35404,-38013 53007,-110806 53007,-218806l0 -495978z"/>
  <path fill="#5A5A6E" fill-rule="nonzero" d="M7140639 28024230l0 152391 -577955 0c6236,-57997 25030,-112791 56296,-164608 31209,-51789 93118,-120586 185215,-206390 74325,-69194 119764,-116193 136602,-140797 22620,-33988 34016,-67578 34016,-100999 0,-36793 -9808,-64998 -29622,-84784 -19616,-19786 -46857,-29594 -81525,-29594 -34412,0 -61682,10404 -82091,31182 -20239,20607 -31833,55020 -35036,103209l-164608 -16413c9808,-90793 40450,-155990 92098,-195590 51675,-39402 116163,-59187 193663,-59187 84897,0 151568,22989 200267,68796 48444,45808 72680,102785 72680,170986 0,38806 -7001,75600 -20834,110806 -13833,35008 -35858,71603 -66076,109985 -19842,25596 -56097,62220 -108141,110012 -52243,47792 -85295,79399 -99128,95187 -14003,15591 -25228,31012 -33846,45808l328025 0z"/>
  <polygon id="1" fill="#5A5A6E" fill-rule="nonzero" points="7616463,28415411 7616463,27317440 7849527,27317440 7849527,27405059 7722195,27405059 7722195,28327821 7849527,28327821 7849527,28415411 "/>
  <path id="2" fill="#5A5A6E" fill-rule="nonzero" d="M7873735 28176621l332447 -445776 -292790 -413405 135581 0 156784 219798c32655,45610 55276,80391 68315,104599 19417,-29991 42265,-61994 68485,-95783l171808 -228614 124753 0 -298772 408387 321590 450794 -139748 0 -217077 -306397c-12444,-17405 -24236,-34781 -35263,-51987 -19190,28800 -32825,48982 -41244,60406l-218097 297978 -136772 0z"/>
  <path id="3" fill="#5A5A6E" fill-rule="nonzero" d="M9333775 28176621l0 -119991 120133 0 0 119991c0,44192 -7796,79993 -23641,107206 -15591,27184 -40649,48387 -74863,63184l-28829 -45581c22423,-9808 38807,-24208 49238,-43001 10602,-19021 16640,-46205 17830,-81808l-59868 0z"/>
  <path id="4" fill="#5A5A6E" fill-rule="nonzero" d="M9895659 28176621l0 -363997 -331625 -495184 136970 0 170022 259994c31663,48217 61086,96406 87902,144595 26249,-44986 58082,-95386 95131,-151398l166592 -253191 132774 0 -343615 495184 0 363997 -114151 0z"/>
  <path id="5" fill="#5A5A6E" fill-rule="nonzero" d="M11025860 28176621l0 -119991 120132 0 0 119991c0,44192 -7795,79993 -23641,107206 -15590,27184 -40649,48387 -74863,63184l-28828 -45581c22422,-9808 38806,-24208 49238,-43001 10601,-19021 16639,-46205 17829,-81808l-59867 0z"/>
  <path id="6" fill="#5A5A6E" fill-rule="nonzero" d="M11276754 28176621l0 -104995 440532 -550772c31663,-38806 61285,-73020 89518,-102614l-479593 0 0 -100800 615203 0 0 100800 -483250 595984 -51648 61597 549298 0 0 100800 -680060 0z"/>
  <polygon id="7" fill="#5A5A6E" fill-rule="nonzero" points="12799468,28415411 12566347,28415411 12566347,28327821 12693736,28327821 12693736,27405059 12566347,27405059 12566347,27317440 12799468,27317440 "/>
  <path id="8" fill="#5A5A6E" fill-rule="nonzero" d="M9173590 28342618l0 83990 -474605 0c-680,-21175 2835,-41499 10375,-61172 12161,-32144 31691,-63977 58535,-95159 26901,-31152 65254,-67152 115172,-107999 77584,-63808 130337,-114322 157861,-151654 27695,-37332 41556,-72652 41556,-105987 0,-34838 -12529,-64177 -37559,-88158 -25030,-23839 -57713,-35830 -97937,-35830 -42576,0 -76620,12671 -102132,37985 -25540,25171 -38409,60179 -38721,104995l-90114 -8986c6152,-67351 29509,-118658 69903,-154006 40564,-35320 94819,-52980 163048,-52980 68769,0 123308,18992 163361,57147 40224,38182 60265,85493 60265,141817 0,28687 -5840,56835 -17717,84501 -11650,27836 -31181,57004 -58365,87675 -27411,30501 -72624,72652 -135695,126000 -52894,44334 -86938,74325 -101962,90142 -15023,15846 -27383,31663 -37219,47679l351950 0z"/>
  <path id="9" fill="#5A5A6E" fill-rule="nonzero" d="M10865674 28342618l0 83990 -474604 0c-681,-21175 2834,-41499 10374,-61172 12161,-32144 31692,-63977 58536,-95159 26900,-31152 65253,-67152 115171,-107999 77585,-63808 130337,-114322 157862,-151654 27694,-37332 41556,-72652 41556,-105987 0,-34838 -12530,-64177 -37559,-88158 -25030,-23839 -57714,-35830 -97937,-35830 -42577,0 -76621,12671 -102133,37985 -25540,25171 -38409,60179 -38721,104995l-90113 -8986c6151,-67351 29508,-118658 69902,-154006 40564,-35320 94819,-52980 163049,-52980 68768,0 123307,18992 163360,57147 40224,38182 60265,85493 60265,141817 0,28687 -5839,56835 -17717,84501 -11650,27836 -31181,57004 -58365,87675 -27411,30501 -72624,72652 -135694,126000 -52895,44334 -86939,74325 -101963,90142 -15023,15846 -27382,31663 -37218,47679l351949 0z"/>
  <path id="10" fill="#5A5A6E" fill-rule="nonzero" d="M12490294 28342618l0 83990 -474605 0c-680,-21175 2835,-41499 10375,-61172 12161,-32144 31691,-63977 58535,-95159 26901,-31152 65254,-67152 115172,-107999 77584,-63808 130337,-114322 157861,-151654 27695,-37332 41556,-72652 41556,-105987 0,-34838 -12529,-64177 -37559,-88158 -25030,-23839 -57713,-35830 -97937,-35830 -42576,0 -76620,12671 -102132,37985 -25540,25171 -38409,60179 -38721,104995l-90114 -8986c6152,-67351 29509,-118658 69903,-154006 40564,-35320 94819,-52980 163049,-52980 68768,0 123307,18992 163360,57147 40224,38182 60265,85493 60265,141817 0,28687 -5840,56835 -17717,84501 -11650,27836 -31181,57004 -58365,87675 -27411,30501 -72624,72652 -135695,126000 -52894,44334 -86938,74325 -101962,90142 -15023,15846 -27382,31663 -37219,47679l351950 0z"/>
  <path fill="#5A5A6E" fill-rule="nonzero" d="M13245613 27381843l216595 0 0 -184138 191707 0 0 -231732 -191707 0 0 -184139 -216595 0 0 184139 -191707 0 0 231732 191707 0 0 184138zm108284 0m108311 -92069m95868 -92069m95839 -115852m-95839 -115880m-95868 -92070m-108311 -92069m-108284 92069m-95868 92070m-95839 115880m95839 115852m95868 92069"/>
 </g>
</svg>
