<?xml version="1.0" encoding="UTF-8" standalone="no"?>
<svg width="35.2778mm" height="35.2778mm"
 viewBox="0 0 100 100"
 xmlns="http://www.w3.org/2000/svg" xmlns:xlink="http://www.w3.org/1999/xlink"  version="1.2" baseProfile="tiny">
<title>Qt SVG Document</title>
<desc>Generated with Qt</desc>
<defs>
</defs>
<g fill="none" stroke="black" stroke-width="1" fill-rule="evenodd" stroke-linecap="square" stroke-linejoin="bevel" >

<g fill="#ffffff" fill-opacity="1" stroke="none" transform="matrix(1,0,0,1,0,0)"
font-family="Segoe UI" font-size="8.25" font-weight="400" font-style="normal" 
>
<rect x="0" y="0" width="100" height="100"/>
</g>

<g fill="none" stroke="#000000" stroke-opacity="1" stroke-width="1" stroke-linecap="square" stroke-linejoin="bevel" transform="matrix(1,0,0,1,0,0)"
font-family="Segoe UI" font-size="8.25" font-weight="400" font-style="normal" 
>
</g>

<g fill="none" stroke="#000000" stroke-opacity="1" stroke-width="1" stroke-linecap="square" stroke-linejoin="bevel" transform="matrix(1,0,0,1,0,0)"
font-family="Segoe UI" font-size="8.25" font-weight="400" font-style="normal" 
>
</g>

<g fill="#b4b4b4" fill-opacity="1" stroke="#464646" stroke-opacity="1" stroke-width="1" stroke-linecap="square" stroke-linejoin="bevel" transform="matrix(1,0,0,1,0,0)"
font-family="Segoe UI" font-size="8.25" font-weight="400" font-style="normal" 
>
<path vector-effect="none" fill-rule="evenodd" d="M95,5 L95,95 L5,95 L5,5 L95,5"/>
</g>

<g fill="#ffffff" fill-opacity="1" stroke="#ffffff" stroke-opacity="1" stroke-width="1" stroke-linecap="square" stroke-linejoin="bevel" transform="matrix(1,0,0,1,0,0)"
font-family="Segoe UI" font-size="8.25" font-weight="400" font-style="normal" 
>
<path vector-effect="none" fill-rule="evenodd" d=""/>
<path vector-effect="none" fill-rule="evenodd" d=""/>
<path vector-effect="none" fill-rule="evenodd" d=""/>
<path vector-effect="none" fill-rule="evenodd" d=""/>
<path vector-effect="none" fill-rule="evenodd" d=""/>
<path vector-effect="none" fill-rule="evenodd" d="M95,84.196 L95,85.6102 L85.6102,95 L84.196,95 L95,84.196"/>
<path vector-effect="none" fill-rule="evenodd" d="M95,72.8823 L95,74.2965 L74.2965,95 L72.8823,95 L95,72.8823"/>
<path vector-effect="none" fill-rule="evenodd" d="M95,61.5685 L95,62.9828 L62.9828,95 L61.5685,95 L95,61.5685"/>
<path vector-effect="none" fill-rule="evenodd" d="M95,50.2548 L95,51.669 L51.669,95 L50.2548,95 L95,50.2548"/>
<path vector-effect="none" fill-rule="evenodd" d="M95,38.9411 L95,40.3553 L40.3553,95 L38.9411,95 L95,38.9411"/>
<path vector-effect="none" fill-rule="evenodd" d="M95,27.6274 L95,29.0416 L29.0416,95 L27.6274,95 L95,27.6274"/>
<path vector-effect="none" fill-rule="evenodd" d="M95,16.3137 L95,17.7279 L17.7279,95 L16.3137,95 L95,16.3137"/>
<path vector-effect="none" fill-rule="evenodd" d="M95,5 L95,6.41421 L6.41421,95 L5,95 L95,5"/>
<path vector-effect="none" fill-rule="evenodd" d="M5,85.1005 L5,83.6863 L83.6863,5 L85.1005,5 L5,85.1005"/>
<path vector-effect="none" fill-rule="evenodd" d="M5,73.7868 L5,72.3726 L72.3726,5 L73.7868,5 L5,73.7868"/>
<path vector-effect="none" fill-rule="evenodd" d="M5,62.4731 L5,61.0589 L61.0589,5 L62.4731,5 L5,62.4731"/>
<path vector-effect="none" fill-rule="evenodd" d="M5,51.1594 L5,49.7452 L49.7452,5 L51.1594,5 L5,51.1594"/>
<path vector-effect="none" fill-rule="evenodd" d="M5,39.8457 L5,38.4315 L38.4315,5 L39.8457,5 L5,39.8457"/>
<path vector-effect="none" fill-rule="evenodd" d="M5,28.532 L5,27.1177 L27.1177,5 L28.532,5 L5,28.532"/>
<path vector-effect="none" fill-rule="evenodd" d="M5,17.2183 L5,15.804 L15.804,5 L17.2183,5 L5,17.2183"/>
<path vector-effect="none" fill-rule="evenodd" d="M5,5.90455 L5,5 L5.90455,5 L5,5.90455"/>
<path vector-effect="none" fill-rule="evenodd" d=""/>
<path vector-effect="none" fill-rule="evenodd" d=""/>
<path vector-effect="none" fill-rule="evenodd" d=""/>
</g>

<g fill="none" stroke="#464646" stroke-opacity="1" stroke-width="1" stroke-linecap="square" stroke-linejoin="bevel" transform="matrix(1,0,0,1,0,0)"
font-family="Segoe UI" font-size="8.25" font-weight="400" font-style="normal" 
>
<path vector-effect="none" fill-rule="evenodd" d="M95,5 L95,95 L5,95 L5,5 L95,5"/>
</g>

<g fill="none" stroke="#000000" stroke-opacity="1" stroke-width="1" stroke-linecap="square" stroke-linejoin="bevel" transform="matrix(1,0,0,1,0,0)"
font-family="Segoe UI" font-size="8.25" font-weight="400" font-style="normal" 
>
</g>

<g fill="none" stroke="#000000" stroke-opacity="1" stroke-width="1" stroke-linecap="square" stroke-linejoin="bevel" transform="matrix(1,0,0,1,0,0)"
font-family="Segoe UI" font-size="8.25" font-weight="400" font-style="normal" 
>
</g>
</g>
</svg>
