<?xml version="1.0" encoding="UTF-8"?>
<!DOCTYPE svg PUBLIC "-//W3C//DTD SVG 1.1//EN" "http://www.w3.org/Graphics/SVG/1.1/DTD/svg11.dtd">
<!-- Creator: CorelDRAW X6 -->
<svg xmlns="http://www.w3.org/2000/svg" xml:space="preserve" width="290px" height="200px" version="1.1" shape-rendering="geometricPrecision" text-rendering="geometricPrecision" image-rendering="optimizeQuality" fill-rule="evenodd" clip-rule="evenodd"
viewBox="0 0 2900000 2000000"
 xmlns:xlink="http://www.w3.org/1999/xlink">
 <g id="Layer_x0020_1">
  <metadata id="CorelCorpID_0Corel-Layer"/>
  <line fill="none" stroke="#5A5A6E" stroke-width="14998.1" x1="500000" y1="700001" x2="1489220" y2= "700001" />
  <line fill="none" stroke="#5A5A6E" stroke-width="14998.1" x1="500000" y1="1500000" x2="1348163" y2= "1500000" />
  <line fill="none" stroke="#5A5A6E" stroke-width="14998.1" x1="1539223" y1="700001" x2="2400000" y2= "700001" />
  <line fill="none" stroke="#5A5A6E" stroke-width="14998.1" x1="1398166" y1="1500000" x2="2400000" y2= "1500000" />
  <polygon fill="#5A5A6E" fill-opacity="0.211765" points="500000,700001 1489220,700001 1348163,1500000 500108,1499893 "/>
  <line fill="none" stroke="#5A5A6E" stroke-width="4997.48" stroke-dasharray="24987.390720 24987.390720" x1="500000" y1="550000" x2="500000" y2= "1650001" />
  <line fill="none" stroke="#5A5A6E" stroke-width="4997.48" stroke-dasharray="24987.390720 24987.390720" x1="2400000" y1="550000" x2="2400000" y2= "1650001" />
  <polygon fill="#5A5A6E" fill-opacity="0.211765" points="1539223,700001 2400000,700001 2400000,1500000 1398166,1500000 "/>
  <circle fill="#5A5A6E" cx="699998" cy="840002" r="34997"/>
  <circle fill="#5A5A6E" cx="950000" cy="840002" r="34997"/>
  <circle fill="#5A5A6E" cx="1199999" cy="840002" r="34997"/>
  <circle fill="#5A5A6E" cx="1699999" cy="934999" r="34997"/>
  <circle fill="#5A5A6E" cx="1950000" cy="934999" r="34997"/>
  <circle fill="#5A5A6E" cx="2199999" cy="934999" r="34997"/>
  <line fill="none" stroke="#5A5A6E" stroke-width="5000.31" x1="457821" y1="874995" x2="312508" y2= "874995" />
  <line fill="none" stroke="#5A5A6E" stroke-width="5000.31" x1="2440005" y1="900000" x2="2585318" y2= "900000" />
  <line fill="none" stroke="#5A5A6E" stroke-width="5000.31" x1="367370" y1="945000" x2="367370" y2= "700001" />
  <line fill="none" stroke="#5A5A6E" stroke-width="5000.31" x1="2530456" y1="1040000" x2="2530456" y2= "700001" />
  <line fill="none" stroke="#5A5A6E" stroke-width="5000.31" x1="457821" y1="805002" x2="312508" y2= "805002" />
  <line fill="none" stroke="#5A5A6E" stroke-width="5000.31" x1="2440005" y1="805002" x2="2585318" y2= "805002" />
  <line fill="none" stroke="#5A5A6E" stroke-width="5000.31" x1="457821" y1="700001" x2="312508" y2= "700001" />
  <line fill="none" stroke="#5A5A6E" stroke-width="5000.31" x1="2440005" y1="700001" x2="2585318" y2= "700001" />
  <path fill="#5A5A6E" fill-rule="nonzero" d="M100247 888103l0 -7901c-3940,6140 -9740,9222 -17402,9222 -4960,0 -9518,-1361 -13660,-4102 -4158,-2719 -7378,-6540 -9680,-11418 -2279,-4901 -3419,-10522 -3419,-16880 0,-6200 1041,-11821 3101,-16881 2078,-5040 5179,-8920 9318,-11599 4121,-2702 8762,-4039 13861,-4039 3759,0 7101,799 10021,2378 2919,1579 5298,3659 7140,6199l0 -30897 10559 0 0 85918 -9839 0zm-33361 -31060c0,7960 1681,13899 5060,17839 3359,3940 7339,5902 11920,5902 4620,0 8541,-1883 11781,-5641 3220,-3759 4838,-9499 4838,-17221 0,-8478 -1638,-14720 -4940,-18700 -3280,-3980 -7339,-5958 -12158,-5958 -4700,0 -8620,1899 -11781,5720 -3141,3818 -4720,9839 -4720,18059zm54768 39612l7833 -1262c433,3135 1663,5536 3673,7217 2010,1664 4830,2503 8430,2503 3646,0 6344,-734 8116,-2219 1755,-1471 2639,-3209 2639,-5205 0,-1785 -794,-3194 -2370,-4215 -1111,-706 -3809,-1590 -8101,-2684 -5788,-1457 -9794,-2716 -12044,-3782 -2234,-1080 -3929,-2548 -5086,-4439 -1154,-1876 -1737,-3960 -1737,-6239 0,-2086 479,-4005 1423,-5777 960,-1768 2250,-3240 3886,-4410 1230,-899 2908,-1664 5023,-2294 2131,-629 4396,-946 6826,-946 3659,0 6871,527 9629,1590 2775,1052 4816,2492 6137,4292 1304,1814 2219,4229 2716,7259l-7742 1080c-346,-2429 -1366,-4334 -3044,-5700 -1681,-1364 -4051,-2041 -7127,-2041 -3614,0 -6207,601 -7755,1800 -1545,1202 -2325,2610 -2325,4215 0,1020 315,1950 961,2775 644,842 1650,1545 3031,2100 793,301 3104,975 6973,2027 5581,1483 9482,2713 11701,3660 2220,944 3960,2338 5219,4138 1275,1817 1908,4065 1908,6766 0,2625 -766,5100 -2311,7424 -1545,2325 -3767,4125 -6661,5400 -2908,1276 -6194,1905 -9856,1905 -6058,0 -10692,-1258 -13873,-3764 -3180,-2520 -5207,-6239 -6092,-11174z"/>
  <path fill="#5A5A6E" fill-rule="nonzero" d="M2660682 969400l0 -7900c-3940,6140 -9740,9221 -17402,9221 -4960,0 -9518,-1360 -13660,-4102 -4158,-2718 -7378,-6539 -9680,-11418 -2279,-4901 -3419,-10522 -3419,-16880 0,-6199 1041,-11820 3101,-16880 2078,-5040 5179,-8921 9318,-11600 4122,-2701 8762,-4039 13861,-4039 3759,0 7101,799 10021,2378 2920,1579 5298,3660 7140,6200l0 -30898 10559 0 0 85918 -9839 0zm-33361 -31059c0,7960 1681,13898 5060,17838 3359,3941 7339,5902 11920,5902 4620,0 8541,-1882 11781,-5641 3220,-3759 4838,-9499 4838,-17220 0,-8479 -1638,-14721 -4940,-18700 -3280,-3980 -7339,-5959 -12158,-5959 -4700,0 -8620,1899 -11781,5720 -3141,3819 -4720,9840 -4720,18060zm54769 39611l7832 -1261c433,3135 1664,5536 3673,7217 2010,1664 4831,2503 8431,2503 3645,0 6344,-734 8115,-2220 1755,-1471 2639,-3208 2639,-5204 0,-1786 -793,-3195 -2370,-4215 -1111,-706 -3809,-1590 -8101,-2685 -5788,-1457 -9794,-2715 -12044,-3781 -2234,-1080 -3929,-2548 -5086,-4439 -1153,-1877 -1737,-3960 -1737,-6239 0,-2086 479,-4005 1423,-5777 961,-1769 2250,-3240 3886,-4411 1230,-898 2908,-1664 5023,-2293 2132,-629 4396,-947 6826,-947 3659,0 6871,527 9629,1590 2775,1052 4816,2492 6137,4292 1304,1814 2220,4229 2716,7260l-7742 1080c-346,-2430 -1366,-4335 -3044,-5701 -1681,-1363 -4051,-2041 -7126,-2041 -3615,0 -6208,601 -7756,1800 -1545,1202 -2324,2611 -2324,4215 0,1021 314,1951 960,2775 644,842 1650,1545 3031,2101 793,300 3104,975 6973,2027 5581,1482 9482,2712 11701,3659 2220,944 3960,2339 5219,4139 1276,1817 1908,4065 1908,6766 0,2625 -766,5100 -2311,7424 -1544,2324 -3767,4124 -6661,5400 -2908,1276 -6194,1905 -9856,1905 -6058,0 -10692,-1259 -13873,-3765 -3180,-2519 -5207,-6239 -6091,-11174z"/>
  <circle fill="#5A5A6E" cx="367370" cy="874995" r="14999"/>
  <circle fill="#5A5A6E" cx="2530456" cy="900000" r="14999"/>
  <circle fill="#5A5A6E" cx="367370" cy="805002" r="14999"/>
  <circle fill="#5A5A6E" cx="2530456" cy="805002" r="14999"/>
  <circle fill="#5A5A6E" cx="367370" cy="700001" r="14999"/>
  <circle fill="#5A5A6E" cx="2530456" cy="700001" r="14999"/>
  <line fill="none" stroke="#5A5A6E" stroke-width="5000.31" x1="2440005" y1="970004" x2="2585318" y2= "970004" />
  <circle fill="#5A5A6E" cx="2530456" cy="970004" r="14999"/>
  <path fill="#5A5A6E" fill-rule="nonzero" d="M2662434 840191l10919 1440c-1701,6342 -4878,11279 -9519,14780 -4640,3501 -10561,5261 -17781,5261 -9080,0 -16280,-2800 -21600,-8402 -5318,-5578 -7980,-13439 -7980,-23538 0,-10440 2682,-18559 8062,-24319 5380,-5780 12359,-8660 20939,-8660 8300,0 15081,2818 20339,8479 5261,5661 7900,13620 7900,23879 0,621 -20,1562 -59,2800l-46381 0c400,6821 2322,12062 5800,15682 3461,3620 7801,5439 12980,5439 3860,0 7160,-1020 9881,-3061 2739,-2038 4899,-5301 6500,-9780zm-34560 -16920l34679 0c-459,-5238 -1800,-9158 -3980,-11780 -3339,-4060 -7699,-6100 -13039,-6100 -4839,0 -8901,1621 -12200,4861 -3280,3240 -5100,7580 -5460,13019zm74030 52518l1080 6990c-2220,465 -4215,703 -5956,703 -2866,0 -5085,-448 -6675,-1363 -1574,-916 -2685,-2101 -3331,-3586 -644,-1486 -958,-4606 -958,-9360l0 -26909 -5851 0 0 -6120 5851 0 0 -11552 7920 -4753 0 16305 7920 0 0 6120 -7920 0 0 27360c0,2264 133,3719 419,4365 270,643 720,1154 1350,1545 629,374 1530,570 2701,570 870,0 2024,-105 3450,-315z"/>
  <line fill="none" stroke="#5A5A6E" stroke-width="5000.31" stroke-dasharray="5000.312788 15000.938365" x1="2400000" y1="900000" x2="1503957" y2= "900000" />
  <line fill="none" stroke="#5A5A6E" stroke-width="5000.31" stroke-dasharray="5000.312788 15000.938365" x1="2400000" y1="805002" x2="1520707" y2= "805002" />
  <polygon fill="#849DB6" points="500000,874998 1458362,875001 1446023,945000 500034,945000 "/>
  <polygon fill="#849DB6" points="1491615,970004 2400000,970007 2400000,1040000 1479273,1040000 "/>
  <line fill="none" stroke="#5A5A6E" stroke-width="4997.48" x1="1515670" y1="550000" x2="1321712" y2= "1650001" />
  <line fill="none" stroke="#5A5A6E" stroke-width="4997.48" x1="1565673" y1="550000" x2="1371716" y2= "1650001" />
  <line fill="none" stroke="#5A5A6E" stroke-width="5000.31" x1="457821" y1="945000" x2="312508" y2= "945000" />
  <circle fill="#5A5A6E" cx="367370" cy="945000" r="14999"/>
  <line fill="none" stroke="#5A5A6E" stroke-width="5000.31" x1="2440005" y1="1040000" x2="2585318" y2= "1040000" />
  <circle fill="#5A5A6E" cx="2530456" cy="1040000" r="14999"/>
  <path fill="#5A5A6E" fill-rule="nonzero" d="M2660155 1078718l0 -7900c-3940,6140 -9740,9221 -17402,9221 -4960,0 -9519,-1360 -13660,-4102 -4158,-2718 -7379,-6539 -9680,-11417 -2279,-4902 -3419,-10523 -3419,-16881 0,-6199 1040,-11820 3101,-16880 2078,-5040 5179,-8921 9318,-11599 4121,-2702 8762,-4040 13861,-4040 3759,0 7101,800 10021,2378 2919,1579 5298,3660 7140,6200l0 -30898 10559 0 0 85918 -9839 0zm-33361 -31059c0,7960 1681,13898 5060,17838 3359,3941 7339,5902 11920,5902 4620,0 8540,-1882 11780,-5641 3221,-3758 4839,-9499 4839,-17220 0,-8479 -1638,-14720 -4941,-18700 -3279,-3980 -7339,-5959 -12157,-5959 -4700,0 -8621,1899 -11781,5721 -3141,3818 -4720,9839 -4720,18059zm54768 39611l7832 -1261c434,3135 1664,5536 3674,7217 2010,1664 4830,2503 8430,2503 3646,0 6344,-734 8116,-2220 1755,-1471 2639,-3208 2639,-5204 0,-1786 -794,-3195 -2370,-4215 -1111,-706 -3810,-1590 -8101,-2684 -5789,-1457 -9794,-2716 -12045,-3782 -2233,-1080 -3928,-2548 -5085,-4439 -1154,-1876 -1738,-3960 -1738,-6239 0,-2086 479,-4005 1423,-5777 961,-1769 2251,-3240 3887,-4411 1230,-898 2908,-1664 5023,-2293 2131,-629 4396,-947 6826,-947 3659,0 6871,528 9629,1591 2775,1051 4816,2491 6137,4291 1304,1814 2219,4229 2715,7260l-7741 1080c-346,-2430 -1366,-4334 -3044,-5701 -1681,-1363 -4051,-2041 -7127,-2041 -3614,0 -6208,601 -7755,1800 -1545,1202 -2325,2611 -2325,4215 0,1021 315,1951 961,2776 644,841 1650,1544 3030,2100 794,300 3104,975 6974,2027 5581,1482 9482,2713 11701,3659 2220,944 3960,2339 5219,4139 1275,1817 1907,4065 1907,6766 0,2625 -765,5100 -2310,7424 -1545,2324 -3767,4124 -6661,5400 -2909,1276 -6194,1905 -9856,1905 -6058,0 -10693,-1259 -13873,-3764 -3181,-2520 -5207,-6239 -6092,-11175zm50222 13950l0 -9000 9000 0 0 9000c0,3313 -587,6001 -1772,8039 -1168,2041 -3044,3631 -5610,4742l-2160 -3421c1681,-734 2911,-1814 3691,-3226 794,-1423 1244,-3464 1335,-6134l-4484 0zm21943 -14942l7560 -629c646,3572 1876,6151 3690,7756 1815,1604 4142,2415 6991,2415 2429,0 4561,-556 6403,-1681 1845,-1109 3348,-2594 4501,-4470 1154,-1860 2129,-4380 2926,-7543 794,-3167 1185,-6393 1185,-9675 0,-346 -14,-887 -46,-1590 -1576,2520 -3736,4575 -6465,6134 -2730,1576 -5701,2355 -8879,2355 -5326,0 -9824,-1936 -13515,-5805 -3677,-3855 -5519,-8955 -5519,-15284 0,-6543 1919,-11792 5774,-15781 3838,-3974 8654,-5970 14459,-5970 4170,0 7994,1126 11475,3391 3464,2248 6092,5459 7892,9643 1800,4170 2698,10216 2698,18122 0,8235 -884,14788 -2670,19664 -1786,4890 -4456,8595 -7979,11146 -3527,2548 -7651,3824 -12391,3824 -5040,0 -9150,-1395 -12344,-4201 -3181,-2804 -5100,-6750 -5746,-11821zm32312 -28423c0,-4529 -1202,-8129 -3600,-10786 -2387,-2656 -5295,-3991 -8717,-3991 -3540,0 -6599,1426 -9178,4292 -2597,2866 -3887,6585 -3887,11146 0,4093 1231,7424 3674,9975 2461,2562 5522,3838 9167,3838 3660,0 6659,-1276 9014,-3838 2356,-2551 3527,-6106 3527,-10636zm16574 11566c0,-7606 779,-13757 2339,-18406 1576,-4666 3900,-8251 6990,-10754 3075,-2506 6959,-3751 11639,-3751 3450,0 6480,689 9105,2084 2610,1395 4770,3404 6451,6032 1678,2608 2999,5803 3960,9570 975,3764 1455,8850 1455,15225 0,7560 -780,13680 -2325,18328 -1545,4666 -3869,8249 -6962,10769 -3073,2520 -6973,3782 -11684,3782 -6194,0 -11069,-2206 -14610,-6631 -4243,-5400 -6358,-14144 -6358,-26248zm8099 28c0,10604 1230,17657 3704,21135 2475,3495 5536,5236 9165,5236 3631,0 6690,-1755 9164,-5250 2478,-3509 3708,-10545 3708,-21121 0,-10604 -1230,-17654 -3708,-21135 -2457,-3495 -5547,-5236 -9252,-5236 -3631,0 -6542,1548 -8717,4621 -2715,3914 -4064,11177 -4064,21750zm43755 -21583c0,-3362 1199,-6228 3583,-8612 2387,-2369 5250,-3554 8595,-3554 3390,0 6270,1185 8657,3554 2370,2384 3554,5250 3554,8612 0,3373 -1202,6253 -3585,8640 -2384,2384 -5264,3583 -8626,3583 -3345,0 -6208,-1185 -8595,-3555 -2384,-2384 -3583,-5264 -3583,-8668zm4768 28c0,2055 720,3796 2177,5250 1454,1454 3209,2174 5278,2174 2027,0 3765,-720 5222,-2174 1454,-1454 2174,-3195 2174,-5250 0,-2055 -720,-3795 -2174,-5249 -1457,-1455 -3195,-2175 -5222,-2175 -2069,0 -3824,720 -5278,2175 -1457,1454 -2177,3194 -2177,5249z"/>
  <path fill="#5A5A6E" fill-rule="nonzero" d="M100142 1002806l0 -7900c-3940,6140 -9740,9221 -17402,9221 -4960,0 -9518,-1360 -13660,-4101 -4158,-2719 -7378,-6540 -9680,-11418 -2279,-4901 -3419,-10522 -3419,-16881 0,-6199 1041,-11820 3101,-16880 2078,-5040 5179,-8920 9318,-11599 4122,-2702 8762,-4040 13861,-4040 3759,0 7101,800 10021,2379 2920,1579 5298,3659 7140,6199l0 -30898 10559 0 0 85918 -9839 0zm-33361 -31059c0,7960 1681,13899 5060,17839 3359,3940 7339,5901 11920,5901 4620,0 8541,-1882 11781,-5641 3220,-3758 4838,-9498 4838,-17220 0,-8478 -1638,-14720 -4940,-18700 -3280,-3980 -7339,-5959 -12158,-5959 -4700,0 -8620,1900 -11781,5721 -3141,3818 -4720,9839 -4720,18059zm54769 39612l7832 -1262c433,3135 1664,5536 3673,7217 2010,1664 4831,2503 8431,2503 3645,0 6344,-734 8115,-2219 1755,-1472 2639,-3209 2639,-5205 0,-1786 -793,-3194 -2370,-4215 -1111,-706 -3809,-1590 -8101,-2684 -5788,-1457 -9794,-2716 -12044,-3782 -2234,-1080 -3929,-2548 -5086,-4439 -1153,-1876 -1737,-3960 -1737,-6239 0,-2086 479,-4005 1423,-5777 961,-1769 2250,-3240 3886,-4410 1230,-899 2908,-1664 5023,-2294 2132,-629 4396,-946 6826,-946 3659,0 6871,527 9629,1590 2775,1051 4816,2491 6137,4291 1304,1815 2220,4230 2716,7260l-7742 1080c-346,-2429 -1366,-4334 -3044,-5701 -1681,-1363 -4051,-2040 -7126,-2040 -3615,0 -6208,600 -7756,1800 -1545,1201 -2324,2610 -2324,4215 0,1020 314,1950 960,2775 644,842 1650,1545 3031,2100 793,301 3104,975 6973,2027 5581,1482 9482,2713 11701,3660 2220,943 3960,2338 5219,4138 1276,1817 1908,4065 1908,6766 0,2625 -766,5100 -2311,7424 -1544,2325 -3767,4125 -6661,5400 -2908,1276 -6194,1905 -9856,1905 -6058,0 -10692,-1258 -13873,-3764 -3180,-2520 -5207,-6239 -6091,-11174zm50221 13949l0 -9000 9000 0 0 9000c0,3314 -587,6001 -1772,8039 -1168,2041 -3044,3631 -5609,4742l-2160 -3421c1680,-734 2911,-1814 3690,-3226 794,-1423 1245,-3464 1335,-6134l-4484 0zm21943 -14942l7560 -629c646,3572 1876,6151 3691,7756 1814,1604 4141,2415 6990,2415 2429,0 4561,-556 6403,-1681 1846,-1108 3348,-2594 4502,-4470 1153,-1860 2129,-4380 2925,-7543 794,-3167 1185,-6392 1185,-9675 0,-346 -14,-887 -45,-1590 -1576,2520 -3736,4575 -6466,6134 -2730,1576 -5701,2356 -8878,2356 -5327,0 -9825,-1936 -13516,-5806 -3676,-3855 -5519,-8954 -5519,-15284 0,-6542 1919,-11792 5774,-15781 3838,-3974 8654,-5969 14460,-5969 4170,0 7993,1125 11474,3390 3464,2248 6092,5459 7892,9643 1800,4170 2699,10216 2699,18122 0,8235 -885,14789 -2671,19664 -1785,4890 -4456,8595 -7979,11146 -3526,2548 -7651,3824 -12390,3824 -5040,0 -9151,-1395 -12345,-4201 -3181,-2804 -5100,-6749 -5746,-11821zm32312 -28422c0,-4530 -1202,-8130 -3600,-10786 -2387,-2656 -5295,-3991 -8716,-3991 -3541,0 -6600,1425 -9179,4291 -2597,2866 -3886,6585 -3886,11146 0,4093 1230,7424 3673,9975 2461,2563 5522,3838 9168,3838 3659,0 6658,-1275 9014,-3838 2355,-2551 3526,-6106 3526,-10635zm16574 11565c0,-7605 780,-13757 2339,-18405 1576,-4666 3900,-8252 6990,-10755 3076,-2506 6959,-3750 11639,-3750 3450,0 6480,688 9105,2083 2611,1395 4771,3405 6452,6032 1678,2608 2999,5803 3960,9570 975,3764 1454,8850 1454,15225 0,7560 -780,13680 -2325,18329 -1545,4665 -3869,8248 -6962,10768 -3072,2520 -6973,3782 -11684,3782 -6194,0 -11069,-2205 -14610,-6630 -4243,-5400 -6358,-14145 -6358,-26249zm8099 28c0,10605 1230,17657 3705,21135 2474,3495 5536,5236 9164,5236 3631,0 6690,-1755 9164,-5250 2478,-3509 3708,-10545 3708,-21121 0,-10604 -1230,-17654 -3708,-21135 -2457,-3495 -5547,-5235 -9252,-5235 -3631,0 -6542,1547 -8716,4620 -2716,3915 -4065,11177 -4065,21750zm43755 -21583c0,-3362 1199,-6227 3583,-8611 2387,-2370 5250,-3555 8595,-3555 3390,0 6270,1185 8657,3555 2370,2384 3555,5249 3555,8611 0,3373 -1202,6253 -3586,8640 -2384,2384 -5264,3583 -8626,3583 -3345,0 -6208,-1185 -8595,-3554 -2384,-2384 -3583,-5264 -3583,-8669zm4768 29c0,2055 720,3795 2177,5249 1454,1455 3209,2175 5278,2175 2027,0 3765,-720 5222,-2175 1454,-1454 2174,-3194 2174,-5249 0,-2056 -720,-3796 -2174,-5250 -1457,-1454 -3195,-2174 -5222,-2174 -2069,0 -3824,720 -5278,2174 -1457,1454 -2177,3194 -2177,5250z"/>
  <path fill="#5A5A6E" fill-rule="nonzero" d="M99782 740806l10321 1440c-1142,7098 -4022,12640 -8682,16659 -4660,4020 -10398,6021 -17178,6021 -8501,0 -15341,-2781 -20500,-8340 -5182,-5561 -7762,-13521 -7762,-23881 0,-6719 1120,-12581 3342,-17621 2220,-5020 5599,-8798 10160,-11298 4538,-2520 9479,-3779 14839,-3779 6741,0 12280,1698 16560,5119 4300,3419 7061,8280 8260,14559l-10199 1559c-981,-4178 -2701,-7319 -5201,-9439 -2481,-2101 -5480,-3161 -9000,-3161 -5321,0 -9641,1902 -12980,5701 -3320,3821 -4981,9822 -4981,18059 0,8362 1602,14420 4802,18201 3220,3779 7399,5681 12538,5681 4161,0 7622,-1261 10380,-3801 2781,-2520 4541,-6421 5281,-11679zm14191 25951l0 -7920 24480 0 0 7920 -24480 0zm28936 19349l0 -6448 29579 -34141c-3359,179 -6313,269 -8864,269l-18915 0 0 -6389 38069 0 0 5205 -25319 29610 -4845 5505c3555,-300 6886,-451 9990,-451l21614 0 0 6840 -41309 0z"/>
  <path fill="#5A5A6E" fill-rule="nonzero" d="M2660319 744704l10321 1440c-1142,7098 -4022,12639 -8682,16659 -4660,4019 -10398,6021 -17178,6021 -8501,0 -15341,-2781 -20500,-8340 -5182,-5561 -7761,-13521 -7761,-23882 0,-6718 1119,-12580 3342,-17620 2219,-5020 5598,-8799 10159,-11299 4538,-2520 9479,-3778 14839,-3778 6741,0 12280,1698 16560,5119 4300,3419 7061,8280 8260,14559l-10199 1559c-980,-4179 -2701,-7319 -5201,-9440 -2480,-2100 -5480,-3160 -9000,-3160 -5321,0 -9641,1902 -12980,5700 -3319,3821 -4980,9822 -4980,18060 0,8362 1601,14420 4801,18201 3221,3779 7399,5681 12538,5681 4161,0 7622,-1262 10381,-3802 2780,-2520 4541,-6420 5280,-11678zm14191 25951l0 -7920 24480 0 0 7920 -24480 0zm28936 19349l0 -6449 29579 -34140c-3359,178 -6312,269 -8864,269l-18915 0 0 -6389 38069 0 0 5204 -25319 29611 -4844 5505c3554,-301 6885,-451 9989,-451l21614 0 0 6840 -41309 0z"/>
  <g id="_325295680">
   <g>
    <path fill="#00A046" fill-rule="nonzero" d="M1124189 1095049l175810 -49 0 10001 -175810 48 0 -10000zm26042 24534l-69789 -19523 69780 -19559 9 39082z"/>
   </g>
   <path fill="#00A046" fill-rule="nonzero" d="M990521 1152481l-1202 -9759c2322,620 4320,941 6041,941 2361,0 4241,-400 5641,-1179 1420,-780 2579,-1883 3478,-3280 660,-1060 1740,-3682 3220,-7880 201,-581 502,-1440 941,-2580l-23641 -62481 11282 0 13000 35960c1698,4541 3200,9340 4538,14380 1222,-4739 2662,-9419 4340,-14020l13280 -36320 10539 0 -23538 63360c-2540,6820 -4519,11500 -5939,14079 -1882,3462 -4042,6001 -6460,7620 -2441,1621 -5341,2421 -8700,2421 -2041,0 -4320,-420 -6820,-1262z"/>
   <path fill="#0032BE" fill-rule="nonzero" d="M1275003 1436609l0 -8600 39441 -45519c-4478,238 -8418,360 -11820,360l-25220 0 0 -8521 50760 0 0 6939 -33760 39481 -6461 7339c4743,-399 9182,-598 13320,-598l28820 0 0 9119 -55080 0z"/>
   <g>
    <path fill="#0032BE" fill-rule="nonzero" d="M1295002 1275811l0 -175810 10000 0 0 175810 -10000 0zm24539 -26036l-19539 69783 -19539 -69783 39078 0z"/>
   </g>
   <circle fill="#FADC00" cx="1300002" cy="1100001" r="25000"/>
   <circle fill="#C83200" cx="1300001" cy="1100002" r="10001"/>
  </g>
 </g>
</svg>
