<?xml version="1.0" encoding="UTF-8" standalone="no"?>
<svg width="35.2778mm" height="35.2778mm"
 viewBox="0 0 100 100"
 xmlns="http://www.w3.org/2000/svg" xmlns:xlink="http://www.w3.org/1999/xlink"  version="1.2" baseProfile="tiny">
<title>Qt SVG Document</title>
<desc>Generated with Qt</desc>
<defs>
</defs>
<g fill="none" stroke="black" stroke-width="1" fill-rule="evenodd" stroke-linecap="square" stroke-linejoin="bevel" >

<g fill="#ffffff" fill-opacity="1" stroke="none" transform="matrix(1,0,0,1,0,0)"
font-family="Segoe UI" font-size="8.25" font-weight="400" font-style="normal" 
>
<rect x="0" y="0" width="100" height="100"/>
</g>

<g fill="none" stroke="#000000" stroke-opacity="1" stroke-width="1" stroke-linecap="square" stroke-linejoin="bevel" transform="matrix(1,0,0,1,0,0)"
font-family="Segoe UI" font-size="8.25" font-weight="400" font-style="normal" 
>
</g>

<g fill="none" stroke="#000000" stroke-opacity="1" stroke-width="1" stroke-linecap="square" stroke-linejoin="bevel" transform="matrix(1,0,0,1,0,0)"
font-family="Segoe UI" font-size="8.25" font-weight="400" font-style="normal" 
>
</g>

<g fill="#6ebeeb" fill-opacity="1" stroke="#464646" stroke-opacity="1" stroke-width="1" stroke-linecap="square" stroke-linejoin="bevel" transform="matrix(1,0,0,1,0,0)"
font-family="Segoe UI" font-size="8.25" font-weight="400" font-style="normal" 
>
<path vector-effect="none" fill-rule="evenodd" d="M72.5,5 L72.5,8.675 L56.7875,8.675 L56.2362,8.70209 L55.6901,8.78308 L55.1546,8.91721 L54.6349,9.10318 L54.1359,9.33919 L53.6624,9.62298 L53.219,9.95182 L52.81,10.3225 L52.4393,10.7315 L52.1105,11.1749 L51.8267,11.6484 L51.5907,12.1474 L51.4047,12.6671 L51.2706,13.2026 L51.1896,13.7487 L51.1625,14.3 L51.1625,85.7 L51.1896,86.2513 L51.2706,86.7974 L51.4047,87.3329 L51.5907,87.8526 L51.8267,88.3516 L52.1105,88.8251 L52.4393,89.2685 L52.81,89.6775 L53.219,90.0482 L53.6624,90.377 L54.1359,90.6608 L54.6349,90.8968 L55.1546,91.0828 L55.6901,91.2169 L56.2362,91.2979 L56.7875,91.325 L72.5,91.325 L72.5,95 L27.5,95 L27.5,91.325 L43.2125,91.325 L43.7638,91.2979 L44.3099,91.2169 L44.8454,91.0828 L45.3651,90.8968 L45.8641,90.6608 L46.3376,90.377 L46.781,90.0482 L47.19,89.6775 L47.5607,89.2685 L47.8895,88.8251 L48.1733,88.3516 L48.4093,87.8526 L48.5953,87.3329 L48.7294,86.7974 L48.8104,86.2513 L48.8375,85.7 L48.8375,14.3 L48.8104,13.7487 L48.7294,13.2026 L48.5953,12.6671 L48.4093,12.1474 L48.1733,11.6484 L47.8895,11.1749 L47.5607,10.7315 L47.19,10.3225 L46.781,9.95182 L46.3376,9.62298 L45.8641,9.33919 L45.3651,9.10318 L44.8454,8.91721 L44.3099,8.78308 L43.7638,8.70209 L43.2125,8.675 L27.5,8.675 L27.5,5 L72.5,5"/>
</g>

<g fill="#ffffff" fill-opacity="1" stroke="#ffffff" stroke-opacity="1" stroke-width="1" stroke-linecap="square" stroke-linejoin="bevel" transform="matrix(1,0,0,1,0,0)"
font-family="Segoe UI" font-size="8.25" font-weight="400" font-style="normal" 
>
<path vector-effect="none" fill-rule="evenodd" d=""/>
<path vector-effect="none" fill-rule="evenodd" d=""/>
<path vector-effect="none" fill-rule="evenodd" d=""/>
<path vector-effect="none" fill-rule="evenodd" d=""/>
<path vector-effect="none" fill-rule="evenodd" d="M65.2435,91.325 L66.6578,91.325 L62.9828,95 L61.5685,95 L65.2435,91.325"/>
<path vector-effect="none" fill-rule="evenodd" d="M54.4469,90.8079 L54.6349,90.8968 L55.1546,91.0828 L55.4998,91.1692 L51.669,95 L50.2548,95 L54.4469,90.8079"/>
<path vector-effect="none" fill-rule="evenodd" d="M51.1625,82.7786 L51.1625,84.1928 L48.7593,86.5961 L48.8104,86.2513 L48.8375,85.7 L48.8375,85.1036 L51.1625,82.7786 M40.3553,95 L38.9411,95 L42.6161,91.325 L43.2125,91.325 L43.7638,91.2979 L44.1086,91.2468 L40.3553,95"/>
<path vector-effect="none" fill-rule="evenodd" d="M51.1625,71.4649 L51.1625,72.8791 L48.8375,75.2041 L48.8375,73.7899 L51.1625,71.4649 M29.0416,95 L27.6274,95 L31.3024,91.325 L32.7166,91.325 L29.0416,95"/>
<path vector-effect="none" fill-rule="evenodd" d="M51.1625,60.1512 L51.1625,61.5654 L48.8375,63.8904 L48.8375,62.4762 L51.1625,60.1512"/>
<path vector-effect="none" fill-rule="evenodd" d="M51.1625,48.8375 L51.1625,50.2517 L48.8375,52.5767 L48.8375,51.1625 L51.1625,48.8375"/>
<path vector-effect="none" fill-rule="evenodd" d="M51.1625,37.5238 L51.1625,38.938 L48.8375,41.263 L48.8375,39.8488 L51.1625,37.5238"/>
<path vector-effect="none" fill-rule="evenodd" d="M72.5,5 L72.5,6.2868 L70.1118,8.675 L68.6976,8.675 L72.3726,5 L72.5,5 M51.1625,26.2101 L51.1625,27.6243 L48.8375,29.9493 L48.8375,28.5351 L51.1625,26.2101"/>
<path vector-effect="none" fill-rule="evenodd" d="M58.7981,8.675 L57.3839,8.675 L61.0589,5 L62.4731,5 L58.7981,8.675 M51.1625,14.8964 L51.1625,16.3106 L48.8375,18.6356 L48.8375,17.2214 L51.1625,14.8964"/>
<path vector-effect="none" fill-rule="evenodd" d="M46.4517,9.70764 L46.3376,9.62298 L45.8641,9.33919 L45.5531,9.19209 L49.7452,5 L51.1594,5 L46.4517,9.70764"/>
<path vector-effect="none" fill-rule="evenodd" d="M36.1707,8.675 L34.7565,8.675 L38.4315,5 L39.8457,5 L36.1707,8.675"/>
<path vector-effect="none" fill-rule="evenodd" d="M27.5,6.03196 L27.5,5 L28.532,5 L27.5,6.03196"/>
<path vector-effect="none" fill-rule="evenodd" d=""/>
<path vector-effect="none" fill-rule="evenodd" d=""/>
</g>

<g fill="none" stroke="#464646" stroke-opacity="1" stroke-width="1" stroke-linecap="square" stroke-linejoin="bevel" transform="matrix(1,0,0,1,0,0)"
font-family="Segoe UI" font-size="8.25" font-weight="400" font-style="normal" 
>
<path vector-effect="none" fill-rule="evenodd" d="M72.5,5 L72.5,8.675 L56.7875,8.675 L56.2362,8.70209 L55.6901,8.78308 L55.1546,8.91721 L54.6349,9.10318 L54.1359,9.33919 L53.6624,9.62298 L53.219,9.95182 L52.81,10.3225 L52.4393,10.7315 L52.1105,11.1749 L51.8267,11.6484 L51.5907,12.1474 L51.4047,12.6671 L51.2706,13.2026 L51.1896,13.7487 L51.1625,14.3 L51.1625,85.7 L51.1896,86.2513 L51.2706,86.7974 L51.4047,87.3329 L51.5907,87.8526 L51.8267,88.3516 L52.1105,88.8251 L52.4393,89.2685 L52.81,89.6775 L53.219,90.0482 L53.6624,90.377 L54.1359,90.6608 L54.6349,90.8968 L55.1546,91.0828 L55.6901,91.2169 L56.2362,91.2979 L56.7875,91.325 L72.5,91.325 L72.5,95 L27.5,95 L27.5,91.325 L43.2125,91.325 L43.7638,91.2979 L44.3099,91.2169 L44.8454,91.0828 L45.3651,90.8968 L45.8641,90.6608 L46.3376,90.377 L46.781,90.0482 L47.19,89.6775 L47.5607,89.2685 L47.8895,88.8251 L48.1733,88.3516 L48.4093,87.8526 L48.5953,87.3329 L48.7294,86.7974 L48.8104,86.2513 L48.8375,85.7 L48.8375,14.3 L48.8104,13.7487 L48.7294,13.2026 L48.5953,12.6671 L48.4093,12.1474 L48.1733,11.6484 L47.8895,11.1749 L47.5607,10.7315 L47.19,10.3225 L46.781,9.95182 L46.3376,9.62298 L45.8641,9.33919 L45.3651,9.10318 L44.8454,8.91721 L44.3099,8.78308 L43.7638,8.70209 L43.2125,8.675 L27.5,8.675 L27.5,5 L72.5,5"/>
</g>

<g fill="none" stroke="#000000" stroke-opacity="1" stroke-width="1" stroke-linecap="square" stroke-linejoin="bevel" transform="matrix(1,0,0,1,0,0)"
font-family="Segoe UI" font-size="8.25" font-weight="400" font-style="normal" 
>
</g>

<g fill="none" stroke="#000000" stroke-opacity="1" stroke-width="1" stroke-linecap="square" stroke-linejoin="bevel" transform="matrix(1,0,0,1,0,0)"
font-family="Segoe UI" font-size="8.25" font-weight="400" font-style="normal" 
>
</g>
</g>
</svg>
