<?xml version="1.0" encoding="UTF-8"?>
<!DOCTYPE svg PUBLIC "-//W3C//DTD SVG 1.1//EN" "http://www.w3.org/Graphics/SVG/1.1/DTD/svg11.dtd">
<!-- Creator: CorelDRAW X6 -->
<svg xmlns="http://www.w3.org/2000/svg" xml:space="preserve" width="290px" height="480px" version="1.1" shape-rendering="geometricPrecision" text-rendering="geometricPrecision" image-rendering="optimizeQuality" fill-rule="evenodd" clip-rule="evenodd"
viewBox="0 0 2900000 4799994"
 xmlns:xlink="http://www.w3.org/1999/xlink">
 <g id="Layer_x0020_1">
  <metadata id="CorelCorpID_0Corel-Layer"/>
  <path fill="#2B2A29" fill-rule="nonzero" d="M18213 -127227l1131 7327c-2328,488 -4420,740 -6242,740 -3005,0 -5332,-470 -7002,-1431 -1650,-959 -2815,-2203 -3489,-3759 -678,-1556 -1007,-4828 -1007,-9814l0 -28216 -6134 0 0 -6417 6134 0 0 -12110 8303 -4986 0 17096 8306 0 0 6417 -8306 0 0 28687c0,2375 142,3900 442,4578 281,674 754,1210 1415,1618 660,394 1604,598 2832,598 910,0 2123,-110 3617,-328zm8192 7407l0 -67567 8305 0 0 24316c3853,-4516 8714,-6764 14596,-6764 3600,0 6732,706 9405,2137 2659,1432 4561,3399 5709,5916 1148,2515 1715,6180 1715,10962l0 31000 -8305 0 0 -30969c0,-4136 -896,-7157 -2673,-9042 -1795,-1888 -4309,-2832 -7583,-2832 -2438,0 -4734,629 -6888,1902 -2155,1275 -3680,3005 -4607,5190 -912,2171 -1369,5176 -1369,9014l0 26737 -8305 0zm52483 -58130l0 -9437 8306 0 0 9437 -8306 0zm0 58130l0 -48977 8306 0 0 48977 -8306 0zm52957 -17930l8116 1131c-896,5585 -3161,9942 -6826,13102 -3665,3161 -8178,4734 -13510,4734 -6684,0 -12064,-2185 -16124,-6559 -4073,-4371 -6100,-10630 -6100,-18777 0,-5287 879,-9893 2625,-13859 1746,-3945 4405,-6919 7991,-8886 3569,-1982 7455,-2971 11670,-2971 5301,0 9658,1335 13023,4025 3381,2690 5553,6511 6497,11449l-8022 1228c-772,-3286 -2124,-5754 -4091,-7424 -1950,-1650 -4309,-2483 -7078,-2483 -4184,0 -7580,1494 -10208,4481 -2610,3005 -3914,7722 -3914,14202 0,6576 1258,11341 3773,14312 2534,2974 5819,4467 9861,4467 3272,0 5993,-989 8164,-2987 2186,-1982 3572,-5049 4153,-9185zm15225 17930l0 -67567 8305 0 0 38486 19627 -19896 10730 0 -18686 18198 20571 30779 -10222 0 -16262 -25025 -5758 5602 0 19423 -8305 0zm47154 0l0 -48977 7455 0 0 6950c3586,-5332 8776,-7988 15557,-7988 2956,0 5661,533 8130,1588 2469,1054 4325,2454 5553,4169 1227,1712 2092,3759 2579,6117 298,1542 457,4230 457,8068l0 30073 -8306 0 0 -29759c0,-3381 -315,-5913 -958,-7579 -646,-1667 -1794,-3005 -3430,-4011 -1636,-993 -3569,-1494 -5771,-1494 -3524,0 -6560,1117 -9122,3364 -2566,2234 -3838,6497 -3838,12756l0 26723 -8306 0zm85890 -15855l8589 1134c-1338,4984 -3838,8870 -7486,11622 -3651,2753 -8306,4136 -13984,4136 -7140,0 -12801,-2202 -16985,-6605 -4184,-4388 -6276,-10570 -6276,-18513 0,-8209 2106,-14595 6338,-19125 4230,-4544 9720,-6809 16467,-6809 6528,0 11860,2217 15996,6667 4136,4453 6213,10712 6213,18780 0,487 -17,1227 -48,2202l-36473 0c314,5363 1825,9485 4561,12331 2721,2846 6134,4277 10207,4277 3036,0 5630,-802 7770,-2406 2154,-1605 3852,-4167 5111,-7691zm-27179 -13305l27275 0c-363,-4122 -1417,-7203 -3132,-9264 -2625,-3192 -6055,-4796 -10253,-4796 -3807,0 -6999,1273 -9595,3821 -2580,2548 -4011,5961 -4295,10239zm42954 14533l8209 -1321c456,3285 1746,5802 3855,7566 2106,1746 5063,2624 8838,2624 3821,0 6653,-771 8510,-2327 1840,-1542 2767,-3365 2767,-5457 0,-1873 -834,-3350 -2484,-4419 -1165,-740 -3996,-1669 -8495,-2817 -6069,-1525 -10270,-2846 -12628,-3963 -2345,-1131 -4122,-2673 -5332,-4655 -1211,-1967 -1826,-4152 -1826,-6542 0,-2188 505,-4201 1494,-6055 1009,-1857 2361,-3399 4076,-4626 1290,-944 3050,-1746 5267,-2407 2234,-660 4609,-989 7158,-989 3838,0 7202,550 10097,1667 2908,1100 5048,2611 6431,4498 1369,1903 2330,4434 2849,7611l-8115 1134c-363,-2548 -1432,-4546 -3195,-5978 -1760,-1431 -4246,-2137 -7469,-2137 -3790,0 -6512,629 -8133,1888 -1619,1255 -2438,2735 -2438,4419 0,1069 332,2044 1007,2908 677,882 1731,1622 3177,2203 834,314 3257,1023 7314,2123 5850,1556 9941,2846 12268,3838 2327,989 4153,2452 5474,4340 1335,1905 1995,4263 1995,7095 0,2752 -802,5346 -2421,7784 -1621,2438 -3948,4326 -6984,5663 -3050,1336 -6494,1996 -10332,1996 -6356,0 -11214,-1321 -14548,-3946 -3336,-2644 -5459,-6545 -6386,-11718zm47185 0l8209 -1321c457,3285 1746,5802 3855,7566 2107,1746 5063,2624 8839,2624 3821,0 6653,-771 8509,-2327 1840,-1542 2767,-3365 2767,-5457 0,-1873 -833,-3350 -2483,-4419 -1165,-740 -3997,-1669 -8496,-2817 -6068,-1525 -10269,-2846 -12628,-3963 -2344,-1131 -4121,-2673 -5332,-4655 -1210,-1967 -1825,-4152 -1825,-6542 0,-2188 504,-4201 1494,-6055 1009,-1857 2361,-3399 4076,-4626 1290,-944 3050,-1746 5267,-2407 2233,-660 4609,-989 7157,-989 3838,0 7203,550 10097,1667 2908,1100 5048,2611 6432,4498 1369,1903 2330,4434 2849,7611l-8116 1134c-363,-2548 -1431,-4546 -3195,-5978 -1760,-1431 -4246,-2137 -7469,-2137 -3790,0 -6511,629 -8132,1888 -1619,1255 -2438,2735 -2438,4419 0,1069 331,2044 1006,2908 677,882 1732,1622 3178,2203 833,314 3257,1023 7313,2123 5851,1556 9941,2846 12268,3838 2328,989 4153,2452 5474,4340 1335,1905 1996,4263 1996,7095 0,2752 -803,5346 -2421,7784 -1622,2438 -3949,4326 -6985,5663 -3050,1336 -6494,1996 -10332,1996 -6355,0 -11214,-1321 -14547,-3946 -3337,-2644 -5460,-6545 -6387,-11718zm42846 33406l0 -5944 54921 0 0 5944 -54921 0zm60125 -18779l0 -48977 7456 0 0 6919c1525,-2390 3571,-4326 6120,-5771 2545,-1463 5439,-2186 8696,-2186 3617,0 6591,754 8901,2248 2313,1511 3949,3603 4893,6307 3900,-5709 8949,-8555 15176,-8555 4876,0 8635,1335 11245,4025 2628,2690 3949,6826 3949,12410l0 33580 -8305 0 0 -30827c0,-3303 -281,-5695 -817,-7158 -536,-1462 -1511,-2625 -2942,-3520 -1415,-899 -3081,-1338 -4986,-1338 -3459,0 -6322,1148 -8603,3427 -2280,2299 -3413,5961 -3413,10995l0 28421 -8303 0 0 -31788c0,-3679 -678,-6446 -2030,-8289 -1352,-1839 -3569,-2766 -6636,-2766 -2330,0 -4484,612 -6465,1839 -1982,1228 -3413,3019 -4309,5395 -882,2358 -1321,5771 -1321,10224l0 25385 -8306 0zm110600 -6135c-3084,2628 -6055,4468 -8904,5553 -2846,1086 -5896,1619 -9167,1619 -5380,0 -9516,-1304 -12410,-3932 -2894,-2610 -4343,-5961 -4343,-10034 0,-2390 553,-4575 1639,-6560 1099,-1981 2531,-3554 4291,-4748 1778,-1196 3759,-2109 5979,-2721 1635,-425 4104,-833 7389,-1241 6702,-788 11657,-1747 14817,-2849 31,-1131 48,-1854 48,-2155 0,-3364 -788,-5740 -2358,-7123 -2126,-1874 -5287,-2801 -9471,-2801 -3914,0 -6808,692 -8665,2061 -1871,1369 -3240,3790 -4136,7282l-8115 -1134c739,-3475 1950,-6290 3648,-8430 1698,-2137 4152,-3773 7361,-4938 3192,-1148 6920,-1729 11135,-1729 4184,0 7597,488 10224,1477 2611,992 4544,2219 5772,3713 1227,1494 2092,3382 2593,5661 270,1417 411,3963 411,7628l0 11010c0,7690 173,12552 519,14613 329,2060 1021,4025 2030,5913l-8683 0c-833,-1747 -1369,-3790 -1604,-6135zm-661 -18402c-3019,1227 -7548,2265 -13589,3115 -3430,488 -5851,1038 -7265,1653 -1417,612 -2503,1508 -3274,2673 -768,1179 -1162,2483 -1162,3931 0,2186 833,4026 2517,5488 1681,1463 4136,2203 7359,2203 3194,0 6040,-692 8540,-2092 2486,-1383 4326,-3285 5491,-5692 896,-1874 1335,-4626 1335,-8257l48 -3022zm21152 -33593l0 -9437 8306 0 0 9437 -8306 0zm0 58130l0 -48977 8306 0 0 48977 -8306 0zm20965 0l0 -48977 7456 0 0 6950c3585,-5332 8776,-7988 15556,-7988 2957,0 5661,533 8130,1588 2469,1054 4326,2454 5553,4169 1227,1712 2092,3759 2579,6117 298,1542 457,4230 457,8068l0 30073 -8306 0 0 -29759c0,-3381 -314,-5913 -958,-7579 -646,-1667 -1794,-3005 -3430,-4011 -1635,-993 -3569,-1494 -5771,-1494 -3523,0 -6559,1117 -9122,3364 -2565,2234 -3838,6497 -3838,12756l0 26723 -8306 0zm44842 18779l0 -5944 54921 0 0 5944 -54921 0zm60125 -76909l0 -9437 8306 0 0 9437 -8306 0zm0 58130l0 -48977 8306 0 0 48977 -8306 0zm49842 0l-8303 0 0 -52878c-1998,1919 -4626,3821 -7866,5726 -3240,1902 -6165,3334 -8745,4278l0 -8022c4641,-2172 8700,-4814 12175,-7926 3475,-3098 5944,-6103 7393,-9028l5346 0 0 67850zm15965 18779l0 -5944 54921 0 0 5944 -54921 0zm92117 -18779l0 -7283c-3807,5553 -8966,8320 -15491,8320 -2880,0 -5570,-550 -8070,-1650 -2501,-1117 -4357,-2503 -5568,-4169 -1210,-1681 -2061,-3728 -2548,-6149 -329,-1635 -502,-4215 -502,-7738l0 -30308 8303 0 0 27099c0,4325 173,7251 504,8745 519,2185 1619,3883 3320,5128 1681,1241 3759,1870 6242,1870 2486,0 4813,-629 6984,-1902 2169,-1275 3711,-3021 4624,-5207 895,-2185 1352,-5377 1352,-9547l0 -26186 8305 0 0 48977 -7455 0zm20492 0l0 -48977 7455 0 0 6950c3586,-5332 8776,-7988 15556,-7988 2957,0 5661,533 8130,1588 2469,1054 4326,2454 5553,4169 1228,1712 2092,3759 2580,6117 297,1542 456,4230 456,8068l0 30073 -8305 0 0 -29759c0,-3381 -315,-5913 -959,-7579 -646,-1667 -1794,-3005 -3429,-4011 -1636,-993 -3569,-1494 -5772,-1494 -3523,0 -6559,1117 -9122,3364 -2565,2234 -3838,6497 -3838,12756l0 26723 -8305 0zm52483 -58130l0 -9437 8306 0 0 9437 -8306 0zm0 58130l0 -48977 8306 0 0 48977 -8306 0zm22947 0l0 -42560 -7359 0 0 -6417 7359 0 0 -5191c0,-3288 283,-5726 864,-7313 802,-2140 2189,-3886 4201,-5221 1999,-1338 4813,-1999 8430,-1999 2345,0 4924,284 7753,834l-1241 7268c-1730,-301 -3351,-457 -4893,-457 -2514,0 -4292,533 -5346,1605 -1038,1068 -1556,3067 -1556,5992l0 4482 9530 0 0 6417 -9437 0 0 42560 -8305 0zm21123 -24489c0,-9042 2515,-15744 7563,-20100 4201,-3617 9343,-5426 15398,-5426 6718,0 12223,2203 16500,6605 4261,4388 6401,10474 6401,18229 0,6291 -944,11228 -2832,14831 -1888,3603 -4640,6401 -8257,8399 -3600,1999 -7549,2988 -11812,2988 -6857,0 -12393,-2185 -16622,-6573 -4232,-4389 -6339,-10713 -6339,-18953zm8493 17c0,6259 1369,10945 4105,14043 2752,3115 6196,4671 10363,4671 4122,0 7551,-1556 10304,-4685 2735,-3130 4104,-7898 4104,-14298 0,-6038 -1383,-10616 -4135,-13714 -2753,-3115 -6183,-4672 -10273,-4672 -4167,0 -7611,1542 -10363,4641 -2736,3098 -4105,7769 -4105,14014zm47010 24472l0 -48977 7455 0 0 7503c1902,-3478 3665,-5774 5284,-6874 1621,-1117 3398,-1667 5332,-1667 2800,0 5646,879 8540,2625l-2956 7659c-2013,-1131 -4028,-1698 -6041,-1698 -1808,0 -3427,550 -4858,1636 -1432,1086 -2455,2596 -3067,4530 -930,2942 -1384,6165 -1384,9674l0 25589 -8305 0zm31518 0l0 -48977 7455 0 0 6919c1525,-2390 3572,-4326 6120,-5771 2546,-1463 5440,-2186 8697,-2186 3617,0 6590,754 8901,2248 2313,1511 3948,3603 4892,6307 3901,-5709 8949,-8555 15177,-8555 4876,0 8634,1335 11245,4025 2628,2690 3949,6826 3949,12410l0 33580 -8306 0 0 -30827c0,-3303 -280,-5695 -816,-7158 -536,-1462 -1511,-2625 -2943,-3520 -1414,-899 -3081,-1338 -4986,-1338 -3458,0 -6321,1148 -8603,3427 -2279,2299 -3413,5961 -3413,10995l0 28421 -8302 0 0 -31788c0,-3679 -678,-6446 -2030,-8289 -1352,-1839 -3569,-2766 -6636,-2766 -2330,0 -4484,612 -6466,1839 -1981,1228 -3413,3019 -4308,5395 -882,2358 -1321,5771 -1321,10224l0 25385 -8306 0zm80966 0l0 -9437 9439 0 0 9437 -9439 0zm20557 -14627l8209 -1321c456,3285 1746,5802 3855,7566 2106,1746 5063,2624 8839,2624 3821,0 6652,-771 8509,-2327 1840,-1542 2767,-3365 2767,-5457 0,-1873 -834,-3350 -2483,-4419 -1165,-740 -3997,-1669 -8496,-2817 -6069,-1525 -10270,-2846 -12628,-3963 -2344,-1131 -4122,-2673 -5332,-4655 -1210,-1967 -1826,-4152 -1826,-6542 0,-2188 505,-4201 1494,-6055 1009,-1857 2362,-3399 4076,-4626 1290,-944 3051,-1746 5267,-2407 2234,-660 4609,-989 7158,-989 3838,0 7203,550 10097,1667 2908,1100 5048,2611 6432,4498 1369,1903 2330,4434 2848,7611l-8115 1134c-363,-2548 -1432,-4546 -3195,-5978 -1760,-1431 -4246,-2137 -7469,-2137 -3790,0 -6511,629 -8133,1888 -1618,1255 -2438,2735 -2438,4419 0,1069 332,2044 1007,2908 677,882 1732,1622 3177,2203 834,314 3257,1023 7314,2123 5850,1556 9941,2846 12268,3838 2327,989 4153,2452 5474,4340 1335,1905 1995,4263 1995,7095 0,2752 -802,5346 -2420,7784 -1622,2438 -3949,4326 -6985,5663 -3050,1336 -6494,1996 -10332,1996 -6356,0 -11214,-1321 -14548,-3946 -3336,-2644 -5459,-6545 -6386,-11718zm63873 14627l-18482 -48977 8887 0 10477 29332c1131,3161 2185,6449 3143,9862 740,-2579 1763,-5678 3098,-9312l10885 -29882 8524 0 -18541 48977 -7991 0zm32275 4059l8022 1131c329,2486 1273,4294 2815,5442 2061,1525 4876,2296 8444,2296 3839,0 6812,-771 8904,-2296 2092,-1525 3507,-3682 4246,-6434 426,-1681 630,-5222 598,-10616 -3634,4277 -8146,6418 -13558,6418 -6732,0 -11953,-2421 -15633,-7283 -3696,-4844 -5536,-10664 -5536,-17441 0,-4672 848,-8980 2532,-12929 1683,-3949 4135,-6985 7344,-9139 3209,-2154 6985,-3223 11325,-3223 5771,0 10539,2359 14281,7078l0 -6040 7645 0 0 42292c0,7629 -771,13023 -2328,16200 -1542,3178 -4011,5692 -7361,7535 -3368,1840 -7504,2767 -12410,2767 -5834,0 -10537,-1304 -14123,-3932 -3602,-2611 -5332,-6559 -5207,-11826zm6795 -29381c0,6400 1273,11072 3821,14014 2565,2940 5757,4419 9595,4419 3821,0 7013,-1462 9610,-4388 2579,-2925 3869,-7517 3869,-13779 0,-5975 -1338,-10491 -3994,-13524 -2659,-3036 -5868,-4547 -9612,-4547 -3694,0 -6826,1494 -9420,4482 -2579,2990 -3869,7424 -3869,13323z"/>
  <g>
   <polygon fill="#5A5A6E" fill-opacity="0.650980" points="1568556,2838060 2297627,2412861 2297627,2267319 1568556,2688246 "/>
   <polygon id="1" fill="none" stroke="#5A5A6E" stroke-width="14998.1" stroke-linecap="round" stroke-linejoin="round" points="1568556,2838060 2297627,2412861 2297627,2267319 1568556,2688246 "/>
  </g>
  <g>
   <polygon fill="#5A5A6E" fill-opacity="0.650980" points="625076,2435441 1568556,2688246 1568556,2838060 625076,2578699 "/>
   <polygon id="1" fill="none" stroke="#5A5A6E" stroke-width="14998.1" stroke-linecap="round" stroke-linejoin="round" points="625076,2435441 1568556,2688246 1568556,2838060 625076,2578699 "/>
  </g>
  <g>
   <polygon fill="#5A5A6E" fill-opacity="0.211765" points="2297627,2267319 1715754,1781112 897565,1998155 625076,2435441 1568556,2688246 "/>
   <polygon id="1" fill="none" stroke="#5A5A6E" stroke-width="14998.1" stroke-linecap="round" stroke-linejoin="round" points="2297627,2267319 1715754,1781112 897565,1998155 625076,2435441 1568556,2688246 "/>
  </g>
  <line fill="none" stroke="#5A5A6E" stroke-width="5000.31" x1="1665090" y1="2714923" x2="2178118" y2= "2852386" />
  <line fill="none" stroke="#5A5A6E" stroke-width="5000.31" x1="1665090" y1="2865432" x2="2179351" y2= "3003226" />
  <line fill="none" x1="2094496" y1="2652793" x2="2094496" y2= "2828218" />
  <polygon fill="#5A5A6E" fill-rule="nonzero" points="2096911,2767137 2096991,2652793 2092002,2652793 2092081,2765884 2064622,2758761 2094496,2828218 2124351,2774255 "/>
  <polygon fill="#5A5A6E" fill-rule="nonzero" points="2092058,3041647 2091979,3155991 2096968,3155991 2096889,3042900 2124348,3050024 2094473,2980566 2064619,3034529 "/>
  <polyline fill="none" stroke="#5A5A6E" stroke-width="9997.79" stroke-dasharray="49988.954661 49988.954661" points="2297627,2340090 1568556,2763152 625076,2507070 "/>
  <circle fill="#C83200" cx="2297626" cy="2340090" r="25000"/>
  <circle fill="#C83200" cx="1568556" cy="2763152" r="25000"/>
  <circle fill="#C83200" cx="625075" cy="2507070" r="25000"/>
  <path fill="#5A5A6E" fill-rule="nonzero" d="M2108043 2947106l0 -7900c-3940,6140 -9740,9221 -17402,9221 -4961,0 -9519,-1361 -13660,-4102 -4159,-2718 -7379,-6539 -9680,-11418 -2280,-4901 -3419,-10522 -3419,-16880 0,-6199 1040,-11820 3101,-16880 2078,-5040 5179,-8921 9318,-11600 4121,-2701 8761,-4039 13861,-4039 3759,0 7101,799 10020,2378 2920,1579 5298,3660 7141,6200l0 -30898 10559 0 0 85918 -9839 0zm-33361 -31059c0,7960 1681,13898 5060,17838 3359,3940 7339,5902 11919,5902 4621,0 8541,-1882 11781,-5641 3220,-3759 4839,-9499 4839,-17220 0,-8479 -1638,-14721 -4941,-18700 -3279,-3980 -7339,-5959 -12158,-5959 -4699,0 -8620,1899 -11780,5720 -3141,3819 -4720,9839 -4720,18060z"/>
 </g>
</svg>
