<?xml version="1.0" encoding="UTF-8"?>
<!DOCTYPE svg PUBLIC "-//W3C//DTD SVG 1.1//EN" "http://www.w3.org/Graphics/SVG/1.1/DTD/svg11.dtd">
<!-- Creator: CorelDRAW X6 -->
<svg xmlns="http://www.w3.org/2000/svg" xml:space="preserve" width="290px" height="481px" version="1.1" shape-rendering="geometricPrecision" text-rendering="geometricPrecision" image-rendering="optimizeQuality" fill-rule="evenodd" clip-rule="evenodd"
viewBox="0 0 29000000 48099948"
 xmlns:xlink="http://www.w3.org/1999/xlink">
 <g id="Layer_x0020_1">
  <metadata id="CorelCorpID_0Corel-Layer"/>
  <path fill="#2B2A29" fill-rule="nonzero" d="M650012 -1198204l0 -675666 83027 0 0 675666 -83027 0zm211521 -581301l0 -94365 83056 0 0 94365 -83056 0zm0 581301l0 -489770 83056 0 0 489770 -83056 0zm209651 0l0 -489770 74551 0 0 69505c35858,-53319 87761,-79880 155565,-79880 29566,0 56608,5329 81298,15874 24690,10545 43256,24548 55531,41698 12274,17121 20919,37587 25795,61171 2976,15421 4564,42293 4564,80674l0 300728 -83056 0 0 -297581c0,-33817 -3146,-59131 -9581,-75799 -6463,-16667 -17943,-30047 -34299,-40110 -16356,-9921 -35688,-14938 -57713,-14938 -35235,0 -65594,11168 -91219,33647 -25654,22337 -38381,64970 -38381,127559l0 267222 -83055 0zm858897 -158542l85890 11339c-13380,49833 -38381,88696 -74863,116220 -36510,27525 -83055,41358 -139833,41358 -71405,0 -128013,-22026 -169852,-66048 -41839,-43880 -62759,-105704 -62759,-185130 0,-82092 21061,-145956 63383,-191254 42292,-45439 97199,-68088 164664,-68088 65282,0 118602,22167 159959,66671 41357,44532 62135,107121 62135,187795 0,4876 -170,12274 -481,22025l-364734 0c3146,53632 18255,94848 45609,123307 27213,28460 61342,42775 102076,42775 30359,0 56296,-8022 77697,-24066 21544,-16044 38523,-41669 51109,-76904zm-271786 -133058l272750 0c-3629,-41216 -14173,-72028 -31323,-92636 -26249,-31918 -60548,-47962 -102529,-47962 -38069,0 -69987,12727 -95953,38211 -25795,25483 -40110,59612 -42945,102387zm386136 479395l0 -59443 549212 0 0 59443 -549212 0zm7860100 -334063l82091 -13209c4564,32853 17462,58025 38552,75656 21061,17462 50626,26249 88384,26249 38211,0 66529,-7710 85096,-23272 18397,-15421 27666,-33647 27666,-54567 0,-18737 -8334,-33506 -24832,-44192 -11650,-7399 -39968,-16696 -84954,-28177 -60690,-15250 -102699,-28459 -126283,-39628 -23443,-11310 -41216,-26731 -53320,-46545 -12104,-19672 -18255,-41527 -18255,-65423 0,-21884 5046,-42010 14939,-60548 10091,-18567 23612,-33988 40762,-46262 12897,-9439 30501,-17461 52667,-24066 22337,-6605 46092,-9893 71575,-9893 38381,0 72029,5499 100970,16668 29084,10998 50485,26107 64318,44986 13692,19020 23301,44333 28489,76110l-81156 11338c-3629,-25483 -14315,-45467 -31947,-59782 -17603,-14315 -42463,-21373 -74693,-21373 -37899,0 -65111,6292 -81326,18878 -16185,12558 -24378,27355 -24378,44192 0,10687 3317,20438 10063,29084 6775,8816 17320,16214 31777,22025 8334,3146 32570,10233 73134,21232 58507,15562 99411,28459 122683,38381 23272,9893 41528,24519 54737,43398 13351,19049 19956,42633 19956,70951 0,27525 -8022,53462 -24208,77840 -16214,24377 -39487,43256 -69846,56636 -30500,13351 -64941,19956 -103322,19956 -63553,0 -112139,-13210 -145474,-39459 -33364,-26447 -54596,-65452 -63865,-117184zm638731 146268l-184819 -489770 88866 0 104768 293329c11311,31606 21855,64488 31437,98617 7398,-25795 17631,-56778 30982,-93118l108851 -298828 85237 0 -185414 489770 -79908 0zm322752 40592l80221 11310c3288,24860 12727,42945 28148,54425 20607,15251 48756,22961 84444,22961 38381,0 68116,-7710 89036,-22961 20920,-15250 35064,-36822 42463,-64346 4252,-16810 6293,-52214 5981,-106158 -36340,42775 -81468,64177 -135581,64177 -67323,0 -119537,-24208 -156331,-72822 -36964,-48444 -55360,-106640 -55360,-174416 0,-46715 8475,-89801 25313,-129288 16838,-39487 41357,-69846 73446,-91389 32088,-21543 69845,-32230 113244,-32230 57713,0 105392,23584 142809,70781l0 -60406 76450 0 0 422929c0,76280 -7710,130223 -23272,162000 -15420,31776 -40110,56919 -73616,75345 -33675,18397 -75033,27666 -124100,27666 -58337,0 -105364,-13040 -141222,-39317 -36029,-26107 -53320,-65593 -52073,-118261zm67947 -293811c0,64006 12727,110721 38211,140145 25653,29395 57571,44192 95952,44192 38211,0 70129,-14627 96095,-43880 25795,-29254 38693,-75175 38693,-137792 0,-59755 -13380,-104911 -39940,-135241 -26589,-30359 -58678,-45468 -96123,-45468 -36936,0 -68259,14939 -94195,44816 -25796,29905 -38693,74239 -38693,133228zm-8288274 253219l0 -489770 74551 0 0 69194c15251,-23896 35717,-43257 61200,-57714 25455,-14627 54397,-21855 86967,-21855 36170,0 65906,7540 89008,22479 23131,15109 39486,36028 48926,63071 39005,-57090 89490,-85550 151767,-85550 48756,0 86343,13351 112450,40252 26277,26901 39487,68258 39487,124101l0 335792 -83055 0 0 -308268c0,-33023 -2807,-56948 -8164,-71575 -5358,-14626 -15109,-26248 -29424,-35206 -14145,-8986 -30812,-13379 -49861,-13379 -34583,0 -63213,11480 -86032,34270 -22790,22989 -34129,59613 -34129,109956l0 284202 -83027 0 0 -317877c0,-36794 -6774,-64460 -20296,-82885 -13521,-18397 -35688,-27666 -66359,-27666 -23300,0 -44844,6122 -64658,18396 -19814,12274 -34129,30189 -43086,53944 -8816,23584 -13210,57713 -13210,102245l0 253843 -83055 0zm1105993 -61342c-30841,26277 -60548,44674 -89036,55531 -28460,10856 -58961,16186 -91672,16186 -53802,0 -95159,-13040 -124101,-39317 -28942,-26107 -43427,-59612 -43427,-100346 0,-23896 5528,-45751 16384,-65594 10999,-19814 25314,-35546 42917,-47480 17773,-11963 37587,-21090 59783,-27213 16356,-4252 41045,-8334 73899,-12416 67011,-7880 116560,-17461 148167,-28488 311,-11310 482,-18538 482,-21543 0,-33647 -7881,-57402 -23585,-71235 -21260,-18737 -52866,-28006 -94705,-28006 -39147,0 -68088,6917 -86655,20608 -18709,13691 -32400,37899 -41358,72822l-81156 -11339c7399,-34752 19503,-62900 36482,-84302 16980,-21373 41528,-37729 73616,-49380 31918,-11480 69194,-17291 111345,-17291 41839,0 75968,4876 102245,14769 26108,9921 45440,22195 57714,37133 12274,14939 20919,33818 25937,56608 2693,14174 4110,39629 4110,76281l0 110097c0,76904 1729,125518 5187,146126 3289,20608 10205,40252 20297,59131l-86826 0c-8334,-17462 -13691,-37899 -16044,-61342zm-6604 -184025c-30189,12274 -75487,22649 -135893,31153 -34300,4875 -58507,10375 -72652,16526 -14173,6123 -25030,15080 -32740,26730 -7682,11793 -11622,24832 -11622,39317 0,21855 8333,40252 25171,54879 16810,14626 41358,22025 73588,22025 31946,0 60406,-6917 85407,-20920 24860,-13833 43257,-32853 54907,-56920 8958,-18737 13352,-46261 13352,-82573l482 -30217zm211521 -335934l0 -94365 83055 0 0 94365 -83055 0zm0 581301l0 -489770 83055 0 0 489770 -83055 0zm209650 0l0 -489770 74551 0 0 69505c35858,-53319 87761,-79880 155565,-79880 29566,0 56608,5329 81298,15874 24690,10545 43257,24548 55531,41698 12274,17121 20919,37587 25795,61171 2976,15421 4564,42293 4564,80674l0 300728 -83055 0 0 -297581c0,-33817 -3147,-59131 -9581,-75799 -6463,-16667 -17944,-30047 -34300,-40110 -16356,-9921 -35688,-14938 -57713,-14938 -35235,0 -65594,11168 -91219,33647 -25653,22337 -38381,64970 -38381,127559l0 267222 -83055 0zm448412 187795l0 -59443 549213 0 0 59443 -549213 0zm601257 -769096l0 -94365 83055 0 0 94365 -83055 0zm0 581301l0 -489770 83055 0 0 489770 -83055 0zm498415 0l-83026 0 0 -528775c-19985,19191 -46262,38211 -78662,57260 -32400,19021 -61653,33335 -87449,42775l0 -80221c46404,-21713 86996,-48132 121748,-79256 34753,-30983 59443,-61030 73928,-90284l53461 0 0 678501zm159648 187795l0 -59443 549212 0 0 59443 -549212 0zm601256 0l0 -677565 75487 0 0 64318c17773,-24831 37927,-43568 60406,-55984 22337,-12416 49549,-18709 81468,-18709 41839,0 78633,10687 110579,32230 31918,21402 55984,51761 72340,90765 16214,39147 24378,81922 24378,128637 0,49861 -8957,94847 -26901,134957 -17915,39940 -44022,70611 -78321,92012 -34129,21232 -70129,31919 -107887,31919 -27694,0 -52525,-5811 -74409,-17462 -21997,-11622 -39940,-26249 -54085,-44022l0 238904 -83055 0zm75487 -429704c0,62759 12755,109162 38069,139210 25483,30047 56324,45127 92494,45127 36794,0 68259,-15562 94366,-46715 26248,-31124 39316,-79256 39316,-144538 0,-62277 -12727,-108822 -38381,-139805 -25625,-30983 -56154,-46403 -91701,-46403 -35234,0 -66359,16498 -93401,49379 -27213,33024 -40762,80844 -40762,143745zm418223 -2976c0,-90425 25143,-157436 75628,-201005 42010,-36170 93430,-54255 153978,-54255 67181,0 122230,22025 165005,66047 42605,43881 64006,104740 64006,182296 0,62901 -9439,112281 -28318,148309 -18879,36028 -46403,64006 -82573,83990 -36000,19985 -75487,29878 -118120,29878 -68570,0 -123930,-21856 -166223,-65736 -42322,-43880 -63383,-107121 -63383,-189524zm84926 170c0,62589 13691,109446 41046,140428 27524,31153 61965,46715 103634,46715 41216,0 75515,-15562 103040,-46857 27354,-31294 41045,-78973 41045,-142979 0,-60378 -13833,-106157 -41357,-137140 -27525,-31153 -61824,-46715 -102728,-46715 -41669,0 -76110,15420 -103634,46403 -27355,30983 -41046,77698 -41046,140145zm469162 244715l0 -675666 83027 0 0 675666 -83027 0zm207751 188277l-9439 -76762c18255,4875 33987,7398 47508,7398 18567,0 33336,-3146 44334,-9298 11169,-6122 20296,-14768 27383,-25795 5187,-8334 13691,-28941 25313,-61965 1588,-4564 3940,-11310 7399,-20296l-185896 -491329 88696 0 102245 282784c13351,35717 25144,73446 35688,113102 9610,-37275 20920,-74097 34130,-110267l104428 -285619 82885 0 -185102 498274c-19985,53631 -35547,90425 -46715,110721 -14797,27213 -31777,47168 -50797,59924 -19191,12728 -42010,19021 -68428,19021 -16045,0 -33960,-3288 -53632,-9893zm473754 -188277l0 -675666 83027 0 0 675666 -83027 0zm211521 -581301l0 -94365 83055 0 0 94365 -83055 0zm0 581301l0 -489770 83055 0 0 489770 -83055 0zm209651 0l0 -489770 74551 0 0 69505c35858,-53319 87760,-79880 155565,-79880 29565,0 56608,5329 81298,15874 24689,10545 43256,24548 55530,41698 12274,17121 20920,37587 25796,61171 2976,15421 4563,42293 4563,80674l0 300728 -83055 0 0 -297581c0,-33817 -3146,-59131 -9581,-75799 -6463,-16667 -17943,-30047 -34299,-40110 -16356,-9921 -35688,-14938 -57713,-14938 -35235,0 -65594,11168 -91219,33647 -25654,22337 -38381,64970 -38381,127559l0 267222 -83055 0zm858897 -158542l85890 11339c-13380,49833 -38381,88696 -74863,116220 -36511,27525 -83055,41358 -139833,41358 -71405,0 -128013,-22026 -169852,-66048 -41840,-43880 -62759,-105704 -62759,-185130 0,-82092 21061,-145956 63382,-191254 42293,-45439 97200,-68088 164665,-68088 65282,0 118601,22167 159959,66671 41357,44532 62135,107121 62135,187795 0,4876 -170,12274 -482,22025l-364733 0c3146,53632 18255,94848 45609,123307 27213,28460 61342,42775 102076,42775 30359,0 56296,-8022 77697,-24066 21544,-16044 38523,-41669 51109,-76904zm-271786 -133058l272750 0c-3629,-41216 -14174,-72028 -31323,-92636 -26249,-31918 -60548,-47962 -102529,-47962 -38070,0 -69988,12727 -95953,38211 -25795,25483 -40110,59612 -42945,102387zm486142 291600l0 -94366 94393 0 0 94366 -94393 0z"/>
  <path fill="none" stroke="#2B2A29" stroke-width="21543.3" d="M21037994 28867367c-57,340 -142,680 -198,1020"/>
  <path fill="none" stroke="#2B2A29" stroke-width="21543.3" d="M7386913 26261308c397,-1899 709,-3855 1106,-5782"/>
  <path fill="none" stroke="#2B2A29" stroke-width="21543.3" d="M7387480 26255441c539,-1786 1106,-3515 1616,-5301"/>
  <line fill="none" stroke="red" stroke-width="21486.6" x1="21041197" y1="28868076" x2="21040914" y2= "28869039" />
  <g>
   <path fill="#5A5A6E" fill-rule="nonzero" d="M21948992 25377239l783949 -255 -391748 712715 -392201 -712460zm466951 12388l28 49266 -149952 57 -29 -49267 149953 -56z"/>
  </g>
  <g>
   <path fill="#5A5A6E" fill-rule="nonzero" d="M7033121 23389417l-783949 113 391861 -712630 392088 712517zm-466951 -12473l-28 -49266 149953 0 28 49266 -149953 0z"/>
  </g>
  <g>
   <path fill="#5A5A6E" fill-rule="nonzero" d="M17926348 21024671l315241 -717930 494957 645505 -810198 72425zm199389 -422532l44986 19758 -60321 137310 -44986 -19758 60321 -137310z"/>
  </g>
  <g>
   <path fill="#5A5A6E" fill-rule="nonzero" d="M10224109 19740379l-40507 -783042 732018 354699 -691511 428343zm-11452 -467065l49039 -2551 7767 149783 -49039 2551 -7767 -149783z"/>
  </g>
  <line fill="none" stroke="#5A5A6E" stroke-width="199984" x1="6641090" y1="26038420" x2="6641090" y2= "19526930" />
  <line fill="none" stroke="#5A5A6E" stroke-width="199984" x1="22341080" y1="28989682" x2="22341080" y2= "22489700" />
  <line fill="none" stroke="#5A5A6E" stroke-width="199984" x1="6641090" y1="19526930" x2="14491071" y2= "19133283" />
  <line fill="none" stroke="#5A5A6E" stroke-width="199984" x1="22341080" y1="22489700" x2="14491071" y2= "19133283" />
  <circle fill="#C83200" cx="6641097" cy="26026899" r="249995"/>
  <circle fill="#C83200" cx="6641097" cy="19526918" r="249995"/>
  <circle fill="#C83200" cx="22341087" cy="22489688" r="249995"/>
  <circle fill="#C83200" cx="22341087" cy="28989670" r="249995"/>
  <circle fill="#C83200" cx="14491078" cy="19133271" r="249995"/>
 </g>
</svg>
