<?xml version="1.0" encoding="UTF-8"?>
<!DOCTYPE svg PUBLIC "-//W3C//DTD SVG 1.1//EN" "http://www.w3.org/Graphics/SVG/1.1/DTD/svg11.dtd">
<!-- Creator: CorelDRAW X6 -->
<svg xmlns="http://www.w3.org/2000/svg" xml:space="preserve" width="290px" height="200px" version="1.1" shape-rendering="geometricPrecision" text-rendering="geometricPrecision" image-rendering="optimizeQuality" fill-rule="evenodd" clip-rule="evenodd"
viewBox="0 0 2900000 2000000"
 xmlns:xlink="http://www.w3.org/1999/xlink">
 <g id="Layer_x0020_1">
  <metadata id="CorelCorpID_0Corel-Layer"/>
  <line fill="none" stroke="#5A5A6E" stroke-width="14998.1" x1="500000" y1="700001" x2="1489220" y2= "700001" />
  <line fill="none" stroke="#5A5A6E" stroke-width="14998.1" x1="500000" y1="1500000" x2="1348163" y2= "1500000" />
  <line fill="none" stroke="#5A5A6E" stroke-width="14998.1" x1="1539223" y1="700001" x2="2400000" y2= "700001" />
  <line fill="none" stroke="#5A5A6E" stroke-width="14998.1" x1="1398166" y1="1500000" x2="2400000" y2= "1500000" />
  <polygon fill="#5A5A6E" fill-opacity="0.211765" points="500000,700001 1489220,700001 1348163,1500000 500108,1499893 "/>
  <line fill="none" stroke="#5A5A6E" stroke-width="4997.48" stroke-dasharray="24987.390720 24987.390720" x1="500000" y1="550000" x2="500000" y2= "1650001" />
  <line fill="none" stroke="#5A5A6E" stroke-width="4997.48" stroke-dasharray="24987.390720 24987.390720" x1="2400000" y1="550000" x2="2400000" y2= "1650001" />
  <line fill="none" stroke="#5A5A6E" stroke-width="4997.48" x1="1515670" y1="550000" x2="1321712" y2= "1650001" />
  <line fill="none" stroke="#5A5A6E" stroke-width="4997.48" x1="1565673" y1="550000" x2="1371716" y2= "1650001" />
  <polygon fill="#5A5A6E" fill-opacity="0.211765" points="1539223,700001 2400000,700001 2400000,1500000 1398166,1500000 "/>
  <circle fill="#5A5A6E" cx="699998" cy="1360003" r="34997"/>
  <circle fill="#5A5A6E" cx="950000" cy="1360003" r="34997"/>
  <circle fill="#5A5A6E" cx="1199999" cy="1360003" r="34997"/>
  <circle fill="#5A5A6E" cx="1699999" cy="1265005" r="34997"/>
  <circle fill="#5A5A6E" cx="1950000" cy="1265005" r="34997"/>
  <circle fill="#5A5A6E" cx="2199999" cy="1265005" r="34997"/>
  <line fill="none" stroke="#5A5A6E" stroke-width="5000.31" x1="457823" y1="1325006" x2="312511" y2= "1325006" />
  <line fill="none" stroke="#5A5A6E" stroke-width="5000.31" x1="2440002" y1="1300002" x2="2585315" y2= "1300002" />
  <line fill="none" stroke="#5A5A6E" stroke-width="5000.31" x1="367373" y1="1325006" x2="367373" y2= "1500000" />
  <line fill="none" stroke="#5A5A6E" stroke-width="5000.31" x1="2530453" y1="1229998" x2="2530453" y2= "1500000" />
  <line fill="none" stroke="#5A5A6E" stroke-width="5000.31" x1="457823" y1="1394999" x2="312511" y2= "1394999" />
  <line fill="none" stroke="#5A5A6E" stroke-width="5000.31" x1="2440002" y1="1394999" x2="2585315" y2= "1394999" />
  <line fill="none" stroke="#5A5A6E" stroke-width="5000.31" x1="457823" y1="1500000" x2="312511" y2= "1500000" />
  <line fill="none" stroke="#5A5A6E" stroke-width="5000.31" x1="2440002" y1="1500000" x2="2585315" y2= "1500000" />
  <path fill="#5A5A6E" fill-rule="nonzero" d="M100148 1361485l0 -7900c-3940,6140 -9740,9221 -17402,9221 -4961,0 -9519,-1360 -13660,-4101 -4158,-2719 -7379,-6540 -9680,-11418 -2279,-4901 -3419,-10523 -3419,-16881 0,-6199 1040,-11820 3101,-16880 2078,-5040 5179,-8921 9318,-11599 4121,-2702 8762,-4040 13861,-4040 3759,0 7101,800 10021,2379 2919,1578 5297,3659 7140,6199l0 -30898 10559 0 0 85918 -9839 0zm-33361 -31059c0,7960 1681,13898 5060,17839 3359,3940 7339,5901 11920,5901 4620,0 8540,-1882 11780,-5641 3221,-3758 4839,-9498 4839,-17220 0,-8478 -1638,-14720 -4941,-18700 -3279,-3980 -7339,-5959 -12157,-5959 -4700,0 -8621,1900 -11781,5721 -3141,3818 -4720,9839 -4720,18059zm54768 39612l7832 -1262c434,3135 1664,5536 3674,7217 2010,1664 4830,2503 8430,2503 3646,0 6344,-734 8116,-2219 1755,-1472 2639,-3209 2639,-5205 0,-1786 -794,-3194 -2370,-4215 -1111,-706 -3810,-1590 -8101,-2684 -5789,-1457 -9794,-2716 -12045,-3782 -2233,-1080 -3928,-2548 -5085,-4439 -1154,-1876 -1738,-3960 -1738,-6239 0,-2086 479,-4005 1423,-5777 961,-1769 2251,-3240 3887,-4411 1230,-898 2908,-1664 5023,-2293 2131,-629 4396,-947 6825,-947 3660,0 6872,528 9630,1591 2775,1051 4816,2491 6137,4291 1304,1814 2219,4230 2715,7260l-7741 1080c-346,-2429 -1366,-4334 -3044,-5701 -1681,-1363 -4051,-2041 -7127,-2041 -3614,0 -6208,601 -7755,1800 -1545,1202 -2325,2611 -2325,4216 0,1020 315,1950 961,2775 644,842 1650,1545 3030,2100 794,301 3104,975 6974,2027 5581,1482 9482,2713 11701,3659 2220,944 3960,2339 5219,4139 1275,1817 1907,4065 1907,6766 0,2625 -765,5100 -2310,7424 -1545,2325 -3767,4125 -6661,5400 -2909,1276 -6194,1905 -9856,1905 -6058,0 -10693,-1258 -13873,-3764 -3181,-2520 -5207,-6239 -6092,-11174z"/>
  <path fill="#5A5A6E" fill-rule="nonzero" d="M2660679 1290605l0 -7900c-3940,6140 -9739,9221 -17401,9221 -4961,0 -9519,-1361 -13661,-4102 -4158,-2718 -7378,-6539 -9680,-11418 -2279,-4901 -3418,-10522 -3418,-16880 0,-6199 1040,-11820 3101,-16880 2077,-5040 5179,-8921 9317,-11600 4122,-2701 8762,-4039 13862,-4039 3758,0 7100,799 10020,2378 2920,1579 5298,3660 7140,6200l0 -30898 10560 0 0 85918 -9840 0zm-33360 -31059c0,7960 1680,13898 5059,17838 3359,3940 7339,5902 11920,5902 4621,0 8541,-1882 11781,-5641 3220,-3759 4839,-9499 4839,-17220 0,-8479 -1639,-14721 -4941,-18701 -3280,-3979 -7339,-5958 -12158,-5958 -4700,0 -8620,1899 -11781,5720 -3141,3819 -4719,9839 -4719,18060zm54768 39611l7832 -1261c434,3135 1664,5536 3674,7217 2009,1664 4830,2503 8430,2503 3645,0 6344,-734 8115,-2220 1755,-1471 2639,-3209 2639,-5204 0,-1786 -793,-3195 -2369,-4215 -1112,-706 -3810,-1590 -8102,-2685 -5788,-1457 -9793,-2715 -12044,-3781 -2234,-1080 -3929,-2548 -5086,-4439 -1153,-1877 -1737,-3960 -1737,-6239 0,-2086 479,-4006 1423,-5777 961,-1769 2251,-3240 3886,-4411 1230,-898 2908,-1664 5023,-2293 2132,-629 4397,-947 6826,-947 3659,0 6871,527 9629,1590 2775,1052 4816,2492 6137,4292 1304,1814 2220,4229 2716,7260l-7742 1080c-345,-2430 -1366,-4335 -3044,-5701 -1681,-1363 -4051,-2041 -7126,-2041 -3614,0 -6208,601 -7756,1800 -1545,1202 -2324,2611 -2324,4215 0,1021 314,1950 961,2775 643,842 1649,1545 3030,2101 794,300 3104,975 6973,2027 5582,1482 9482,2712 11702,3659 2219,944 3960,2339 5218,4139 1276,1817 1908,4065 1908,6766 0,2625 -766,5100 -2310,7424 -1545,2324 -3768,4124 -6662,5400 -2908,1276 -6194,1905 -9856,1905 -6058,0 -10692,-1259 -13873,-3765 -3180,-2520 -5207,-6239 -6091,-11174z"/>
  <circle fill="#5A5A6E" cx="367373" cy="1325006" r="14999"/>
  <circle fill="#5A5A6E" cx="2530453" cy="1300002" r="14999"/>
  <circle fill="#5A5A6E" cx="367373" cy="1394999" r="14999"/>
  <circle fill="#5A5A6E" cx="2530453" cy="1394999" r="14999"/>
  <circle fill="#5A5A6E" cx="367373" cy="1500000" r="14999"/>
  <circle fill="#5A5A6E" cx="2530453" cy="1500000" r="14999"/>
  <line fill="none" stroke="#5A5A6E" stroke-width="5000.31" x1="2440002" y1="1229998" x2="2585315" y2= "1229998" />
  <circle fill="#5A5A6E" cx="2530453" cy="1229998" r="14999"/>
  <path fill="#5A5A6E" fill-rule="nonzero" d="M2662431 1364893l10919 1440c-1700,6341 -4878,11279 -9518,14779 -4641,3501 -10562,5262 -17782,5262 -9079,0 -16279,-2801 -21600,-8402 -5318,-5579 -7980,-13439 -7980,-23539 0,-10440 2682,-18559 8062,-24319 5380,-5779 12359,-8659 20940,-8659 8299,0 15080,2817 20338,8478 5261,5661 7900,13620 7900,23879 0,621 -20,1562 -59,2801l-46381 0c400,6820 2322,12061 5800,15681 3461,3620 7801,5440 12980,5440 3861,0 7160,-1021 9881,-3062 2739,-2038 4899,-5301 6500,-9779zm-34560 -16920l34679 0c-459,-5239 -1800,-9159 -3980,-11781 -3339,-4059 -7698,-6100 -13039,-6100 -4839,0 -8901,1621 -12200,4861 -3280,3240 -5100,7580 -5460,13020zm64128 59581l-7378 0 0 -64440 7920 0 0 22995c3345,-4170 7605,-6256 12795,-6256 2863,0 5593,572 8159,1726 2565,1154 4665,2789 6329,4876 1650,2100 2957,4620 3887,7574 944,2939 1408,6106 1408,9465 0,7979 -1978,14159 -5924,18510 -3960,4365 -8699,6539 -14236,6539 -5504,0 -9824,-2293 -12960,-6868l0 5879zm-87 -23700c0,5581 762,9615 2279,12106 2488,4065 5850,6103 10094,6103 3467,0 6451,-1499 8954,-4498 2520,-3002 3782,-7472 3782,-13411 0,-6089 -1202,-10576 -3617,-13470 -2412,-2894 -5338,-4351 -8759,-4351 -3464,0 -6449,1502 -8955,4501 -2520,2999 -3778,7336 -3778,13020z"/>
  <line fill="none" stroke="#5A5A6E" stroke-width="5000.31" stroke-dasharray="5000.312788 15000.938365" x1="2400000" y1="1394999" x2="1416682" y2= "1394999" />
  <line fill="none" stroke="#5A5A6E" stroke-width="5000.31" stroke-dasharray="5000.312788 15000.938365" x1="2400000" y1="1300002" x2="1433508" y2= "1300002" />
  <path fill="#5A5A6E" fill-rule="nonzero" d="M99782 1439702l10321 1440c-1142,7098 -4022,12639 -8682,16659 -4660,4019 -10398,6021 -17178,6021 -8501,0 -15341,-2781 -20500,-8340 -5182,-5561 -7762,-13521 -7762,-23882 0,-6718 1120,-12580 3342,-17620 2220,-5020 5599,-8799 10160,-11299 4538,-2520 9479,-3778 14839,-3778 6741,0 12280,1698 16560,5119 4300,3419 7061,8280 8260,14559l-10199 1559c-981,-4178 -2701,-7319 -5201,-9440 -2481,-2100 -5480,-3160 -9000,-3160 -5321,0 -9641,1902 -12980,5700 -3320,3821 -4981,9822 -4981,18060 0,8362 1602,14420 4802,18201 3220,3779 7399,5681 12538,5681 4161,0 7622,-1262 10380,-3802 2781,-2520 4541,-6420 5281,-11678zm33991 39359l0 -17640 -17550 0 0 -7382 17550 0 0 -17549 7472 0 0 17549 17549 0 0 7382 -17549 0 0 17640 -7472 0zm31725 5941l0 -6449 29579 -34140c-3359,178 -6312,269 -8864,269l-18915 0 0 -6389 38069 0 0 5204 -25319 29611 -4844 5505c3554,-301 6885,-451 9989,-451l21614 0 0 6840 -41309 0z"/>
  <path fill="#5A5A6E" fill-rule="nonzero" d="M2660271 1454706l10321 1440c-1142,7097 -4022,12639 -8682,16659 -4660,4019 -10398,6020 -17178,6020 -8501,0 -15341,-2780 -20500,-8339 -5182,-5562 -7762,-13521 -7762,-23882 0,-6718 1120,-12580 3342,-17620 2220,-5020 5599,-8799 10160,-11299 4538,-2520 9479,-3779 14839,-3779 6741,0 12280,1698 16560,5120 4300,3418 7061,8280 8260,14559l-10199 1559c-981,-4179 -2701,-7319 -5201,-9440 -2481,-2100 -5480,-3160 -9000,-3160 -5321,0 -9641,1902 -12980,5700 -3320,3821 -4981,9822 -4981,18060 0,8362 1602,14419 4802,18201 3220,3778 7399,5681 12538,5681 4161,0 7622,-1262 10380,-3802 2781,-2520 4541,-6420 5281,-11678zm33991 39359l0 -17640 -17550 0 0 -7382 17550 0 0 -17549 7472 0 0 17549 17549 0 0 7382 -17549 0 0 17640 -7472 0zm31725 5941l0 -6449 29579 -34140c-3359,178 -6312,269 -8864,269l-18915 0 0 -6389 38069 0 0 5204 -25319 29611 -4844 5505c3554,-301 6885,-451 9989,-451l21614 0 0 6840 -41309 0z"/>
  <circle fill="#C83200" cx="1300001" cy="1100002" r="10001"/>
  <g id="_332812984">
   <g>
    <path fill="#00A046" fill-rule="nonzero" d="M1124189 1095049l175810 -49 0 10001 -175810 48 0 -10000zm26042 24534l-69789 -19523 69780 -19559 9 39082z"/>
   </g>
   <path fill="#00A046" fill-rule="nonzero" d="M990521 1152481l-1202 -9759c2322,620 4320,941 6041,941 2361,0 4241,-400 5641,-1179 1420,-780 2579,-1883 3478,-3280 660,-1060 1740,-3682 3220,-7880 201,-581 502,-1440 941,-2580l-23641 -62481 11282 0 13000 35960c1698,4541 3200,9340 4538,14380 1222,-4739 2662,-9419 4340,-14020l13280 -36320 10539 0 -23538 63360c-2540,6820 -4519,11500 -5939,14079 -1882,3462 -4042,6001 -6460,7620 -2441,1621 -5341,2421 -8700,2421 -2041,0 -4320,-420 -6820,-1262z"/>
   <path fill="#0032BE" fill-rule="nonzero" d="M1275003 1436609l0 -8600 39441 -45519c-4478,238 -8418,360 -11820,360l-25220 0 0 -8521 50760 0 0 6939 -33760 39481 -6461 7339c4743,-399 9182,-598 13320,-598l28820 0 0 9119 -55080 0z"/>
   <g>
    <path fill="#0032BE" fill-rule="nonzero" d="M1295002 1275811l0 -175810 10000 0 0 175810 -10000 0zm24539 -26036l-19539 69783 -19539 -69783 39078 0z"/>
   </g>
   <circle fill="#FADC00" cx="1300002" cy="1100001" r="25000"/>
   <circle fill="#C83200" cx="1300001" cy="1100002" r="10001"/>
  </g>
 </g>
</svg>
