<?xml version="1.0" encoding="UTF-8"?>
<!DOCTYPE svg PUBLIC "-//W3C//DTD SVG 1.1//EN" "http://www.w3.org/Graphics/SVG/1.1/DTD/svg11.dtd">
<!-- Creator: CorelDRAW X6 -->
<svg xmlns="http://www.w3.org/2000/svg" xml:space="preserve" width="290px" height="490px" version="1.1" shape-rendering="geometricPrecision" text-rendering="geometricPrecision" image-rendering="optimizeQuality" fill-rule="evenodd" clip-rule="evenodd"
viewBox="0 0 29000000 48999947"
 xmlns:xlink="http://www.w3.org/1999/xlink">
 <g id="Layer_x0020_1">
  <metadata id="CorelCorpID_0Corel-Layer"/>
  <g id="_172368232">
   <g>
    <path fill="#C83200" fill-rule="nonzero" d="M7112066 4488234l-2620232 -438916 16498 -98646 2620232 438916 -16498 98646zm-216283 -285080l655965 308012 -720538 77414 64573 -385427z"/>
   </g>
   <path fill="#C83200" fill-rule="nonzero" d="M7748359 5073447l332022 -445805 -292422 -413376 135411 0 156586 219798c32627,45581 55219,80391 68202,104598 19417,-30019 42208,-62022 68400,-95811l171609 -228586 124611 0 -298403 408387 321194 450794 -139606 0 -216794 -306397c-12387,-17405 -24208,-34809 -35206,-51987 -19191,28800 -32797,48983 -41187,60378l-217814 298006 -136602 0z"/>
   <g>
    <path fill="#00A046" fill-rule="nonzero" d="M2072097 5079598l2406812 -1124900 42350 90595 -2406812 1124900 -42350 -90595zm339789 112053l-714926 118460 549467 -472507 165458 354047z"/>
   </g>
   <path fill="#00A046" fill-rule="nonzero" d="M1067612 5818930l0 -363997 -331200 -495184 136800 0 169795 259994c31606,48189 61002,96378 87789,144595 26220,-45014 57997,-95414 95017,-151398l166394 -253190 132605 0 -343219 495184 0 363997 -113981 0z"/>
   <path fill="#0032BE" fill-rule="nonzero" d="M4178549 8231439l0 -104995 439994 -550800c31606,-38806 61200,-72992 89405,-102586l-478998 0 0 -100800 614381 0 0 100800 -482598 595984 -51591 61597 548589 0 0 100800 -679181 0z"/>
   <g>
    <path fill="#0032BE" fill-rule="nonzero" d="M4456713 6656822l-6633 -2656714 100006 -227 6633 2656714 -100006 227zm244743 -261014l-193663 698343 -197150 -697351 390812 -992z"/>
   </g>
   <ellipse fill="#FADC00" cx="4500083" cy="4000000" rx="249999" ry="250004"/>
  </g>
  <g>
   <path fill="#0096DC" fill-rule="nonzero" d="M14479194 16964071l3373 -1716831 150009 283 -3373 1716831 -150009 -283zm73304 870491l-457540 -919247 918368 1786 -460828 917461z"/>
  </g>
  <g>
   <path fill="#0096DC" fill-rule="nonzero" d="M14477578 17720326l595 -539319 150009 170 -595 539319 -150009 -170zm74098 870434l-458362 -918850 918368 992 -460006 917858z"/>
  </g>
  <g>
   <path fill="#0096DC" fill-rule="nonzero" d="M14473524 22283849l3798 -2530402 150009 227 -3798 2530402 -150009 -227zm73729 870463l-457965 -919048 918368 1389 -460403 917659z"/>
  </g>
  <g>
   <path fill="#0096DC" fill-rule="nonzero" d="M21079125 21050013l1533628 -734655 64800 135269 -1533628 734655 -64800 -135269zm-752371 443565l629688 -810850 396652 828085 -1026340 -17235z"/>
  </g>
  <g>
   <path fill="#0096DC" fill-rule="nonzero" d="M20397138 21376706l486538 -233064 64800 135269 -486538 233064 -64800 -135269zm-752371 443565l629688 -810850 396652 828085 -1026340 -17235z"/>
  </g>
  <g>
   <path fill="#0096DC" fill-rule="nonzero" d="M16307483 23335757l2265618 -1085300 64800 135269 -2265618 1085300 -64800 -135269zm-752371 443565l629688 -810850 396652 828085 -1026340 -17235z"/>
  </g>
  <circle fill="#C83200" transform="matrix(0.0874689 -0.515376 0.515373 0.0874694 1.45418E+007 2.42536E+007)" r="478148"/>
  <path fill="#0096DC" fill-rule="nonzero" d="M14924800 15813688l0 -859181 170390 0 203187 608201c18794,56580 32400,98986 41017,127190 9780,-31209 25200,-77216 45978,-137792l206816 -597600 152192 0 0 859181 -109219 0 0 -718781 -250781 718781 -102387 0 -248003 -731990 0 731990 -109191 0zm927581 225014l0 -78746 330009 -413093c23698,-29112 45893,-54765 67039,-76961l-359234 0 0 -75600 460800 0 0 75600 -361956 446995 -38721 46205 411477 0 0 75600 -509414 0z"/>
  <path fill="#0096DC" fill-rule="nonzero" d="M14937868 20263966l0 -859181 579600 0 0 100800 -465590 0 0 267590 403171 0 0 100800 -403171 0 0 389990 -114009 0zm652592 225014l0 -78746 330009 -413093c23698,-29112 45893,-54765 67039,-76961l-359234 0 0 -75600 460800 0 0 75600 -361956 446995 -38721 46205 411477 0 0 75600 -509414 0z"/>
  <path fill="#0096DC" fill-rule="nonzero" d="M17835810 21872003l0 -859181 579600 0 0 100800 -465590 0 0 267590 403171 0 0 100800 -403171 0 0 389990 -114009 0zm885543 225014l0 -273005 -248400 -371395 102586 0 127361 194995c23698,36142 45751,72312 65849,108453 19644,-33761 43512,-71546 71263,-113556l124781 -189893 99468 0 -257414 371395 0 273005 -85493 0z"/>
  <path fill="#0096DC" fill-rule="nonzero" d="M21971896 19913944l0 -859181 170390 0 203187 608201c18794,56580 32400,98986 41017,127190 9780,-31209 25200,-77216 45978,-137792l206816 -597600 152192 0 0 859181 -109219 0 0 -718781 -250781 718781 -102387 0 -248003 -731990 0 731990 -109191 0zm1160532 225014l0 -273005 -248400 -371395 102586 0 127361 194995c23698,36142 45751,72312 65849,108453 19644,-33761 43512,-71546 71263,-113556l124781 -189893 99468 0 -257414 371395 0 273005 -85493 0z"/>
  <g>
   <path fill="#0096DC" fill-rule="nonzero" d="M7363868 23081858l-1704217 -289247 25115 -147912 1704217 289247 -25115 147912zm870803 71688l-982459 299253 153694 -905584 828765 606330z"/>
  </g>
  <g>
   <path fill="#0096DC" fill-rule="nonzero" d="M8109408 23208396l-531553 -90227 25115 -147912 531553 90227 -25115 147912zm870803 71688l-982459 299253 153694 -905584 828765 606330z"/>
  </g>
  <g>
   <path fill="#0096DC" fill-rule="nonzero" d="M12590754 23968988l-2493778 -423269 25115 -147912 2493778 423269 -25115 147912zm870803 71688l-982459 299253 153694 -905584 828765 606330z"/>
  </g>
  <path fill="#0096DC" fill-rule="nonzero" d="M5471147 22162979l0 -859181 170390 0 203187 608201c18794,56580 32400,98986 41017,127190 9780,-31209 25200,-77216 45978,-137792l206816 -597600 152192 0 0 859181 -109219 0 0 -718781 -250781 718781 -102387 0 -248003 -731990 0 731990 -109191 0zm950428 225014l248995 -334346 -219316 -310053 101565 0 117439 164863c24463,34186 41414,60293 51165,78435 14542,-22507 31635,-46488 51279,-71858l128721 -171439 93430 0 -223795 306312 240916 338088 -104712 0 -162595 -229805c-9298,-13039 -18142,-26107 -26391,-39005 -14400,21600 -24605,36765 -30926,45298l-163332 223512 -102444 0z"/>
  <path fill="#0096DC" fill-rule="nonzero" d="M10117611 22963029l0 -859181 579600 0 0 100800 -465590 0 0 267590 403171 0 0 100800 -403171 0 0 389990 -114009 0zm675439 225014l248995 -334346 -219316 -310053 101565 0 117439 164863c24463,34186 41414,60293 51165,78435 14542,-22507 31635,-46488 51279,-71858l128721 -171439 93430 0 -223795 306312 240916 338088 -104712 0 -162595 -229805c-9298,-13039 -18142,-26107 -26391,-39005 -14400,21600 -24605,36765 -30926,45298l-163332 223512 -102444 0z"/>
 </g>
</svg>
