<?xml version="1.0" encoding="UTF-8"?>
<!DOCTYPE svg PUBLIC "-//W3C//DTD SVG 1.1//EN" "http://www.w3.org/Graphics/SVG/1.1/DTD/svg11.dtd">
<!-- Creator: CorelDRAW X6 -->
<svg xmlns="http://www.w3.org/2000/svg" xml:space="preserve" width="290px" height="480px" version="1.1" shape-rendering="geometricPrecision" text-rendering="geometricPrecision" image-rendering="optimizeQuality" fill-rule="evenodd" clip-rule="evenodd"
viewBox="0 0 29000000 47999941"
 xmlns:xlink="http://www.w3.org/1999/xlink">
 <g id="Layer_x0020_1">
  <metadata id="CorelCorpID_0Corel-Layer"/>
  <polygon fill="#E6E6E6" points="6469963,27383487 7079638,30170736 6601774,27877934 10000002,27877934 10000002,23877911 3999967,23877911 3999967,27589736 5657298,27589736 5609336,27383487 "/>
  <rect fill="#E6E6E6" x="11500011" y="13377849" width="4999973" height="3000018"/>
  <rect fill="#E6E6E6" x="11500011" y="16877870" width="4999973" height="3000018"/>
  <rect fill="#E6E6E6" x="11500011" y="20377890" width="4999973" height="3000017"/>
  <rect fill="#E6E6E6" x="11500011" y="23877911" width="4999973" height="3000017"/>
  <rect fill="#E6E6E6" x="11500011" y="27377960" width="4999973" height="4474033"/>
  <rect fill="#E6E6E6" stroke="#5A5A6E" stroke-width="70866.1" x="11500011" y="10877920" width="4999973" height="999921"/>
  <polygon fill="#CCCCCC" points="10000002,31295722 6518917,31295722 5657298,27589736 3999967,27589736 3999967,28252419 4843699,28252419 4843699,29321137 5348577,29321137 5348577,29958648 1179836,29958648 1179836,29321137 1864204,29321137 1864204,28252419 2999989,28252419 2999961,27589736 500003,27589736 500003,43349764 28500025,43349764 28500025,36577912 24000027,36577912 24000027,38377911 22749978,38377911 22749978,36577912 18249979,36577912 18249979,38377911 16499983,38377911 16499983,35878010 11500011,35878010 11500011,38377911 10000002,38377911 "/>
  <polygon fill="#0096DC" fill-opacity="0.168627" points="500003,43349764 28500025,43349764 28500025,36577912 24000027,36577912 24000027,38377911 22749978,38377911 22749978,36577912 18249979,36577912 18249979,38377911 16499983,38377911 16499983,35878010 11500011,35878010 11500011,38377911 10000002,38377911 10000002,31851992 500003,31851992 "/>
  <polygon fill="#0096DC" fill-opacity="0.501961" points="6601774,27877934 10000002,27877934 10000002,30170736 7079638,30170736 "/>
  <path fill="#0096DC" fill-opacity="0.501961" d="M18249979 36577912l4499999 0 0 -4225917c-214300,-166677 -356174,-500003 -642869,-500003 -286696,0 -356145,500003 -642841,500003 -286724,0 -356173,-500003 -642869,-500003 -286668,0 -356173,500003 -642841,500003 -286696,0 -356145,-500003 -642869,-500003 -286696,0 -356145,500003 -642841,500003 -286695,0 -385766,-500003 -642869,-500003l0 4725920z"/>
  <path fill="#0096DC" fill-opacity="0.501961" d="M28500025 36577912l-4499998 0 0 -4225917c214299,-166677 356173,-500003 642869,-500003 286696,0 356145,500003 642841,500003 286724,0 356173,-500003 642869,-500003 286668,0 356173,500003 642841,500003 286696,0 356144,-500003 642869,-500003 286696,0 356144,500003 642840,500003 286696,0 385767,-500003 642869,-500003l0 4725920z"/>
  <polygon fill="#0096DC" fill-opacity="0.501961" points="11500011,31851992 16499983,31851992 16499983,34377944 11500011,34377944 "/>
  <path fill="#5A5A6E" d="M22304825 26550045l0 522170 -92750 0 0 171751c0,75572 -58393,133965 -133965,133965 -72142,0 -130564,-58393 -130564,-133965l0 -171751 -893139 0 0 171751c0,75572 -58422,133965 -133994,133965 -72170,0 -130507,-58393 -130507,-133965l0 -171751 -92806 0 0 -522170 1607725 0zm-1514919 340413l278901 0 0 81779 -278901 0 0 -81779zm1143269 0l278900 0 0 81779 -278900 0 0 -81779zm223937 -1522148c82431,0 147713,65282 147713,144284l0 951561 -1607697 0 0 -951561c0,-79002 65254,-144284 147713,-144284l1312271 0z"/>
  <path fill="#5A5A6E" d="M19504366 26396464l136375 0c74098,0 115597,41499 133370,88923l94847 248967c38551,2976 106725,47452 106725,133398l0 317168 -94848 0 0 100772c0,124498 -174897,121521 -174897,0l0 -100772 -317168 0 0 0 0 0 0 0 -317169 0 0 100772c0,121521 -174869,124498 -174869,0l0 -100772 -94847 0 0 -317168c0,-85946 68173,-130422 106696,-133398l94847 -248967c17802,-47424 59301,-88923 133398,-88923l136347 0 231193 0zm-115596 334942l0 0 -382366 0 74098 -195647c8901,-29622 23726,-47424 53348,-47424l254920 0 0 0 0 0 254919 0c29650,0 44476,17802 53348,47424l74126 195647 -382393 0 0 0zm-403115 260844c-44447,0 -80022,-35575 -80022,-82999 0,-44475 35575,-82998 80022,-82998 47423,0 82998,38523 82998,82998 0,47424 -35575,82999 -82998,82999zm806258 0c44447,0 80022,-35575 80022,-82999 0,-44475 -35575,-82998 -80022,-82998 -47452,0 -82999,38523 -82999,82998 0,47424 35547,82999 82999,82999z"/>
  <line fill="none" stroke="#5A5A6E" stroke-width="50003.1" x1="500003" y1="27589736" x2="2999961" y2= "27589736" />
  <line fill="none" stroke="#5A5A6E" stroke-width="50003.1" x1="3999967" y1="27589736" x2="5664328" y2= "27589736" />
  <polygon fill="#999999" stroke="#5A5A6E" stroke-width="70866.1" points="10000002,31295722 6518917,31295722 5609336,27383487 6469963,27383487 7079638,30170736 10000002,30170736 "/>
  <g id="_340711032">
   <path fill="#0096DC" fill-opacity="0.168627" d="M3389725 11213088c54453,-294066 626343,-1171984 931379,-1181565 275584,-8674 1107127,621751 840273,872249 160158,-195109 1018545,459467 926561,1072913 518484,-276152 1083372,943369 869527,901955 326721,-38098 1132695,549638 773291,892743l-3608021 16980c-497877,2324 -2699743,125603 -2639847,5811 -355266,48302 -1069200,-68656 -128098,-289956 -83565,-63270 94365,-601002 721162,-551820 -250526,-163361 -73021,-972028 520412,-698882 -825760,-823096 796507,-1678478 793361,-1040428z"/>
   <path fill="#0096DC" fill-opacity="0.168627" d="M6561408 14276715c261383,304951 1143609,740608 631701,1051030 -648028,364847 -577247,-620816 -631701,-1051030z"/>
   <path fill="#0096DC" fill-opacity="0.501961" d="M6615862 14374737c49011,92580 936651,658942 642585,827745 -228699,174274 32684,-201487 -642585,-827745z"/>
   <path fill="#0096DC" fill-opacity="0.168627" d="M6174763 15295061c261382,304951 1143609,740608 626258,1051030 -642586,364847 -571805,-620816 -626258,-1051030z"/>
   <path fill="#0096DC" fill-opacity="0.501961" d="M6223774 15393083c54453,92580 942094,664384 648028,827745 -228699,174274 32683,-201487 -648028,-827745z"/>
   <path fill="#0096DC" fill-opacity="0.168627" d="M4404924 15512875c255940,310422 1143581,746079 626230,1051030 -648028,364875 -577219,-620816 -626230,-1051030z"/>
   <path fill="#0096DC" fill-opacity="0.501961" d="M4453935 15610897c49011,98051 942094,664384 648028,833216 -234170,168803 27213,-201487 -648028,-833216z"/>
   <path fill="#FFF300" d="M4998499 14004419c0,0 697039,991134 740607,1192620 38126,201487 -217814,245055 -283181,375761 -65338,108907 457455,718837 664384,1034673 -337634,-277738 -953007,-871313 -985662,-1023788 -32684,-141591 255940,-337635 337634,-413887 87109,-65338 -353990,-985662 -473782,-1165379z"/>
   <path fill="#FFFF7F" d="M5221755 14385622c185159,294066 582690,751521 484668,893112 -92580,147033 -245055,234141 -266825,255940 -87137,130705 430214,778733 484667,838629 59896,65367 -631700,-707924 -626258,-811417 10885,-136119 348520,-119792 304951,-332163 -43568,-217843 -136148,-435657 -381203,-844101z"/>
   <path fill="#FFF300" d="M2613287 13792048c0,0 697039,991105 740608,1192620 43568,206929 -217843,245055 -283181,375732 -65339,108935 462897,718837 664384,1034702 -332192,-272296 -953008,-871313 -985691,-1018346 -27213,-141591 255968,-337635 337634,-413887 87137,-70781 -348519,-991105 -473754,-1170821z"/>
   <path fill="#FFFF7F" d="M2836544 14173251c185159,294066 582689,751492 484667,898525 -92579,141591 -245055,234170 -266825,250526 -87137,136120 430214,778734 484668,844072 59896,59896 -631701,-707952 -626258,-816859 10885,-136148 353962,-119792 310393,-332192 -43568,-217814 -141590,-430214 -386645,-844072z"/>
  </g>
  <line fill="none" stroke="#5A5A6E" stroke-width="50003.1" x1="23850046" y1="27377931" x2="23850046" y2= "26732823" />
  <line fill="none" stroke="#5A5A6E" stroke-width="50003.1" x1="23117064" y1="27377931" x2="23117064" y2= "26793031" />
  <rect fill="none" stroke="#5A5A6E" stroke-width="50003.1" x="22997385" y="26819138" width="72794" height="184932"/>
  <polygon fill="#999999" stroke="#5A5A6E" stroke-width="70866.1" points="1179836,29321137 5348577,29321137 5348577,29958648 1179836,29958648 "/>
  <g id="_340709496">
   <polygon fill="#5A5A6E" points="25928606,31851992 26303601,31351990 26678625,30851987 25928606,30851987 25178587,30851987 25553611,31351990 "/>
   <line fill="none" stroke="#5A5A6E" stroke-width="50003.1" x1="25428603" y1="32351995" x2="26428609" y2= "32351995" />
   <line fill="none" stroke="#5A5A6E" stroke-width="50003.1" x1="25678619" y1="33352001" x2="26178593" y2= "33352001" />
   <line fill="none" stroke="#5A5A6E" stroke-width="50003.1" x1="25553611" y1="32851998" x2="26303601" y2= "32851998" />
  </g>
  <g id="_340708896">
   <polygon fill="#5A5A6E" points="15586888,31851992 15961883,31351990 16336906,30851987 15586888,30851987 14836869,30851987 15211893,31351990 "/>
   <line fill="none" stroke="#5A5A6E" stroke-width="50003.1" x1="15086885" y1="32351995" x2="16086891" y2= "32351995" />
   <line fill="none" stroke="#5A5A6E" stroke-width="50003.1" x1="15336900" y1="33352001" x2="15836875" y2= "33352001" />
   <line fill="none" stroke="#5A5A6E" stroke-width="50003.1" x1="15211893" y1="32851998" x2="15961883" y2= "32851998" />
  </g>
  <line fill="none" fill-opacity="0.501961" stroke="#0096DC" stroke-width="50003.1" stroke-opacity="0.501961" x1="500003" y1="31851992" x2="9999945" y2= "31851992" />
  <g id="_340707552">
   <polygon fill="#5A5A6E" points="4926725,31851992 5301721,31351990 5676744,30851987 4926725,30851987 4176707,30851987 4551730,31351990 "/>
   <line fill="none" stroke="#5A5A6E" stroke-width="50003.1" x1="4426722" y1="32351995" x2="5426728" y2= "32351995" />
   <line fill="none" stroke="#5A5A6E" stroke-width="50003.1" x1="4676738" y1="33352001" x2="5176713" y2= "33352001" />
   <line fill="none" stroke="#5A5A6E" stroke-width="50003.1" x1="4551730" y1="32851998" x2="5301721" y2= "32851998" />
  </g>
  <g id="_340706736">
   <polygon fill="#5A5A6E" points="8300888,27877934 8675883,27377931 9050906,26877928 8300888,26877928 7550869,26877928 7925893,27377931 "/>
   <line fill="none" stroke="#5A5A6E" stroke-width="50003.1" x1="7800885" y1="28377937" x2="8800891" y2= "28377937" />
   <line fill="none" stroke="#5A5A6E" stroke-width="50003.1" x1="8050900" y1="29377943" x2="8550875" y2= "29377943" />
   <line fill="none" stroke="#5A5A6E" stroke-width="50003.1" x1="7925893" y1="28877940" x2="8675883" y2= "28877940" />
  </g>
  <line fill="none" stroke="#5A5A6E" stroke-width="50003.1" x1="18249979" y1="36577912" x2="22749978" y2= "36577912" />
  <line fill="none" stroke="#5A5A6E" stroke-width="50003.1" x1="24000027" y1="36577912" x2="28500025" y2= "36577912" />
  <path fill="#5A5A6E" fill-rule="nonzero" d="M4326149 25174817l332022 -445804 -292422 -413376 135411 0 156586 219798c32627,45581 55219,80391 68202,104598 19417,-30018 42207,-62022 68400,-95811l171609 -228585 124611 0 -298403 408387 321193 450793 -139606 0 -216793 -306396c-12388,-17405 -24208,-34810 -35207,-51988 -19190,28800 -32797,48983 -41187,60378l-217814 298006 -136602 0z"/>
  <polygon id="1" fill="#5A5A6E" fill-rule="nonzero" points="5261950,25174817 5261950,24315637 5841550,24315637 5841550,24416437 5375960,24416437 5375960,24684027 5779160,24684027 5779160,24784827 5375960,24784827 5375960,25174817 "/>
  <path id="2" fill="#5A5A6E" fill-rule="nonzero" d="M5968145 24946827l105591 -14400c12217,59981 32598,103181 61597,129600 28998,26390 64601,39600 106809,39600 50003,0 92211,-17206 126199,-51619 33987,-34384 50995,-76989 50995,-127786 0,-48415 -15789,-88412 -47594,-119990 -31606,-31408 -71801,-47197 -120812,-47197 -19985,0 -44788,3997 -74580,11792l11792 -92409c7002,793 12813,1190 17008,1190 45184,0 85606,-11792 121805,-35178 36000,-23414 54000,-59414 54000,-108000 0,-38608 -13210,-70611 -39402,-96009 -26220,-25399 -60009,-37984 -101423,-37984 -41188,0 -75374,12982 -102785,38976 -27411,26022 -45014,64998 -52809,117014l-105591 -19190c13011,-70810 42208,-125802 87988,-164807 45609,-39004 102614,-58393 170617,-58393 46800,0 90000,9978 129402,30189 39600,20012 69789,47395 90595,82006 21005,34781 31408,71603 31408,110579 0,37021 -10007,70611 -29821,100999 -19984,30416 -49606,54623 -88582,72623 50796,11594 90198,36000 118403,72992 27978,36794 41981,83197 41981,138586 0,75005 -27383,138813 -82007,190999 -54793,52214 -123987,78207 -207581,78207 -75401,0 -137990,-22592 -187795,-67606 -50003,-44986 -78406,-103181 -85408,-174784z"/>
  <path id="3" fill="#5A5A6E" fill-rule="nonzero" d="M6691944 25174817l0 -119990 119990 0 0 119990c0,44193 -7795,79994 -23613,107207 -15590,27184 -40592,48387 -74777,63184l-28800 -45581c22393,-9808 38777,-24208 49181,-43002 10601,-19020 16611,-46204 17801,-81808l-59782 0z"/>
  <path id="4" fill="#7FCBEE" fill-rule="nonzero" d="M4326149 26515406l332022 -445805 -292422 -413376 135411 0 156586 219798c32627,45581 55219,80391 68202,104599 19417,-30019 42207,-62022 68400,-95811l171609 -228586 124611 0 -298403 408387 321193 450794 -139606 0 -216793 -306397c-12388,-17405 -24208,-34809 -35207,-51987 -19190,28800 -32797,48982 -41187,60378l-217814 298006 -136602 0z"/>
  <path id="5" fill="#7FCBEE" fill-rule="nonzero" d="M5867941 26213998l114009 28800c-23783,93402 -66586,164409 -128409,213420 -61795,48983 -137395,73588 -226772,73588 -92409,0 -167612,-18794 -225609,-56608 -57997,-37587 -101991,-92183 -132208,-163587 -30189,-71604 -45383,-148196 -45383,-230202 0,-89405 16980,-167386 51194,-234000 34186,-66586 82800,-117184 145786,-151795 63014,-34611 132406,-51789 208006,-51789 86003,0 158202,21798 216595,65594 58592,43795 99411,105193 122400,184393l-111600 26391c-19786,-62391 -48784,-108000 -86598,-136403 -37786,-28602 -85408,-42775 -142810,-42775 -65792,0 -120982,15789 -165174,47395 -44221,31578 -75402,74183 -93203,127389 -18000,53405 -27015,108397 -27015,165005 0,72992 10602,136800 31805,191197 21203,54595 54199,95187 99014,122201 44788,26986 93175,40394 145389,40394 63610,0 117184,-18397 161206,-54992 43994,-36794 73786,-91219 89377,-163616z"/>
  <path id="6" fill="#7FCBEE" fill-rule="nonzero" d="M6438952 26515406l0 -205200 -373210 0 0 -97200 392400 -556781 86400 0 0 556781 116391 0 0 97200 -116391 0 0 205200 -105590 0zm0 -302400l0 -386589 -269405 386589 269405 0z"/>
  <g id="_340700880">
   <ellipse fill="#999999" stroke="#5A5A6E" stroke-width="50003.1" transform="matrix(0.438472 -0.274182 0.297527 0.404068 1.23122E+007 3.69707E+007)" rx="1649990" ry="599981"/>
   <ellipse fill="#999999" stroke="#5A5A6E" stroke-width="50003.1" cx="15441835" cy="37268251" rx="953796" ry="311289"/>
   <ellipse fill="#999999" stroke="#5A5A6E" stroke-width="50003.1" cx="14415963" cy="37739787" rx="653200" ry="274664"/>
   <ellipse fill="#999999" stroke="#5A5A6E" stroke-width="50003.1" cx="13387073" cy="36823207" rx="370990" ry="314528"/>
   <ellipse fill="#999999" stroke="#5A5A6E" stroke-width="50003.1" cx="14759106" cy="36651604" rx="598933" ry="335549"/>
   <ellipse fill="#999999" stroke="#5A5A6E" stroke-width="50003.1" transform="matrix(0.32099 -0.0879837 -0 0.48831 1.38869E+007 3.72706E+007)" rx="1949980" ry="562478"/>
   <ellipse fill="#999999" stroke="#5A5A6E" stroke-width="50003.1" cx="15954482" cy="37994228" rx="496770" ry="421166"/>
   <ellipse fill="#999999" stroke="#5A5A6E" stroke-width="50003.1" transform="matrix(0.0310523 -0.286027 0.296083 0.0847942 1.39679E+007 3.64533E+007)" rx="1796739" ry="719178"/>
   <ellipse fill="#999999" stroke="#5A5A6E" stroke-width="50003.1" transform="matrix(0.31821 0.179252 -0.232715 0.588377 1.58549E+007 3.64502E+007)" rx="1796739" ry="719178"/>
   <ellipse fill="#999999" stroke="#5A5A6E" stroke-width="50003.1" cx="14708957" cy="36112428" rx="527161" ry="176967"/>
   <ellipse fill="#999999" stroke="#5A5A6E" stroke-width="50003.1" transform="matrix(0.811975 0.149132 -0 0.364672 1.30475E+007 3.78242E+007)" rx="937502" ry="862497"/>
   <ellipse fill="#999999" stroke="#5A5A6E" stroke-width="50003.1" cx="15388860" cy="38304189" rx="117468" ry="144551"/>
   <ellipse fill="#999999" stroke="#5A5A6E" stroke-width="50003.1" cx="12017979" cy="36291950" rx="474784" ry="371490"/>
   <ellipse fill="#999999" stroke="#5A5A6E" stroke-width="50003.1" cx="11924368" cy="37957373" rx="370990" ry="447672"/>
   <ellipse fill="#999999" stroke="#5A5A6E" stroke-width="50003.1" cx="12923952" cy="37234360" rx="247396" ry="209744"/>
   <ellipse fill="#999999" stroke="#5A5A6E" stroke-width="50003.1" transform="matrix(0.14153 -0.0491576 -0.0317162 0.154795 1.23824E+007 3.74162E+007)" rx="1949980" ry="562478"/>
   <ellipse fill="#999999" stroke="#5A5A6E" stroke-width="50003.1" transform="matrix(0.655674 0.118778 -0 0.290447 1.31189E+007 3.62057E+007)" rx="937502" ry="862497"/>
   <ellipse fill="#999999" stroke="#5A5A6E" stroke-width="50003.1" cx="11736874" cy="36782034" rx="199503" ry="140858"/>
   <ellipse fill="#999999" stroke="#5A5A6E" stroke-width="50003.1" transform="matrix(0.10598 -0.208471 0.368418 -0.0224524 1.51686E+007 3.80189E+007)" rx="1949980" ry="562478"/>
   <ellipse fill="#999999" stroke="#5A5A6E" stroke-width="50003.1" transform="matrix(0.602488 0.0873418 -0 0.213576 1.42972E+007 3.82332E+007)" rx="937502" ry="862497"/>
   <ellipse fill="#999999" stroke="#5A5A6E" stroke-width="50003.1" cx="16357769" cy="36080006" rx="86967" ry="145393"/>
   <ellipse fill="#999999" stroke="#5A5A6E" stroke-width="50003.1" transform="matrix(0.17179 -0.0172855 -0.0384974 0.178395 1.34096E+007 3.83122E+007)" rx="1949980" ry="562478"/>
   <ellipse fill="#999999" stroke="#5A5A6E" stroke-width="50003.1" cx="12649053" cy="38274731" rx="409005" ry="152340"/>
  </g>
  <path fill="#B3B3B3" stroke="#5A5A6E" stroke-width="70866.1" d="M10000002 10877920l1500009 0 0 999921 4999972 0 0 -999921 1500009 0 -28 16500011 6000035 0 28 10999980 -1250049 0 0 -8999968 -4499999 0 0 8999968 -1749996 0 0 -2499901 -4999972 0 0 2499901 -1500009 0 0 -14500000 -6000035 0 0 4374508 843732 0 0 1068718 -2979495 0 0 -1068718 1135785 0 -28 -5874517 7000041 0 0 -11499982zm1500009 16500040l4999972 0 0 6999984 -4999972 0 0 -6999984zm0 -3500049l4999972 0 0 3000017 -4999972 0 0 -3000017zm0 -3500021l4999972 0 0 3000018 -4999972 0 0 -3000018zm0 -3500020l4999972 0 0 3000017 -4999972 0 0 -3000017zm0 -3500021l4999972 0 0 3000018 -4999972 0 0 -3000018z"/>
  <path fill="#5A5A6E" fill-rule="nonzero" d="M12414184 15707473l332021 -445804 -292421 -413376 135411 0 156585 219798c32627,45581 55219,80391 68202,104598 19417,-30018 42208,-62022 68400,-95811l171609 -228585 124611 0 -298403 408387 321194 450793 -139607 0 -216793 -306396c-12388,-17405 -24208,-34810 -35206,-51988 -19191,28800 -32797,48983 -41188,60378l-217814 298006 -136601 0z"/>
  <path id="1" fill="#5A5A6E" fill-rule="nonzero" d="M13955975 15406066l114009 28800c-23782,93401 -66585,164409 -128409,213420 -61795,48983 -137395,73587 -226772,73587 -92409,0 -167612,-18793 -225609,-56607 -57997,-37588 -101990,-92183 -132208,-163588 -30189,-71603 -45382,-148195 -45382,-230201 0,-89405 16979,-167386 51193,-234000 34186,-66586 82800,-117184 145786,-151795 63014,-34611 132406,-51789 208006,-51789 86003,0 158202,21798 216595,65593 58593,43796 99411,105194 122400,184394l-111600 26391c-19785,-62391 -48784,-108000 -86598,-136403 -37786,-28602 -85408,-42775 -142809,-42775 -65792,0 -120983,15789 -165175,47395 -44220,31578 -75402,74183 -93203,127389 -18000,53405 -27014,108397 -27014,165005 0,72992 10601,136799 31804,191196 21204,54596 54199,95188 99015,122202 44787,26986 93174,40394 145388,40394 63610,0 117185,-18397 161207,-54993 43993,-36793 73785,-91218 89376,-163615z"/>
  <path id="2" fill="#5A5A6E" fill-rule="nonzero" d="M14585776 15707473l-105590 0 0 -672406c-25399,24407 -58819,48615 -100006,72822 -41216,24180 -78407,42378 -111204,54397l0 -102019c58989,-27581 110608,-61200 154800,-100799 44193,-39402 75600,-77585 93997,-114775l68003 0 0 862780z"/>
  <path fill="#5A5A6E" fill-rule="nonzero" d="M6514126 19037302l332022 -445805 -292422 -413376 135411 0 156586 219799c32627,45581 55219,80390 68202,104598 19417,-30019 42207,-62022 68400,-95811l171609 -228586 124611 0 -298403 408387 321193 450794 -139606 0 -216793 -306397c-12388,-17404 -24208,-34809 -35207,-51987 -19190,28800 -32797,48983 -41187,60378l-217814 298006 -136602 0z"/>
  <path id="1" fill="#5A5A6E" fill-rule="nonzero" d="M8055918 18735894l114009 28800c-23783,93402 -66586,164410 -128409,213421 -61795,48982 -137395,73587 -226772,73587 -92409,0 -167612,-18794 -225609,-56608 -57997,-37587 -101991,-92183 -132208,-163587 -30189,-71603 -45383,-148195 -45383,-230202 0,-89404 16980,-167385 51194,-234000 34186,-66585 82800,-117184 145786,-151795 63014,-34611 132406,-51789 208006,-51789 86003,0 158202,21799 216595,65594 58592,43795 99411,105194 122400,184394l-111600 26390c-19786,-62390 -48784,-108000 -86598,-136403 -37786,-28602 -85408,-42775 -142810,-42775 -65792,0 -120982,15789 -165174,47395 -44221,31578 -75402,74183 -93203,127389 -18000,53405 -27015,108397 -27015,165005 0,72992 10602,136800 31805,191197 21203,54595 54199,95187 99014,122201 44788,26986 93175,40394 145389,40394 63610,0 117184,-18397 161206,-54992 43994,-36794 73786,-91219 89377,-163616z"/>
  <path id="2" fill="#5A5A6E" fill-rule="nonzero" d="M8626929 19037302l0 -205200 -373210 0 0 -97200 392400 -556781 86400 0 0 556781 116391 0 0 97200 -116391 0 0 205200 -105590 0zm0 -302400l0 -386589 -269405 386589 269405 0z"/>
  <path id="3" fill="#5A5A6E" fill-rule="nonzero" d="M9013517 19037302l0 -119991 119991 0 0 119991c0,44192 -7795,79994 -23613,107206 -15590,27184 -40592,48388 -74778,63184l-28800 -45581c22394,-9808 38778,-24208 49181,-43001 10602,-19021 16611,-46205 17802,-81808l-59783 0z"/>
  <path id="4" fill="#5A5A6E" fill-rule="nonzero" d="M6514126 20377890l332022 -445804 -292422 -413376 135411 0 156586 219798c32627,45581 55219,80390 68202,104598 19417,-30019 42207,-62022 68400,-95811l171609 -228585 124611 0 -298403 408387 321193 450793 -139606 0 -216793 -306396c-12388,-17405 -24208,-34810 -35207,-51988 -19190,28800 -32797,48983 -41187,60378l-217814 298006 -136602 0z"/>
  <polygon id="5" fill="#5A5A6E" fill-rule="nonzero" points="7449927,20377890 7449927,19518710 8029527,19518710 8029527,19619510 7563937,19619510 7563937,19887100 7967137,19887100 7967137,19987900 7563937,19987900 7563937,20377890 "/>
  <path id="6" fill="#5A5A6E" fill-rule="nonzero" d="M8552122 20377890l-105590 0 0 -672406c-25399,24407 -58819,48615 -100006,72822 -41216,24180 -78407,42378 -111204,54397l0 -102019c58989,-27581 110608,-61200 154800,-100800 44192,-39401 75600,-77584 93997,-114774l68003 0 0 862780z"/>
  <path fill="#5A5A6E" fill-rule="nonzero" d="M12414184 28870400l332021 -445804 -292421 -413377 135411 0 156585 219799c32627,45581 55219,80390 68202,104598 19417,-30019 42208,-62022 68400,-95811l171609 -228586 124611 0 -298403 408388 321194 450793 -139607 0 -216793 -306397c-12388,-17404 -24208,-34809 -35206,-51987 -19191,28800 -32797,48983 -41188,60378l-217814 298006 -136601 0z"/>
  <path id="1" fill="#5A5A6E" fill-rule="nonzero" d="M13955975 28568992l114009 28800c-23782,93402 -66585,164410 -128409,213421 -61795,48982 -137395,73587 -226772,73587 -92409,0 -167612,-18794 -225609,-56608 -57997,-37587 -101990,-92182 -132208,-163587 -30189,-71603 -45382,-148195 -45382,-230202 0,-89404 16979,-167385 51193,-234000 34186,-66585 82800,-117184 145786,-151795 63014,-34611 132406,-51789 208006,-51789 86003,0 158202,21799 216595,65594 58593,43795 99411,105194 122400,184394l-111600 26390c-19785,-62390 -48784,-108000 -86598,-136403 -37786,-28601 -85408,-42775 -142809,-42775 -65792,0 -120983,15789 -165175,47396 -44220,31577 -75402,74182 -93203,127388 -18000,53405 -27014,108397 -27014,165005 0,72992 10601,136800 31804,191197 21204,54595 54199,95187 99015,122201 44787,26986 93174,40394 145388,40394 63610,0 117185,-18397 161207,-54992 43993,-36794 73785,-91219 89376,-163616z"/>
  <path id="2" fill="#5A5A6E" fill-rule="nonzero" d="M14189777 28642410l105590 -14400c12217,59981 32598,103181 61597,129600 28998,26390 64601,39600 106809,39600 50003,0 92211,-17207 126199,-51619 33987,-34385 50995,-76989 50995,-127786 0,-48416 -15789,-88413 -47594,-119991 -31606,-31407 -71801,-47196 -120812,-47196 -19985,0 -44788,3996 -74580,11792l11792 -92410c7002,794 12813,1191 17008,1191 45184,0 85606,-11792 121805,-35178 36000,-23414 54000,-59414 54000,-108000 0,-38608 -13210,-70611 -39402,-96009 -26220,-25399 -60009,-37985 -101423,-37985 -41188,0 -75374,12983 -102785,38977 -27411,26022 -45014,64998 -52809,117014l-105590 -19191c13011,-70809 42207,-125801 87987,-164806 45609,-39005 102614,-58394 170617,-58394 46800,0 90000,9978 129402,30189 39600,20013 69789,47396 90595,82007 21005,34781 31408,71603 31408,110579 0,37020 -10007,70611 -29821,100998 -19984,30416 -49606,54624 -88582,72624 50796,11594 90198,36000 118403,72992 27978,36794 41981,83197 41981,138586 0,75005 -27383,138812 -82006,190998 -54794,52214 -123988,78208 -207581,78208 -75402,0 -137991,-22592 -187796,-67606 -50003,-44986 -78406,-103181 -85407,-174784z"/>
  <path fill="#5A5A6E" fill-rule="nonzero" d="M12414184 33207519l332021 -445804 -292421 -413376 135411 0 156585 219798c32627,45581 55219,80391 68202,104598 19417,-30018 42208,-62022 68400,-95811l171609 -228585 124611 0 -298403 408387 321194 450793 -139607 0 -216793 -306396c-12388,-17405 -24208,-34810 -35206,-51988 -19191,28800 -32797,48983 -41188,60378l-217814 298006 -136601 0z"/>
  <path id="1" fill="#5A5A6E" fill-rule="nonzero" d="M13344004 33207519l0 -859180 295993 0c66784,0 117780,3997 152986,12189 49209,11395 91219,32003 126000,61596 45411,38410 79200,87194 101594,146807 22620,59584 33817,127786 33817,204406 0,65197 -7597,122995 -22819,173395 -15194,50400 -34781,92183 -58592,125178 -23981,33024 -50003,59017 -78406,77811 -28177,18992 -62391,33392 -102388,43200 -40195,9808 -86201,14598 -138189,14598l-309996 0zm113981 -100800l183203 0c56608,0 100998,-5187 133200,-15788 32201,-10602 57798,-25399 76989,-44618 26815,-26986 47820,-63382 62815,-108992 14996,-45609 22592,-100800 22592,-165798 0,-90000 -14796,-159194 -44192,-207610 -29395,-48387 -65196,-80787 -107404,-97200 -30388,-11792 -79399,-17574 -147005,-17574l-180198 0 0 657580z"/>
  <path id="2" fill="#5A5A6E" fill-rule="nonzero" d="M14742957 33106719l0 100800 -568771 0c-822,-25398 3402,-49804 12387,-73389 14599,-38607 38013,-76818 70215,-114207 32201,-37389 78179,-80589 137990,-129600 93005,-76592 156189,-137197 189184,-182013 33222,-44787 49805,-87193 49805,-127190 0,-41783 -14995,-76989 -44986,-105789 -30019,-28602 -69194,-43002 -117411,-43002 -50995,0 -91786,15194 -122400,45610 -30586,30189 -46006,72198 -46403,126000l-108000 -10800c7398,-80816 35405,-142413 83820,-184819 48586,-42407 113585,-63581 195393,-63581 82403,0 147798,22790 195788,68598 48218,45780 72199,102586 72199,170192 0,34384 -7002,68202 -21203,101395 -14003,33392 -37389,68400 -69988,105194 -32797,36595 -86995,87194 -162595,151200 -63411,53206 -104201,89206 -122201,108198 -18000,18992 -32797,38013 -44618,57203l421795 0z"/>
  <path fill="#5A5A6E" fill-rule="nonzero" d="M6514126 34157409l332022 -445805 -292422 -413376 135411 0 156586 219798c32627,45581 55219,80391 68202,104599 19417,-30019 42207,-62022 68400,-95811l171609 -228586 124611 0 -298403 408387 321193 450794 -139606 0 -216793 -306397c-12388,-17405 -24208,-34809 -35207,-51987 -19190,28800 -32797,48982 -41187,60378l-217814 298006 -136602 0z"/>
  <path id="1" fill="#5A5A6E" fill-rule="nonzero" d="M8055918 33856001l114009 28800c-23783,93402 -66586,164409 -128409,213420 -61795,48983 -137395,73588 -226772,73588 -92409,0 -167612,-18794 -225609,-56608 -57997,-37587 -101991,-92183 -132208,-163587 -30189,-71604 -45383,-148196 -45383,-230202 0,-89405 16980,-167386 51194,-234000 34186,-66586 82800,-117184 145786,-151795 63014,-34611 132406,-51789 208006,-51789 86003,0 158202,21798 216595,65594 58592,43795 99411,105193 122400,184393l-111600 26391c-19786,-62391 -48784,-108000 -86598,-136403 -37786,-28602 -85408,-42775 -142810,-42775 -65792,0 -120982,15789 -165174,47395 -44221,31578 -75402,74183 -93203,127389 -18000,53405 -27015,108397 -27015,165005 0,72992 10602,136800 31805,191197 21203,54595 54199,95187 99014,122201 44788,26986 93175,40394 145389,40394 63610,0 117184,-18397 161206,-54992 43994,-36794 73786,-91219 89377,-163616z"/>
  <path id="2" fill="#5A5A6E" fill-rule="nonzero" d="M8842900 34056609l0 100800 -568771 0c-822,-25399 3401,-49805 12387,-73389 14599,-38608 38013,-76819 70214,-114208 32202,-37389 78180,-80589 137991,-129600 93004,-76592 156189,-137197 189184,-182012 33222,-44788 49805,-87194 49805,-127191 0,-41783 -14996,-76989 -44986,-105789 -30019,-28601 -69194,-43001 -117411,-43001 -50995,0 -91786,15193 -122400,45609 -30586,30189 -46006,72198 -46403,126000l-108000 -10800c7398,-80816 35404,-142413 83820,-184819 48586,-42406 113584,-63581 195392,-63581 82403,0 147799,22791 195789,68598 48217,45780 72199,102586 72199,170193 0,34384 -7002,68201 -21204,101395 -14003,33392 -37389,68400 -69987,105193 -32797,36596 -86995,87194 -162595,151200 -63411,53207 -104202,89207 -122202,108199 -18000,18992 -32797,38012 -44617,57203l421795 0z"/>
  <path fill="#5A5A6E" fill-rule="nonzero" d="M1136749 31479463l332022 -445804 -292422 -413376 135411 0 156586 219798c32627,45581 55219,80391 68201,104598 19418,-30018 42208,-62022 68400,-95811l171610 -228585 124611 0 -298403 408387 321193 450793 -139606 0 -216794 -306396c-12387,-17405 -24207,-34810 -35206,-51988 -19190,28800 -32797,48983 -41187,60378l-217814 298006 -136602 0z"/>
  <path id="1" fill="#5A5A6E" fill-rule="nonzero" d="M1982352 31055457c0,-101395 10403,-183401 31209,-245395 20977,-62192 51988,-109984 93203,-143404 40989,-33393 92778,-49975 155197,-49975 45978,0 86400,9184 121380,27779 34809,18596 63609,45411 86003,80419 22394,34781 39997,77386 52809,127587 12983,50202 19389,118007 19389,202989 0,100800 -10403,182410 -30982,244403 -20608,62193 -51619,110013 -92807,143604 -41017,33590 -93004,50399 -155792,50399 -82601,0 -147600,-29395 -194797,-88412 -56607,-72000 -84812,-188589 -84812,-349994zm108000 397c0,141421 16412,235417 49408,281821 32995,46601 73785,69789 122201,69789 48388,0 89178,-23386 122173,-69988 33024,-46800 49408,-140598 49408,-281622 0,-141392 -16384,-235389 -49408,-281792 -32796,-46601 -73984,-69789 -123392,-69789 -48387,0 -87193,20608 -116192,61597 -36198,52186 -54198,148989 -54198,289984z"/>
  <path fill="#5A5A6E" fill-rule="nonzero" d="M19812521 7464894l332021 -445804 -292421 -413376 135410 0 156586 219798c32627,45581 55219,80391 68202,104598 19417,-30019 42208,-62022 68400,-95811l171609 -228585 124611 0 -298403 408387 321194 450793 -139607 0 -216793 -306396c-12388,-17405 -24208,-34810 -35206,-51988 -19191,28800 -32797,48983 -41188,60378l-217814 298006 -136601 0z"/>
  <polygon id="1" fill="#5A5A6E" fill-rule="nonzero" points="20748322,7464894 20748322,6605714 21327921,6605714 21327921,6706514 20862331,6706514 20862331,6974104 21265531,6974104 21265531,7074904 20862331,7074904 20862331,7464894 "/>
  <path id="2" fill="#5A5A6E" fill-rule="nonzero" d="M22007698 7364094l0 100800 -568772 0c-822,-25398 3402,-49804 12388,-73389 14598,-38607 38012,-76818 70214,-114207 32201,-37389 78179,-80589 137990,-129600 93005,-76592 156189,-137197 189184,-182013 33222,-44787 49805,-87194 49805,-127190 0,-41783 -14995,-76989 -44986,-105789 -30019,-28602 -69193,-43002 -117411,-43002 -50995,0 -91786,15194 -122400,45610 -30586,30189 -46006,72198 -46403,126000l-108000 -10800c7399,-80816 35405,-142413 83821,-184819 48585,-42407 113584,-63581 195392,-63581 82403,0 147798,22790 195789,68598 48217,45780 72198,102586 72198,170192 0,34384 -7002,68202 -21203,101395 -14003,33392 -37389,68400 -69988,105194 -32796,36595 -86995,87194 -162595,151200 -63411,53206 -104201,89206 -122201,108198 -18000,18992 -32797,38013 -44618,57203l421796 0z"/>
  <path id="3" fill="#5A5A6E" fill-rule="nonzero" d="M22178315 7464894l0 -119990 119990 0 0 119990c0,44193 -7795,79994 -23612,107207 -15591,27184 -40592,48387 -74778,63184l-28800 -45581c22393,-9808 38778,-24208 49181,-43002 10601,-19020 16611,-46204 17801,-81808l-59782 0z"/>
  <path id="4" fill="#5A5A6E" fill-rule="nonzero" d="M22311912 8805483l0 -119991 119990 0 0 119991c0,44192 -7795,79993 -23613,107206 -15590,27184 -40592,48387 -74777,63184l-28800 -45581c22393,-9808 38778,-24208 49181,-43001 10601,-19021 16611,-46205 17801,-81808l-59782 0z"/>
  <path id="5" fill="#7FCBEE" fill-rule="nonzero" d="M19812521 8805483l332021 -445805 -292421 -413376 135410 0 156586 219798c32627,45581 55219,80391 68202,104599 19417,-30019 42208,-62022 68400,-95811l171609 -228586 124611 0 -298403 408387 321194 450794 -139607 0 -216793 -306397c-12388,-17405 -24208,-34809 -35206,-51987 -19191,28800 -32797,48982 -41188,60378l-217814 298006 -136601 0z"/>
  <path id="6" fill="#7FCBEE" fill-rule="nonzero" d="M21354312 8504075l114009 28800c-23782,93402 -66585,164409 -128409,213420 -61795,48983 -137395,73588 -226772,73588 -92409,0 -167612,-18794 -225609,-56608 -57997,-37587 -101990,-92183 -132208,-163587 -30189,-71604 -45382,-148196 -45382,-230202 0,-89405 16979,-167386 51193,-234000 34186,-66586 82800,-117184 145786,-151795 63014,-34611 132406,-51789 208006,-51789 86003,0 158202,21798 216595,65594 58593,43795 99411,105193 122400,184393l-111600 26391c-19785,-62391 -48784,-108000 -86598,-136403 -37786,-28602 -85408,-42775 -142809,-42775 -65792,0 -120983,15789 -165175,47395 -44221,31578 -75402,74183 -93203,127389 -18000,53405 -27014,108397 -27014,165005 0,72992 10601,136800 31804,191197 21204,54595 54199,95187 99015,122201 44787,26986 93174,40394 145388,40394 63610,0 117185,-18397 161207,-54992 43993,-36794 73785,-91219 89376,-163616z"/>
  <path id="7" fill="#7FCBEE" fill-rule="nonzero" d="M21925323 8805483l0 -205200 -373210 0 0 -97200 392400 -556781 86400 0 0 556781 116391 0 0 97200 -116391 0 0 205200 -105590 0zm0 -302400l0 -386589 -269405 386589 269405 0z"/>
  <path id="8" fill="#7FCBEE" fill-rule="nonzero" d="M19812521 10146071l332021 -445804 -292421 -413377 135410 0 156586 219799c32627,45581 55219,80390 68202,104598 19417,-30019 42208,-62022 68400,-95811l171609 -228586 124611 0 -298403 408388 321194 450793 -139607 0 -216793 -306397c-12388,-17404 -24208,-34809 -35206,-51987 -19191,28800 -32797,48983 -41188,60378l-217814 298006 -136601 0z"/>
  <path id="9" fill="#7FCBEE" fill-rule="nonzero" d="M20705122 9870062l106809 -9581c4989,43200 16810,78604 35405,106384 18595,27609 47395,50003 86400,67209 39004,17008 82998,25597 131782,25597 43399,0 81610,-6406 114804,-19389 33193,-13011 57798,-30812 74012,-53404 16186,-22593 24378,-47197 24378,-73616 0,-26788 -7795,-50202 -23386,-70384 -15590,-20013 -41386,-36794 -77386,-50599 -23017,-8816 -74012,-22819 -153014,-41811 -79001,-18992 -134192,-36793 -165798,-53603 -40989,-21600 -71405,-48387 -91389,-80192 -20211,-31805 -30217,-67606 -30217,-107008 0,-43597 12415,-84189 37020,-121776 24577,-37814 60378,-66416 107773,-86003 47226,-19616 99808,-29396 157607,-29396 63609,0 119792,10177 168406,30785 48586,20409 86003,50598 112195,90595 26192,39798 40195,85011 42208,135411l-109219 8390c-5783,-54198 -25597,-95187 -59386,-122796 -33789,-27808 -83792,-41585 -149811,-41585 -68797,0 -118998,12586 -150378,37786 -31407,25200 -47196,55588 -47196,91191 0,30812 11196,56211 33392,76195 21997,19814 79001,40422 171382,61200 92410,21005 155821,39203 190205,54822 49805,22989 86797,51987 110608,87392 23811,35206 35603,75798 35603,121805 0,45779 -13011,88582 -39203,129004 -26192,40394 -63610,71774 -112592,94196 -49011,22393 -104003,33590 -165402,33590 -77612,0 -142611,-11395 -194995,-33987 -52611,-22621 -93600,-56608 -123420,-102217 -29991,-45383 -45582,-96804 -47197,-154205z"/>
  <path id="10" fill="#7FCBEE" fill-rule="nonzero" d="M21917924 10146071l-105590 0 0 -672406c-25399,24406 -58819,48614 -100006,72822 -41216,24180 -78407,42378 -111204,54397l0 -102019c58989,-27581 110608,-61200 154800,-100800 44193,-39401 75600,-77584 93997,-114775l68003 0 0 862781z"/>
  <path fill="#5A5A6E" fill-rule="nonzero" d="M19838798 19956350l332929 -445804 -293216 -413376 135780 0 157010 219798c32712,45581 55361,80391 68400,104598 19474,-30019 42322,-62022 68570,-95811l172092 -228585 124951 0 -299225 408387 322072 450793 -139975 0 -217389 -306396c-12415,-17405 -24292,-34810 -35319,-51988 -19247,28800 -32882,48983 -41301,60378l-218409 298006 -136970 0z"/>
  <path id="1" fill="#5A5A6E" fill-rule="nonzero" d="M20771169 19956350l0 -859180 296816 0c66982,0 118119,3997 153411,12189 49351,11395 91473,32003 126340,61596 45552,38410 79426,87194 101877,146807 22677,59584 33902,127785 33902,204406 0,65197 -7597,122995 -22876,173395 -15222,50400 -34866,92183 -58762,125178 -24037,33024 -50116,59017 -78604,77811 -28262,18992 -62561,33392 -102671,43200 -40309,9808 -86429,14598 -138586,14598l-310847 0zm114293 -100800l183713 0c56778,0 101282,-5187 133569,-15789 32286,-10601 57968,-25398 77215,-44617 26873,-26986 47934,-63382 62986,-108992 15024,-45609 22649,-100800 22649,-165798 0,-90000 -14854,-159194 -44306,-207610 -29480,-48387 -65395,-80787 -107716,-97200 -30473,-11792 -79625,-17574 -147402,-17574l-180708 0 0 657580z"/>
  <path id="2" fill="#5A5A6E" fill-rule="nonzero" d="M21619266 19728360l105903 -14400c12245,59981 32683,103181 61766,129600 29056,26390 64772,39600 107093,39600 50145,0 92466,-17206 126539,-51619 34072,-34384 51137,-76989 51137,-127786 0,-48416 -15818,-88412 -47736,-119990 -31691,-31408 -71971,-47197 -121124,-47197 -20041,0 -44929,3997 -74778,11792l11821 -92409c7001,793 12841,1190 17036,1190 45326,0 85861,-11792 122145,-35178 36113,-23414 54141,-59414 54141,-108000 0,-38608 -13237,-70611 -39486,-96009 -26306,-25399 -60180,-37984 -101707,-37984 -41301,0 -75600,12982 -103068,38976 -27496,26022 -45156,64998 -52951,117014l-105902 -19190c13067,-70810 42321,-125802 88242,-164807 45723,-39004 102898,-58393 171071,-58393 46942,0 90255,9978 129770,30189 39713,20012 69987,47395 90850,82006 21062,34781 31493,71603 31493,110579 0,37021 -10035,70611 -29905,100999 -20041,30415 -49748,54623 -88838,72623 50938,11594 90453,36000 118743,72992 28063,36794 42095,83197 42095,138586 0,75005 -27468,138813 -82233,190999 -54936,52214 -124328,78207 -208148,78207 -75600,0 -138388,-22592 -188306,-67606 -50145,-44986 -78633,-103181 -85663,-174784z"/>
  <path id="3" fill="#5A5A6E" fill-rule="nonzero" d="M22345077 19956350l0 -119990 120302 0 0 119990c0,44192 -7795,79994 -23669,107207 -15619,27184 -40706,48387 -74976,63184l-28885 -45581c22450,-9808 38891,-24208 49322,-43002 10630,-19020 16640,-46204 17859,-81808l-59953 0z"/>
  <path id="4" fill="#5A5A6E" fill-rule="nonzero" d="M22345077 21296939l0 -119991 120302 0 0 119991c0,44192 -7795,79993 -23669,107206 -15619,27184 -40706,48387 -74976,63184l-28885 -45581c22450,-9808 38891,-24208 49322,-43001 10630,-19021 16640,-46205 17859,-81808l-59953 0z"/>
  <path id="5" fill="#7FCBEE" fill-rule="nonzero" d="M19838798 21296939l332929 -445805 -293216 -413376 135780 0 157010 219798c32712,45581 55361,80391 68400,104599 19474,-30019 42322,-62022 68570,-95811l172092 -228586 124951 0 -299225 408387 322072 450794 -139975 0 -217389 -306397c-12415,-17405 -24292,-34809 -35319,-51987 -19247,28800 -32882,48982 -41301,60378l-218409 298006 -136970 0z"/>
  <path id="6" fill="#7FCBEE" fill-rule="nonzero" d="M21384841 20995531l114321 28800c-23839,93402 -66784,164409 -128778,213420 -61965,48983 -137763,73588 -227395,73588 -92664,0 -168066,-18794 -226233,-56608 -58138,-37587 -102245,-92183 -132548,-163587 -30274,-71604 -45524,-148196 -45524,-230202 0,-89405 17036,-167386 51335,-234000 34300,-66586 83027,-117184 146183,-151795 63184,-34611 132775,-51789 208601,-51789 86230,0 158627,21798 217191,65594 58734,43795 99666,105193 122712,184393l-111884 26391c-19842,-62391 -48926,-108000 -86853,-136403 -37871,-28602 -85635,-42775 -143207,-42775 -65962,0 -121294,15789 -165628,47395 -44334,31578 -75600,74183 -93458,127389 -18028,53405 -27071,108397 -27071,165005 0,72992 10630,136800 31890,191197 21260,54595 54340,95187 99269,122201 44929,26986 93430,40394 145786,40394 63808,0 117524,-18397 161660,-54992 44107,-36794 73984,-91219 89631,-163616z"/>
  <path id="7" fill="#7FCBEE" fill-rule="nonzero" d="M21957411 21296939l0 -205200 -374230 0 0 -97200 393477 -556781 86627 0 0 556781 116731 0 0 97200 -116731 0 0 205200 -105874 0zm0 -302400l0 -386589 -270142 386589 270142 0z"/>
  <path id="8" fill="#5A5A6E" fill-rule="nonzero" d="M22211112 22637527l0 -119990 120302 0 0 119990c0,44192 -7795,79994 -23669,107206 -15619,27185 -40706,48388 -74977,63185l-28885 -45581c22451,-9808 38892,-24208 49323,-43002 10630,-19020 16639,-46205 17858,-81808l-59952 0z"/>
  <path id="9" fill="#7FCBEE" fill-rule="nonzero" d="M19838798 22637527l332929 -445804 -293216 -413377 135780 0 157010 219799c32712,45581 55361,80390 68400,104598 19474,-30019 42322,-62022 68570,-95811l172092 -228586 124951 0 -299225 408388 322072 450793 -139975 0 -217389 -306397c-12415,-17404 -24292,-34809 -35319,-51987 -19247,28800 -32882,48983 -41301,60378l-218409 298006 -136970 0z"/>
  <polygon id="10" fill="#7FCBEE" fill-rule="nonzero" points="20777178,22637527 20777178,21778346 21358366,21778346 21358366,21879146 20891500,21879146 20891500,22146737 21295805,22146737 21295805,22247537 20891500,22247537 20891500,22637527 "/>
  <path id="11" fill="#7FCBEE" fill-rule="nonzero" d="M22040012 22536727l0 100800 -570330 0c-822,-25398 3402,-49805 12416,-73389 14627,-38608 38126,-76819 70412,-114208 32287,-37389 78378,-80589 138359,-129600 93260,-76592 156614,-137196 189723,-182012 33307,-44787 49918,-87194 49918,-127191 0,-41782 -15023,-76988 -45099,-105788 -30104,-28602 -69392,-43002 -117723,-43002 -51137,0 -92041,15194 -122740,45609 -30671,30189 -46148,72199 -46545,126000l-108283 -10800c7427,-80815 35490,-142412 84047,-184818 48728,-42407 113896,-63582 195931,-63582 82630,0 148195,22791 196327,68599 48359,45779 72397,102586 72397,170192 0,34384 -7030,68201 -21260,101395 -14060,33392 -37502,68400 -70186,105194 -32882,36595 -87222,87193 -163048,151200 -63582,53206 -104485,89206 -122542,108198 -18028,18992 -32882,38013 -44731,57203l422957 0z"/>
  <path id="12" fill="#7FCBEE" fill-rule="nonzero" d="M19838798 23978116l332929 -445805 -293216 -413376 135780 0 157010 219798c32712,45581 55361,80391 68400,104599 19474,-30019 42322,-62022 68570,-95811l172092 -228586 124951 0 -299225 408387 322072 450794 -139975 0 -217389 -306397c-12415,-17405 -24292,-34810 -35319,-51988 -19247,28800 -32882,48983 -41301,60378l-218409 298007 -136970 0z"/>
  <path id="13" fill="#7FCBEE" fill-rule="nonzero" d="M20733865 23702106l107093 -9581c5017,43200 16866,78605 35518,106384 18624,27610 47509,50003 86627,67210 39118,17008 83225,25597 132151,25597 43512,0 81836,-6407 115115,-19389 33278,-13011 57940,-30813 74211,-53405 16242,-22592 24434,-47197 24434,-73616 0,-26787 -7795,-50201 -23442,-70384 -15619,-20013 -41499,-36794 -77584,-50598 -23103,-8816 -74240,-22819 -153440,-41811 -79228,-18993 -134560,-36794 -166252,-53604 -41102,-21600 -71603,-48387 -91644,-80192 -20267,-31804 -30302,-67606 -30302,-107007 0,-43597 12444,-84189 37134,-121777 24633,-37814 60520,-66415 108057,-86003 47366,-19616 100091,-29395 158031,-29395 63779,0 120132,10176 168888,30784 48699,20410 86230,50598 112479,90595 26277,39799 40308,85011 42349,135411l-109530 8391c-5811,-54199 -25682,-95188 -59556,-122797 -33874,-27808 -84019,-41584 -150208,-41584 -68995,0 -119339,12586 -150803,37786 -31493,25200 -47310,55587 -47310,91190 0,30813 11225,56211 33477,76195 22053,19815 79200,40422 171836,61200 92665,21005 156274,39203 190743,54822 49947,22989 87024,51988 110920,87392 23868,35207 35688,75799 35688,121805 0,45780 -13039,88583 -39316,129005 -26249,40393 -63780,71773 -112904,94195 -49125,22394 -104287,33591 -165855,33591 -77811,0 -143008,-11396 -195534,-33988 -52753,-22620 -93855,-56608 -123761,-102217 -30075,-45383 -45694,-96803 -47310,-154205z"/>
  <path id="14" fill="#7FCBEE" fill-rule="nonzero" d="M21949984 23978116l-105874 0 0 -672406c-25483,24406 -58989,48614 -100290,72822 -41329,24179 -78633,42378 -111514,54396l0 -102018c59159,-27582 110919,-61200 155225,-100800 44305,-39402 75798,-77585 94252,-114775l68201 0 0 862781z"/>
  <path fill="#5A5A6E" fill-rule="nonzero" d="M25633179 21296939l332929 -445805 -293215 -413376 135779 0 157011 219798c32712,45581 55361,80391 68400,104599 19474,-30019 42321,-62022 68570,-95811l172091 -228586 124952 0 -299225 408387 322072 450794 -139975 0 -217389 -306397c-12416,-17405 -24293,-34809 -35319,-51987 -19248,28800 -32882,48982 -41301,60378l-218410 298006 -136970 0z"/>
  <path id="1" fill="#5A5A6E" fill-rule="nonzero" d="M26565551 21296939l0 -859181 296815 0c66983,0 118120,3997 153411,12189 49351,11395 91474,32003 126340,61597 45553,38409 79427,87194 101877,146806 22678,59584 33903,127786 33903,204406 0,65197 -7597,122996 -22876,173395 -15222,50400 -34866,92183 -58762,125178 -24038,33024 -50116,59018 -78605,77811 -28261,18992 -62560,33392 -102670,43200 -40309,9808 -86429,14599 -138586,14599l-310847 0zm114293 -100800l183713 0c56778,0 101282,-5188 133568,-15789 32287,-10602 57969,-25399 77216,-44617 26872,-26986 47934,-63383 62986,-108993 15023,-45609 22649,-100799 22649,-165798 0,-90000 -14854,-159194 -44306,-207609 -29480,-48388 -65395,-80788 -107716,-97200 -30473,-11792 -79626,-17575 -147402,-17575l-180708 0 0 657581z"/>
  <path id="2" fill="#5A5A6E" fill-rule="nonzero" d="M27413648 21068948l105902 -14400c12246,59981 32684,103181 61767,129600 29055,26391 64772,39600 107093,39600 50145,0 92466,-17206 126539,-51619 34072,-34384 51137,-76989 51137,-127785 0,-48416 -15818,-88413 -47736,-119991 -31691,-31408 -71972,-47197 -121124,-47197 -20041,0 -44929,3997 -74778,11792l11820 -92409c7002,794 12841,1191 17037,1191 45325,0 85861,-11793 122144,-35178 36114,-23415 54142,-59415 54142,-108000 0,-38608 -13238,-70611 -39487,-96010 -26305,-25398 -60179,-37984 -101707,-37984 -41300,0 -75600,12983 -103067,38976 -27496,26022 -45156,64999 -52951,117014l-105903 -19190c13068,-70809 42322,-125802 88243,-164806 45723,-39005 102897,-58394 171071,-58394 46941,0 90255,9978 129770,30189 39713,20013 69987,47395 90850,82006 21061,34781 31493,71603 31493,110580 0,37020 -10035,70611 -29906,100998 -20041,30416 -49748,54624 -88837,72624 50938,11593 90453,36000 118743,72992 28063,36794 42094,83197 42094,138586 0,75004 -27467,138812 -82233,190998 -54935,52214 -124327,78208 -208148,78208 -75600,0 -138387,-22592 -188305,-67606 -50145,-44986 -78633,-103182 -85663,-174785z"/>
  <path id="3" fill="#5A5A6E" fill-rule="nonzero" d="M28139459 21296939l0 -119991 120302 0 0 119991c0,44192 -7795,79993 -23669,107206 -15619,27184 -40706,48387 -74977,63184l-28885 -45581c22451,-9808 38892,-24208 49323,-43001 10630,-19021 16639,-46205 17858,-81808l-59952 0z"/>
  <path id="4" fill="#5A5A6E" fill-rule="nonzero" d="M25633179 22637527l332929 -445804 -293215 -413377 135779 0 157011 219799c32712,45581 55361,80390 68400,104598 19474,-30019 42321,-62022 68570,-95811l172091 -228586 124952 0 -299225 408388 322072 450793 -139975 0 -217389 -306397c-12416,-17404 -24293,-34809 -35319,-51987 -19248,28800 -32882,48983 -41301,60378l-218410 298006 -136970 0z"/>
  <polygon id="5" fill="#5A5A6E" fill-rule="nonzero" points="26571560,22637527 26571560,21778346 27152747,21778346 27152747,21879146 26685881,21879146 26685881,22146737 27090187,22146737 27090187,22247537 26685881,22247537 26685881,22637527 "/>
  <path id="6" fill="#5A5A6E" fill-rule="nonzero" d="M27617827 22637527l0 -205200 -374229 0 0 -97200 393477 -556781 86626 0 0 556781 116731 0 0 97200 -116731 0 0 205200 -105874 0zm0 -302400l0 -386589 -270141 386589 270141 0z"/>
  <path id="7" fill="#5A5A6E" fill-rule="nonzero" d="M28005493 22637527l0 -119990 120303 0 0 119990c0,44192 -7796,79994 -23670,107206 -15619,27185 -40705,48388 -74976,63185l-28885 -45581c22450,-9808 38891,-24208 49323,-43002 10630,-19020 16639,-46205 17858,-81808l-59953 0z"/>
  <path id="8" fill="#7FCBEE" fill-rule="nonzero" d="M25633179 23978116l332929 -445805 -293215 -413376 135779 0 157011 219798c32712,45581 55361,80391 68400,104599 19474,-30019 42321,-62022 68570,-95811l172091 -228586 124952 0 -299225 408387 322072 450794 -139975 0 -217389 -306397c-12416,-17405 -24293,-34810 -35319,-51988 -19248,28800 -32882,48983 -41301,60378l-218410 298007 -136970 0z"/>
  <path id="9" fill="#7FCBEE" fill-rule="nonzero" d="M26563141 23978116l0 -859181 170873 0 203754 608173c18850,56608 32513,99014 41102,127219 9836,-31210 25285,-77216 46148,-137821l207354 -597571 152618 0 0 859181 -109503 0 0 -718781 -251461 718781 -102699 0 -248683 -731991 0 731991 -109503 0z"/>
  <path id="10" fill="#7FCBEE" fill-rule="nonzero" d="M28101730 23877316l0 100800 -570331 0c-822,-25399 3402,-49805 12416,-73389 14627,-38608 38126,-76819 70412,-114208 32287,-37389 78378,-80589 138359,-129600 93260,-76592 156614,-137197 189723,-182013 33307,-44787 49918,-87193 49918,-127190 0,-41783 -15023,-76989 -45099,-105789 -30104,-28602 -69392,-43002 -117723,-43002 -51137,0 -92041,15194 -122740,45610 -30671,30189 -46148,72198 -46545,126000l-108283 -10800c7427,-80816 35490,-142413 84047,-184819 48728,-42406 113896,-63581 195931,-63581 82630,0 148195,22790 196327,68598 48359,45780 72397,102586 72397,170192 0,34385 -7030,68202 -21260,101396 -14060,33392 -37502,68399 -70186,105193 -32882,36595 -87222,87194 -163048,151200 -63581,53206 -104485,89206 -122542,108198 -18028,18993 -32882,38013 -44731,57204l422958 0z"/>
  <path fill="#5A5A6E" fill-rule="nonzero" d="M25633179 25905419l332929 -445805 -293215 -413376 135779 0 157011 219798c32712,45581 55361,80391 68400,104599 19474,-30019 42321,-62022 68570,-95811l172091 -228586 124952 0 -299225 408387 322072 450794 -139975 0 -217389 -306397c-12416,-17405 -24293,-34809 -35319,-51987 -19248,28800 -32882,48982 -41301,60377l-218410 298007 -136970 0z"/>
  <path id="1" fill="#5A5A6E" fill-rule="nonzero" d="M26528247 25629409l107093 -9581c5017,43200 16866,78605 35518,106384 18623,27610 47508,50004 86626,67210 39119,17008 83226,25597 132152,25597 43511,0 81836,-6407 115114,-19389 33279,-13011 57941,-30813 74211,-53405 16243,-22592 24435,-47197 24435,-73616 0,-26787 -7795,-50201 -23442,-70384 -15619,-20012 -41500,-36794 -77585,-50598 -23102,-8816 -74239,-22819 -153439,-41811 -79228,-18992 -134561,-36794 -166252,-53603 -41102,-21600 -71603,-48388 -91644,-80193 -20268,-31804 -30302,-67606 -30302,-107007 0,-43597 12444,-84189 37134,-121777 24633,-37814 60519,-66415 108056,-86003 47367,-19616 100092,-29395 158032,-29395 63779,0 120132,10176 168888,30784 48699,20410 86230,50599 112478,90595 26278,39799 40309,85011 42350,135411l-109531 8391c-5811,-54198 -25681,-95187 -59555,-122797 -33874,-27808 -84019,-41584 -150208,-41584 -68996,0 -119339,12586 -150803,37786 -31493,25200 -47311,55587 -47311,91190 0,30813 11226,56211 33478,76195 22053,19815 79200,40422 171836,61200 92664,21005 156274,39204 190743,54822 49946,22989 87024,51988 110920,87393 23867,35206 35688,75798 35688,121804 0,45780 -13040,88583 -39317,129005 -26249,40394 -63779,71773 -112904,94195 -49124,22394 -104286,33591 -165855,33591 -77811,0 -143008,-11396 -195533,-33988 -52753,-22620 -93856,-56608 -123761,-102217 -30076,-45383 -45695,-96803 -47310,-154205z"/>
  <path id="2" fill="#5A5A6E" fill-rule="nonzero" d="M27347261 25677428l105902 -14400c12246,59981 32683,103181 61767,129600 29055,26391 64771,39600 107093,39600 50145,0 92466,-17206 126538,-51619 34073,-34384 51137,-76989 51137,-127785 0,-48416 -15817,-88413 -47735,-119991 -31692,-31408 -71972,-47197 -121125,-47197 -20041,0 -44929,3997 -74778,11792l11821 -92409c7002,794 12841,1190 17036,1190 45326,0 85862,-11792 122145,-35178 36113,-23414 54142,-59414 54142,-107999 0,-38608 -13238,-70611 -39487,-96010 -26305,-25398 -60179,-37984 -101707,-37984 -41301,0 -75600,12983 -103068,38976 -27496,26022 -45156,64999 -52951,117014l-105902 -19190c13068,-70810 42321,-125802 88242,-164806 45723,-39005 102898,-58394 171071,-58394 46942,0 90255,9978 129770,30189 39714,20012 69988,47395 90851,82006 21061,34781 31492,71603 31492,110580 0,37020 -10034,70611 -29905,100998 -20041,30416 -49748,54624 -88838,72624 50939,11593 90454,36000 118743,72992 28063,36793 42095,83197 42095,138585 0,75005 -27468,138813 -82233,190999 -54936,52214 -124328,78208 -208148,78208 -75600,0 -138387,-22592 -188305,-67607 -50145,-44985 -78634,-103181 -85663,-174784z"/>
  <path id="3" fill="#5A5A6E" fill-rule="nonzero" d="M28073071 25905419l0 -119991 120303 0 0 119991c0,44192 -7796,79993 -23670,107206 -15619,27184 -40705,48387 -74976,63184l-28885 -45581c22450,-9808 38891,-24208 49323,-43001 10630,-19021 16639,-46205 17858,-81808l-59953 0z"/>
  <path id="4" fill="#5A5A6E" fill-rule="nonzero" d="M25633179 27246007l332929 -445804 -293215 -413377 135779 0 157011 219799c32712,45581 55361,80390 68400,104598 19474,-30019 42321,-62022 68570,-95811l172091 -228586 124952 0 -299225 408388 322072 450793 -139975 0 -217389 -306397c-12416,-17404 -24293,-34809 -35319,-51987 -19248,28800 -32882,48983 -41301,60378l-218410 298006 -136970 0z"/>
  <polygon id="5" fill="#5A5A6E" fill-rule="nonzero" points="26571560,27246007 26571560,26386826 27152747,26386826 27152747,26487626 26685881,26487626 26685881,26755217 27090187,26755217 27090187,26856017 26685881,26856017 26685881,27246007 "/>
  <path id="6" fill="#5A5A6E" fill-rule="nonzero" d="M27617827 27246007l0 -205200 -374229 0 0 -97200 393477 -556781 86626 0 0 556781 116731 0 0 97200 -116731 0 0 205200 -105874 0zm0 -302400l0 -386589 -270141 386589 270141 0z"/>
  <path id="7" fill="#5A5A6E" fill-rule="nonzero" d="M28005493 27246007l0 -119990 120303 0 0 119990c0,44192 -7796,79994 -23670,107206 -15619,27185 -40705,48388 -74976,63185l-28885 -45582c22450,-9807 38891,-24207 49323,-43001 10630,-19021 16639,-46205 17858,-81808l-59953 0z"/>
  <path id="8" fill="#5A5A6E" fill-rule="nonzero" d="M28073071 28586595l0 -119990 120303 0 0 119990c0,44193 -7796,79994 -23670,107207 -15619,27184 -40705,48387 -74976,63184l-28885 -45581c22450,-9808 38891,-24208 49323,-43002 10630,-19020 16639,-46204 17858,-81808l-59953 0z"/>
  <path id="9" fill="#7FCBEE" fill-rule="nonzero" d="M25633179 28586595l332929 -445804 -293215 -413376 135779 0 157011 219798c32712,45581 55361,80391 68400,104598 19474,-30018 42321,-62022 68570,-95811l172091 -228585 124952 0 -299225 408387 322072 450793 -139975 0 -217389 -306396c-12416,-17405 -24293,-34810 -35319,-51988 -19248,28800 -32882,48983 -41301,60378l-218410 298006 -136970 0z"/>
  <path id="10" fill="#7FCBEE" fill-rule="nonzero" d="M26471100 28586595l330492 -859180 125347 0 350759 859180 -129741 0 -99695 -260390 -362778 0 -93458 260390 -120926 0zm247862 -352799l293612 0 -89858 -238196c-27071,-72396 -47537,-132207 -61767,-179404 -11821,56012 -27666,111004 -47537,165401l-94450 252199z"/>
  <path id="11" fill="#7FCBEE" fill-rule="nonzero" d="M27901972 28485795l0 100800 -570330 0c-822,-25398 3401,-49804 12415,-73388 14627,-38608 38126,-76819 70413,-114208 32287,-37389 78378,-80589 138359,-129600 93260,-76592 156614,-137197 189723,-182013 33307,-44787 49918,-87193 49918,-127190 0,-41783 -15024,-76989 -45099,-105789 -30104,-28602 -69392,-43002 -117723,-43002 -51137,0 -92041,15194 -122740,45610 -30671,30189 -46148,72198 -46545,126000l-108284 -10800c7427,-80816 35490,-142413 84048,-184819 48727,-42406 113896,-63581 195930,-63581 82630,0 148195,22790 196328,68598 48359,45780 72397,102586 72397,170192 0,34384 -7030,68202 -21260,101395 -14060,33393 -37503,68400 -70186,105194 -32882,36595 -87222,87194 -163049,151200 -63581,53206 -104485,89206 -122541,108198 -18029,18992 -32882,38013 -44731,57203l422957 0z"/>
  <path id="12" fill="#7FCBEE" fill-rule="nonzero" d="M25633179 29927184l332929 -445805 -293215 -413376 135779 0 157011 219798c32712,45582 55361,80391 68400,104599 19474,-30019 42321,-62022 68570,-95811l172091 -228586 124952 0 -299225 408387 322072 450794 -139975 0 -217389 -306397c-12416,-17405 -24293,-34809 -35319,-51987 -19248,28800 -32882,48982 -41301,60378l-218410 298006 -136970 0z"/>
  <path id="13" fill="#7FCBEE" fill-rule="nonzero" d="M27179223 29625776l114321 28800c-23839,93402 -66784,164409 -128778,213420 -61965,48983 -137764,73588 -227395,73588 -92665,0 -168066,-18794 -226233,-56608 -58139,-37587 -102246,-92183 -132548,-163587 -30274,-71603 -45524,-148196 -45524,-230202 0,-89404 17036,-167386 51335,-234000 34299,-66586 83027,-117184 146183,-151795 63184,-34611 132774,-51789 208601,-51789 86230,0 158627,21799 217191,65594 58733,43795 99666,105193 122711,184393l-111883 26391c-19843,-62391 -48926,-108000 -86854,-136403 -37870,-28602 -85634,-42775 -143206,-42775 -65962,0 -121294,15789 -165628,47395 -44334,31578 -75600,74183 -93458,127389 -18029,53405 -27071,108397 -27071,165005 0,72992 10630,136800 31890,191197 21259,54595 54340,95187 99269,122201 44929,26986 93430,40394 145786,40394 63807,0 117524,-18397 161659,-54992 44107,-36794 73985,-91219 89632,-163616z"/>
  <path id="14" fill="#7FCBEE" fill-rule="nonzero" d="M27751793 29927184l0 -205200 -374230 0 0 -97200 393477 -556781 86627 0 0 556781 116730 0 0 97200 -116730 0 0 205200 -105874 0zm0 -302400l0 -386589 -270142 386589 270142 0z"/>
  <g>
   <path fill="#5A5A6E" fill-rule="nonzero" d="M25396912 24153127l2503133 0 0 50003 -2503133 0 -18029 -42322 18029 -7681zm-18029 7681l7371 -7681 10658 0 -18029 7681zm-2766868 2884138l2766868 -2884138 36057 34640 -2766868 2884137 -36057 -34639zm236920 169738l-521745 163247 141477 -528065 380268 364818z"/>
  </g>
  <g>
   <path fill="#5A5A6E" fill-rule="nonzero" d="M25396912 30102195l2503133 0 0 50003 -2503133 0 -18029 -42321 18029 -7682zm-18029 7682l7371 -7682 10658 0 -18029 7682zm-1094059 1140405l1094059 -1140405 36057 34639 -1094059 1140406 -36057 -34640zm236920 169739l-521745 163247 141477 -528066 380268 364819z"/>
  </g>
  <g>
   <path fill="#5A5A6E" fill-rule="nonzero" d="M19623591 24153127l2503133 0 0 50003 -2503133 0 -18028 -42322 18028 -7681zm-18028 7681l7370 -7681 10658 0 -18028 7681zm-1320774 1376759l1320774 -1376759 36057 34640 -1320774 1376758 -36057 -34639zm236919 169738l-521744 163248 141477 -528066 380267 364818z"/>
  </g>
  <g>
   <path fill="#5A5A6E" fill-rule="nonzero" d="M19567154 10321082l2503132 0 0 50003 -2503132 0 -18029 -42321 18029 -7682zm-18029 7682l7370 -7682 10659 0 -18029 7682zm-1320774 1376758l1320774 -1376758 36057 34639 -1320774 1376759 -36057 -34640zm236920 169739l-521745 163247 141477 -528066 380268 364819z"/>
  </g>
  <g>
   <path fill="#5A5A6E" fill-rule="nonzero" d="M14647657 29095386l-2503133 0 0 -50003 2503133 0 18028 42321 -18028 7682zm18028 -7682l-7370 7682 -10658 0 18028 -7682zm1320774 -1376759l-1320774 1376759 -36057 -34639 1320775 -1376759 36056 34639zm-236919 -169738l521744 -163247 -141477 528066 -380267 -364819z"/>
  </g>
  <g>
   <path fill="#5A5A6E" fill-rule="nonzero" d="M12183047 33382530l2503132 0 0 50004 -2503132 0 -18029 -42322 18029 -7682zm-18029 7682l7370 -7682 10659 0 -18029 7682zm-380182 396312l380182 -396312 36057 34640 -380182 396311 -36057 -34639zm236919 169738l-521744 163248 141477 -528066 380267 364818z"/>
  </g>
  <g>
   <path fill="#5A5A6E" fill-rule="nonzero" d="M8757634 34382423l-2503133 0 0 -50003 2503133 0 18028 7682 -18028 42321zm0 -50003l10658 0 7370 7682 -18028 -7682zm921486 1021634l-939514 -979313 36056 -34639 939515 979313 -36057 34639zm179405 -229720l141477 528066 -521745 -163247 380268 -364819z"/>
  </g>
  <g>
   <path fill="#5A5A6E" fill-rule="nonzero" d="M2559259 31704478l-1703083 0 0 -50004 1703083 0 18028 42322 -18028 7682zm18028 -7682l-7370 7682 -10658 0 18028 -7682zm1320774 -1376759l-1320774 1376759 -36057 -34640 1320775 -1376758 36056 34639zm-236919 -169738l521744 -163247 -141477 528065 -380267 -364818z"/>
  </g>
  <g>
   <path fill="#5A5A6E" fill-rule="nonzero" d="M7400151 26740420l-3230361 0 0 -50003 3230361 0 18028 42321 -18028 7682zm0 -50003l58621 0 -40593 42321 -18028 -42321zm-581045 594538l563017 -586856 36056 34639 -563017 586856 -36056 -34639zm236919 169739l-521744 163247 141477 -528066 380267 364819z"/>
  </g>
  <g>
   <path fill="#5A5A6E" fill-rule="nonzero" d="M8940015 20602904l-2703145 0 0 -50003 2703145 0 18028 42322 -18028 7681zm18028 -7681l-7370 7681 -10658 0 18028 -7681zm757134 -789222l-757134 789222 -36056 -34640 757133 -789222 36057 34640zm-236920 -169739l521745 -163247 -141477 528066 -380268 -364819z"/>
  </g>
  <g>
   <path fill="#5A5A6E" fill-rule="nonzero" d="M14647657 15932488l-2503133 0 0 -50004 2503133 0 18028 42322 -18028 7682zm18028 -7682l-7370 7682 -10658 0 18028 -7682zm1549473 -1615124l-1549473 1615124 -36057 -34640 1549474 -1615123 36056 34639zm-236919 -169739l521744 -163247 -141477 528066 -380267 -364819z"/>
  </g>
  <g>
   <path fill="#0096DC" fill-opacity="0.168627" d="M23855234 13876690c-261383,304951 -1143609,740608 -631701,1051029 648028,364848 577247,-620815 631701,-1051029z"/>
   <path fill="#0096DC" fill-opacity="0.501961" d="M23800780 13974712c-49011,92580 -936651,658941 -642585,827745 228699,174274 -32684,-201487 642585,-827745z"/>
   <path fill="#0096DC" fill-opacity="0.168627" d="M24241879 14895036c-261382,304951 -1143609,740608 -626258,1051030 642586,364847 571805,-620816 626258,-1051030z"/>
   <path fill="#0096DC" fill-opacity="0.501961" d="M24192868 14993058c-54453,92580 -942094,664384 -648028,827745 228699,174274 -32683,-201487 648028,-827745z"/>
   <path fill="#0096DC" fill-opacity="0.168627" d="M26011718 15112850c-255940,310422 -1143581,746079 -626230,1051030 648028,364875 577219,-620816 626230,-1051030z"/>
   <path fill="#0096DC" fill-opacity="0.501961" d="M25962707 15210872c-49011,98050 -942094,664384 -648028,833216 234170,168803 -27213,-201487 648028,-833216z"/>
   <path fill="#FFF300" d="M25418143 13604394c0,0 -697039,991134 -740607,1192620 -38126,201487 217814,245055 283181,375761 65338,108907 -457455,718837 -664384,1034673 337634,-277738 953007,-871313 985662,-1023788 32684,-141591 -255940,-337635 -337634,-413887 -87109,-65338 353990,-985662 473782,-1165379z"/>
   <path fill="#FFFF7F" d="M25194887 13985597c-185159,294066 -582690,751521 -484668,893111 92580,147034 245055,234142 266825,255941 87137,130705 -430214,778733 -484667,838629 -59896,65367 631700,-707924 626258,-811417 -10885,-136119 -348520,-119792 -304951,-332164 43568,-217842 136148,-435656 381203,-844100z"/>
   <path fill="#FFF300" d="M27803355 13392023c0,0 -697039,991105 -740608,1192619 -43568,206930 217843,245055 283181,375733 65339,108935 -462897,718837 -664384,1034702 332192,-272296 953008,-871313 985691,-1018346 27213,-141591 -255968,-337635 -337634,-413887 -87137,-70781 348519,-991105 473754,-1170821z"/>
   <path fill="#FFFF7F" d="M27580098 13773226c-185159,294066 -582689,751492 -484667,898525 92579,141591 245055,234170 266825,250526 87137,136120 -430214,778734 -484668,844072 -59896,59896 631701,-707952 626258,-816859 -10885,-136148 -353962,-119793 -310393,-332192 43568,-217814 141590,-430214 386645,-844072z"/>
   <path fill="#0096DC" fill-opacity="0.168627" d="M23889703 11213088c54454,-294066 626343,-1171984 931379,-1181565 275584,-8674 1107127,621751 840274,872249 160157,-195109 1018544,459467 926560,1072913 518485,-276152 1083373,943369 869527,901955 326721,-38098 1132696,549638 773291,892743l-3608020 16980c-497877,2324 -2699744,125603 -2639848,5811 -355266,48302 -1069199,-68656 -128098,-289956 -83565,-63270 94366,-601002 721162,-551820 -250526,-163361 -73020,-972028 520413,-698882 -825761,-823096 796506,-1678478 793360,-1040428z"/>
  </g>
  <g>
   <path fill="#FFBB00" d="M4121460 6941534c0,593121 -491726,1069625 -1100041,1069625 -603241,0 -1094966,-476504 -1094966,-1069625 0,-593121 491725,-1079773 1094966,-1079773 608315,0 1100041,486652 1100041,1079773z"/>
   <g>
    <rect fill="#FFBB00" x="2899728" y="4755570" width="248457" height="771108" rx="98419" ry="98419"/>
    <rect fill="#FFBB00" x="2899728" y="8346214" width="248457" height="771108" rx="98419" ry="98419"/>
   </g>
   <g>
    <rect fill="#FFBB00" transform="matrix(0.866025 -0.5 0.5 0.866025 1.82593E+006 5.10987E+006)" width="248457" height="771108" rx="98419" ry="98419"/>
    <rect fill="#FFBB00" transform="matrix(0.866025 -0.5 0.5 0.866025 3.62125E+006 8.21946E+006)" width="248457" height="771108" rx="98419" ry="98419"/>
   </g>
   <g>
    <rect fill="#FFBB00" transform="matrix(0.5 -0.866025 0.866025 0.5 1.07315E+006 5.9536E+006)" width="248457" height="771108" rx="98419" ry="98419"/>
    <rect fill="#FFBB00" transform="matrix(0.5 -0.866025 0.866025 0.5 4.18274E+006 7.74892E+006)" width="248457" height="771108" rx="98419" ry="98419"/>
   </g>
   <g>
    <rect fill="#FFBB00" transform="matrix(2.64845E-014 -1 1 2.64845E-014 843080 7.0607E+006)" width="248457" height="771108" rx="98419" ry="98419"/>
    <rect fill="#FFBB00" transform="matrix(2.64845E-014 -1 1 2.64845E-014 4.43372E+006 7.0607E+006)" width="248457" height="771108" rx="98419" ry="98419"/>
   </g>
   <g>
    <rect fill="#FFBB00" transform="matrix(-0.5 -0.866025 -0.866025 0.5 4.97479E+006 5.9536E+006)" width="248457" height="771108" rx="98419" ry="98419"/>
    <rect fill="#FFBB00" transform="matrix(-0.5 -0.866025 -0.866025 0.5 1.86521E+006 7.74892E+006)" width="248457" height="771108" rx="98419" ry="98419"/>
   </g>
   <g>
    <rect fill="#FFBB00" transform="matrix(-0.866025 -0.5 -0.5 0.866025 4.22196E+006 5.10987E+006)" width="248457" height="771108" rx="98419" ry="98419"/>
    <rect fill="#FFBB00" transform="matrix(-0.866025 -0.5 -0.5 0.866025 2.42663E+006 8.21946E+006)" width="248457" height="771108" rx="98419" ry="98419"/>
   </g>
  </g>
  <g>
   <path fill="#FFBB00" d="M27020710 6941534c0,593121 -491726,1069625 -1100041,1069625 -603241,0 -1094966,-476504 -1094966,-1069625 0,-593121 491725,-1079773 1094966,-1079773 608315,0 1100041,486652 1100041,1079773z"/>
   <g>
    <rect fill="#FFBB00" x="25798978" y="4755570" width="248457" height="771108" rx="98419" ry="98419"/>
    <rect fill="#FFBB00" x="25798978" y="8346214" width="248457" height="771108" rx="98419" ry="98419"/>
   </g>
   <g>
    <rect fill="#FFBB00" transform="matrix(0.866025 -0.5 0.5 0.866025 2.47252E+007 5.10987E+006)" width="248457" height="771108" rx="98419" ry="98419"/>
    <rect fill="#FFBB00" transform="matrix(0.866025 -0.5 0.5 0.866025 2.65205E+007 8.21946E+006)" width="248457" height="771108" rx="98419" ry="98419"/>
   </g>
   <g>
    <rect fill="#FFBB00" transform="matrix(0.5 -0.866025 0.866025 0.5 2.39724E+007 5.9536E+006)" width="248457" height="771108" rx="98419" ry="98419"/>
    <rect fill="#FFBB00" transform="matrix(0.5 -0.866025 0.866025 0.5 2.7082E+007 7.74892E+006)" width="248457" height="771108" rx="98419" ry="98419"/>
   </g>
   <g>
    <rect fill="#FFBB00" transform="matrix(2.64845E-014 -1 1 2.64845E-014 2.37423E+007 7.0607E+006)" width="248457" height="771108" rx="98419" ry="98419"/>
    <rect fill="#FFBB00" transform="matrix(2.64845E-014 -1 1 2.64845E-014 2.7333E+007 7.0607E+006)" width="248457" height="771108" rx="98419" ry="98419"/>
   </g>
   <g>
    <rect fill="#FFBB00" transform="matrix(-0.5 -0.866025 -0.866025 0.5 2.7874E+007 5.9536E+006)" width="248457" height="771108" rx="98419" ry="98419"/>
    <rect fill="#FFBB00" transform="matrix(-0.5 -0.866025 -0.866025 0.5 2.47645E+007 7.74892E+006)" width="248457" height="771108" rx="98419" ry="98419"/>
   </g>
   <g>
    <rect fill="#FFBB00" transform="matrix(-0.866025 -0.5 -0.5 0.866025 2.71212E+007 5.10987E+006)" width="248457" height="771108" rx="98419" ry="98419"/>
    <rect fill="#FFBB00" transform="matrix(-0.866025 -0.5 -0.5 0.866025 2.53259E+007 8.21946E+006)" width="248457" height="771108" rx="98419" ry="98419"/>
   </g>
  </g>
 </g>
</svg>
