<?xml version="1.0" encoding="UTF-8"?>
<!DOCTYPE svg PUBLIC "-//W3C//DTD SVG 1.1//EN" "http://www.w3.org/Graphics/SVG/1.1/DTD/svg11.dtd">
<!-- Creator: CorelDRAW X6 -->
<svg xmlns="http://www.w3.org/2000/svg" xml:space="preserve" width="290px" height="500px" version="1.1" shape-rendering="geometricPrecision" text-rendering="geometricPrecision" image-rendering="optimizeQuality" fill-rule="evenodd" clip-rule="evenodd"
viewBox="0 0 29000000 49999953"
 xmlns:xlink="http://www.w3.org/1999/xlink">
 <g id="Layer_x0020_1">
  <metadata id="CorelCorpID_0Corel-Layer"/>
  <line fill="none" stroke="#5A5A6E" stroke-width="50003.1" x1="13829238" y1="9193744" x2="13829238" y2= "44193666" />
  <line fill="none" stroke="#5A5A6E" stroke-width="50003.1" x1="13829238" y1="44193666" x2="17412200" y2= "44761162" />
  <line fill="none" stroke="#5A5A6E" stroke-width="50003.1" x1="11588112" y1="45238714" x2="13829238" y2= "44193666" />
  <polyline fill="none" stroke="#5A5A6E" stroke-width="199984" stroke-linejoin="round" points="14500028,27499991 20499950,24702225 20499978,24702225 "/>
  <line fill="none" stroke="#5A5A6E" stroke-width="199984" stroke-linejoin="round" x1="14500085" y1="44999952" x2="20499950" y2= "42202158" />
  <polyline fill="none" stroke="#5A5A6E" stroke-width="199984" stroke-linejoin="round" points="8499993,44049609 20499950,45950238 20499978,45950238 "/>
  <polygon fill="#9B9BA7" fill-opacity="0.800000" points="11588083,45238743 11588083,10238792 15171074,10806260 15171074,45806210 "/>
  <polygon fill="#C2C2C9" fill-opacity="0.800000" points="15171102,45806182 15171102,10806317 17412200,9761212 17412200,44761162 "/>
  <line fill="none" stroke="#5A5A6E" stroke-width="199984" stroke-linejoin="round" x1="14500000" y1="10000030" x2="20499978" y2= "7202180" />
  <polyline fill="none" stroke="#5A5A6E" stroke-width="199984" stroke-linejoin="round" points="8499993,9049687 20499950,10950317 20499978,10950317 "/>
  <polygon fill="#5A5A6E" fill-opacity="0.800000" points="11588112,10238792 13829238,9193744 17412200,9761240 15171102,10806288 "/>
  <ellipse fill="#C83200" cx="14499993" cy="18750023" rx="249999" ry="249998"/>
  <path fill="none" stroke="#5A5A6E" stroke-width="199984" stroke-linejoin="round" d="M20733723 10357819c-164608,95216 -329187,190375 -317338,333156 11934,142809 200381,333212 229096,491896 28743,158598 -102132,285534 -233036,412441"/>
  <path fill="none" stroke="#5A5A6E" stroke-width="199984" stroke-linejoin="round" d="M20733723 24015618c-164608,95216 -329187,190375 -317338,333156 11934,142809 200381,333212 229096,491896 28743,158598 -102132,285534 -233036,412441"/>
  <path fill="none" stroke="#5A5A6E" stroke-width="199984" stroke-linejoin="round" d="M20336533 41554527c-88753,168179 -177505,336331 -91502,450907 86060,114576 346932,175578 455669,294633 108709,119055 65395,296135 22054,473244"/>
  <path fill="none" stroke="#5A5A6E" stroke-width="199984" stroke-linejoin="round" d="M8660632 8430941c-164608,95216 -329187,190375 -317338,333156 11934,142809 200381,333212 229096,491896 28743,158598 -102132,285534 -233036,412441"/>
  <path fill="none" stroke="#5A5A6E" stroke-width="199984" stroke-linejoin="round" d="M8660632 43440104c-164608,95216 -329187,190375 -317338,333156 11934,142809 200381,333212 229096,491896 28743,158598 -102132,285534 -233036,412441"/>
  <path fill="none" stroke="#5A5A6E" stroke-width="199984" stroke-linejoin="round" d="M20733723 45331492c-164608,95216 -329187,190375 -317338,333156 11934,142809 200381,333212 229096,491896 28743,158598 -102132,285534 -233036,412441"/>
  <path fill="none" stroke="#5A5A6E" stroke-width="199984" stroke-linejoin="round" d="M20336533 6592816c-88753,168179 -177505,336331 -91502,450907 86060,114576 346932,175578 455669,294633 108709,119055 65395,296135 22054,473244"/>
  <line fill="none" stroke="#5A5A6E" stroke-width="50003.1" x1="11588112" y1="10238792" x2="11588112" y2= "45238714" />
  <line fill="none" stroke="#5A5A6E" stroke-width="50003.1" x1="15171074" y1="10806288" x2="15171074" y2= "45806210" />
  <polyline fill="none" stroke="#5A5A6E" stroke-width="50003.1" points="11588112,45238714 15171074,45806210 17412200,44761162 "/>
  <line fill="none" fill-opacity="0.701961" stroke="#5A5A6E" stroke-width="150009" stroke-dasharray="750046.918253 450028.150952 150009.383651 450028.150952" stroke-opacity="0.701961" x1="14500000" y1="10000030" x2="14500085" y2= "44999952" />
  <line fill="none" fill-opacity="0.501961" stroke="#00A046" stroke-width="100006" stroke-linejoin="round" stroke-opacity="0.501961" x1="14500028" y1="31874981" x2="13379919" y2= "32399277" />
  <line fill="none" fill-opacity="0.501961" stroke="#0032BE" stroke-width="100006" stroke-linejoin="round" stroke-opacity="0.501961" x1="14500028" y1="31874981" x2="16291609" y2= "32158021" />
  <circle fill="#FADC00" transform="matrix(0.473467 -0.133422 0.133421 0.473465 1.45E+007 3.1875E+007)" r="508223"/>
  <path fill="#0032BE" fill-rule="nonzero" d="M18067117 32832383l0 -86003 394412 -455187c-44787,2381 -84189,3600 -118205,3600l-252198 0 0 -85209 507600 0 0 69392 -337606 394809 -64602 73389c47424,-3997 91814,-5981 133200,-5981l288198 0 0 91191 -550800 0z"/>
  <path fill="#00A046" fill-rule="nonzero" d="M9953457 34320401l-12019 -97597c23216,6208 43200,9411 60406,9411 23613,0 42406,-3997 56409,-11792 14202,-7795 25795,-18822 34781,-32797 6605,-10602 17405,-36822 32202,-78803 2013,-5811 5017,-14400 9411,-25795l-236409 -624812 112819 0 129997 359603c16980,45411 32003,93402 45383,143802 12217,-47395 26617,-94195 43398,-140202l132803 -363203 105392 0 -235389 633600c-25398,68202 -45184,115002 -59386,140797 -18822,34611 -40422,60009 -64602,76195 -24406,16214 -53405,24208 -86995,24208 -20409,0 -43200,-4195 -68202,-12614z"/>
  <ellipse fill="#C83200" cx="14499993" cy="10000043" rx="249999" ry="249998"/>
  <ellipse fill="#C83200" cx="14500022" cy="27500004" rx="249999" ry="249998"/>
  <ellipse fill="#C83200" cx="14500050" cy="36249984" rx="249999" ry="249998"/>
  <g>
   <path fill="#00A046" fill-rule="nonzero" d="M11072887 33423945l2285829 -1069965 42406 90595 -2285829 1069965 -42406 -90595zm339874 111855l-714869 118885 549184 -472819 165685 353934z"/>
  </g>
  <ellipse fill="#C83200" cx="14500078" cy="44999965" rx="249999" ry="249998"/>
  <line fill="none" stroke="#5A5A6E" stroke-width="50003.1" x1="17412200" y1="9761240" x2="17412200" y2= "44761162" />
  <polygon fill="none" stroke="#5A5A6E" stroke-width="50003.1" points="11588083,10238821 13829266,9193716 17412229,9761212 15171045,10806288 "/>
  <g>
   <path fill="#0032BE" fill-rule="nonzero" d="M17379857 32380597l-1096044 -173168 15591 -98759 1096044 173168 -15591 98759zm-218920 -283039l658800 301918 -719801 84104 61002 -386022z"/>
  </g>
 </g>
</svg>
