<?xml version="1.0" encoding="UTF-8"?>
<!DOCTYPE svg PUBLIC "-//W3C//DTD SVG 1.1//EN" "http://www.w3.org/Graphics/SVG/1.1/DTD/svg11.dtd">
<!-- Creator: CorelDRAW X6 -->
<svg xmlns="http://www.w3.org/2000/svg" xml:space="preserve" width="290px" height="380px" version="1.1" shape-rendering="geometricPrecision" text-rendering="geometricPrecision" image-rendering="optimizeQuality" fill-rule="evenodd" clip-rule="evenodd"
viewBox="0 0 2900000 3800000"
 xmlns:xlink="http://www.w3.org/1999/xlink">
 <g id="Layer_x0020_1">
  <metadata id="CorelCorpID_0Corel-Layer"/>
  <polygon fill="#5A5A6E" fill-opacity="0.411765" points="1026589,1693241 1335336,1548396 1938279,1548396 1938279,2281801 1626598,2438021 1026589,2438021 "/>
  <line fill="none" stroke="#5A5A6E" stroke-width="10000.6" stroke-dasharray="50003.127884 30001.876730 10000.625577 30001.876730" x1="1319771" y1="2485620" x2="1319771" y2= "3711329" />
  <line fill="none" stroke="#5A5A6E" stroke-width="24998.7" x1="200001" y1="3250507" x2="2708747" y2= "3250507" />
  <g id="_525763576">
   <line fill="none" stroke="#009846" stroke-width="29999" x1="1163894" y1="3278088" x2="1478281" y2= "3278088" />
   <line fill="none" stroke="#009846" stroke-width="20001.3" x1="1391300" y1="3356228" x2="1469440" y2= "3278088" />
   <line fill="none" stroke="#009846" stroke-width="20001.3" x1="1239695" y1="3356228" x2="1317832" y2= "3278088" />
   <line fill="none" stroke="#009846" stroke-width="20001.3" x1="1315499" y1="3356228" x2="1393636" y2= "3278088" />
   <line fill="none" stroke="#009846" stroke-width="20001.3" x1="1163891" y1="3356228" x2="1242031" y2= "3278088" />
  </g>
  <line fill="none" stroke="#5A5A6E" stroke-width="15000.9" x1="400008" y1="1693144" x2="1019766" y2= "1693144" />
  <line fill="none" stroke="#5A5A6E" stroke-width="15000.9" x1="1931456" y1="1693147" x2="1931456" y2= "2285117" />
  <line fill="none" stroke="#5A5A6E" stroke-width="15000.9" x1="1619773" y1="1693147" x2="2400000" y2= "1693144" />
  <line fill="none" stroke="#5A5A6E" stroke-width="15000.9" x1="1019766" y1="1693147" x2="1019766" y2= "2437329" />
  <line fill="none" stroke="#5A5A6E" stroke-width="15000.9" x1="1619773" y1="1693147" x2="1619305" y2= "2438021" />
  <line fill="none" fill-opacity="0.501961" stroke="#5A5A6E" stroke-width="15000.9" stroke-dasharray="30001.876730 45002.815095" stroke-opacity="0.501961" x1="1619773" y1="1693147" x2="1928519" y2= "1549176" />
  <line fill="none" fill-opacity="0.501961" stroke="#5A5A6E" stroke-width="15000.9" stroke-dasharray="30001.876730 45002.815095" stroke-opacity="0.501961" x1="1019766" y1="1693147" x2="1328513" y2= "1549176" />
  <polyline fill="none" fill-opacity="0.501961" stroke="#5A5A6E" stroke-width="15000.9" stroke-opacity="0.501961" points="1931456,1693147 1931456,1549176 2708747,1547824 "/>
  <line fill="none" fill-opacity="0.501961" stroke="#5A5A6E" stroke-width="15000.9" stroke-opacity="0.501961" x1="708752" y1="1549179" x2="1328513" y2= "1549176" />
  <line fill="none" fill-opacity="0.501961" stroke="#5A5A6E" stroke-width="15000.9" stroke-opacity="0.501961" x1="1331452" y1="1548708" x2="1331452" y2= "2285117" />
  <polyline fill="none" fill-opacity="0.501961" stroke="#5A5A6E" stroke-width="15000.9" stroke-opacity="0.501961" points="1019769,2436337 1331452,2285117 1931459,2285115 "/>
  <line fill="none" fill-opacity="0.501961" stroke="#5A5A6E" stroke-width="15000.9" stroke-dasharray="30001.876730 45002.815095" stroke-opacity="0.501961" x1="1331452" y1="1548708" x2="1928519" y2= "1549176" />
  <line fill="none" stroke="#5A5A6E" stroke-width="15000.9" stroke-dasharray="30001.876730 45002.815095" x1="1019766" y1="1693144" x2="1619773" y2= "1693147" />
  <line fill="none" stroke="#5A5A6E" stroke-width="5000.31" x1="1019772" y1="2727923" x2="1019772" y2= "3039629" />
  <line fill="none" stroke="#5A5A6E" stroke-width="5000.31" x1="1051160" y1="2987168" x2="1568692" y2= "2987168" />
  <polygon fill="#5A5A6E" stroke="#5A5A6E" stroke-width="2154.33" stroke-linejoin="round" points="1544552,2957569 1544867,3017354 1618695,2987301 "/>
  <polygon fill="#5A5A6E" stroke="#5A5A6E" stroke-width="2154.33" stroke-linejoin="round" points="1244534,2786203 1244848,2845989 1318677,2815936 "/>
  <polygon fill="#5A5A6E" stroke="#5A5A6E" stroke-width="2154.33" stroke-linejoin="round" points="1095290,3017062 1094998,2957277 1021158,2987301 "/>
  <polygon fill="#5A5A6E" stroke="#5A5A6E" stroke-width="2154.33" stroke-linejoin="round" points="1093331,2845697 1093039,2785911 1019199,2815936 "/>
  <line fill="none" stroke="#5A5A6E" stroke-width="5000.31" x1="1618695" y1="2987301" x2="1902341" y2= "2855037" />
  <polygon fill="#5A5A6E" stroke="#5A5A6E" stroke-width="2154.33" stroke-linejoin="round" points="1863178,2842049 1863172,2905454 1930379,2841961 "/>
  <line fill="none" stroke="#5A5A6E" stroke-width="5000.31" x1="1930379" y1="2656986" x2="1930379" y2= "2883378" />
  <path fill="#5A5A6E" fill-rule="nonzero" d="M1787583 2872306l0 -7901c-3940,6140 -9739,9221 -17401,9221 -4961,0 -9519,-1360 -13661,-4101 -4158,-2719 -7378,-6540 -9680,-11418 -2279,-4901 -3418,-10522 -3418,-16881 0,-6199 1040,-11820 3101,-16880 2077,-5040 5179,-8920 9317,-11599 4122,-2702 8762,-4040 13862,-4040 3758,0 7100,800 10020,2379 2920,1579 5298,3659 7140,6199l0 -30898 10560 0 0 85919 -9840 0zm-33360 -31060c0,7960 1680,13899 5059,17839 3359,3940 7339,5901 11920,5901 4621,0 8541,-1882 11781,-5640 3220,-3759 4839,-9499 4839,-17221 0,-8478 -1639,-14720 -4941,-18700 -3280,-3980 -7339,-5959 -12158,-5959 -4700,0 -8620,1900 -11781,5721 -3141,3818 -4719,9839 -4719,18059z"/>
  <polygon fill="#5A5A6E" stroke="#5A5A6E" stroke-width="2154.33" stroke-linejoin="round" points="1685896,2987242 1685930,2923837 1618695,2987301 "/>
  <line fill="none" stroke="#5A5A6E" stroke-width="5000.31" x1="1041896" y1="2815936" x2="1246195" y2= "2815936" />
  <path fill="#5A5A6E" fill-rule="nonzero" d="M1423828 2959454l-18819 -62280 11038 0 9941 35940 3520 13380c139,-661 1219,-4941 3221,-12841l9858 -36479 10820 0 9380 36161 3061 11858 3581 -12019 10757 -36000 10262 0 -19540 62280 -10922 0 -9878 -37259 -2500 -10661 -12600 47920 -11180 0z"/>
  <circle fill="#5A5A6E" cx="1148842" cy="2815936" r="8614"/>
  <line fill="none" stroke="#5A5A6E" stroke-width="5000.31" x1="1619775" y1="2813234" x2="1619775" y2= "3039626" />
  <g id="_525753376">
   <path fill="#5A5A6E" fill-rule="nonzero" d="M158298 2589385c-3920,3342 -7702,5681 -11322,7061 -3620,1381 -7497,2061 -11659,2061 -6840,0 -12098,-1661 -15780,-5000 -3679,-3319 -5519,-7580 -5519,-12762 0,-3038 700,-5819 2081,-8339 1400,-2520 3220,-4519 5459,-6041 2259,-1519 4779,-2679 7600,-3458 2080,-541 5218,-1060 9399,-1582 8521,-998 14820,-2219 18839,-3620 40,-1440 63,-2358 63,-2738 0,-4280 -1001,-7299 -3002,-9059 -2699,-2382 -6718,-3561 -12039,-3561 -4980,0 -8660,879 -11021,2619 -2378,1741 -4119,4819 -5258,9261l-10321 -1440c941,-4419 2480,-7999 4640,-10720 2160,-2722 5281,-4799 9360,-6279 4059,-1460 8799,-2200 14159,-2200 5321,0 9661,618 13000,1880 3319,1258 5780,2820 7342,4719 1559,1899 2659,4300 3299,7200 340,1800 519,5040 519,9700l0 14001c0,9779 221,15959 660,18578 420,2619 1302,5119 2580,7520l-11038 0c-1060,-2219 -1741,-4819 -2041,-7801zm-839 -23400c-3841,1562 -9601,2880 -17280,3960 -4363,621 -7441,1321 -9241,2101 -1800,779 -3181,1922 -4161,3401 -978,1500 -1480,3158 -1480,5001 0,2778 1060,5119 3200,6979 2140,1859 5261,2800 9360,2800 4059,0 7679,-881 10860,-2662 3160,-1760 5502,-4178 6982,-7239 1139,-2378 1697,-5879 1697,-10500l63 -3841zm137894 -19318l-56639 0 0 -9839 56639 0 0 9839zm0 26039l-56639 0 0 -9839 56639 0 0 9839zm47979 24480l0 -62280 9479 0 0 8802c1942,-3042 4541,-5502 7781,-7342 3240,-1859 6920,-2778 11061,-2778 4598,0 8379,958 11319,2858 2939,1921 5020,4580 6219,8022 4961,-7260 11381,-10880 19301,-10880 6199,0 10979,1698 14298,5120 3342,3418 5020,8679 5020,15780l0 42698 -10559 0 0 -39200c0,-4198 -360,-7240 -1040,-9099 -680,-1860 -1919,-3339 -3739,-4479 -1800,-1142 -3920,-1701 -6341,-1701 -4400,0 -8039,1460 -10939,4360 -2900,2920 -4340,7580 -4340,13980l0 36139 -10559 0 0 -40419c0,-4680 -862,-8201 -2582,-10539 -1718,-2342 -4539,-3521 -8439,-3521 -2959,0 -5701,780 -8221,2339 -2520,1562 -4339,3841 -5479,6860 -1120,3002 -1681,7341 -1681,12999l0 32281 -10559 0zm99958 -73919l0 -11999 10559 0 0 11999 -10559 0zm0 73919l0 -62280 10559 0 0 62280 -10559 0zm26660 0l0 -62280 9479 0 0 8842c4561,-6781 11160,-10160 19780,-10160 3762,0 7200,678 10341,2018 3141,1341 5499,3121 7058,5301 1562,2180 2662,4779 3283,7779 380,1961 578,5380 578,10261l0 38239 -10559 0 0 -37839c0,-4301 -400,-7521 -1222,-9641 -819,-2120 -2279,-3818 -4359,-5100 -2078,-1258 -4539,-1899 -7339,-1899 -4479,0 -8340,1420 -11600,4281 -3260,2840 -4881,8260 -4881,16219l0 33979 -10559 0zm376478 -50281l0 -11999 11999 0 0 11999 -11999 0zm0 50281l0 -11999 11999 0 0 11999c0,4419 -780,8000 -2362,10721 -1559,2718 -4059,4839 -7477,6318l-2880 -4518c2239,-981 3877,-2421 4918,-4320 1060,-1902 1661,-4640 1780,-8201l-5978 0zm67300 0l-10559 0 0 -67240c-2540,2440 -5882,4861 -10001,7282 -4121,2418 -7841,4238 -11120,5440l0 -10202c5899,-2758 11061,-6120 15480,-10080 4419,-3940 7560,-7759 9399,-11478l6801 0 0 86278zm22099 1440l24959 -88798 8501 0 -24959 88798 -8501 0zm93699 -11520l0 10080 -56877 0c-82,-2540 340,-4980 1238,-7339 1460,-3860 3802,-7682 7022,-11420 3220,-3739 7818,-8059 13799,-12960 9300,-7660 15619,-13720 18918,-18202 3323,-4478 4981,-8719 4981,-12719 0,-4178 -1500,-7699 -4499,-10579 -3002,-2860 -6919,-4300 -11741,-4300 -5099,0 -9178,1520 -12240,4561 -3058,3019 -4600,7220 -4640,12600l-10800 -1080c740,-8081 3540,-14241 8382,-18482 4858,-4240 11358,-6358 19539,-6358 8240,0 14780,2279 19579,6860 4822,4578 7220,10259 7220,17019 0,3439 -700,6820 -2121,10140 -1400,3339 -3738,6840 -6998,10519 -3280,3660 -8700,8720 -16260,15120 -6341,5321 -10420,8921 -12220,10820 -1800,1899 -3280,3801 -4462,5720l42180 0zm25500 10080l-18819 -62280 11038 0 9941 35941 3521 13379c139,-660 1219,-4941 3220,-12841l9859 -36479 10820 0 9380 36162 3061 11857 3580 -12019 10758 -36000 10261 0 -19539 62280 -10922 0 -9879 -37258 -2500 -10661 -12600 47919 -11180 0z"/>
   <path fill="#5A5A6E" fill-rule="nonzero" d="M183036 2560585l0 -9997 8801 0 0 9997 -8801 0zm0 61600l0 -51900 8801 0 0 51900 -8801 0zm382433 -60880c3022,-79 5482,-878 7381,-2437 1900,-1542 3181,-3660 3799,-6342 621,-2698 961,-7299 1001,-13818 19,-6520 119,-10820 300,-12901 360,-3280 1001,-5899 1959,-7900 941,-1979 2120,-3580 3520,-4779 1401,-1182 3201,-2101 5381,-2722 1479,-379 3880,-578 7239,-578l3260 0 0 9238 -1800 0c-4019,0 -6678,740 -7999,2200 -1301,1460 -1959,4720 -1959,9802 0,10219 -221,16679 -661,19378 -700,4181 -1921,7401 -3619,9660 -1721,2260 -4400,4281 -8082,6021 4340,1800 7481,4538 9439,8221 1942,3679 2923,9720 2923,18099 0,7599 40,12118 119,13558 320,2662 1100,4501 2358,5561 1282,1061 3762,1579 7461,1579l1820 0 0 9241 -3280 0c-3818,0 -6599,-320 -8319,-941 -2481,-898 -4561,-2338 -6200,-4360 -1641,-1998 -2701,-4538 -3180,-7619 -499,-3078 -760,-8141 -800,-15160 -39,-7018 -379,-11880 -1000,-14558 -621,-2702 -1860,-4822 -3739,-6381 -1902,-1559 -4320,-2381 -7322,-2461l0 -9601zm81360 35881l-10559 0 0 -67240c-2540,2440 -5882,4861 -10001,7282 -4121,2418 -7840,4238 -11120,5440l0 -10202c5899,-2758 11061,-6120 15480,-10080 4419,-3940 7560,-7759 9400,-11478l6800 0 0 86278zm22099 1440l24959 -88798 8501 0 -24959 88798 -8501 0zm93699 -11520l0 10080 -56877 0c-82,-2540 340,-4980 1239,-7339 1460,-3860 3801,-7682 7021,-11420 3220,-3739 7818,-8059 13799,-12960 9301,-7660 15619,-13720 18919,-18202 3322,-4478 4980,-8719 4980,-12719 0,-4178 -1500,-7699 -4499,-10579 -3001,-2860 -6919,-4300 -11741,-4300 -5099,0 -9178,1520 -12240,4561 -3058,3019 -4600,7220 -4640,12600l-10800 -1080c740,-8081 3541,-14241 8382,-18482 4859,-4240 11359,-6358 19539,-6358 8241,0 14780,2279 19579,6860 4822,4578 7220,10259 7220,17019 0,3439 -700,6820 -2120,10140 -1401,3339 -3739,6840 -6999,10519 -3280,3660 -8700,8720 -16260,15120 -6341,5321 -10420,8921 -12220,10820 -1800,1899 -3279,3801 -4461,5720l42179 0zm14301 10080l0 -85918 10559 0 0 30918c4901,-5740 11081,-8598 18561,-8598 4578,0 8561,899 11960,2719 3378,1819 5799,4320 7259,7520 1460,3200 2180,7860 2180,13941l0 39418 -10559 0 0 -39379c0,-5261 -1140,-9102 -3402,-11500 -2279,-2401 -5479,-3600 -9638,-3600 -3101,0 -6020,800 -8761,2421 -2739,1619 -4680,3818 -5860,6599 -1159,2761 -1740,6579 -1740,11461l0 33998 -10559 0zm382357 -35881l0 9601c-3019,80 -5480,902 -7382,2461 -1899,1559 -3178,3679 -3798,6338 -621,2682 -961,7262 -1001,13782 -20,6520 -119,10800 -300,12878 -360,3302 -1001,5941 -1959,7920 -961,1961 -2140,3540 -3560,4742 -1401,1179 -3201,2098 -5400,2719 -1480,419 -3901,640 -7280,640l-3280 0 0 -9241 1820 0c4060,0 6738,-740 8079,-2199 1321,-1460 1981,-4740 1981,-9839 0,-9760 159,-15920 480,-18542 620,-4320 1879,-7778 3758,-10377 1902,-2603 4561,-4601 8022,-6061 -4541,-2140 -7741,-4980 -9601,-8501 -1859,-3540 -2780,-9499 -2780,-17898 0,-7602 -40,-12161 -119,-13640 -281,-2602 -1041,-4442 -2319,-5460 -1281,-1040 -3782,-1562 -7501,-1562l-1820 0 0 -9238 3280 0c3818,0 6599,318 8320,938 2500,862 4561,2302 6199,4340 1641,2021 2702,4581 3181,7660 499,3081 759,8141 799,15182 40,7018 380,11880 1001,14539 620,2679 1899,4799 3798,6361 1902,1559 4363,2378 7382,2457z"/>
  </g>
  <polyline fill="none" stroke="#5A5A6E" stroke-width="5000.31" points="1148842,2815936 1148842,2652388 108655,2652388 "/>
  <polygon fill="#5A5A6E" fill-opacity="0.211765" points="400005,636329 708752,493563 2708747,492349 2708744,1548864 2400000,1692977 400005,1694182 "/>
  <line fill="none" stroke="#5A5A6E" stroke-width="15000.9" x1="400008" y1="636329" x2="2400003" y2= "636483" />
  <line fill="none" stroke="#5A5A6E" stroke-width="15000.9" x1="708752" y1="493563" x2="2708747" y2= "492352" />
  <polyline fill="none" fill-opacity="0.501961" stroke="#5A5A6E" stroke-width="15000.9" stroke-opacity="0.501961" points="400008,1694182 708752,1550046 708752,493563 "/>
  <line fill="none" stroke="#5A5A6E" stroke-width="5000.31" x1="190077" y1="637531" x2="190077" y2= "1631035" />
  <polygon fill="#5A5A6E" stroke="#5A5A6E" stroke-width="2154.33" stroke-linejoin="round" points="219810,1620039 160024,1620354 190077,1694182 "/>
  <polygon fill="#5A5A6E" stroke="#5A5A6E" stroke-width="2154.33" stroke-linejoin="round" points="160316,711663 220102,711371 190077,637531 "/>
  <line fill="none" stroke="#5A5A6E" stroke-width="5000.31" x1="151549" y1="1694185" x2="355847" y2= "1694185" />
  <line fill="none" stroke="#5A5A6E" stroke-width="5000.31" x1="151549" y1="637531" x2="355847" y2= "637531" />
  <path fill="#5A5A6E" fill-rule="nonzero" d="M74883 1177242l0 -85918 10559 0 0 30917c4901,-5740 11080,-8597 18561,-8597 4578,0 8561,899 11959,2718 3379,1820 5800,4320 7260,7521 1460,3200 2180,7860 2180,13940l0 39419 -10559 0 0 -39379c0,-5261 -1140,-9102 -3402,-11500 -2279,-2401 -5479,-3600 -9638,-3600 -3101,0 -6020,799 -8761,2421 -2739,1618 -4680,3818 -5860,6599 -1159,2761 -1740,6579 -1740,11460l0 33999 -10559 0z"/>
  <polygon fill="#5A5A6E" fill-opacity="0.211765" points="639377,637693 948123,493560 948123,1550052 764175,1635924 639377,1694185 "/>
  <polygon fill="#5A5A6E" fill-opacity="0.211765" points="2400000,636483 2708747,492349 2708747,1548841 2524798,1634714 2400000,1692974 "/>
 </g>
</svg>
