<?xml version="1.0" encoding="UTF-8"?>
<!DOCTYPE svg PUBLIC "-//W3C//DTD SVG 1.0//EN" "http://www.w3.org/TR/2001/REC-SVG-20010904/DTD/svg10.dtd">
<!-- Creator: CorelDRAW X6 -->
<svg xmlns="http://www.w3.org/2000/svg" xml:space="preserve" width="290px" height="291px" version="1.0" shape-rendering="geometricPrecision" text-rendering="geometricPrecision" image-rendering="optimizeQuality" fill-rule="evenodd" clip-rule="evenodd"
viewBox="0 0 290000 290999"
 xmlns:xlink="http://www.w3.org/1999/xlink">
 <g id="Layer_x0020_1">
  <metadata id="CorelCorpID_0Corel-Layer"/>
  <path fill="#2B2A29" fill-rule="nonzero" d="M-312 -13444l821 -132c46,329 175,580 386,757 211,174 506,262 884,262 382,0 665,-77 851,-233 184,-154 276,-336 276,-545 0,-188 -83,-335 -248,-442 -116,-74 -400,-167 -849,-282 -607,-152 -1027,-285 -1263,-396 -235,-113 -412,-268 -534,-466 -121,-196 -182,-415 -182,-654 0,-219 50,-420 149,-605 101,-186 236,-340 408,-463 129,-94 305,-175 527,-241 223,-66 461,-99 715,-99 384,0 721,55 1010,167 291,110 505,261 643,450 137,190 233,443 285,761l-811 113c-37,-254 -144,-454 -320,-597 -176,-144 -425,-214 -747,-214 -379,0 -651,63 -813,189 -162,125 -244,273 -244,442 0,106 33,204 101,290 68,89 173,163 318,221 83,31 325,102 731,212 585,156 994,285 1227,384 232,99 415,245 547,434 134,190 200,426 200,709 0,275 -81,535 -242,779 -163,243 -395,432 -699,566 -305,134 -649,200 -1033,200 -636,0 -1122,-133 -1455,-395 -334,-264 -546,-655 -639,-1172z"/>
  <path id="1" fill="#2B2A29" fill-rule="nonzero" d="M7936 -11981l0 -728c-380,555 -896,832 -1549,832 -288,0 -557,-55 -807,-165 -250,-112 -435,-251 -556,-417 -121,-168 -207,-373 -255,-615 -33,-164 -50,-422 -50,-774l0 -3031 830 0 0 2710c0,433 17,725 50,875 52,218 162,388 332,512 168,124 376,187 624,187 249,0 482,-63 699,-190 217,-127 371,-302 462,-521 90,-218 135,-537 135,-954l0 -2619 831 0 0 4898 -746 0z"/>
  <path id="2" fill="#2B2A29" fill-rule="nonzero" d="M9976 -11981l0 -4898 746 0 0 750c190,-347 366,-577 528,-687 162,-112 340,-167 533,-167 280,0 565,88 854,263l-295 766c-202,-113 -403,-170 -604,-170 -181,0 -343,55 -486,164 -143,108 -246,259 -307,453 -93,294 -138,616 -138,967l0 2559 -831 0z"/>
  <path id="3" fill="#2B2A29" fill-rule="nonzero" d="M13326 -11981l0 -4256 -736 0 0 -642 736 0 0 -519c0,-329 29,-573 87,-731 80,-214 219,-389 420,-522 200,-134 481,-200 843,-200 234,0 492,28 775,83l-124 727c-173,-30 -335,-46 -489,-46 -252,0 -430,54 -535,161 -104,107 -156,306 -156,599l0 448 953 0 0 642 -943 0 0 4256 -831 0z"/>
  <path id="4" fill="#2B2A29" fill-rule="nonzero" d="M18949 -12595c-308,263 -605,447 -890,556 -285,108 -590,162 -917,162 -538,0 -952,-131 -1241,-394 -289,-261 -434,-596 -434,-1003 0,-239 55,-458 164,-656 109,-198 253,-355 429,-475 177,-119 376,-211 598,-272 163,-42 410,-83 738,-124 671,-79 1166,-175 1482,-285 3,-113 5,-185 5,-215 0,-337 -79,-574 -236,-713 -212,-187 -529,-280 -947,-280 -391,0 -681,69 -866,206 -188,137 -324,379 -414,728l-812 -113c74,-347 195,-629 365,-843 170,-214 415,-377 736,-494 320,-115 692,-173 1114,-173 418,0 760,49 1022,148 261,99 455,222 577,371 123,150 210,339 260,566 27,142 41,397 41,763l0 1101c0,769 17,1255 52,1462 33,206 102,402 203,591l-869 0c-83,-175 -136,-379 -160,-614zm-66 -1840c-302,123 -755,227 -1359,312 -343,48 -585,103 -726,165 -142,61 -251,151 -328,267 -77,118 -116,249 -116,393 0,219 83,403 252,549 168,146 413,220 736,220 319,0 604,-69 854,-209 248,-138 432,-328 549,-569 89,-187 133,-463 133,-826l5 -302z"/>
  <path id="5" fill="#2B2A29" fill-rule="nonzero" d="M24197 -13774l812 113c-90,558 -316,994 -683,1310 -366,316 -817,474 -1351,474 -668,0 -1206,-219 -1612,-656 -407,-437 -610,-1063 -610,-1878 0,-529 88,-989 262,-1386 175,-394 441,-692 800,-889 356,-198 745,-297 1167,-297 530,0 965,134 1302,403 338,269 555,651 650,1145l-803 123c-77,-329 -212,-576 -409,-743 -195,-165 -431,-248 -708,-248 -418,0 -758,149 -1020,448 -261,300 -392,772 -392,1420 0,658 126,1134 378,1431 253,298 582,447 986,447 327,0 599,-99 816,-299 219,-198 357,-505 415,-918z"/>
  <path id="6" fill="#2B2A29" fill-rule="nonzero" d="M29057 -13567l859 114c-134,498 -384,887 -748,1162 -365,275 -831,414 -1399,414 -714,0 -1280,-221 -1698,-661 -419,-439 -628,-1057 -628,-1851 0,-821 211,-1460 634,-1913 423,-454 972,-681 1647,-681 652,0 1186,222 1599,667 414,445 622,1071 622,1878 0,49 -2,123 -5,220l-3648 0c32,537 183,949 457,1233 272,285 613,428 1020,428 304,0 563,-80 777,-241 216,-160 386,-416 511,-769zm-2717 -1330l2727 0c-36,-412 -142,-720 -313,-927 -263,-319 -606,-479 -1026,-479 -380,0 -699,127 -959,382 -258,255 -401,596 -429,1024z"/>
  <polygon id="7" fill="#2B2A29" fill-rule="nonzero" points="30201,-10103 30201,-10698 35693,-10698 35693,-10103 "/>
  <path id="8" fill="#2B2A29" fill-rule="nonzero" d="M36213 -11981l0 -4898 746 0 0 692c152,-239 357,-433 612,-577 254,-146 544,-219 870,-219 361,0 659,76 890,225 231,151 395,360 489,631 390,-571 895,-856 1518,-856 487,0 863,134 1124,403 263,269 395,682 395,1241l0 3358 -831 0 0 -3083c0,-330 -28,-569 -81,-716 -54,-146 -151,-262 -294,-352 -142,-90 -309,-133 -499,-133 -346,0 -632,114 -860,342 -228,230 -342,596 -342,1100l0 2842 -830 0 0 -3179c0,-368 -68,-645 -203,-829 -135,-184 -357,-276 -663,-276 -233,0 -449,61 -647,183 -198,123 -341,302 -431,540 -88,236 -132,577 -132,1022l0 2539 -831 0z"/>
  <path id="9" fill="#2B2A29" fill-rule="nonzero" d="M47273 -12595c-308,263 -605,447 -890,556 -285,108 -590,162 -917,162 -538,0 -951,-131 -1241,-394 -289,-261 -434,-596 -434,-1003 0,-239 55,-458 164,-656 110,-198 253,-355 429,-475 178,-119 376,-211 598,-272 163,-42 410,-83 739,-124 670,-79 1165,-175 1481,-285 4,-113 5,-185 5,-215 0,-337 -78,-574 -236,-713 -212,-187 -528,-280 -947,-280 -391,0 -680,69 -866,206 -187,137 -324,379 -414,728l-811 -113c74,-347 195,-629 365,-843 169,-214 415,-377 736,-494 319,-115 692,-173 1113,-173 419,0 760,49 1023,148 261,99 454,222 577,371 122,150 209,339 259,566 27,142 41,397 41,763l0 1101c0,769 18,1255 52,1462 33,206 102,402 203,591l-868 0c-84,-175 -137,-379 -161,-614zm-66 -1840c-302,123 -755,227 -1359,312 -343,48 -585,103 -726,165 -142,61 -250,151 -328,267 -76,118 -116,249 -116,393 0,219 84,403 252,549 168,146 414,220 736,220 319,0 604,-69 854,-209 249,-138 432,-328 549,-569 90,-187 133,-463 133,-826l5 -302z"/>
  <path id="10" fill="#2B2A29" fill-rule="nonzero" d="M49323 -17794l0 -944 830 0 0 944 -830 0zm0 5813l0 -4898 830 0 0 4898 -830 0z"/>
  <path id="11" fill="#2B2A29" fill-rule="nonzero" d="M51419 -11981l0 -4898 746 0 0 695c358,-533 877,-799 1555,-799 296,0 566,54 813,159 247,106 433,246 555,417 123,171 210,376 258,612 30,154 46,423 46,807l0 3007 -830 0 0 -2976c0,-338 -32,-591 -96,-758 -65,-167 -180,-300 -343,-401 -164,-99 -357,-149 -577,-149 -353,0 -656,111 -913,336 -256,223 -383,650 -383,1276l0 2672 -831 0z"/>
  <polygon id="12" fill="#2B2A29" fill-rule="nonzero" points="55903,-10103 55903,-10698 61395,-10698 61395,-10103 "/>
  <path id="13" fill="#2B2A29" fill-rule="nonzero" d="M61916 -17794l0 -944 830 0 0 944 -830 0zm0 5813l0 -4898 830 0 0 4898 -830 0z"/>
  <path id="14" fill="#2B2A29" fill-rule="nonzero" d="M68136 -12774l0 793 -4473 0c-6,-200 27,-392 98,-577 114,-304 299,-604 552,-898 253,-295 615,-634 1085,-1020 731,-602 1228,-1079 1488,-1431 261,-352 391,-686 391,-1000 0,-329 -117,-606 -354,-832 -235,-225 -544,-338 -923,-338 -401,0 -722,119 -962,358 -241,238 -362,568 -365,991l-850 -85c59,-635 279,-1120 659,-1453 383,-334 894,-500 1537,-500 648,0 1162,179 1540,539 379,361 568,807 568,1339 0,270 -55,536 -167,797 -110,263 -294,538 -550,827 -258,288 -685,686 -1279,1189 -499,419 -820,702 -961,851 -142,150 -258,299 -351,450l3317 0z"/>
  <polygon id="15" fill="#2B2A29" fill-rule="nonzero" points="68496,-10103 68496,-10698 73988,-10698 73988,-10103 "/>
  <path id="16" fill="#2B2A29" fill-rule="nonzero" d="M74509 -10103l0 -6776 755 0 0 643c178,-248 379,-435 604,-560 223,-124 495,-187 815,-187 418,0 786,107 1105,323 319,214 560,517 724,907 162,392 243,820 243,1287 0,498 -89,948 -269,1349 -179,400 -440,706 -783,920 -341,213 -701,320 -1079,320 -277,0 -525,-59 -744,-175 -220,-116 -399,-263 -541,-440l0 2389 -830 0zm755 -4297c0,627 127,1091 380,1392 255,300 564,451 925,451 368,0 683,-156 944,-467 263,-311 393,-793 393,-1445 0,-623 -127,-1089 -384,-1398 -256,-310 -561,-465 -917,-465 -352,0 -663,165 -934,494 -272,331 -407,809 -407,1438z"/>
  <polygon id="17" fill="#2B2A29" fill-rule="nonzero" points="79739,-11981 79739,-18738 80569,-18738 80569,-11981 "/>
  <path id="18" fill="#2B2A29" fill-rule="nonzero" d="M85053 -12595c-308,263 -606,447 -890,556 -285,108 -590,162 -917,162 -538,0 -952,-131 -1241,-394 -290,-261 -434,-596 -434,-1003 0,-239 55,-458 163,-656 110,-198 254,-355 430,-475 177,-119 375,-211 597,-272 164,-42 411,-83 739,-124 671,-79 1166,-175 1482,-285 3,-113 5,-185 5,-215 0,-337 -79,-574 -236,-713 -213,-187 -529,-280 -947,-280 -391,0 -681,69 -867,206 -187,137 -324,379 -413,728l-812 -113c74,-347 195,-629 365,-843 170,-214 415,-377 736,-494 319,-115 692,-173 1114,-173 418,0 759,49 1022,148 261,99 455,222 577,371 123,150 210,339 260,566 27,142 41,397 41,763l0 1101c0,769 17,1255 52,1462 33,206 102,402 203,591l-869 0c-83,-175 -137,-379 -160,-614zm-66 -1840c-302,123 -755,227 -1359,312 -343,48 -585,103 -727,165 -141,61 -250,151 -327,267 -77,118 -116,249 -116,393 0,219 83,403 252,549 168,146 413,220 735,220 320,0 604,-69 854,-209 249,-138 433,-328 550,-569 89,-187 133,-463 133,-826l5 -302z"/>
  <path id="19" fill="#2B2A29" fill-rule="nonzero" d="M87102 -11981l0 -4898 746 0 0 695c358,-533 877,-799 1555,-799 296,0 566,54 813,159 247,106 433,246 556,417 122,171 209,376 258,612 29,154 45,423 45,807l0 3007 -830 0 0 -2976c0,-338 -32,-591 -96,-758 -65,-167 -180,-300 -343,-401 -164,-99 -357,-149 -577,-149 -353,0 -656,111 -913,336 -256,223 -383,650 -383,1276l0 2672 -831 0z"/>
  <path id="20" fill="#2B2A29" fill-rule="nonzero" d="M95691 -13567l859 114c-134,498 -384,887 -749,1162 -365,275 -830,414 -1398,414 -714,0 -1280,-221 -1699,-661 -418,-439 -627,-1057 -627,-1851 0,-821 211,-1460 634,-1913 423,-454 972,-681 1646,-681 653,0 1186,222 1600,667 414,445 621,1071 621,1878 0,49 -1,123 -4,220l-3648 0c32,537 183,949 456,1233 272,285 614,428 1021,428 304,0 563,-80 777,-241 215,-160 385,-416 511,-769zm-2718 -1330l2728 0c-37,-412 -142,-720 -314,-927 -262,-319 -605,-479 -1025,-479 -380,0 -700,127 -959,382 -258,255 -401,596 -430,1024z"/>
  <polygon id="21" fill="#2B2A29" fill-rule="nonzero" points="97835,-11981 97835,-12925 98779,-12925 98779,-11981 "/>
  <path id="22" fill="#2B2A29" fill-rule="nonzero" d="M99890 -13444l821 -132c46,329 175,580 386,757 210,174 506,262 884,262 382,0 665,-77 851,-233 184,-154 276,-336 276,-545 0,-188 -83,-335 -248,-442 -117,-74 -400,-167 -850,-282 -607,-152 -1027,-285 -1262,-396 -235,-113 -413,-268 -534,-466 -121,-196 -182,-415 -182,-654 0,-219 50,-420 149,-605 101,-186 236,-340 408,-463 129,-94 305,-175 526,-241 224,-66 461,-99 716,-99 384,0 720,55 1010,167 291,110 505,261 643,450 137,190 233,443 285,761l-812 113c-36,-254 -143,-454 -319,-597 -176,-144 -425,-214 -747,-214 -379,0 -651,63 -813,189 -162,125 -244,273 -244,442 0,106 33,204 101,290 67,89 173,163 317,221 84,31 326,102 732,212 585,156 994,285 1227,384 232,99 415,245 547,434 133,190 199,426 199,709 0,275 -80,535 -242,779 -162,243 -394,432 -698,566 -305,134 -649,200 -1033,200 -636,0 -1122,-133 -1455,-395 -334,-264 -546,-655 -639,-1172z"/>
  <path id="23" fill="#2B2A29" fill-rule="nonzero" d="M106278 -11981l-1849 -4898 889 0 1048 2933c113,316 218,645 314,987 74,-258 176,-568 310,-932l1088 -2988 853 0 -1854 4898 -799 0z"/>
  <path id="24" fill="#2B2A29" fill-rule="nonzero" d="M109505 -11575l802 113c33,248 128,429 282,544 206,153 487,230 844,230 384,0 681,-77 891,-230 209,-152 350,-368 424,-643 43,-168 63,-523 60,-1062 -363,428 -815,642 -1356,642 -673,0 -1195,-242 -1563,-728 -370,-485 -554,-1067 -554,-1745 0,-467 85,-898 253,-1292 169,-395 414,-699 735,-914 321,-216 698,-323 1132,-323 578,0 1054,236 1428,708l0 -604 765 0 0 4229c0,763 -77,1303 -233,1620 -154,318 -401,570 -736,754 -337,184 -750,277 -1241,277 -583,0 -1054,-131 -1412,-394 -360,-261 -533,-656 -521,-1182zm680 -2938c0,640 127,1107 382,1401 256,294 575,442 959,442 382,0 702,-146 961,-439 258,-292 387,-752 387,-1378 0,-597 -134,-1049 -399,-1352 -266,-304 -587,-455 -962,-455 -369,0 -682,150 -941,448 -258,299 -387,743 -387,1333z"/>
  <g>
   <polygon fill="#5A5A6E" fill-opacity="0.650980" points="156856,179307 229763,136787 229763,122233 156856,164325 "/>
   <polygon id="1" fill="none" stroke="#5A5A6E" stroke-width="1499.81" stroke-linecap="round" stroke-linejoin="round" points="156856,179307 229763,136787 229763,122233 156856,164325 "/>
  </g>
  <g>
   <polygon fill="#5A5A6E" fill-opacity="0.650980" points="62508,139045 156856,164325 156856,179307 62508,153291 "/>
   <polygon id="1" fill="none" stroke="#5A5A6E" stroke-width="1499.81" stroke-linecap="round" stroke-linejoin="round" points="62508,139045 156856,164325 156856,179307 62508,153291 "/>
  </g>
  <g>
   <polygon fill="#5A5A6E" fill-opacity="0.211765" points="229763,122233 171575,73612 89756,95316 62508,139045 156856,164325 "/>
   <polygon id="1" fill="none" stroke="#5A5A6E" stroke-width="1499.81" stroke-linecap="round" stroke-linejoin="round" points="229763,122233 171575,73612 89756,95316 62508,139045 156856,164325 "/>
  </g>
  <line fill="none" x1="109682" y1="134143" x2="109682" y2= "151685" />
  <polygon fill="#5A5A6E" fill-rule="nonzero" points="109923,145577 109931,134143 109432,134143 109440,145452 106694,144739 109682,151685 112667,146289 "/>
  <polygon fill="#5A5A6E" fill-rule="nonzero" points="109440,172407 109432,183841 109931,183841 109923,172532 112669,173245 109682,166299 106696,171695 "/>
  <polyline fill="none" stroke="#5A5A6E" stroke-width="999.779" stroke-dasharray="4998.895466 4998.895466" points="229763,129510 156856,172030 62508,146014 "/>
  <circle fill="#C83200" cx="229763" cy="129510" r="2500"/>
  <circle fill="#C83200" cx="156856" cy="172030" r="2500"/>
  <circle fill="#C83200" cx="62508" cy="146014" r="2500"/>
 </g>
</svg>
