999
********************************************
999
*** DXF file produced by Open CASCADE 7.3
999
*** Date: 2022-03-17T12:43:59
999
********************************************
  0
SECTION
  2
HEADER
  9
$ACADVER
  1
AC1014
  9
$HANDSEED
  5
240
  0
ENDSEC
  0
SECTION
  2
TABLES
  0
TABLE
  2
VIEW
  5
65
100
AcDbSymbolTable
 70
   0
  0
ENDTAB
  0
TABLE
  2
UCS
  5
66
100
AcDbSymbolTable
 70
   0
  0
ENDTAB
  0
TABLE
  2
APPID
  5
67
100
AcDbSymbolTable
 70
   0
  0
APPID
  5
68
100
AcDbSymbolTableRecord
100
AcDbRegAppTableRecord
  2
ACAD
 70
   0
  0
ENDTAB
  0
TABLE
  2
BLOCK_RECORD
  5
69
100
AcDbSymbolTable
 70
   0
  0
BLOCK_RECORD
  5
6A
100
AcDbSymbolTableRecord
100
AcDbBlockTableRecord
  2
*MODEL_SPACE
  0
BLOCK_RECORD
  5
6B
100
AcDbSymbolTableRecord
100
AcDbBlockTableRecord
  2
*PAPER_SPACE
  0
ENDTAB
  0
TABLE
  2
LTYPE
  5
6C
100
AcDbSymbolTable
 70
   0
  0
LTYPE
  5
6D
100
AcDbSymbolTableRecord
100
AcDbLinetypeTableRecord
  2
BYBLOCK
 70
   0
  3

 72
  65
 73
   0
 40
0.0
  0
LTYPE
  5
6E
100
AcDbSymbolTableRecord
100
AcDbLinetypeTableRecord
  2
BYLAYER
 70
   0
  3

 72
  65
 73
   0
 40
0.0
  0
LTYPE
  5
6F
100
AcDbSymbolTableRecord
100
AcDbLinetypeTableRecord
  2
CONTINUOUS
 70
   0
  3
Solid line
 72
  65
 73
   0
 40
0.0
  0
ENDTAB
  0
TABLE
  2
VPORT
  5
70
100
AcDbSymbolTable
 70
   0
  0
ENDTAB
  0
TABLE
  2
DIMSTYLE
  5
71
100
AcDbSymbolTable
 70
   0
  0
ENDTAB
  0
TABLE
  2
LAYER
  5
72
100
AcDbSymbolTable
 70
   0
  0
LAYER
  5
73
100
AcDbSymbolTableRecord
100
AcDbLayerTableRecord
  2
0
 70
   0
 62
   7
 61
   0
  6
CONTINUOUS
  0
LAYER
  5
EB
100
AcDbSymbolTableRecord
100
AcDbLayerTableRecord
  2
(MATERIAL)C12(SLASH)15
 70
   0
 62
   7
 61
   0
  6
CONTINUOUS
  0
LAYER
  5
EC
100
AcDbSymbolTableRecord
100
AcDbLayerTableRecord
  2
(SECTION)R_M1 300(SLASH)300 $C12(SLASH)15
 70
   0
 62
   7
 61
   0
  6
CONTINUOUS
  0
LAYER
  5
ED
100
AcDbSymbolTableRecord
100
AcDbLayerTableRecord
  2
HEB 220 $S235
 70
   0
 62
   7
 61
   0
  6
CONTINUOUS
  0
LAYER
  5
EE
100
AcDbSymbolTableRecord
100
AcDbLayerTableRecord
  2
IPE 240 $S235
 70
   0
 62
   7
 61
   0
  6
CONTINUOUS
  0
LAYER
  5
EF
100
AcDbSymbolTableRecord
100
AcDbLayerTableRecord
  2
IPE 100 $S235
 70
   0
 62
   7
 61
   0
  6
CONTINUOUS
  0
LAYER
  5
F0
100
AcDbSymbolTableRecord
100
AcDbLayerTableRecord
  2
L 20x20x3 $S235
 70
   0
 62
   7
 61
   0
  6
CONTINUOUS
  0
ENDTAB
  0
TABLE
  2
STYLE
  5
74
100
AcDbSymbolTable
 70
   0
  0
ENDTAB
  0
ENDSEC
  0
SECTION
  2
BLOCKS
  0
BLOCK
  5
75
100
AcDbEntity
100
AcDbBlockBegin
  2
*MODEL_SPACE
 70
   0
 10
0.0
 20
0.0
 30
0.0
  3
*MODEL_SPACE
  1

  0
ENDBLK
  5
76
100
AcDbEntity
100
AcDbBlockEnd
  0
BLOCK
  5
77
100
AcDbEntity
100
AcDbBlockBegin
  2
*PAPER_SPACE
 70
   0
 10
0.0
 20
0.0
 30
0.0
  3
*PAPER_SPACE
  1

  0
ENDBLK
  5
78
100
AcDbEntity
100
AcDbBlockEnd
  0
ENDSEC
  0
SECTION
  2
ENTITIES
  0
POINT
  5
79
100
AcDbEntity
  8
(SECTION)R_M1 300(SLASH)300 $C12(SLASH)15
 62
   0
100
AcDbPoint
 10
0.0
 20
0.0
 30
0.0
  0
POINT
  5
7A
100
AcDbEntity
100
AcDbPoint
 10
0.0
 20
0.0
 30
0.0
  0
POINT
  5
7B
100
AcDbEntity
100
AcDbPoint
 10
0.0
 20
0.0
 30
-2.5
  0
POINT
  5
7C
100
AcDbEntity
100
AcDbPoint
 10
0.0
 20
0.0
 30
-3.0
  0
POINT
  5
7D
100
AcDbEntity
100
AcDbPoint
 10
6.0
 20
0.0
 30
-4.0
  0
POINT
  5
7E
100
AcDbEntity
100
AcDbPoint
 10
12.0
 20
0.0
 30
-3.0
  0
POINT
  5
7F
100
AcDbEntity
100
AcDbPoint
 10
12.0
 20
0.0
 30
-2.5
  0
POINT
  5
80
100
AcDbEntity
100
AcDbPoint
 10
12.0
 20
0.0
 30
0.0
  0
POINT
  5
81
100
AcDbEntity
100
AcDbPoint
 10
0.2999999999999999889
 20
0.0
 30
-2.5
  0
POINT
  5
82
100
AcDbEntity
100
AcDbPoint
 10
11.69999999999999928946
 20
0.0
 30
-2.5
  0
POINT
  5
83
100
AcDbEntity
100
AcDbPoint
 10
0.0
 20
5.0
 30
0.0
  0
POINT
  5
84
100
AcDbEntity
100
AcDbPoint
 10
0.0
 20
5.0
 30
-2.5
  0
POINT
  5
85
100
AcDbEntity
100
AcDbPoint
 10
0.0
 20
5.0
 30
-3.0
  0
POINT
  5
86
100
AcDbEntity
100
AcDbPoint
 10
6.0
 20
5.0
 30
-4.0
  0
POINT
  5
87
100
AcDbEntity
100
AcDbPoint
 10
12.0
 20
5.0
 30
-3.0
  0
POINT
  5
88
100
AcDbEntity
100
AcDbPoint
 10
12.0
 20
5.0
 30
-2.5
  0
POINT
  5
89
100
AcDbEntity
100
AcDbPoint
 10
12.0
 20
5.0
 30
0.0
  0
POINT
  5
8A
100
AcDbEntity
100
AcDbPoint
 10
0.2999999999999999889
 20
5.0
 30
-2.5
  0
POINT
  5
8B
100
AcDbEntity
100
AcDbPoint
 10
11.69999999999999928946
 20
5.0
 30
-2.5
  0
POINT
  5
8C
100
AcDbEntity
100
AcDbPoint
 10
0.0
 20
10.0
 30
0.0
  0
POINT
  5
8D
100
AcDbEntity
100
AcDbPoint
 10
0.0
 20
10.0
 30
-2.5
  0
POINT
  5
8E
100
AcDbEntity
100
AcDbPoint
 10
0.0
 20
10.0
 30
-3.0
  0
POINT
  5
8F
100
AcDbEntity
100
AcDbPoint
 10
6.0
 20
10.0
 30
-4.0
  0
POINT
  5
90
100
AcDbEntity
100
AcDbPoint
 10
12.0
 20
10.0
 30
-3.0
  0
POINT
  5
91
100
AcDbEntity
100
AcDbPoint
 10
12.0
 20
10.0
 30
-2.5
  0
POINT
  5
92
100
AcDbEntity
100
AcDbPoint
 10
12.0
 20
10.0
 30
0.0
  0
POINT
  5
93
100
AcDbEntity
100
AcDbPoint
 10
0.2999999999999999889
 20
10.0
 30
-2.5
  0
POINT
  5
94
100
AcDbEntity
100
AcDbPoint
 10
11.69999999999999928946
 20
10.0
 30
-2.5
  0
POINT
  5
95
100
AcDbEntity
100
AcDbPoint
 10
0.0
 20
15.0
 30
0.0
  0
POINT
  5
96
100
AcDbEntity
100
AcDbPoint
 10
0.0
 20
15.0
 30
-2.5
  0
POINT
  5
97
100
AcDbEntity
100
AcDbPoint
 10
0.0
 20
15.0
 30
-3.0
  0
POINT
  5
98
100
AcDbEntity
100
AcDbPoint
 10
6.0
 20
15.0
 30
-4.0
  0
POINT
  5
99
100
AcDbEntity
100
AcDbPoint
 10
12.0
 20
15.0
 30
-3.0
  0
POINT
  5
9A
100
AcDbEntity
100
AcDbPoint
 10
12.0
 20
15.0
 30
-2.5
  0
POINT
  5
9B
100
AcDbEntity
100
AcDbPoint
 10
12.0
 20
15.0
 30
0.0
  0
POINT
  5
9C
100
AcDbEntity
100
AcDbPoint
 10
0.2999999999999999889
 20
15.0
 30
-2.5
  0
POINT
  5
9D
100
AcDbEntity
100
AcDbPoint
 10
11.69999999999999928946
 20
15.0
 30
-2.5
  0
POINT
  5
9E
100
AcDbEntity
100
AcDbPoint
 10
0.0
 20
20.0
 30
0.0
  0
POINT
  5
9F
100
AcDbEntity
100
AcDbPoint
 10
0.0
 20
20.0
 30
-2.5
  0
POINT
  5
A0
100
AcDbEntity
100
AcDbPoint
 10
0.0
 20
20.0
 30
-3.0
  0
POINT
  5
A1
100
AcDbEntity
100
AcDbPoint
 10
6.0
 20
20.0
 30
-4.0
  0
POINT
  5
A2
100
AcDbEntity
100
AcDbPoint
 10
12.0
 20
20.0
 30
-3.0
  0
POINT
  5
A3
100
AcDbEntity
100
AcDbPoint
 10
12.0
 20
20.0
 30
-2.5
  0
POINT
  5
A4
100
AcDbEntity
100
AcDbPoint
 10
12.0
 20
20.0
 30
0.0
  0
POINT
  5
A5
100
AcDbEntity
100
AcDbPoint
 10
0.2999999999999999889
 20
20.0
 30
-2.5
  0
POINT
  5
A6
100
AcDbEntity
100
AcDbPoint
 10
11.69999999999999928946
 20
20.0
 30
-2.5
  0
LINE
  5
A7
100
AcDbEntity
  8
HEB 220 $S235
 62
   0
100
AcDbLine
 10
0.0
 20
0.0
 30
0.0
 11
0.0
 21
0.0
 31
-2.5
  0
LINE
  5
A8
100
AcDbEntity
  8
HEB 220 $S235
 62
   0
100
AcDbLine
 10
0.0
 20
0.0
 30
-2.5
 11
0.0
 21
0.0
 31
-3.0
  0
LINE
  5
A9
100
AcDbEntity
  8
IPE 240 $S235
 62
   0
100
AcDbLine
 10
0.0
 20
0.0
 30
-3.0
 11
6.0
 21
0.0
 31
-4.0
  0
LINE
  5
AA
100
AcDbEntity
  8
IPE 240 $S235
 62
   0
100
AcDbLine
 10
6.0
 20
0.0
 30
-4.0
 11
12.0
 21
0.0
 31
-3.0
  0
LINE
  5
AB
100
AcDbEntity
  8
HEB 220 $S235
 62
   0
100
AcDbLine
 10
12.0
 20
0.0
 30
-3.0
 11
12.0
 21
0.0
 31
-2.5
  0
LINE
  5
AC
100
AcDbEntity
  8
IPE 240 $S235
 62
   0
100
AcDbLine
 10
0.0
 20
0.0
 30
-2.5
 11
0.2999999999999999889
 21
0.0
 31
-2.5
  0
LINE
  5
AD
100
AcDbEntity
  8
IPE 240 $S235
 62
   0
100
AcDbLine
 10
12.0
 20
0.0
 30
-2.5
 11
11.69999999999999928946
 21
0.0
 31
-2.5
  0
LINE
  5
AE
100
AcDbEntity
  8
HEB 220 $S235
 62
   0
100
AcDbLine
 10
12.0
 20
0.0
 30
-2.5
 11
12.0
 21
0.0
 31
0.0
  0
LINE
  5
AF
100
AcDbEntity
  8
HEB 220 $S235
 62
   0
100
AcDbLine
 10
0.0
 20
5.0
 30
0.0
 11
0.0
 21
5.0
 31
-2.5
  0
LINE
  5
B0
100
AcDbEntity
  8
HEB 220 $S235
 62
   0
100
AcDbLine
 10
0.0
 20
5.0
 30
-2.5
 11
0.0
 21
5.0
 31
-3.0
  0
LINE
  5
B1
100
AcDbEntity
  8
IPE 240 $S235
 62
   0
100
AcDbLine
 10
0.0
 20
5.0
 30
-3.0
 11
6.0
 21
5.0
 31
-4.0
  0
LINE
  5
B2
100
AcDbEntity
  8
IPE 240 $S235
 62
   0
100
AcDbLine
 10
6.0
 20
5.0
 30
-4.0
 11
12.0
 21
5.0
 31
-3.0
  0
LINE
  5
B3
100
AcDbEntity
  8
HEB 220 $S235
 62
   0
100
AcDbLine
 10
12.0
 20
5.0
 30
-3.0
 11
12.0
 21
5.0
 31
-2.5
  0
LINE
  5
B4
100
AcDbEntity
  8
IPE 240 $S235
 62
   0
100
AcDbLine
 10
0.0
 20
5.0
 30
-2.5
 11
0.2999999999999999889
 21
5.0
 31
-2.5
  0
LINE
  5
B5
100
AcDbEntity
  8
IPE 240 $S235
 62
   0
100
AcDbLine
 10
12.0
 20
5.0
 30
-2.5
 11
11.69999999999999928946
 21
5.0
 31
-2.5
  0
LINE
  5
B6
100
AcDbEntity
  8
HEB 220 $S235
 62
   0
100
AcDbLine
 10
12.0
 20
5.0
 30
-2.5
 11
12.0
 21
5.0
 31
0.0
  0
LINE
  5
B7
100
AcDbEntity
  8
HEB 220 $S235
 62
   0
100
AcDbLine
 10
0.0
 20
10.0
 30
0.0
 11
0.0
 21
10.0
 31
-2.5
  0
LINE
  5
B8
100
AcDbEntity
  8
HEB 220 $S235
 62
   0
100
AcDbLine
 10
0.0
 20
10.0
 30
-2.5
 11
0.0
 21
10.0
 31
-3.0
  0
LINE
  5
B9
100
AcDbEntity
  8
IPE 240 $S235
 62
   0
100
AcDbLine
 10
0.0
 20
10.0
 30
-3.0
 11
6.0
 21
10.0
 31
-4.0
  0
LINE
  5
BA
100
AcDbEntity
  8
IPE 240 $S235
 62
   0
100
AcDbLine
 10
6.0
 20
10.0
 30
-4.0
 11
12.0
 21
10.0
 31
-3.0
  0
LINE
  5
BB
100
AcDbEntity
  8
HEB 220 $S235
 62
   0
100
AcDbLine
 10
12.0
 20
10.0
 30
-3.0
 11
12.0
 21
10.0
 31
-2.5
  0
LINE
  5
BC
100
AcDbEntity
  8
IPE 240 $S235
 62
   0
100
AcDbLine
 10
0.0
 20
10.0
 30
-2.5
 11
0.2999999999999999889
 21
10.0
 31
-2.5
  0
LINE
  5
BD
100
AcDbEntity
  8
IPE 240 $S235
 62
   0
100
AcDbLine
 10
12.0
 20
10.0
 30
-2.5
 11
11.69999999999999928946
 21
10.0
 31
-2.5
  0
LINE
  5
BE
100
AcDbEntity
  8
HEB 220 $S235
 62
   0
100
AcDbLine
 10
12.0
 20
10.0
 30
-2.5
 11
12.0
 21
10.0
 31
0.0
  0
LINE
  5
BF
100
AcDbEntity
  8
HEB 220 $S235
 62
   0
100
AcDbLine
 10
0.0
 20
15.0
 30
0.0
 11
0.0
 21
15.0
 31
-2.5
  0
LINE
  5
C0
100
AcDbEntity
  8
HEB 220 $S235
 62
   0
100
AcDbLine
 10
0.0
 20
15.0
 30
-2.5
 11
0.0
 21
15.0
 31
-3.0
  0
LINE
  5
C1
100
AcDbEntity
  8
IPE 240 $S235
 62
   0
100
AcDbLine
 10
0.0
 20
15.0
 30
-3.0
 11
6.0
 21
15.0
 31
-4.0
  0
LINE
  5
C2
100
AcDbEntity
  8
IPE 240 $S235
 62
   0
100
AcDbLine
 10
6.0
 20
15.0
 30
-4.0
 11
12.0
 21
15.0
 31
-3.0
  0
LINE
  5
C3
100
AcDbEntity
  8
HEB 220 $S235
 62
   0
100
AcDbLine
 10
12.0
 20
15.0
 30
-3.0
 11
12.0
 21
15.0
 31
-2.5
  0
LINE
  5
C4
100
AcDbEntity
  8
IPE 240 $S235
 62
   0
100
AcDbLine
 10
0.0
 20
15.0
 30
-2.5
 11
0.2999999999999999889
 21
15.0
 31
-2.5
  0
LINE
  5
C5
100
AcDbEntity
  8
IPE 240 $S235
 62
   0
100
AcDbLine
 10
12.0
 20
15.0
 30
-2.5
 11
11.69999999999999928946
 21
15.0
 31
-2.5
  0
LINE
  5
C6
100
AcDbEntity
  8
HEB 220 $S235
 62
   0
100
AcDbLine
 10
12.0
 20
15.0
 30
-2.5
 11
12.0
 21
15.0
 31
0.0
  0
LINE
  5
C7
100
AcDbEntity
  8
HEB 220 $S235
 62
   0
100
AcDbLine
 10
0.0
 20
20.0
 30
0.0
 11
0.0
 21
20.0
 31
-2.5
  0
LINE
  5
C8
100
AcDbEntity
  8
HEB 220 $S235
 62
   0
100
AcDbLine
 10
0.0
 20
20.0
 30
-2.5
 11
0.0
 21
20.0
 31
-3.0
  0
LINE
  5
C9
100
AcDbEntity
  8
IPE 240 $S235
 62
   0
100
AcDbLine
 10
0.0
 20
20.0
 30
-3.0
 11
6.0
 21
20.0
 31
-4.0
  0
LINE
  5
CA
100
AcDbEntity
  8
IPE 240 $S235
 62
   0
100
AcDbLine
 10
6.0
 20
20.0
 30
-4.0
 11
12.0
 21
20.0
 31
-3.0
  0
LINE
  5
CB
100
AcDbEntity
  8
HEB 220 $S235
 62
   0
100
AcDbLine
 10
12.0
 20
20.0
 30
-3.0
 11
12.0
 21
20.0
 31
-2.5
  0
LINE
  5
CC
100
AcDbEntity
  8
IPE 240 $S235
 62
   0
100
AcDbLine
 10
0.0
 20
20.0
 30
-2.5
 11
0.2999999999999999889
 21
20.0
 31
-2.5
  0
LINE
  5
CD
100
AcDbEntity
  8
IPE 240 $S235
 62
   0
100
AcDbLine
 10
12.0
 20
20.0
 30
-2.5
 11
11.69999999999999928946
 21
20.0
 31
-2.5
  0
LINE
  5
CE
100
AcDbEntity
  8
HEB 220 $S235
 62
   0
100
AcDbLine
 10
12.0
 20
20.0
 30
-2.5
 11
12.0
 21
20.0
 31
0.0
  0
LINE
  5
CF
100
AcDbEntity
  8
IPE 100 $S235
 62
   0
100
AcDbLine
 10
0.0
 20
0.0
 30
-2.5
 11
0.0
 21
5.0
 31
-2.5
  0
LINE
  5
D0
100
AcDbEntity
  8
IPE 100 $S235
 62
   0
100
AcDbLine
 10
12.0
 20
0.0
 30
-2.5
 11
12.0
 21
5.0
 31
-2.5
  0
LINE
  5
D1
100
AcDbEntity
  8
IPE 100 $S235
 62
   0
100
AcDbLine
 10
6.0
 20
0.0
 30
-4.0
 11
6.0
 21
5.0
 31
-4.0
  0
LINE
  5
D2
100
AcDbEntity
  8
IPE 100 $S235
 62
   0
100
AcDbLine
 10
12.0
 20
0.0
 30
-3.0
 11
12.0
 21
5.0
 31
-3.0
  0
LINE
  5
D3
100
AcDbEntity
  8
IPE 100 $S235
 62
   0
100
AcDbLine
 10
0.0
 20
0.0
 30
-3.0
 11
0.0
 21
5.0
 31
-3.0
  0
LINE
  5
D4
100
AcDbEntity
  8
IPE 100 $S235
 62
   0
100
AcDbLine
 10
0.0
 20
5.0
 30
-2.5
 11
0.0
 21
10.0
 31
-2.5
  0
LINE
  5
D5
100
AcDbEntity
  8
IPE 100 $S235
 62
   0
100
AcDbLine
 10
12.0
 20
5.0
 30
-2.5
 11
12.0
 21
10.0
 31
-2.5
  0
LINE
  5
D6
100
AcDbEntity
  8
IPE 100 $S235
 62
   0
100
AcDbLine
 10
6.0
 20
5.0
 30
-4.0
 11
6.0
 21
10.0
 31
-4.0
  0
LINE
  5
D7
100
AcDbEntity
  8
IPE 100 $S235
 62
   0
100
AcDbLine
 10
12.0
 20
5.0
 30
-3.0
 11
12.0
 21
10.0
 31
-3.0
  0
LINE
  5
D8
100
AcDbEntity
  8
IPE 100 $S235
 62
   0
100
AcDbLine
 10
0.0
 20
5.0
 30
-3.0
 11
0.0
 21
10.0
 31
-3.0
  0
LINE
  5
D9
100
AcDbEntity
  8
IPE 100 $S235
 62
   0
100
AcDbLine
 10
0.0
 20
10.0
 30
-2.5
 11
0.0
 21
15.0
 31
-2.5
  0
LINE
  5
DA
100
AcDbEntity
  8
IPE 100 $S235
 62
   0
100
AcDbLine
 10
12.0
 20
10.0
 30
-2.5
 11
12.0
 21
15.0
 31
-2.5
  0
LINE
  5
DB
100
AcDbEntity
  8
IPE 100 $S235
 62
   0
100
AcDbLine
 10
6.0
 20
10.0
 30
-4.0
 11
6.0
 21
15.0
 31
-4.0
  0
LINE
  5
DC
100
AcDbEntity
  8
IPE 100 $S235
 62
   0
100
AcDbLine
 10
12.0
 20
10.0
 30
-3.0
 11
12.0
 21
15.0
 31
-3.0
  0
LINE
  5
DD
100
AcDbEntity
  8
IPE 100 $S235
 62
   0
100
AcDbLine
 10
0.0
 20
10.0
 30
-3.0
 11
0.0
 21
15.0
 31
-3.0
  0
LINE
  5
DE
100
AcDbEntity
  8
IPE 100 $S235
 62
   0
100
AcDbLine
 10
0.0
 20
15.0
 30
-2.5
 11
0.0
 21
20.0
 31
-2.5
  0
LINE
  5
DF
100
AcDbEntity
  8
IPE 100 $S235
 62
   0
100
AcDbLine
 10
12.0
 20
15.0
 30
-2.5
 11
12.0
 21
20.0
 31
-2.5
  0
LINE
  5
E0
100
AcDbEntity
  8
IPE 100 $S235
 62
   0
100
AcDbLine
 10
6.0
 20
15.0
 30
-4.0
 11
6.0
 21
20.0
 31
-4.0
  0
LINE
  5
E1
100
AcDbEntity
  8
IPE 100 $S235
 62
   0
100
AcDbLine
 10
12.0
 20
15.0
 30
-3.0
 11
12.0
 21
20.0
 31
-3.0
  0
LINE
  5
E2
100
AcDbEntity
  8
IPE 100 $S235
 62
   0
100
AcDbLine
 10
0.0
 20
15.0
 30
-3.0
 11
0.0
 21
20.0
 31
-3.0
  0
LINE
  5
E3
100
AcDbEntity
  8
L 20x20x3 $S235
 62
   0
100
AcDbLine
 10
12.0
 20
0.0
 30
0.0
 11
12.0
 21
5.0
 31
-3.00000000000000044409
  0
LINE
  5
E4
100
AcDbEntity
  8
L 20x20x3 $S235
 62
   0
100
AcDbLine
 10
12.0
 20
0.0
 30
-3.0
 11
12.0
 21
5.0
 31
0.00000000000000044409
  0
LINE
  5
E5
100
AcDbEntity
  8
L 20x20x3 $S235
 62
   0
100
AcDbLine
 10
12.0
 20
0.0
 30
-3.0
 11
5.99999999999999911182
 21
5.00000000000000088818
 31
-4.0
  0
LINE
  5
E6
100
AcDbEntity
  8
L 20x20x3 $S235
 62
   0
100
AcDbLine
 10
12.0
 20
5.0
 30
-3.0
 11
5.99999999999999911182
 21
-0.00000000000000088818
 31
-4.0
  0
LINE
  5
E7
100
AcDbEntity
  8
L 20x20x3 $S235
 62
   0
100
AcDbLine
 10
6.0
 20
5.0
 30
-4.0
 11
-0.00000000000000088818
 21
-0.00000000000000088818
 31
-3.0
  0
LINE
  5
E8
100
AcDbEntity
  8
L 20x20x3 $S235
 62
   0
100
AcDbLine
 10
0.0
 20
0.0
 30
-2.5
 11
6.0
 21
0.0
 31
-4.0
  0
LINE
  5
E9
100
AcDbEntity
  8
L 20x20x3 $S235
 62
   0
100
AcDbLine
 10
0.0
 20
0.0
 30
0.0
 11
0.0
 21
5.0
 31
-3.00000000000000044409
  0
LINE
  5
EA
100
AcDbEntity
  8
L 20x20x3 $S235
 62
   0
100
AcDbLine
 10
0.0
 20
0.0
 30
-3.0
 11
0.0
 21
5.0
 31
0.00000000000000044409
  0
ENDSEC
  0
SECTION
  2
OBJECTS
  0
DICTIONARY
  5
5E
100
AcDbDictionary
  3
ACAD_GROUP
350
5C
  3
ACAD_MLINESTYLE
350
5D
  0
DICTIONARY
  5
5C
100
AcDbDictionary
  0
DICTIONARY
  5
5D
100
AcDbDictionary
  3
STANDARD
350
5B
  0
MLINESTYLE
  5
5B
100
AcDbMlineStyle
  2
STANDARD
 70
   0
  3

 71
   2
 49
0.5
 62
 256
 49
-0.5
 62
 256
  0
ENDSEC
  0
EOF
