<?xml version="1.0" encoding="UTF-8"?>
<!DOCTYPE svg PUBLIC "-//W3C//DTD SVG 1.1//EN" "http://www.w3.org/Graphics/SVG/1.1/DTD/svg11.dtd">
<!-- Creator: CorelDRAW X6 -->
<svg xmlns="http://www.w3.org/2000/svg" xml:space="preserve" width="290px" height="230px" version="1.1" shape-rendering="geometricPrecision" text-rendering="geometricPrecision" image-rendering="optimizeQuality" fill-rule="evenodd" clip-rule="evenodd"
viewBox="0 0 29000000 22999965"
 xmlns:xlink="http://www.w3.org/1999/xlink">
 <g id="Layer_x0020_1">
  <metadata id="CorelCorpID_0Corel-Layer"/>
  <path fill="#5A5A6E" fill-rule="nonzero" d="M19286297 14269713l0 -859180 324368 0c57005,0 100602,2806 130819,8220 42180,6973 77585,20381 106186,39997 28602,19786 51591,47395 68995,82800 17405,35376 25994,74381 25994,116986 0,72793 -23187,134589 -69789,184989 -46403,50598 -130592,75798 -252198,75798l-220394 0 0 350390 -113981 0zm113981 -451190l222010 0c73587,0 125574,-13606 156585,-40989 30785,-27411 46205,-65792 46205,-115597 0,-35801 -9014,-66614 -27213,-92211 -18198,-25596 -42207,-42576 -71801,-50796 -19191,-4989 -54595,-7597 -105987,-7597l-219799 0 0 307190zm1186554 703190c-57997,-73417 -107206,-159193 -147402,-257612 -40195,-98391 -60207,-200381 -60207,-305773 0,-93005 14995,-182013 45014,-266995 35178,-98788 89376,-197207 162595,-295200l75600 0c-47197,81212 -78605,139209 -93798,173990 -23811,53802 -42605,110013 -56211,168605 -16810,72992 -25200,146409 -25200,220195 0,187795 58393,375392 175209,562790l-75600 0zm453401 -252000l0 -363996 -331199 -495184 136799 0 169796 259993c31606,48218 61001,96407 87789,144596 26192,-44986 57996,-95386 94989,-151399l166393 -253190 132605 0 -343191 495184 0 363996 -113981 0zm417997 0l0 -119990 119991 0 0 119990c0,44193 -7796,79994 -23613,107207 -15591,27184 -40592,48387 -74778,63184l-28800 -45581c22394,-9808 38778,-24208 49181,-43002 10602,-19020 16611,-46204 17802,-81808l-59783 0zm250583 0l0 -104995 439965 -550771c31606,-38806 61200,-73021 89404,-102614l-478969 0 0 -100800 614380 0 0 100800 -482598 595984 -51590 61597 548588 0 0 100799 -679180 0zm857763 252000l-75600 0c116816,-187398 175209,-374995 175209,-562790 0,-73389 -8418,-146183 -25200,-218381 -13209,-58620 -31804,-114803 -55615,-168803 -15194,-35008 -46800,-93600 -94394,-175606l75600 0c73191,97993 127389,196412 162595,295200 29991,84982 45014,173990 45014,266995 0,105392 -20211,207382 -60604,305773 -40196,98419 -89207,184195 -147005,257612z"/>
  <path fill="#5A5A6E" fill-rule="nonzero" d="M13243289 14478570l0 -363997 -331200 -495184 136800 0 169795 259994c31606,48217 61002,96406 87789,144595 26192,-44986 57997,-95386 94989,-151398l166394 -253191 132604 0 -343190 495184 0 363997 -113981 0z"/>
  <path fill="#5A5A6E" fill-rule="nonzero" d="M19221696 9423520l0 -104995 439965 -550771c31606,-38807 61200,-73021 89404,-102614l-478969 0 0 -100800 614380 0 0 100800 -482598 595984 -51590 61596 548588 0 0 100800 -679180 0z"/>
  <path fill="#0032BE" fill-rule="nonzero" d="M7496983 19458558l0 -104995 439993 -550800c31606,-38806 61200,-72992 89405,-102585l-478998 0 0 -100800 614380 0 0 100800 -482598 595984 -51590 61597 548588 0 0 100799 -679180 0z"/>
  <path fill="#00A046" fill-rule="nonzero" d="M21448280 5523702l0 -363997 -331199 -495184 136800 0 169795 259993c31606,48189 61001,96378 87789,144596 26220,-45015 57996,-95415 95017,-151399l166394 -253190 132604 0 -343219 495184 0 363997 -113981 0z"/>
  <g>
   <path fill="#0032BE" fill-rule="nonzero" d="M7752412 17570827l0 -12462486 100007 0 0 12462486 -100007 0zm245396 -260362l-195392 697833 -195393 -697833 390785 0z"/>
  </g>
  <g>
   <path fill="#00A046" fill-rule="nonzero" d="M20860545 5108426l-775275 230598 0 -461366 775275 230768zm-13058129 -50088l12315141 0 0 100006 -12315141 0 0 -100006z"/>
  </g>
  <polyline fill="none" stroke="#5A5A6E" stroke-width="150009" stroke-dasharray="150009.383651 450028.150952" points="7802416,13026835 18706527,13026835 18706527,5108341 "/>
  <ellipse fill="#C83200" cx="18706520" cy="13026848" rx="249999" ry="249998"/>
  <ellipse fill="#C83200" cx="7802416" cy="5108327" rx="150002" ry="150011"/>
  <path fill="#FADC00" fill-opacity="0.701961" d="M7802416 4858325c138075,0 249987,111912 249987,249988 0,138075 -111912,250015 -249987,250015 -138076,0 -249988,-111940 -249988,-250015 0,-138076 111912,-249988 249988,-249988z"/>
 </g>
</svg>
