<?xml version="1.0" encoding="UTF-8"?>
<!DOCTYPE svg PUBLIC "-//W3C//DTD SVG 1.1//EN" "http://www.w3.org/Graphics/SVG/1.1/DTD/svg11.dtd">
<!-- Creator: CorelDRAW X6 -->
<svg xmlns="http://www.w3.org/2000/svg" xml:space="preserve" width="290px" height="481px" version="1.1" shape-rendering="geometricPrecision" text-rendering="geometricPrecision" image-rendering="optimizeQuality" fill-rule="evenodd" clip-rule="evenodd"
viewBox="0 0 29000000 48099948"
 xmlns:xlink="http://www.w3.org/1999/xlink">
 <g id="Layer_x0020_1">
  <metadata id="CorelCorpID_0Corel-Layer"/>
  <line fill="none" stroke="gray" stroke-width="100006" stroke-dasharray="200012.511534 500031.278835" x1="14500000" y1="15672012" x2="14500000" y2= "32997019" />
  <path fill="none" stroke="#2B2A29" stroke-width="21543.3" d="M21037994 28867367c-57,340 -142,680 -198,1020"/>
  <line fill="none" stroke="red" stroke-width="21486.6" x1="21041197" y1="28868076" x2="21040914" y2= "28869039" />
  <g>
   <path fill="#5A5A6E" fill-rule="nonzero" d="M21948992 25377239l783949 -255 -391748 712715 -392201 -712460zm466951 12387l28 49266 -149953 57 -28 -49266 149953 -57z"/>
  </g>
  <g>
   <path fill="#5A5A6E" fill-rule="nonzero" d="M17926348 21024671l315241 -717930 494957 645505 -810198 72425zm199389 -422532l44986 19757 -60321 137310 -44986 -19757 60321 -137310z"/>
  </g>
  <line fill="none" stroke="#5A5A6E" stroke-width="199984" x1="22341080" y1="28989682" x2="22341080" y2= "22489700" />
  <polyline fill="none" stroke="#5A5A6E" stroke-width="199984" points="22341080,22489700 14491071,19133283 6641062,22489700 "/>
  <circle fill="#C83200" cx="22341087" cy="22489688" r="249995"/>
  <circle fill="#C83200" cx="22341087" cy="28989670" r="249995"/>
  <path fill="none" stroke="#2B2A29" stroke-width="21543.3" d="M7944148 28867367c57,340 142,680 198,1020"/>
  <line fill="none" stroke="red" stroke-width="21486.6" x1="7940945" y1="28868076" x2="7941228" y2= "28869039" />
  <g>
   <path fill="#5A5A6E" fill-rule="nonzero" d="M7032923 26102370l-783949 -255 392201 -712460 391748 712715zm-466951 -12699l28 -49266 149953 57 -28 49266 -149953 -57z"/>
  </g>
  <g>
   <path fill="#5A5A6E" fill-rule="nonzero" d="M10391608 21316328l-315241 -717930 810198 72425 -494957 645505zm-176173 -432708l44986 -19757 60321 137310 -44986 19757 -60321 -137310z"/>
  </g>
  <line fill="none" stroke="#5A5A6E" stroke-width="199984" x1="6641062" y1="28989682" x2="6641062" y2= "22489700" />
  <circle fill="#C83200" cx="6641055" cy="22489688" r="249995"/>
  <circle fill="#C83200" cx="6641055" cy="28989670" r="249995"/>
  <line fill="none" stroke="#666666" stroke-width="100006" stroke-dasharray="200012.511534 500031.278835" x1="14586627" y1="24175152" x2="14413373" y2= "24175152" />
  <line fill="none" stroke="gray" stroke-width="100006" stroke-dasharray="200012.511534 500031.278835" x1="25101570" y1="24175152" x2="3898430" y2= "24175152" />
 </g>
</svg>
